<?xml version="1.0" standalone="no"?>
<!DOCTYPE svg PUBLIC "-//W3C//DTD SVG 1.1//EN" "http://www.w3.org/Graphics/SVG/1.1/DTD/svg11.dtd" >
<svg xmlns="http://www.w3.org/2000/svg" xmlns:xlink="http://www.w3.org/1999/xlink" version="1.1">
<metadata></metadata>
<defs>
<font id="leon_sanslight" horiz-adv-x="1323" >
<font-face units-per-em="2048" ascent="1638" descent="-410" />
<missing-glyph horiz-adv-x="688" />
<glyph horiz-adv-x="0" />
<glyph horiz-adv-x="0" />
<glyph unicode="&#xd;" horiz-adv-x="512" />
<glyph unicode=" "  horiz-adv-x="688" />
<glyph unicode="&#x09;" horiz-adv-x="688" />
<glyph unicode="&#xa0;" horiz-adv-x="688" />
<glyph unicode="!" horiz-adv-x="520" d="M180 92q0 32 24 56t56 24t56 -24t24 -56q0 -34 -24 -57q-25 -23 -56 -23t-56 23q-24 23 -24 57zM209 434v1114h102v-1114h-102z" />
<glyph unicode="&#x22;" horiz-adv-x="698" d="M164 1223v344h102v-344h-102zM432 1223v344h103v-344h-103z" />
<glyph unicode="#" horiz-adv-x="1525" d="M88 498v104h287l69 373h-254v102h273l88 477l102 -18l-86 -459h500l90 477l100 -18l-86 -459h269v-102h-287l-70 -373h252v-104h-270l-90 -478l-101 19l84 459h-499l-88 -478l-101 19l84 459h-266zM479 602h500l70 373h-500z" />
<glyph unicode="$" horiz-adv-x="1202" d="M94 301l92 45q50 -103 147 -161q96 -57 208 -68v659q-188 50 -283 133q-127 105 -121 267q1 84 34 155q32 70 87 119q56 50 127 78q74 29 154 35v131h104v-129q133 -11 240 -72q106 -61 157 -162l-92 -47q-23 45 -54 73q-36 33 -75 53q-42 22 -86 35q-45 13 -90 15v-604 q68 -18 123 -37q63 -21 116 -51q51 -29 100 -74q49 -46 77 -102q37 -77 35 -170q0 -99 -37 -172q-38 -75 -100 -125q-66 -53 -143 -79q-85 -28 -171 -34v-129h-104v129q-71 5 -137 27q-68 23 -124 59q-62 40 -106 88q-49 53 -78 115zM240 1174q-2 -113 84 -187 q72 -60 217 -104v577q-64 -8 -116 -28q-54 -21 -95 -56t-65 -85q-23 -48 -25 -117zM643 117q67 6 128 25q62 19 112 57t79 92t29 131q0 78 -30 131q-31 54 -80 91q-54 41 -112 63q-73 28 -126 43v-633z" />
<glyph unicode="%" horiz-adv-x="1837" d="M84 1221q0 69 28 134q26 61 74 109q49 49 110 75q65 28 134 28t134 -28q61 -26 110 -75q50 -49 75 -109q27 -63 27 -134q0 -72 -27 -135q-25 -59 -75 -109q-49 -49 -110 -75q-65 -28 -134 -28t-134 28q-61 26 -110 75q-48 48 -74 109q-28 65 -28 135zM188 1221 q0 -49 20 -94q20 -43 52 -76q34 -33 77 -53q42 -19 93 -19q53 0 95 19q44 20 77 53q32 33 52 76q20 45 20 94q0 48 -20 94t-52 78t-77 52q-42 19 -95 19q-51 0 -93 -19q-45 -20 -77 -52t-52 -78t-20 -94zM387 61l975 1508l88 -58l-975 -1505zM1061 358q0 70 28 135 q26 61 74 109q49 49 110 75q65 28 134 28t134 -28q61 -26 110 -75q48 -48 74 -109q28 -65 28 -135q0 -69 -28 -134q-26 -61 -74 -109q-49 -49 -110 -75q-65 -28 -134 -28t-134 28q-61 26 -110 75q-48 48 -74 109q-28 65 -28 134zM1163 358q0 -48 20 -94t52 -78t77 -52 q42 -19 95 -19q51 0 93 19q45 20 77 52t52 78t20 94q0 49 -20 94q-19 44 -52 76q-33 34 -77 53q-42 19 -93 19q-53 0 -95 -19q-44 -19 -77 -53q-33 -33 -52 -76q-20 -45 -20 -94z" />
<glyph unicode="&#x26;" horiz-adv-x="1306" d="M90 379q1 48 19 94q15 40 41 82q24 39 56 74t64 67l4 4q5 2 47 36q37 31 105 79l-109 117l-1 2l-5 5l-7 7q-5 5 -25 33q-15 21 -30 48q-18 32 -28 60q-32 88 -20 166q12 98 90 187l25 25q20 19 54 42q34 22 80 40q47 18 103 18q66 0 132 -22q63 -21 112 -61 q47 -38 83 -98q33 -54 44 -127q24 -147 -97 -280q-47 -53 -106 -93q-42 -29 -113 -73q-4 -3 -12 -7t-12 -7l377 -406q57 70 101 159q46 94 77 173l96 -37q-67 -180 -164 -317q-15 -24 -19 -29q-17 -22 -20 -27l205 -221l-74 -69l-198 213q-42 -43 -94 -86q-54 -44 -107 -72 q-61 -32 -119 -49q-65 -19 -125 -19q-75 0 -152 27q-79 28 -139 76q-62 50 -100 116q-39 67 -39 150zM195 377q-2 -85 73 -160l2 -4q3 0 19 -16q18 -18 49 -35q83 -49 180 -49q55 0 106 16q48 15 101 44q43 23 92 64q47 39 78 74l-397 428q-85 -60 -105 -76 q-13 -10 -24.5 -19t-18 -14.5t-8.5 -6.5l-6 -7q-27 -24 -50 -48q-23 -25 -45 -58q-19 -29 -33 -65q-13 -33 -13 -68zM303 1241q-8 -56 12 -115q10 -26 24 -49q4 -6 11.5 -19.5t11.5 -19.5q21 -25 29 -34l121 -130q3 2 9.5 6.5t11.5 6.5q8 4 22 14q52 31 106 69t91 78t59 90 q21 47 10 103q-17 105 -90 162t-178 57q-42 0 -75 -13q-31 -12 -57 -30q-24 -16 -37 -31l-13 -14h-2v-2q-59 -65 -66 -129z" />
<glyph unicode="'" horiz-adv-x="428" d="M162 1223v344h104v-344h-104z" />
<glyph unicode="(" horiz-adv-x="688" d="M109 774q0 262 116 461q118 203 344 332l52 -90q-204 -118 -306 -293q-102 -176 -102 -410q0 -224 108 -396q108 -173 300 -284l-52 -88q-216 124 -339 321q-121 194 -121 447z" />
<glyph unicode=")" horiz-adv-x="688" d="M68 94q194 112 301 283q108 173 108 397q0 236 -103 411t-306 292l51 90q226 -129 344 -332q117 -201 117 -461q0 -253 -122 -449q-122 -197 -339 -319z" />
<glyph unicode="*" horiz-adv-x="1048" d="M102 606l320 185l-320 184l52 88l319 -182v366h102v-366l320 182l51 -88l-319 -184l319 -185l-51 -88l-320 182v-366h-102v366l-319 -182z" />
<glyph unicode="+" d="M123 739v103h487v487h103v-487h487v-103h-487v-487h-103v487h-487z" />
<glyph unicode="," horiz-adv-x="512" d="M172 -254l43 406l102 -11l-43 -405z" />
<glyph unicode="-" horiz-adv-x="1138" d="M164 737v103h811v-103h-811z" />
<glyph unicode="." horiz-adv-x="544" d="M164 92q0 33 22 56q22 24 58 24q32 0 56 -24t24 -56q0 -34 -24 -57q-25 -23 -56 -23q-35 0 -58 23q-22 22 -22 57z" />
<glyph unicode="/" horiz-adv-x="804" d="M92 51l524 1516l97 -33l-525 -1518z" />
<glyph unicode="0" horiz-adv-x="1454" d="M131 791q0 128 38 266q38 137 114 251q78 116 186 186q113 73 258 73q128 0 240 -65q109 -63 186 -169q83 -110 127 -250q43 -138 43 -292q0 -128 -38 -268q-37 -138 -114 -252q-77 -115 -187 -186q-113 -73 -257 -73q-131 0 -240 65t-186 169q-83 110 -127 250 q-43 138 -43 295zM233 791q0 -140 39 -263q38 -121 111 -221q73 -93 159 -142q88 -50 185 -50t185 50q86 49 159 142q73 100 111 221q39 123 39 263q0 137 -39 260q-38 121 -111 221q-73 93 -159 142q-88 50 -185 50t-185 -50q-86 -49 -159 -142q-73 -100 -111 -221 q-39 -123 -39 -260z" />
<glyph unicode="1" horiz-adv-x="714" d="M43 1298l350 250h82v-1519h-104v1376l-269 -191z" />
<glyph unicode="2" horiz-adv-x="1185" d="M121 29v73l4 9q1 4 17 33q12 21 60 86q48 64 126 151q93 103 217 223q10 10 43 44t56 57q57 57 122 135q56 67 104 144q46 74 52 130q0 2 1 3t1 3q12 84 -14 142q-25 57 -56 92q-56 59 -129 85q-71 25 -154 25q-113 -11 -204 -70q-93 -61 -123 -175l-101 28 q43 145 159 228q114 81 263 92q107 0 200 -33q92 -33 165 -113q60 -66 84 -146q25 -83 10 -171v-4q-11 -77 -56 -154q-44 -76 -108 -155t-127 -144q-66 -67 -117 -117q-135 -131 -212 -218q-72 -82 -113 -136q-16 -18 -19 -23l-7 -10.5t-7 -11.5h805v-102h-942z" />
<glyph unicode="3" horiz-adv-x="1214" d="M104 330l99 28q17 -59 59 -107q39 -45 95 -76q54 -30 116 -45q61 -15 121 -15q85 0 157 24t126 67t85 99t31 121q0 66 -31 122q-30 54 -85 98q-54 43 -126 67t-157 24h-59v105h59q65 0 131 21q64 20 118 62q53 41 84 98q31 58 31 130q0 64 -28 120q-27 54 -78 99 q-50 44 -116 68t-142 24q-58 0 -113 -15q-53 -14 -102 -46q-47 -30 -83 -74q-37 -44 -54 -98l-99 33q23 68 70 128q43 55 105 95q56 36 132 59q70 21 144 21q88 0 172 -30q82 -29 149 -84q66 -54 106 -130t40 -170q0 -116 -65 -213q-64 -96 -169 -145q54 -23 105 -62 q47 -36 86 -84q37 -46 58 -103q22 -60 22 -120q0 -99 -46 -175q-48 -79 -118 -130q-75 -55 -162 -81q-93 -28 -178 -28q-76 0 -154 21q-82 22 -144 60q-69 42 -118 100q-52 61 -74 137z" />
<glyph unicode="4" horiz-adv-x="1181" d="M57 332v80l717 1136h92v-1112h244v-104h-244v-303h-102v303h-707zM195 436h569v901z" />
<glyph unicode="5" horiz-adv-x="1148" d="M98 289l97 37q40 -97 131 -155q88 -56 213 -56q85 0 154 31q72 32 124 87q54 57 85 132q33 79 34 165q4 90 -28 175q-31 81 -91 141q-61 58 -127 77t-147 19q-102 -11 -188 -53q-90 -44 -142 -129l-16 -23h-95l41 811h811v-102h-712l-27 -528q68 58 149 89q79 31 171 37 q8 0 18 2q5 1 18 1q93 0 172 -33q83 -34 144 -94q77 -73 117 -177q39 -101 34 -217q-1 -101 -40 -198q-37 -94 -104 -164q-68 -71 -157 -111q-91 -41 -198 -41q-73 0 -140 18q-70 19 -125 52q-56 34 -102 86q-45 51 -74 121z" />
<glyph unicode="6" horiz-adv-x="1220" d="M137 766q0 97 10 187q11 98 36 185q25 88 68 167q42 79 104 136q61 57 148 92q84 34 197 34q136 0 233 -69t157 -187l-93 -47q-52 104 -125 151t-188 47q-138 -5 -224 -70t-136 -168q-49 -101 -67 -223q-17 -115 -17 -233q65 97 168 158q100 59 227 59q98 0 185 -39 q90 -40 152 -104t101 -155q37 -87 37 -189q0 -100 -37 -187q-38 -89 -101 -154q-65 -67 -151 -106q-85 -39 -186 -39q-87 0 -163 30q-77 30 -139 82q-61 51 -106 125q-42 69 -59 159l-5 32q-7 42 -11 77q-7 56 -11 112t-4 137zM262 498l3 -36q2 -24 5 -36q12 -69 46 -125 q36 -59 82 -98q48 -41 109 -65q57 -23 128 -23q77 0 145 30q67 30 118 84q50 53 79 123t29 146q0 78 -29 150q-28 70 -80 123q-49 51 -118 82q-66 30 -144 30q-76 0 -145 -30t-118 -82q-50 -53 -80 -123t-30 -150z" />
<glyph unicode="7" horiz-adv-x="1046" d="M53 1446v102h940v-61q-96 -247 -284 -739q-152 -399 -285 -740l-96 39l538 1399h-813z" />
<glyph unicode="8" horiz-adv-x="1269" d="M131 426q0 60 22 120q21 56 57 103q37 47 85 84q52 40 104 62q-102 51 -167 146q-64 94 -64 212q0 94 40 170q41 78 105 130q66 54 150 84t172 30t172 -30q82 -29 149 -84q66 -54 106 -130t40 -170q0 -114 -65 -211q-64 -96 -167 -147q54 -23 105 -62q48 -37 85 -84 q36 -47 57 -103q22 -60 22 -120q0 -99 -46 -175q-48 -79 -118 -130q-75 -55 -162 -81q-93 -28 -178 -28t-178 28q-87 26 -162 81q-70 51 -118 130q-46 76 -46 175zM236 426q0 -64 31 -120q29 -53 85 -99q53 -44 127 -68q73 -24 156 -24q85 0 157 24q74 25 126 68 q54 45 84 99q32 58 32 120q0 64 -32 122q-31 55 -84 98q-54 43 -126 67t-157 24q-83 0 -156 -24t-127 -67q-55 -44 -85 -98q-31 -56 -31 -122zM270 1153q0 -63 29 -121q29 -57 78 -99q51 -43 116 -67q66 -24 142 -24t142 24q65 24 116 67q49 42 78 99q28 56 28 121 q0 66 -28 122q-28 55 -78 98q-51 43 -116 67q-66 24 -142 24t-142 -24q-65 -24 -116 -67q-50 -43 -78 -98q-29 -58 -29 -122z" />
<glyph unicode="9" horiz-adv-x="1218" d="M111 1081q0 102 37 189q36 86 103 154q67 69 150 105q87 38 185 38q87 0 163 -30q77 -30 139 -82q59 -49 105 -125q43 -71 60 -159l5 -32q7 -42 11 -77q5 -37 10 -112q4 -56 4 -137q0 -142 -23 -276q-24 -140 -85 -253q-62 -115 -166 -189q-106 -76 -268 -83 q-147 0 -245 63t-165 193l90 47q51 -103 126 -151q73 -47 190 -47q141 5 225 71q86 68 134 168t66 222q17 118 19 233q-65 -98 -169 -158q-102 -59 -226 -59q-100 0 -185 39q-87 40 -150 104q-66 67 -103 155q-37 87 -37 189zM213 1081q0 -79 29 -149q28 -69 80 -122 q52 -54 118 -83q70 -31 146 -31t144 31q67 30 118 83q52 53 80 122q28 68 28 149q0 37 -6 70v2q-12 69 -46 125q-36 59 -82 98q-49 41 -108 65q-58 23 -128 23q-81 0 -146 -29q-67 -30 -118 -82q-52 -53 -80 -122q-29 -70 -29 -150z" />
<glyph unicode=":" horiz-adv-x="544" d="M164 92q0 33 22 56q22 24 58 24q32 0 56 -24t24 -56q0 -34 -24 -57q-25 -23 -56 -23q-35 0 -58 23q-22 22 -22 57zM164 750q0 33 22 56t58 23q33 0 56 -23q24 -24 24 -56q0 -33 -24 -57q-23 -23 -56 -23q-36 0 -58 23t-22 57z" />
<glyph unicode=";" horiz-adv-x="512" d="M172 -254l43 406l102 -11l-43 -405zM186 750q0 31 23 56q22 23 57 23q34 0 57 -23t23 -56q0 -34 -23 -57t-57 -23q-35 0 -57 23q-23 25 -23 57z" />
<glyph unicode="&#x3c;" horiz-adv-x="722" d="M94 791l400 768l92 -50l-375 -718l375 -719l-92 -49z" />
<glyph unicode="=" horiz-adv-x="1273" d="M172 553v104h930v-104h-930zM172 924v102h930v-102h-930z" />
<glyph unicode="&#x3e;" horiz-adv-x="722" d="M137 72l375 719l-375 718l92 50l400 -768l-400 -768z" />
<glyph unicode="?" horiz-adv-x="1052" d="M84 1165q0 2 3 20q2 13 11 45q4 16 24 63q13 32 38 73q67 108 159 152q95 45 218 45q78 -1 158 -27q72 -23 133 -73q59 -49 93 -116q33 -66 33 -161q0 -71 -17 -123q-18 -55 -48 -105q-27 -45 -72 -93q-34 -36 -88 -87q-46 -44 -69 -67q-29 -29 -59 -73q-25 -36 -42 -82 q-16 -42 -16 -95h-105q0 59 19 116q17 51 49 102q28 45 71 91q48 51 82 82q59 57 86 86q42 45 74 109q34 66 33 141t-39 135q-46 78 -128 108q-78 29 -167 29q-67 0 -124 -24q-53 -22 -99 -67q-45 -44 -71 -98q-28 -59 -38 -120zM424 92q0 33 22 56q22 24 58 24q32 0 55 -24 q23 -25 23 -56q0 -34 -23 -57t-55 -23q-35 0 -58 23q-22 22 -22 57z" />
<glyph unicode="@" horiz-adv-x="1697" d="M125 692q-6 93 7 179q14 92 42 176q89 249 273 384q185 136 450 136q106 -1 195 -25q86 -22 153 -54q64 -30 117 -70q48 -36 82 -75q81 -87 124 -194q44 -109 44 -225q0 -92 -22 -171q-21 -74 -48 -127q-26 -51 -51 -82q-20 -25 -33 -38l-24 -24q-15 -15 -48 -36 q-30 -19 -65 -33q-40 -16 -80 -16q-14 0 -22 1q-16 2 -23 3q-99 22 -127 121q-54 -54 -115 -81q-62 -27 -139 -27q-91 0 -167 38q-75 38 -120 123q-23 44 -34 108t-7 120v2q6 73 37 142q30 65 82 116q50 49 118 78q65 28 142 28q76 0 144 -25q70 -26 116 -87l13 92l102 -16 l-53 -355v-4l-25 -160q0 -20 1 -32q2 -19 6 -35t16 -29q11 -13 31 -14q10 -2 24 -2q31 0 54 11q29 14 44 26q4 3 15 11.5t16 13.5l12 11l2 3v2q32 32 55 72q24 43 39 88q14 42 22 94q7 43 7 90q0 163 -90 289t-237 192q-71 29 -149 44q-80 15 -154 15q-112 0 -204 -32 q-95 -33 -173 -93q-79 -61 -135 -142q-60 -87 -93 -183q-25 -72 -38 -158q-12 -77 -7 -158q6 -130 64 -237q57 -105 148 -178q93 -74 207 -116q117 -43 239 -50h2h16q14 -2 43 -2q36 0 85 3q45 3 108 11q44 6 117 24q57 14 118 40l41 -95q-68 -30 -133 -48q-57 -16 -131 -24 q-77 -9 -133 -10q-90 -2 -139 -2q-140 7 -277 58q-134 50 -236 137q-104 89 -168 210q-66 124 -73 273zM590 795q-4 -44 4 -93q7 -40 27 -79q28 -59 79 -83t115 -24q68 0 118 28q49 27 80 69t48 90q16 47 24 88v2q0 2 0.5 5.5t1 10t0.5 11.5q2 24 -1 50q-3 29 -12 62 q-9 32 -30 61q-34 45 -80 59q-48 15 -100 15q-54 0 -103 -23t-85 -59q-38 -38 -60 -86q-21 -47 -26 -104z" />
<glyph unicode="A" horiz-adv-x="1347" d="M23 63l610 1485h82l610 -1485l-96 -38l-191 464h-729l-190 -464zM352 592h643l-321 784z" />
<glyph unicode="B" horiz-adv-x="1306" d="M242 29v1519h520q80 0 147 -29q71 -31 122 -82t82 -122q30 -69 30 -150q0 -103 -50 -188q-49 -83 -135 -135q104 -60 167 -158q63 -99 63 -221q0 -89 -34 -167t-91 -138q-58 -61 -135 -95t-166 -34h-520zM344 131h418q68 0 126 27q61 28 102 72q45 48 70 107t25 126 q0 69 -25 126t-70 102t-102 70t-126 25h-418v-655zM344 887h418q57 0 108 21q49 20 89 60t60 89q21 51 21 108q0 61 -21 110q-20 48 -60 89q-37 39 -89 60q-53 22 -108 22h-418v-559z" />
<glyph unicode="C" horiz-adv-x="1474" d="M123 788q0 166 61 306t167 246t247 166q143 61 301 61q273 0 487 -172l-63 -80q-87 70 -199 110q-108 39 -225 39q-138 0 -262 -53q-122 -52 -214 -144t-144 -214q-54 -127 -54 -262q0 -136 54 -263q53 -124 144 -215q94 -94 214 -145q124 -53 262 -53q117 0 225 39 q112 40 199 110l63 -80q-214 -172 -487 -172q-161 0 -303 62t-247 167q-107 107 -166 246q-60 141 -60 301z" />
<glyph unicode="D" horiz-adv-x="1550" d="M240 29v1519h436q158 0 294 -59q138 -60 240 -162q103 -103 163 -240q61 -139 61 -294q0 -153 -61 -295q-59 -138 -164 -244q-103 -105 -240 -165t-293 -60h-436zM344 133h332q134 0 254 53q116 51 207 144q88 89 139 210q51 120 51 253q0 135 -51 253q-50 116 -140 206 q-91 91 -207 141q-118 51 -253 51h-332v-1311z" />
<glyph unicode="E" horiz-adv-x="1193" d="M242 29v1519h825v-102h-723v-559h670v-101h-670v-655h723v-102h-825z" />
<glyph unicode="F" horiz-adv-x="1146" d="M240 29v1519h827v-102h-725v-559h672v-103h-672v-755h-102z" />
<glyph unicode="G" horiz-adv-x="1748" d="M123 791q0 163 61 303t167 246t247 166q143 61 301 61q136 0 259 -43q122 -43 228 -129l-63 -80q-87 70 -199 110q-108 39 -225 39q-138 0 -262 -53q-122 -52 -214 -144t-144 -214q-54 -127 -54 -262q0 -136 54 -263q53 -124 144 -215q94 -94 214 -145q124 -53 262 -53 q135 0 248 48q112 48 196 132q86 86 136 198q50 113 61 244h-553v105h658v-51q0 -160 -56 -302t-154 -246q-99 -105 -236 -168t-300 -63q-160 0 -304 62q-142 61 -247 168t-165 247q-60 141 -60 302z" />
<glyph unicode="H" horiz-adv-x="1517" d="M240 29v1519h104l-2 -659h834v659h102v-1519h-102v759h-834v-759h-102z" />
<glyph unicode="I" horiz-adv-x="581" d="M240 29v1519h102v-1519h-102z" />
<glyph unicode="J" horiz-adv-x="1107" d="M94 221l92 49q45 -86 127 -120q84 -35 174 -35q65 0 115 23q53 24 93 64t64 94q23 52 23 116l2 1136h103v-1136q0 -81 -32 -156q-32 -74 -86 -127q-55 -54 -127 -85q-73 -32 -155 -32q-133 0 -237 55t-156 154z" />
<glyph unicode="K" horiz-adv-x="1263" d="M240 29v1519h102v-598l776 606l64 -81l-815 -637l899 -732l-66 -79l-858 698v-696h-102z" />
<glyph unicode="L" horiz-adv-x="1140" d="M240 29v1519h102v-1417h741v-102h-843z" />
<glyph unicode="M" horiz-adv-x="1916" d="M242 29v1519h96l620 -1276l621 1276h96v-1519h-102v1269l-576 -1183h-75l-576 1183l-2 -1269h-102z" />
<glyph unicode="N" horiz-adv-x="1593" d="M242 29v1519h90l917 -1319v1319h103v-1517h-90l-918 1319v-1321h-102z" />
<glyph unicode="O" horiz-adv-x="1798" d="M123 791q0 163 61 303t167 246t247 166q143 61 301 61q163 0 305 -62q140 -61 246 -167q105 -105 165 -246t60 -301q0 -164 -61 -305t-167 -247t-247 -166q-143 -61 -301 -61q-160 0 -304 62q-142 61 -247 168t-165 247q-60 141 -60 302zM225 791q0 -136 54 -263 q53 -124 144 -215q94 -94 214 -145q124 -53 262 -53t262 53q120 51 214 145q93 93 145 215q53 124 53 263q0 138 -53 262q-51 120 -145 214q-92 92 -214 144q-124 53 -262 53t-262 -53q-122 -52 -214 -144t-144 -214q-54 -127 -54 -262z" />
<glyph unicode="P" horiz-adv-x="1269" d="M242 29v1519h524q89 0 166 -34q79 -35 135 -91t91 -135q34 -77 34 -166q0 -88 -33 -166t-91 -136t-135 -91t-167 -33h-422v-667h-102zM344 799h422q69 0 126 25t102 70q46 46 69 102q24 58 24 126q0 66 -25 125q-26 61 -69 104q-44 44 -101 69q-60 26 -126 26h-422v-647z " />
<glyph unicode="Q" horiz-adv-x="1800" d="M123 788q0 166 61 306t167 246t248 166q145 61 302 61q161 0 303 -62q143 -62 247 -168q107 -109 166 -247q60 -141 60 -302q0 -140 -50 -273q-49 -131 -142 -239l203 -200l-74 -74l-203 203q-106 -95 -237 -144q-132 -49 -275 -49q-161 0 -303 62q-143 62 -247 168 q-108 109 -166 246q-60 141 -60 300zM225 788q0 -135 54 -262q51 -120 145 -214q91 -91 215 -144t262 -53q124 0 235 42t203 122l-301 299l74 73l299 -301q79 91 122 204q42 111 42 234q0 139 -53 263q-52 122 -145 215q-94 94 -214 145q-124 53 -262 53t-262 -53 q-122 -52 -215 -145t-145 -215q-54 -127 -54 -263z" />
<glyph unicode="R" horiz-adv-x="1413" d="M240 29v1519h612q89 0 166 -34q79 -35 135 -91t91 -135q34 -77 34 -166q0 -75 -26 -145t-70 -126q-43 -54 -109 -95q-63 -39 -137 -54l352 -628l-90 -51l-377 673h-479v-667h-102zM342 799h510q69 0 126 25t102 70t70 102q26 60 26 126t-26 126q-26 58 -70 103 q-44 43 -102 69q-60 26 -126 26h-510v-647z" />
<glyph unicode="S" horiz-adv-x="1247" d="M121 301l92 45q55 -112 165 -172q108 -59 232 -59q77 0 147 16q75 17 131 53q58 37 94 96t36 142q0 85 -38 144q-38 60 -97 98q-57 37 -132 62q-62 21 -143 40q-215 50 -323 143q-121 99 -121 255v12q1 98 41 172q38 72 102 122q61 48 148 73q84 24 174 24q71 0 141 -17 q65 -16 124 -47q51 -27 101 -75q44 -43 72 -97l-92 -47q-21 46 -60 81q-38 34 -87 55t-100 33q-48 11 -99 11q-71 0 -134 -16q-67 -17 -115 -52q-52 -38 -81 -90q-33 -59 -33 -136q0 -109 84 -181q88 -76 281 -123q91 -22 180 -54q85 -30 157 -82q66 -47 111 -125 q43 -74 43 -183q-1 -106 -46 -186q-43 -77 -114 -127q-69 -48 -163 -73q-91 -24 -189 -24q-71 0 -149 19q-75 18 -138 55q-66 38 -117 91q-51 52 -85 124z" />
<glyph unicode="T" horiz-adv-x="1097" d="M49 1446v102h1000v-102h-449v-1417h-102v1417h-449z" />
<glyph unicode="U" horiz-adv-x="1552" d="M221 567v981h103v-981q0 -96 35 -176t98 -143q61 -61 143 -97t176 -36t176 36q83 36 144 97t97 143q36 83 36 176v981h102v-981q0 -115 -43 -216q-43 -102 -119 -176q-79 -77 -177 -119q-103 -44 -216 -44t-216 44q-99 42 -176 119t-119 176q-44 103 -44 216z" />
<glyph unicode="V" horiz-adv-x="1341" d="M63 1526l97 35l512 -1350l510 1350l96 -35l-565 -1497h-84z" />
<glyph unicode="W" horiz-adv-x="1843" d="M63 1534l101 25l323 -1305l390 1294h90l389 -1294l323 1305l101 -25l-373 -1505h-90l-395 1312l-396 -1312h-90z" />
<glyph unicode="X" horiz-adv-x="1310" d="M51 82l541 737l-500 680l84 62l479 -656l480 656l84 -62l-500 -680l541 -737l-82 -62l-523 711l-522 -711z" />
<glyph unicode="Y" horiz-adv-x="1372" d="M84 1501l84 60l518 -725l518 725l84 -60l-551 -770v-702h-102v702z" />
<glyph unicode="Z" horiz-adv-x="1175" d="M70 29v77l868 1340h-825v102h964v-80l-868 -1337h889v-102h-1028z" />
<glyph unicode="[" horiz-adv-x="634" d="M225 29v1519h336v-102h-233v-1315h233v-102h-336z" />
<glyph unicode="\" horiz-adv-x="1830" d="M51 741v103h176l-170 688l101 24l176 -712h325l211 704h91l210 -704h326l176 712l101 -24l-170 -688h176v-103h-203l-176 -712h-90l-215 712h-361l-215 -712h-90l-176 712h-203zM358 741l121 -489l148 489h-269zM766 844h299l-150 493zM1204 741l146 -489l120 489h-266z " />
<glyph unicode="]" horiz-adv-x="634" d="M76 29v102h233v1315h-233v102h336v-1519h-336z" />
<glyph unicode="^" horiz-adv-x="1052" d="M127 918l356 630h80l363 -630l-90 -52l-312 543l-307 -543z" />
<glyph unicode="_" horiz-adv-x="1011" d="M0 -68h1012v-102h-1012v102z" />
<glyph unicode="`" horiz-adv-x="428" d="M162 1221v344h104v-344h-104z" />
<glyph unicode="a" d="M111 520q0 107 40 197q42 95 109 162t162 109q90 40 196 40q58 0 113 -13q61 -14 112 -40q57 -28 101 -64q50 -40 78 -84v185h102l2 -983h-104v184q-28 -44 -78 -84q-41 -33 -101 -63q-51 -26 -112 -40q-59 -14 -113 -14q-106 0 -196 40q-93 41 -162 110q-67 67 -109 162 q-40 90 -40 196zM213 520q0 -83 32 -158q31 -74 87 -129t129 -87q72 -31 157 -31q86 0 158 31q74 32 129 87t87 129q32 75 32 158t-32 158q-32 74 -87 128q-56 55 -129 86q-75 32 -158 32q-82 0 -157 -32q-73 -31 -129 -86q-55 -54 -87 -128q-32 -75 -32 -158z" />
<glyph unicode="b" horiz-adv-x="1320" d="M197 29v1519h102v-721q86 97 178 148q95 53 225 53q106 0 198 -40q96 -42 162 -108t108 -162q40 -92 40 -198q0 -108 -40 -198q-42 -95 -108 -161q-68 -68 -161 -109q-90 -40 -199 -40q-117 0 -225 54q-104 52 -178 147v-184h-102zM299 520q0 -83 32 -158q31 -73 86 -129 q54 -55 128 -87q72 -31 157 -31q86 0 158 31q74 32 129 87t87 129q32 75 32 158t-32 158q-32 74 -87 128q-56 55 -129 86q-75 32 -158 32q-82 0 -157 -32q-73 -32 -128 -86t-86 -128q-32 -75 -32 -158z" />
<glyph unicode="c" horiz-adv-x="1134" d="M113 520q0 107 40 197q42 95 109 162t162 109q90 40 197 40q125 0 235 -58t182 -163l-84 -57q-56 81 -145 128q-88 46 -188 46q-83 0 -158 -32q-73 -31 -129 -86q-55 -54 -87 -128q-32 -75 -32 -158t32 -158q31 -74 87 -129t129 -87q72 -31 158 -31q100 0 188 46t145 130 l84 -60q-71 -104 -182 -161q-113 -58 -235 -58q-107 0 -197 40q-93 41 -162 110q-67 67 -109 162q-40 90 -40 196z" />
<glyph unicode="d" horiz-adv-x="1320" d="M111 520q0 107 40 197q42 95 109 162t162 109q90 40 196 40q58 0 113 -13q61 -14 112 -40q57 -28 101 -64q50 -40 78 -84v721h104v-1519h-102l-2 184q-28 -44 -78 -84q-41 -33 -101 -63q-51 -26 -112 -40q-59 -14 -113 -14q-106 0 -196 40q-93 41 -162 110 q-67 67 -109 162q-40 90 -40 196zM213 520q0 -83 32 -158q31 -74 87 -129t129 -87q72 -31 157 -31q86 0 158 31q74 32 129 87t87 129q32 75 32 158t-32 158q-32 74 -87 128q-56 55 -129 86q-75 32 -158 32q-82 0 -157 -32q-73 -31 -129 -86q-55 -54 -87 -128 q-32 -75 -32 -158z" />
<glyph unicode="e" horiz-adv-x="1200" d="M111 520q0 107 40 197q42 95 109 162t162 109q90 40 196 40q97 0 184 -36t152 -98q66 -63 105 -148q39 -86 39 -183l2 -51h-885q1 -81 34 -155q32 -73 86 -127q55 -55 128 -85t155 -30q101 0 189 46q87 46 143 130l84 -60q-68 -103 -179 -161t-237 -58q-106 0 -196 40 q-93 41 -162 110q-67 67 -109 162q-40 90 -40 196zM225 614h766q-11 71 -44 126q-35 58 -84 98q-50 41 -112 63q-64 23 -133 23q-68 0 -134 -23q-63 -22 -116 -63q-48 -37 -89 -99q-37 -57 -54 -125z" />
<glyph unicode="f" horiz-adv-x="765" d="M55 897v102h232v308q0 112 74 186t186 74q87 0 154.5 -45t103.5 -115l-90 -49q-59 106 -168 106q-65 0 -111.5 -46t-46.5 -111v-308h330v-102h-330v-868h-102v868h-232z" />
<glyph unicode="g" d="M113 520q0 107 40 197q42 95 109 162t162 109q90 40 197 40q57 0 112 -13q61 -14 112 -40q57 -28 101 -64q50 -40 78 -84v172h102l2 -895q0 -122 -32 -218q-33 -98 -97 -170q-63 -70 -157 -109t-217 -39h-4q-135 1 -255 59q-117 56 -184 158l86 55q59 -87 159 -128 q98 -40 202 -40q127 0 227 59q98 58 143 181q25 75 25 165v25v111q-28 -44 -78 -84q-41 -33 -101 -63q-51 -26 -112 -40q-59 -14 -112 -14q-107 0 -197 40q-93 41 -162 110q-67 67 -109 162q-40 90 -40 196zM215 520q0 -83 32 -158q31 -74 87 -129t129 -87q72 -31 158 -31 q85 0 157 31q74 32 128 87q55 56 86 129q32 75 32 158t-32 158q-31 74 -86 128q-54 54 -128 86q-75 32 -157 32q-83 0 -158 -32q-73 -31 -129 -86q-55 -54 -87 -128q-32 -75 -32 -158z" />
<glyph unicode="h" horiz-adv-x="1214" d="M199 29v1519h102v-665q51 68 142 106q87 37 173 37t163 -33t133 -89t89 -133t33 -163v-579h-102v579q0 64 -25 123q-24 57 -67 100q-44 44 -101 68q-59 25 -123 25q-63 0 -122 -25q-57 -24 -101 -68q-43 -43 -67 -100q-25 -59 -25 -123v-579h-102z" />
<glyph unicode="i" horiz-adv-x="481" d="M162 1221q0 33 22 55t58 22q33 0 55 -22t22 -55q0 -36 -22 -58t-55 -22q-36 0 -58 22t-22 58zM188 29v970h105v-970h-105z" />
<glyph unicode="j" horiz-adv-x="524" d="M-254 -358l66 79q37 -32 84 -46q45 -13 94 -13q95 0 158 59q65 60 65 156v1122h102l2 -1122q0 -71 -25 -128q-24 -55 -70 -101q-42 -42 -104 -67q-58 -23 -128 -23h-23q-63 5 -120 25q-56 20 -101 59zM184 1219q0 35 24 57q23 22 56 22q34 0 57 -22t23 -55q0 -36 -22 -58 t-58 -22q-33 0 -56 22q-24 23 -24 56z" />
<glyph unicode="k" horiz-adv-x="952" d="M197 29v1519h102v-901l573 381l58 -86l-600 -399l616 -439l-59 -84l-588 418v-409h-102z" />
<glyph unicode="l" horiz-adv-x="495" d="M197 29v1519h102v-1519h-102z" />
<glyph unicode="m" horiz-adv-x="1687" d="M195 29v970h102v-106q35 57 99 93t153 36q100 0 179.5 -46.5t123.5 -121.5q46 77 123 124.5t178 47.5q152 0 253 -102.5t101 -255.5v-639h-102v639q0 107 -72.5 180.5t-179.5 73.5q-110 0 -180 -74t-70 -186v-633h-104v639q0 108 -71.5 181t-178.5 73q-112 0 -182 -73.5 t-70 -186.5v-633h-102z" />
<glyph unicode="n" horiz-adv-x="1212" d="M197 29v970h102v-133q46 73 132.5 115.5t191.5 42.5q175 0 292 -120.5t117 -297.5v-577h-102v577q0 136 -90 226t-226 90q-137 0 -226 -93t-89 -233v-567h-102z" />
<glyph unicode="o" horiz-adv-x="1236" d="M111 520q0 107 40 197q42 95 109 162t162 109q90 40 196 40q107 0 197 -40q95 -42 162 -109t109 -162q40 -90 40 -197q0 -106 -40 -196q-42 -95 -109 -162q-69 -69 -162 -110q-90 -40 -197 -40q-106 0 -196 40q-93 41 -162 110q-67 67 -109 162q-40 90 -40 196zM213 520 q0 -83 32 -158q31 -74 87 -129t129 -87q72 -31 157 -31q86 0 158 31q74 32 129 87t87 129q32 75 32 158t-32 158q-32 74 -87 128q-56 55 -129 86q-75 32 -158 32q-82 0 -157 -32q-73 -31 -129 -86q-55 -54 -87 -128q-32 -75 -32 -158z" />
<glyph unicode="p" d="M199 -442v1441h102l2 -172q28 44 78 84q44 36 101 64q51 26 112 40q55 13 113 13q106 0 196 -40q95 -42 162 -109q69 -69 110 -162q39 -88 39 -197q0 -108 -39 -196q-41 -93 -110 -162t-162 -110q-90 -40 -196 -40q-54 0 -113 14q-61 14 -112 40q-60 30 -101 63 q-50 40 -78 84l-2 -655h-102zM303 520q0 -83 32 -158q31 -73 86 -129q54 -55 128 -87q72 -31 158 -31q85 0 157 31q74 32 129 87t87 129q32 75 32 158t-32 158q-32 74 -87 128q-56 55 -129 86q-75 32 -157 32q-83 0 -158 -32q-73 -32 -128 -86t-86 -128q-32 -75 -32 -158z " />
<glyph unicode="q" d="M113 520q0 107 40 197q42 95 109 162t162 109q90 40 197 40q57 0 112 -13q61 -14 112 -40q57 -28 101 -64q50 -40 78 -84v172h104v-1441h-104v655q-28 -44 -78 -84q-41 -33 -101 -63q-51 -26 -112 -40q-59 -14 -112 -14q-107 0 -197 40q-93 41 -162 110q-67 67 -109 162 q-40 90 -40 196zM215 520q0 -83 32 -158q31 -74 87 -129t129 -87q72 -31 158 -31q85 0 157 31q74 32 129 87t87 129q32 75 32 158t-32 158q-32 74 -87 128q-56 55 -129 86q-75 32 -157 32q-83 0 -158 -32q-73 -31 -129 -86q-55 -54 -87 -128q-32 -75 -32 -158z" />
<glyph unicode="r" horiz-adv-x="772" d="M199 29v970h102v-118q115 129 317 129q79 0 150 -23l-31 -98q-61 18 -121 18q-100 0 -181.5 -50.5t-133.5 -125.5v-702h-102z" />
<glyph unicode="s" horiz-adv-x="888" d="M113 205l94 45q33 -68 96 -102q60 -33 135 -33q43 0 85 9q40 9 76 29q33 19 54 53q21 35 21 83q0 86 -66 128q-64 41 -176 68q-139 33 -211 93q-82 71 -82 172v10q1 64 28 116q25 49 69 82q45 34 98 50q54 16 117 16q96 0 175 -43q77 -42 115 -115l-92 -47q-23 47 -78 74 q-56 27 -120 27q-32 0 -77 -9q-39 -8 -67 -27q-27 -19 -46 -50q-17 -29 -19 -76q0 -45 20 -72q21 -29 52 -48q32 -20 70 -32q40 -13 73 -20q64 -17 112 -35q62 -23 104 -54q47 -35 75 -84t28 -124q0 -72 -28 -124q-27 -50 -76 -86q-43 -32 -108 -50q-62 -17 -126 -17 q-101 0 -190 50q-87 49 -135 143z" />
<glyph unicode="t" horiz-adv-x="817" d="M49 897h236v-625q0 -112 74 -186t186 -74q87 0 154.5 45t103.5 115l-90 49q-59 -106 -168 -106q-65 0 -111.5 46t-46.5 111v625h326v102h-326v551h-102v-551h-236v-102z" />
<glyph unicode="u" horiz-adv-x="1214" d="M182 430v569h103v-569q0 -136 89.5 -225.5t225.5 -89.5q137 0 226 92.5t89 232.5v559h103v-970h-103v141q-46 -73 -132 -115.5t-191 -42.5q-175 0 -292.5 120.5t-117.5 297.5z" />
<glyph unicode="v" horiz-adv-x="1013" d="M55 981l95 41l358 -825l356 825l94 -41l-411 -952h-80z" />
<glyph unicode="w" horiz-adv-x="1474" d="M63 985l97 35l274 -797l260 770h86l264 -770l271 797l96 -35l-324 -956h-86l-264 780l-260 -780h-86z" />
<glyph unicode="x" horiz-adv-x="1077" d="M74 80l397 457l-358 409l77 68l349 -400l348 400l78 -68l-359 -409l398 -457l-78 -68l-387 447l-387 -447z" />
<glyph unicode="y" horiz-adv-x="1064" d="M47 971l92 47l434 -848l347 844l94 -39l-430 -1049v-2q-33 -72 -78 -138q-46 -67 -104 -118t-129 -81q-68 -29 -154 -29q-30 0 -48 3t-20 3l25 100q6 -2 12 -2q6 -2 12 -2h19q68 0 125 27t103 70q45 42 81 100q34 55 61 110l31 78z" />
<glyph unicode="z" horiz-adv-x="911" d="M80 29v80l577 788h-551v102h697v-79l-580 -789h600v-102h-743z" />
<glyph unicode="{" horiz-adv-x="573" d="M45 741v95l45 6q51 6 77 56t26 106v313q0 52 16 96q16 43 47 79q27 31 74 54q44 21 96 21h74v-105h-74q-46 0 -89 -35q-42 -35 -42 -110v-313q0 -57 -21 -117q-21 -61 -65 -99q21 -21 39 -45q23 -36 35 -78q12 -43 12 -92v-311q0 -53 32 -100t99 -47h74v-103h-74 q-51 0 -96 20q-46 21 -74 53q-31 36 -47 80q-16 45 -16 97v311q0 26 -8 55q-8 30 -19 50q-12 22 -32 39q-19 16 -44 18z" />
<glyph unicode="|" horiz-adv-x="733" d="M315 -53v1655h103v-1655h-103z" />
<glyph unicode="}" horiz-adv-x="573" d="M74 12v103h73q68 0 100 47t32 100v311q0 49 12 92q12 42 35 78q18 24 39 45q-45 39 -66 99q-20 57 -20 117v313q0 75 -42 110q-43 35 -90 35h-73v105h73q53 0 97 -21q45 -22 73 -54q33 -38 48 -79q16 -44 16 -96v-313q0 -56 26 -106t76 -56l45 -6v-95l-45 -6 q-25 -2 -44 -18t-31 -39q-13 -24 -20 -50q-7 -25 -7 -55v-311q0 -52 -16 -97q-15 -42 -48 -80q-29 -33 -73 -53q-45 -20 -97 -20h-73z" />
<glyph unicode="~" horiz-adv-x="1232" d="M147 827q41 39 90 70q50 31 119 31q68 0 128 -33q65 -36 118 -72q14 -6 23 -14q54 -36 101 -59q50 -25 97 -25q51 0 100 26t78 68l84 -61q-47 -64 -116 -100q-67 -35 -146 -35q-71 0 -133 30q-53 26 -123 72q-4 2 -11.5 7l-10.5 7q-49 33 -96 60q-45 26 -93 26 q-40 0 -70 -18t-65 -53z" />
<glyph unicode="&#xa1;" horiz-adv-x="520" d="M180 1059q0 -33 24 -57q23 -23 56 -23t56 23q24 24 24 57q0 35 -24 57q-25 23 -56 23t-56 -23q-24 -22 -24 -57zM209 -397h102v1114h-102v-1114z" />
<glyph unicode="&#xa2;" horiz-adv-x="1134" d="M113 520q0 107 40 197q42 95 109 162t162 109q90 40 197 40q125 0 235 -58t182 -163l-84 -57q-56 81 -145 128q-88 46 -188 46q-83 0 -158 -32q-73 -31 -129 -86q-55 -54 -87 -128q-32 -75 -32 -158t32 -158q31 -74 87 -129t129 -87q72 -31 158 -31q100 0 188 46t145 130 l84 -60q-71 -104 -182 -161q-113 -58 -235 -58q-107 0 -197 40q-93 41 -162 110q-67 67 -109 162q-40 90 -40 196zM567 -246v1520h103v-1520h-103z" />
<glyph unicode="&#xa3;" horiz-adv-x="1228" d="M100 0v111h217v561h-217v102h217v297q0 183 102 286t281 103q127 0 241 -49q117 -50 206 -139l-51 -101q-87 87 -188 133t-206 46q-124 0 -192 -75q-68 -76 -68 -214v-287h381v-102h-381v-561h701v-111h-1043z" />
<glyph unicode="&#xa4;" horiz-adv-x="1228" d="M117 74l112 112q-106 139 -106 316q0 178 104 313l-110 115l80 82l110 -115q63 52 144 83q79 30 165 30q168 0 304 -109l106 111l82 -82l-109 -111q53 -68 80 -147q29 -84 29 -170t-29 -170q-28 -80 -80 -148l109 -110l-82 -82l-106 110q-135 -108 -304 -108 q-86 0 -165 30q-83 31 -144 82l-110 -114zM240 502q0 -109 50 -201t136 -145q88 -54 188 -54q101 0 189 54q86 53 136 145t50 201q0 108 -50 200q-51 94 -136 146q-86 53 -189 53q-102 0 -188 -53q-85 -52 -136 -146q-50 -92 -50 -200z" />
<glyph unicode="&#xa5;" horiz-adv-x="1372" d="M84 1501l84 60l518 -725l518 725l84 -60l-551 -770v-702h-102v702zM281 457v102h811v-102h-811zM281 711v102h811v-102h-811z" />
<glyph unicode="&#xa6;" horiz-adv-x="518" d="M197 315h125v-684h-125v684zM197 760v684h125v-684h-125z" />
<glyph unicode="&#xa7;" horiz-adv-x="1073" d="M90 698q0 70 31 140q30 67 80 114q-29 64 -29 156q0 161 104 255q106 95 279 95q95 0 185 -37q93 -38 151 -96l-47 -96q-146 121 -289 121q-124 0 -191 -62t-67 -178q0 -88 44 -149q43 -60 155 -117l176 -90q171 -89 240 -173q71 -86 71 -204q0 -70 -30 -136 q-31 -68 -83 -114q33 -68 33 -160q0 -161 -103 -255q-104 -95 -278 -95q-232 0 -389 133l49 96q89 -66 166 -93q78 -27 174 -27q125 0 191 62q67 63 67 177q0 91 -46 152t-156 116l-177 89q-169 84 -240 170t-71 206zM213 698q0 -74 51 -131q53 -59 180 -127l166 -90 q136 -74 197 -137q55 76 55 164q0 76 -51 133q-52 58 -180 125l-168 90q-135 73 -197 135q-53 -67 -53 -162z" />
<glyph unicode="&#xa8;" horiz-adv-x="614" d="M61 1260v149h154v-149h-154zM399 1260v149h154v-149h-154z" />
<glyph unicode="&#xa9;" horiz-adv-x="1798" d="M123 791q0 163 61 303t167 246t247 166q143 61 301 61q163 0 305 -62q140 -61 246 -167q105 -105 165 -246t60 -301q0 -164 -61 -305t-167 -247t-247 -166q-143 -61 -301 -61q-160 0 -304 62q-142 61 -247 168t-165 247q-60 141 -60 302zM225 791q0 -136 54 -263 q53 -124 144 -215q94 -94 214 -145q124 -53 262 -53t262 53q120 51 214 145q93 93 145 215q53 124 53 263q0 138 -53 262q-51 120 -145 214q-92 92 -214 144q-124 53 -262 53t-262 -53q-122 -52 -214 -144t-144 -214q-54 -127 -54 -262zM397 791q0 106 40 196q41 93 110 162 q67 67 162 109q90 40 196 40q126 0 236 -58t182 -163l-84 -57q-56 81 -145 128q-88 46 -189 46q-82 0 -157 -32q-74 -32 -130 -86q-55 -54 -87 -128q-31 -72 -31 -157q0 -86 31 -158q31 -73 87 -129q55 -55 130 -87t157 -32q101 0 189 46t145 130l84 -59q-73 -106 -182 -162 q-111 -57 -236 -57q-106 0 -196 40q-95 42 -162 109q-69 69 -110 162q-40 90 -40 197z" />
<glyph unicode="&#xaa;" horiz-adv-x="829" d="M89 1239q0 67 26 127q25 58 70 103q44 44 104 70t126 26q36 0 72 -9q39 -10 71 -25q34 -16 65 -41q10 -8 13 -11v55v21h21h61h21v-21l1 -589v-21h-21h-62h-21v21v55q-3 -3 -13 -11q-31 -25 -65 -41q-32 -15 -71 -25q-36 -9 -72 -9q-66 0 -126 26t-104 70q-45 44 -70 103 q-26 60 -26 126zM192 1239q0 -48 17 -86q18 -41 48 -71t71 -48q38 -17 87 -17q48 0 86 17q41 18 71 48t48 71t18 86q0 47 -18 87t-48 70t-71 48q-38 17 -86 17q-49 0 -87 -17q-41 -18 -71 -48t-48 -70q-17 -38 -17 -87z" />
<glyph unicode="&#xab;" horiz-adv-x="1667" d="M185 755v80l631 362l51 -90l-542 -311l542 -308l-51 -90zM800 755v80l631 362l51 -90l-543 -311l543 -308l-51 -90z" />
<glyph unicode="&#xac;" horiz-adv-x="1228" d="M115 745v103h999v-533h-98v430h-901z" />
<glyph unicode="&#xad;" horiz-adv-x="1138" d="M164 737v103h811v-103h-811z" />
<glyph unicode="&#xae;" horiz-adv-x="1798" d="M123 791q0 163 61 303t167 246t247 166q143 61 301 61q163 0 305 -62q140 -61 246 -167q105 -105 165 -246t60 -301q0 -164 -61 -305t-167 -247t-247 -166q-143 -61 -301 -61q-160 0 -304 62q-142 61 -247 168t-165 247q-60 141 -60 302zM225 791q0 -136 54 -263 q53 -124 144 -215q94 -94 214 -145q124 -53 262 -53t262 53q120 51 214 145q93 93 145 215q53 124 53 263q0 138 -53 262q-51 120 -145 214q-92 92 -214 144q-124 53 -262 53t-262 -53q-122 -52 -214 -144t-144 -214q-54 -127 -54 -262zM598 312v20v912v20h20h368 q57 0 107 -22q50 -21 88 -59t59 -87q22 -50 22 -108q0 -48 -17 -94q-16 -43 -46 -81q-31 -38 -70 -62q-28 -18 -62 -28l198 -354l10 -18l-18 -10l-54 -30l-17 -11l-11 18l-220 394h-255v-380v-20h-20h-62h-20zM700 815h286q37 0 67 13t55 38t38 55t13 67q0 38 -13 68t-38 55 q-23 23 -55 37q-33 14 -67 14h-286v-347z" />
<glyph unicode="&#xaf;" horiz-adv-x="614" d="M4 1282v104h606v-104h-606z" />
<glyph unicode="&#xb0;" horiz-adv-x="745" d="M80 1159q0 85 39 152t105 105q67 38 149 38q125 0 209 -84t84 -211q0 -125 -84 -209t-209 -84q-82 0 -149 38q-65 37 -105 106q-39 68 -39 149zM182 1159q0 -86 54 -143q52 -55 137 -55t137 55q53 56 53 143t-53 145q-52 56 -137 56t-137 -56q-54 -59 -54 -145z" />
<glyph unicode="&#xb1;" horiz-adv-x="1228" d="M115 0v104h999v-104h-999zM115 610v103h448v368h103v-368h448v-103h-448v-368h-103v368h-448z" />
<glyph unicode="&#xb2;" horiz-adv-x="804" d="M99 603v20v45v5l2 4l2 4l12 22q9 17 37 54q22 29 77 91q56 63 131 135q6 6 25.5 26t33.5 34q35 35 72 80q38 47 61 84q25 39 28 70q4 2 3 19.5t-5 37.5l-3 21q-13 28 -31 50q6 4 -62 42q-6 3 -7 3q-40 14 -84 14q-62 -6 -113 -39q-49 -31 -65 -93l-5 -20l-20 6l-60 17 l-20 6l6 19q28 95 103 148q74 53 168 59h1q67 0 127 -21q59 -20 107 -73q38 -40 55 -96q16 -50 7 -110v-2v-2q-7 -47 -36 -99q-26 -45 -67 -96q-46 -57 -77 -88q-28 -29 -71 -70q-75 -72 -126 -130q-26 -29 -62 -75h442h21v-20v-62v-20h-21h-565h-21z" />
<glyph unicode="&#xb3;" horiz-adv-x="804" d="M82 818l19 6l59 17l20 6l5 -20q10 -32 32 -57t51 -41q28 -15 65 -25q31 -8 68 -8q48 0 87 13q38 13 69 37q31 25 46 53q17 31 17 63t-17 63q-16 29 -46 53q-29 22 -69 36q-42 14 -87 14h-36h-21v21v62v21h21h36q36 0 72 12q38 13 64 33q28 21 45 53q17 31 17 68 q0 33 -15 63q-14 28 -42 53q-30 25 -63 37q-35 13 -78 13q-36 0 -63 -8q-31 -9 -55 -25q-26 -17 -45 -40q-18 -20 -29 -53l-7 -19l-19 6l-59 20l-20 6l7 20q18 51 45 83q29 36 68 62q36 24 84 38q43 13 93 13q57 0 110 -19q54 -20 96 -54q43 -35 68 -84q26 -48 26 -112 q0 -76 -42 -139q-30 -45 -75 -75q17 -10 32 -22q30 -23 55 -54q24 -30 38 -67q14 -35 14 -79q0 -65 -30 -116q-30 -50 -76 -84q-43 -32 -104 -51q-57 -18 -112 -18q-50 0 -98 13q-50 14 -92 39t-75 63q-35 41 -49 90z" />
<glyph unicode="&#xb4;" horiz-adv-x="614" d="M260 1126l205 412h158l-269 -412h-94z" />
<glyph unicode="&#xb5;" horiz-adv-x="1132" d="M160 -369v1362h125v-614q0 -146 58 -214q59 -69 183 -69q144 0 231 91t87 243v563h125v-993h-123v178q-46 -93 -134 -143q-86 -49 -198 -49q-146 0 -229 71v-426h-125z" />
<glyph unicode="&#xb6;" horiz-adv-x="1165" d="M102 1053q0 112 50 201q51 91 138 140q89 50 208 50h479v-1813h-117v1704h-250v-1704h-116v1031q-117 0 -206 50q-88 49 -137 139t-49 202z" />
<glyph unicode="&#xb7;" horiz-adv-x="544" d="M193 686q0 33 22 56q23 24 57 24q33 0 57 -24q23 -23 23 -56q0 -35 -23 -57q-25 -23 -57 -23q-34 0 -57 23q-22 22 -22 57z" />
<glyph unicode="&#xb8;" horiz-adv-x="622" d="M53 -398l31 98q59 -18 131 -18q110 0 181 59q70 58 70 159q0 68 -51 133l80 64q74 -92 74 -197q0 -150 -107 -239q-98 -82 -247 -82q-87 0 -162 23z" />
<glyph unicode="&#xb9;" horiz-adv-x="518" d="M105 1393l17 12l210 150l5 4h7h49h20v-21v-912v-20h-20h-63h-20v20v786l-129 -91l-17 -12l-12 17l-35 50z" />
<glyph unicode="&#xba;" horiz-adv-x="681" d="M49 1147q0 140 79 223q79 84 212 84q134 0 213 -84q80 -85 80 -223q0 -140 -80 -226q-79 -85 -213 -85q-135 0 -213 85q-78 86 -78 226zM166 1147q0 -103 44 -161q43 -56 130 -56t130 55q44 56 44 162q0 102 -44 158q-43 55 -130 55q-85 0 -129 -56q-45 -57 -45 -157z " />
<glyph unicode="&#xbb;" horiz-adv-x="1667" d="M185 488l52 -90l630 357v80l-630 362l-52 -90l543 -311zM800 488l51 -90l631 357v80l-631 362l-51 -90l542 -311z" />
<glyph unicode="&#xbc;" horiz-adv-x="1884" d="M182 1393l16 12l210 150l6 4h6h49h21v-21v-912v-20h-21h-62h-21v20v786l-128 -91l-17 -12l-12 17l-36 50zM534 51l524 1516l96 -33l-524 -1518zM1030 233v21v48v6l3 5l430 682l6 9h11h56h20v-20v-647h126h20v-20v-63v-21h-20h-126v-161v-20h-20h-62h-20v20v161h-404h-20z M1170 337h284v450z" />
<glyph unicode="&#xbd;" horiz-adv-x="1884" d="M193 1393l17 12l210 150l5 4h7h49h21v-21v-912v-20h-21h-63h-20v20v786l-129 -91l-16 -12l-12 17l-36 50zM528 51l525 1516l96 -33l-524 -1518zM1085 61v21v44v5l2 4l2 4q2 5 11 22t37 54q27 36 77 92q56 63 131 135l60 60q30 30 71 80q42 51 62 84q24 38 27 69 q4 2 3 19.5t-4 37.5l-4 21q-14 31 -30 50q5 4 -61 42l-8 4q-40 14 -85 14q-60 -6 -112 -39q-49 -31 -65 -93l-6 -21l-20 6l-60 17l-20 6l6 20q27 94 103 147q74 53 168 59h1h1q66 0 126 -21t108 -73q38 -41 55 -95q16 -50 7 -111v-2l-1 -1q-7 -49 -36 -100q-29 -50 -66 -96 t-78 -87q-50 -52 -70 -71q-81 -78 -126 -129q-34 -37 -63 -75h442h21v-21v-61v-21h-21h-565h-20z" />
<glyph unicode="&#xbe;" horiz-adv-x="1884" d="M146 818l19 6l59 17l20 6l6 -20q11 -34 31 -57q21 -24 52 -41q29 -16 64 -25q31 -8 68 -8q48 0 87 13q40 13 70 37q31 25 46 53q16 29 16 63t-16 63t-46 53q-28 22 -70 36t-87 14h-36h-20v21v62v21h20h36q36 0 72 12q40 13 65 33q28 21 45 53q16 29 16 68q0 33 -15 63 q-14 28 -42 53q-30 25 -63 37q-35 13 -78 13q-35 0 -62 -8q-32 -10 -56 -25q-26 -17 -45 -40q-18 -20 -29 -53l-7 -19l-19 6l-59 20l-20 6l7 20q18 51 45 83q29 36 68 62q35 23 85 38q43 13 92 13q57 0 110 -19q54 -20 96 -54q43 -35 68 -84q27 -50 27 -112q0 -74 -43 -139 q-30 -45 -75 -75q17 -10 32 -22q30 -23 55 -54q24 -30 38 -67q15 -37 15 -79q0 -63 -31 -116q-30 -50 -76 -84q-43 -32 -103 -51q-57 -18 -113 -18q-50 0 -98 13q-49 13 -91 39q-44 27 -76 63q-33 39 -48 90zM699 51l525 1516l96 -33l-524 -1518zM1066 233v21v48v6l3 5 l430 682l6 9h11h56h20v-20v-647h126h20v-20v-63v-21h-20h-126v-161v-20h-20h-62h-20v20v161h-404h-20zM1206 337h284v450z" />
<glyph unicode="&#xbf;" horiz-adv-x="1052" d="M84 -41q0 71 17 123q16 50 49 104q31 51 71 94q34 36 88 87q46 44 69 67q29 29 59 73q25 36 42 82q17 45 17 95h104q0 -62 -18 -116q-16 -47 -50 -102q-30 -48 -70 -91q-43 -46 -83 -82q-59 -57 -86 -86q-42 -45 -74 -109q-34 -66 -33 -141t39 -135q46 -78 128 -108 q78 -29 167 -29q67 0 124 24q53 22 99 67q45 44 71 98q28 59 38 120l102 -14q0 -2 -3 -20q-2 -14 -11 -45q-5 -16 -24 -63q-15 -37 -37 -73q-67 -108 -160 -152q-95 -45 -217 -45q-79 1 -159 27q-72 23 -133 73q-58 47 -92 116q-34 68 -34 161zM457 1053q0 35 22 57 q23 23 56 23q34 0 57 -23q22 -22 22 -57q0 -34 -22 -57t-57 -23q-34 0 -56 23t-22 57z" />
<glyph unicode="&#xc0;" horiz-adv-x="1347" d="M23 63l610 1485h82l610 -1485l-96 -38l-191 464h-729l-190 -464zM352 592h643l-321 784zM444 1927l168 -252l82 58l-166 249z" />
<glyph unicode="&#xc1;" horiz-adv-x="1347" d="M23 63l610 1485h82l610 -1485l-96 -38l-191 464h-729l-190 -464zM352 592h643l-321 784zM651 1733l84 -58l166 252l-82 55z" />
<glyph unicode="&#xc2;" horiz-adv-x="1347" d="M23 63l610 1485h82l610 -1485l-96 -38l-191 464h-729l-190 -464zM352 592h643l-321 784zM360 1827l62 -80l254 192l254 -192l59 80l-291 219h-45z" />
<glyph unicode="&#xc3;" horiz-adv-x="1347" d="M23 63l610 1485h82l610 -1485l-96 -38l-191 464h-729l-190 -464zM283 1835l69 -72q28 29 49 42q23 14 56 14q37 0 78 -24q86 -51 94 -56q53 -34 97 -55q51 -25 118 -25q66 0 124 30q60 31 97 78l-80 62q-23 -33 -61 -51q-41 -19 -80 -19q-37 0 -78 19q-36 17 -84 47 q-37 22 -101 60q-55 32 -124 32q-59 0 -102 -26q-41 -25 -72 -56zM352 592h643l-321 784z" />
<glyph unicode="&#xc4;" horiz-adv-x="1347" d="M23 63l610 1485h82l610 -1485l-96 -38l-191 464h-729l-190 -464zM352 592h643l-321 784zM377 1794q0 35 23 57q25 23 57 23q31 0 56 -23q24 -23 24 -57q0 -32 -24 -55q-25 -23 -56 -23q-32 0 -57 23q-23 22 -23 55zM809 1796q0 33 22 55q23 23 56 23q34 0 57 -23t23 -55 q0 -34 -23 -57t-57 -23q-33 0 -56 23q-22 22 -22 57z" />
<glyph unicode="&#xc5;" horiz-adv-x="1347" d="M25 70l571 1394q-88 27 -145 102q-58 76 -58 173q0 58 23 110q22 51 60 90q38 40 90 62q51 22 112 22t112 -22q52 -22 90 -62q38 -39 60 -90q23 -52 23 -110q0 -99 -59 -176t-150 -101l571 -1392l-96 -39l-191 467h-729l-190 -467zM352 600h643l-321 782zM496 1739 q0 -77 53 -130t129 -53t129 53t53 130q0 76 -53 129t-129 53t-129 -53t-53 -129z" />
<glyph unicode="&#xc6;" horiz-adv-x="1961" d="M-12 88l992 1466h857v-104h-778v-557h726v-104h-726v-655h778v-103h-882v464h-567l-314 -465zM458 598h497v736z" />
<glyph unicode="&#xc7;" horiz-adv-x="1474" d="M121 790q0 160 61 303q58 138 167 247q107 107 247 167q143 61 303 61q137 0 263 -46q124 -45 225 -127l-65 -80q-86 70 -195 110q-109 39 -228 39q-280 0 -477 -197q-198 -198 -198 -476q0 -279 198 -477t477 -198q116 0 228 40q107 39 195 110l65 -80 q-104 -84 -225 -127q-126 -46 -263 -46q-160 0 -303 61q-138 58 -247 167q-107 107 -167 247q-61 143 -61 302zM497 -398l31 98q58 -18 131 -18q110 0 181 59q70 58 70 159q0 68 -51 133l80 64q74 -92 74 -197q0 -150 -107 -239q-98 -82 -247 -82q-87 0 -162 23z" />
<glyph unicode="&#xc8;" horiz-adv-x="1193" d="M242 29v1519h825v-102h-723v-559h670v-101h-670v-655h723v-102h-825zM446 1927l84 55l166 -249l-82 -58z" />
<glyph unicode="&#xc9;" horiz-adv-x="1193" d="M242 29v1519h825v-102h-723v-559h670v-101h-670v-655h723v-102h-825zM631 1733l168 249l82 -55l-166 -252z" />
<glyph unicode="&#xca;" horiz-adv-x="1193" d="M242 29v1519h825v-102h-723v-559h670v-101h-670v-655h723v-102h-825zM338 1827l293 219h45l291 -219l-60 -80l-254 192l-254 -192z" />
<glyph unicode="&#xcb;" horiz-adv-x="1193" d="M242 29v1519h825v-102h-723v-559h670v-101h-670v-655h723v-102h-825zM377 1794q0 35 23 57q25 23 57 23q31 0 56 -23q24 -23 24 -57q0 -32 -24 -55q-25 -23 -56 -23q-32 0 -57 23q-23 22 -23 55zM809 1796q0 33 22 55q23 23 56 23q34 0 57 -23t23 -55q0 -34 -23 -57 t-57 -23q-33 0 -56 23q-22 22 -22 57z" />
<glyph unicode="&#xcc;" horiz-adv-x="581" d="M78 1927l168 -252l82 58l-166 249zM240 29v1519h102v-1519h-102z" />
<glyph unicode="&#xcd;" horiz-adv-x="581" d="M240 29v1519h102v-1519h-102zM242 1733l84 -58l166 252l-82 55z" />
<glyph unicode="&#xce;" horiz-adv-x="581" d="M-23 1827l60 -80l254 192l254 -192l59 80l-291 219h-45zM240 29v1519h102v-1519h-102z" />
<glyph unicode="&#xcf;" horiz-adv-x="581" d="M-4 1794q0 35 22 57q23 23 58 23q31 0 56 -23q24 -23 24 -57q0 -32 -24 -55q-25 -23 -56 -23q-35 0 -58 23q-22 22 -22 55zM240 29v1519h102v-1519h-102zM426 1796q0 32 24 55q25 23 56 23q34 0 57 -23t23 -55q0 -34 -23 -57t-57 -23q-31 0 -56 23q-24 23 -24 57z" />
<glyph unicode="&#xd0;" horiz-adv-x="1550" d="M41 737v103h688v-103h-688zM240 29v1519h436q158 0 294 -59q138 -60 240 -162q103 -103 163 -240q61 -139 61 -294q0 -153 -61 -295q-59 -138 -164 -244q-103 -105 -240 -165t-293 -60h-436zM344 133h332q134 0 254 53q116 51 207 144q88 89 139 210q51 120 51 253 q0 135 -51 253q-50 116 -140 206q-91 91 -207 141q-118 51 -253 51h-332v-1311z" />
<glyph unicode="&#xd1;" horiz-adv-x="1593" d="M242 29v1519h90l917 -1319v1319h103v-1517h-90l-918 1319v-1321h-102zM389 1835q30 30 73 56t103 26q67 0 122 -32q64 -38 101 -60q49 -31 85 -47q43 -19 77 -19q39 0 80 19t64 51l77 -62q-37 -47 -97 -78q-58 -30 -124 -30t-117 25q-48 23 -98 55q-38 24 -93 56 q-42 24 -77 24q-32 0 -55 -14q-22 -13 -51 -42z" />
<glyph unicode="&#xd2;" horiz-adv-x="1798" d="M123 791q0 163 61 303t167 246t247 166q143 61 301 61q163 0 305 -62q140 -61 246 -167q105 -105 165 -246t60 -301q0 -164 -61 -305t-167 -247t-247 -166q-143 -61 -301 -61q-160 0 -304 62q-142 61 -247 168t-165 247q-60 141 -60 302zM225 791q0 -136 54 -263 q53 -124 144 -215q94 -94 214 -145q124 -53 262 -53t262 53q120 51 214 145q93 93 145 215q53 124 53 263q0 138 -53 262q-51 120 -145 214q-92 92 -214 144q-124 53 -262 53t-262 -53q-122 -52 -214 -144t-144 -214q-54 -127 -54 -262zM672 1927l168 -252l82 58l-166 249z " />
<glyph unicode="&#xd3;" horiz-adv-x="1798" d="M123 791q0 163 61 303t167 246t247 166q143 61 301 61q163 0 305 -62q140 -61 246 -167q105 -105 165 -246t60 -301q0 -164 -61 -305t-167 -247t-247 -166q-143 -61 -301 -61q-160 0 -304 62q-142 61 -247 168t-165 247q-60 141 -60 302zM225 791q0 -136 54 -263 q53 -124 144 -215q94 -94 214 -145q124 -53 262 -53t262 53q120 51 214 145q93 93 145 215q53 124 53 263q0 138 -53 262q-51 120 -145 214q-92 92 -214 144q-124 53 -262 53t-262 -53q-122 -52 -214 -144t-144 -214q-54 -127 -54 -262zM856 1733l84 -58l166 252l-82 55z " />
<glyph unicode="&#xd4;" horiz-adv-x="1798" d="M123 791q0 163 61 303t167 246t247 166q143 61 301 61q163 0 305 -62q140 -61 246 -167q105 -105 165 -246t60 -301q0 -164 -61 -305t-167 -247t-247 -166q-143 -61 -301 -61q-160 0 -304 62q-142 61 -247 168t-165 247q-60 141 -60 302zM225 791q0 -136 54 -263 q53 -124 144 -215q94 -94 214 -145q124 -53 262 -53t262 53q120 51 214 145q93 93 145 215q53 124 53 263q0 138 -53 262q-51 120 -145 214q-92 92 -214 144q-124 53 -262 53t-262 -53q-122 -52 -214 -144t-144 -214q-54 -127 -54 -262zM586 1827l59 -80l254 192l254 -192 l59 80l-290 219h-45z" />
<glyph unicode="&#xd5;" horiz-adv-x="1798" d="M123 791q0 163 61 303t167 246t247 166q143 61 301 61q163 0 305 -62q140 -61 246 -167q105 -105 165 -246t60 -301q0 -164 -61 -305t-167 -247t-247 -166q-143 -61 -301 -61q-160 0 -304 62q-142 61 -247 168t-165 247q-60 141 -60 302zM225 791q0 -136 54 -263 q53 -124 144 -215q94 -94 214 -145q124 -53 262 -53t262 53q120 51 214 145q93 93 145 215q53 124 53 263q0 138 -53 262q-51 120 -145 214q-92 92 -214 144q-124 53 -262 53t-262 -53q-122 -52 -214 -144t-144 -214q-54 -127 -54 -262zM508 1835l70 -72q28 29 51 42 q23 14 55 14q35 0 77 -24q55 -32 93 -56q53 -34 97 -55q51 -25 118 -25q65 0 124 30q60 31 97 78l-78 62q-24 -33 -63 -51q-41 -19 -80 -19q-34 0 -77 19q-36 16 -85 47q-37 22 -101 60q-55 32 -122 32q-60 0 -103 -26t-73 -56z" />
<glyph unicode="&#xd6;" horiz-adv-x="1798" d="M123 791q0 163 61 303t167 246t247 166q143 61 301 61q163 0 305 -62q140 -61 246 -167q105 -105 165 -246t60 -301q0 -164 -61 -305t-167 -247t-247 -166q-143 -61 -301 -61q-160 0 -304 62q-142 61 -247 168t-165 247q-60 141 -60 302zM225 791q0 -136 54 -263 q53 -124 144 -215q94 -94 214 -145q124 -53 262 -53t262 53q120 51 214 145q93 93 145 215q53 124 53 263q0 138 -53 262q-51 120 -145 214q-92 92 -214 144q-124 53 -262 53t-262 -53q-122 -52 -214 -144t-144 -214q-54 -127 -54 -262zM604 1794q0 34 23 57t57 23 q31 0 56 -23q24 -23 24 -57q0 -32 -24 -55q-25 -23 -56 -23q-34 0 -57 23t-23 55zM1034 1796q0 32 24 55q25 23 56 23q34 0 57 -23t23 -55q0 -34 -23 -57t-57 -23q-31 0 -56 23q-24 23 -24 57z" />
<glyph unicode="&#xd7;" d="M244 446l345 345l-345 344l73 73l345 -345l344 345l73 -73l-345 -344l345 -345l-73 -73l-344 345l-345 -345z" />
<glyph unicode="&#xd8;" horiz-adv-x="1798" d="M92 102l209 195q-87 107 -131 231q-45 128 -45 263q0 164 62 303q63 141 168 246q106 106 247 166q143 61 301 61q145 0 285 -54q138 -53 246 -155l208 194l72 -73l-209 -197q88 -108 130 -231q44 -129 44 -263q0 -163 -61 -303t-167 -246t-247 -166q-143 -61 -301 -61 q-145 0 -285 54q-136 52 -245 155l-211 -194zM229 791q0 -116 38 -225q37 -105 110 -197l981 917q-94 86 -210 132q-114 46 -245 46q-138 0 -262 -53q-122 -52 -214 -144t-144 -214q-54 -127 -54 -262zM449 293q92 -86 208 -132t246 -46q138 0 262 53q120 51 214 145 q93 93 145 215q53 124 53 263q0 115 -38 223q-38 107 -109 196z" />
<glyph unicode="&#xd9;" horiz-adv-x="1552" d="M221 567v981h103v-981q0 -96 35 -176t98 -143q61 -61 143 -97t176 -36t176 36q83 36 144 97t97 143q36 83 36 176v981h102v-981q0 -115 -43 -216q-43 -102 -119 -176q-79 -77 -177 -119q-103 -44 -216 -44t-216 44q-99 42 -176 119t-119 176q-44 103 -44 216zM518 1927 l84 55l166 -249l-82 -58z" />
<glyph unicode="&#xda;" horiz-adv-x="1552" d="M221 567v981h103v-981q0 -96 35 -176t98 -143q61 -61 143 -97t176 -36t176 36q83 36 144 97t97 143q36 83 36 176v981h102v-981q0 -115 -43 -216q-43 -102 -119 -176q-79 -77 -177 -119q-103 -44 -216 -44t-216 44q-99 42 -176 119t-119 176q-44 103 -44 216zM719 1733 l168 249l82 -55l-166 -252z" />
<glyph unicode="&#xdb;" horiz-adv-x="1552" d="M221 567v981h103v-981q0 -96 35 -176t98 -143q61 -61 143 -97t176 -36t176 36q83 36 144 97t97 143q36 83 36 176v981h102v-981q0 -115 -43 -216q-43 -102 -119 -176q-79 -77 -177 -119q-103 -44 -216 -44t-216 44q-99 42 -176 119t-119 176q-44 103 -44 216zM463 1827 l291 219h45l291 -219l-60 -80l-254 192l-254 -192z" />
<glyph unicode="&#xdc;" horiz-adv-x="1552" d="M221 567v981h103v-981q0 -96 35 -176t98 -143q61 -61 143 -97t176 -36t176 36q83 36 144 97t97 143q36 83 36 176v981h102v-981q0 -115 -43 -216q-43 -102 -119 -176q-79 -77 -177 -119q-103 -44 -216 -44t-216 44q-99 42 -176 119t-119 176q-44 103 -44 216zM481 1794 q0 34 23 57t57 23q31 0 56 -23q24 -23 24 -57q0 -32 -24 -55q-25 -23 -56 -23q-34 0 -57 23t-23 55zM911 1796q0 32 24 55q25 23 56 23q35 0 58 -23q22 -22 22 -55q0 -35 -22 -57q-23 -23 -58 -23q-31 0 -56 23q-24 23 -24 57z" />
<glyph unicode="&#xdd;" horiz-adv-x="1372" d="M84 1501l84 60l518 -725l518 725l84 -60l-551 -770v-702h-102v702zM645 1733l84 -58l166 252l-82 55z" />
<glyph unicode="&#xde;" horiz-adv-x="1269" d="M241 30v1519h104v-1519h-104zM262 307v905h504q91 0 166 -33q77 -34 135 -92q56 -56 91 -135q34 -77 34 -166q0 -87 -33 -165q-34 -80 -91 -137q-58 -58 -135 -91t-167 -33h-442v-53h-62zM324 463h442q69 0 126 25t102 70q46 46 69 102q24 58 24 126q0 66 -25 125 q-26 61 -69 104q-44 44 -101 69q-60 26 -126 26h-442v-647z" />
<glyph unicode="&#xdf;" horiz-adv-x="1249" d="M197 30v1031q0 205 125 334q132 138 352 138q169 0 287 -94q64 -52 98 -120q37 -74 37 -164q0 -97 -69 -184q-42 -53 -112 -100l-48 -32q-94 -63 -94 -105q0 -24 16 -41q17 -19 61 -37q2 -1 5.5 -2.5t4.5 -1.5q157 -73 235 -152q82 -85 82 -186q0 -138 -109 -226 q-95 -77 -219 -77q-150 0 -243 96q-79 80 -91 203l102 10q7 -82 66 -144t166 -62q88 0 154 54q70 57 70 146q0 62 -52 114q-61 62 -204 130q-1 0 -3 1l-4 2q-52 22 -82 47q-59 51 -59 126q0 98 141 191l48 31q135 88 135 199q0 127 -96 203q-90 72 -223 72q-175 0 -277 -106 q-97 -101 -97 -263v-1031h-103z" />
<glyph unicode="&#xe0;" d="M111 520q0 107 40 197q42 95 109 162t162 109q90 40 196 40q58 0 113 -13q61 -14 112 -40q57 -28 101 -64q50 -40 78 -84v185h102l2 -983h-104v184q-28 -44 -78 -84q-41 -33 -101 -63q-51 -26 -112 -40q-59 -14 -113 -14q-106 0 -196 40q-93 41 -162 110q-67 67 -109 162 q-40 90 -40 196zM213 520q0 -83 32 -158q31 -74 87 -129t129 -87q72 -31 157 -31q86 0 158 31q74 32 129 87t87 129q32 75 32 158t-32 158q-32 74 -87 128q-56 55 -129 86q-75 32 -158 32q-82 0 -157 -32q-73 -31 -129 -86q-55 -54 -87 -128q-32 -75 -32 -158zM377 1518 l84 55l166 -250l-82 -55z" />
<glyph unicode="&#xe1;" d="M111 520q0 107 40 197q42 95 109 162t162 109q90 40 196 40q58 0 113 -13q61 -14 112 -40q57 -28 101 -64q50 -40 78 -84v185h102l2 -983h-104v184q-28 -44 -78 -84q-41 -33 -101 -63q-51 -26 -112 -40q-59 -14 -113 -14q-106 0 -196 40q-93 41 -162 110q-67 67 -109 162 q-40 90 -40 196zM213 520q0 -83 32 -158q31 -74 87 -129t129 -87q72 -31 157 -31q86 0 158 31q74 32 129 87t87 129q32 75 32 158t-32 158q-32 74 -87 128q-56 55 -129 86q-75 32 -158 32q-82 0 -157 -32q-73 -31 -129 -86q-55 -54 -87 -128q-32 -75 -32 -158zM586 1323 l168 250l82 -55l-166 -250z" />
<glyph unicode="&#xe2;" d="M111 520q0 107 40 197q42 95 109 162t162 109q90 40 196 40q58 0 113 -13q61 -14 112 -40q57 -28 101 -64q50 -40 78 -84v185h102l2 -983h-104v184q-28 -44 -78 -84q-41 -33 -101 -63q-51 -26 -112 -40q-59 -14 -113 -14q-106 0 -196 40q-93 41 -162 110q-67 67 -109 162 q-40 90 -40 196zM213 520q0 -83 32 -158q31 -74 87 -129t129 -87q72 -31 157 -31q86 0 158 31q74 32 129 87t87 129q32 75 32 158t-32 158q-32 74 -87 128q-56 55 -129 86q-75 32 -158 32q-82 0 -157 -32q-73 -31 -129 -86q-55 -54 -87 -128q-32 -75 -32 -158zM295 1335 l291 219h45l293 -219l-62 -80l-254 191l-254 -191z" />
<glyph unicode="&#xe3;" d="M111 520q0 107 40 197q42 95 109 162t162 109q90 40 196 40q58 0 113 -13q61 -14 112 -40q57 -28 101 -64q50 -40 78 -84v185h102l2 -983h-104v184q-28 -44 -78 -84q-41 -33 -101 -63q-51 -26 -112 -40q-59 -14 -113 -14q-106 0 -196 40q-93 41 -162 110q-67 67 -109 162 q-40 90 -40 196zM199 1421q34 34 73 57q43 25 103 25q67 0 123 -32q49 -28 102 -62q48 -30 84 -47q41 -19 78 -19q41 0 79 20q39 20 62 52l80 -61q-40 -52 -97 -80q-60 -29 -124 -29t-118 26q-50 24 -97 54q-44 28 -95 55q-43 23 -77 23q-33 0 -56 -12q-21 -11 -51 -41z M213 520q0 -83 32 -158q31 -74 87 -129t129 -87q72 -31 157 -31q86 0 158 31q74 32 129 87t87 129q32 75 32 158t-32 158q-32 74 -87 128q-56 55 -129 86q-75 32 -158 32q-82 0 -157 -32q-73 -31 -129 -86q-55 -54 -87 -128q-32 -75 -32 -158z" />
<glyph unicode="&#xe4;" d="M111 520q0 107 40 197q42 95 109 162t162 109q90 40 196 40q58 0 113 -13q61 -14 112 -40q57 -28 101 -64q50 -40 78 -84v185h102l2 -983h-104v184q-28 -44 -78 -84q-41 -33 -101 -63q-51 -26 -112 -40q-59 -14 -113 -14q-106 0 -196 40q-93 41 -162 110q-67 67 -109 162 q-40 90 -40 196zM213 520q0 -83 32 -158q31 -74 87 -129t129 -87q72 -31 157 -31q86 0 158 31q74 32 129 87t87 129q32 75 32 158t-32 158q-32 74 -87 128q-56 55 -129 86q-75 32 -158 32q-82 0 -157 -32q-73 -31 -129 -86q-55 -54 -87 -128q-32 -75 -32 -158zM315 1389 q0 34 23 57q22 22 57 22q34 0 57 -22t23 -57q0 -34 -23 -56t-57 -22q-35 0 -57 22q-23 23 -23 56zM748 1389q0 35 22 57t55 22q36 0 58 -22t22 -57q0 -34 -22 -56t-58 -22q-33 0 -56 22q-23 21 -21 56z" />
<glyph unicode="&#xe5;" d="M111 516q0 161 88 288q89 128 235 185q-41 38 -68 94q-26 54 -26 117q0 58 21 109q20 49 60 89q37 37 89 60t108 23q57 0 109 -23t89 -60q39 -39 61 -89t22 -109q0 -63 -26 -117q-27 -55 -70 -94q65 -24 122 -67q53 -41 99 -99v189h102v-971h-102v168q-85 -97 -179 -148 q-98 -53 -227 -53q-106 0 -196 40q-93 41 -162 110q-68 68 -109 161q-40 90 -40 197zM215 516q0 -83 32 -158q31 -74 86 -128q55 -55 128 -86q72 -31 157 -31q86 0 158 31q73 31 129 86q55 54 87 128q32 75 32 158t-32 158q-32 74 -87 129t-129 87q-75 32 -158 32 q-82 0 -157 -32q-74 -32 -128 -87q-55 -56 -86 -129q-32 -75 -32 -158zM442 1200q0 -36 15 -68q16 -34 38 -56q23 -23 55 -38q29 -14 68 -14q40 0 69 14q34 16 56 38q25 25 38 56q14 33 14 68q0 73 -52 125q-51 51 -125 51q-38 0 -68 -13t-55 -38q-22 -22 -38 -56 q-15 -31 -15 -69z" />
<glyph unicode="&#xe6;" horiz-adv-x="2123" d="M111 520q0 107 40 197q42 95 109 162t162 109q90 40 196 40q58 0 113 -13q61 -14 112 -40q57 -28 101 -64q50 -40 78 -84v185h102l2 -983h-104v184q-28 -44 -78 -84q-41 -33 -101 -63q-51 -26 -112 -40q-59 -14 -113 -14q-106 0 -196 40q-93 41 -162 110q-67 67 -109 162 q-40 90 -40 196zM213 520q0 -82 32 -157t87 -130q56 -55 129 -87q72 -31 157 -31q86 0 158 31q74 32 129 87t87 130t32 157q0 83 -32 158q-32 74 -87 128q-56 55 -129 86q-75 32 -158 32q-82 0 -157 -32q-73 -31 -129 -86q-55 -54 -87 -128q-32 -75 -32 -158zM1024 520 q0 107 40 197q41 93 110 162q68 68 161 109q90 40 197 40q96 0 183 -36q89 -37 153 -98q65 -62 104 -148t39 -183l2 -51h-885q1 -81 34 -155q32 -73 86 -127q55 -55 128 -85q74 -30 156 -30q100 0 188 46q89 47 144 130l84 -60q-67 -102 -180 -161q-111 -58 -236 -58 q-107 0 -197 40q-91 41 -161 110q-69 69 -110 162q-40 90 -40 196zM1139 614h766q-11 71 -44 126q-35 58 -84 98t-113 63t-132 23t-134 -23q-64 -23 -117 -63q-48 -37 -89 -99q-36 -54 -53 -125z" />
<glyph unicode="&#xe7;" horiz-adv-x="1134" d="M113 519q0 211 148 359t359 148q126 0 236 -58q112 -59 183 -161l-85 -59q-57 82 -146 129q-88 46 -188 46q-168 0 -286 -118t-118 -286q0 -169 118 -287t286 -118q99 0 188 47q90 47 146 128l85 -58q-72 -103 -183 -162q-110 -58 -236 -58q-210 0 -359 149 q-148 148 -148 359zM219 -390l30 98q57 -18 137 -18q108 0 176 57q68 56 68 155q0 64 -50 128l80 65q73 -93 73 -193q0 -144 -105 -233q-97 -82 -242 -82q-93 0 -167 23z" />
<glyph unicode="&#xe8;" horiz-adv-x="1200" d="M111 520q0 107 40 197q42 95 109 162t162 109q90 40 196 40q97 0 184 -36t152 -98q66 -63 105 -148q39 -86 39 -183l2 -51h-885q1 -81 34 -155q32 -73 86 -127q55 -55 128 -85t155 -30q101 0 189 46q87 46 143 130l84 -60q-68 -103 -179 -161t-237 -58q-106 0 -196 40 q-93 41 -162 110q-67 67 -109 162q-40 90 -40 196zM225 614h766q-11 71 -44 126q-35 58 -84 98q-50 41 -112 63q-64 23 -133 23q-68 0 -134 -23q-63 -22 -116 -63q-48 -37 -89 -99q-37 -57 -54 -125zM406 1518l167 -250l82 55l-166 250z" />
<glyph unicode="&#xe9;" horiz-adv-x="1200" d="M111 520q0 107 40 197q42 95 109 162t162 109q90 40 196 40q97 0 184 -36t152 -98q66 -63 105 -148q39 -86 39 -183l2 -51h-885q1 -81 34 -155q32 -73 86 -127q55 -55 128 -85t155 -30q101 0 189 46q87 46 143 130l84 -60q-68 -103 -179 -161t-237 -58q-106 0 -196 40 q-93 41 -162 110q-67 67 -109 162q-40 90 -40 196zM225 614h766q-11 71 -44 126q-35 58 -84 98q-50 41 -112 63q-64 23 -133 23q-68 0 -134 -23q-63 -22 -116 -63q-48 -37 -89 -99q-37 -57 -54 -125zM578 1323l84 -55l165 250l-82 55z" />
<glyph unicode="&#xea;" horiz-adv-x="1200" d="M111 520q0 107 40 197q42 95 109 162t162 109q90 40 196 40q97 0 184 -36t152 -98q66 -63 105 -148q39 -86 39 -183l2 -51h-885q1 -81 34 -155q32 -73 86 -127q55 -55 128 -85t155 -30q101 0 189 46q87 46 143 130l84 -60q-68 -103 -179 -161t-237 -58q-106 0 -196 40 q-93 41 -162 110q-67 67 -109 162q-40 90 -40 196zM225 614h766q-11 71 -44 126q-35 58 -84 98q-50 41 -112 63q-64 23 -133 23q-68 0 -134 -23q-63 -22 -116 -63q-48 -37 -89 -99q-37 -57 -54 -125zM303 1335l59 -80l254 191l254 -191l62 80l-293 219h-45z" />
<glyph unicode="&#xeb;" horiz-adv-x="1200" d="M111 520q0 107 40 197q42 95 109 162t162 109q90 40 197 40q96 0 183 -36t152 -98q66 -63 105 -148q39 -86 39 -183l2 -51h-885q1 -81 34 -155q32 -73 86 -127q55 -55 128 -85t155 -30q101 0 189 46q87 46 143 130l84 -60q-68 -103 -179 -161t-237 -58q-106 0 -196 40 q-93 41 -162 110q-67 67 -109 162q-40 90 -40 196zM225 614h766q-11 71 -44 126q-35 58 -84 98q-50 41 -112 63q-64 23 -132 23q-69 0 -135 -23q-63 -22 -116 -63q-48 -37 -89 -99q-37 -57 -54 -125zM315 1389q0 34 23 57q22 22 57 22q34 0 57 -22t23 -57q0 -34 -23 -56 t-57 -22q-35 0 -57 22q-23 23 -23 56zM748 1389q0 35 22 57t55 22q36 0 58 -22t22 -57q0 -34 -22 -56t-58 -22q-33 0 -56 22q-23 21 -21 56z" />
<glyph unicode="&#xec;" horiz-adv-x="481" d="M29 1518l168 -250l82 55l-166 250zM188 29v970h105v-970h-105z" />
<glyph unicode="&#xed;" horiz-adv-x="481" d="M188 29v970h105v-970h-105zM195 1323l84 -55l165 250l-82 55z" />
<glyph unicode="&#xee;" horiz-adv-x="481" d="M-74 1335l60 -80l256 191l254 -191l59 80l-291 219h-47zM188 29v970h105v-970h-105z" />
<glyph unicode="&#xef;" horiz-adv-x="481" d="M-53 1389q0 35 22 57t56 22q35 0 57 -22t22 -57q0 -34 -22 -56t-57 -22q-34 0 -56 22t-22 56zM188 29v970h105v-970h-105zM377 1389q0 35 22 57t58 22q33 0 55 -22q23 -23 23 -57q0 -33 -23 -56q-22 -22 -55 -22q-36 0 -58 22t-22 56z" />
<glyph unicode="&#xf0;" horiz-adv-x="1124" d="M100 459q0 141 57 249q57 107 159 165q104 59 239 59q227 0 334 -162q-39 230 -199 387l-319 -125l-31 90l268 105q-122 88 -282 133l32 96q214 -60 369 -184l260 100l33 -88l-217 -84q221 -238 221 -616q0 -295 -119 -447q-118 -151 -350 -151q-136 0 -239 58 q-102 58 -159 166t-57 249zM231 459q0 -175 84 -269t242 -94q153 0 242 97q88 95 88 266q0 173 -87 267q-87 95 -241 95q-156 0 -242 -95t-86 -267z" />
<glyph unicode="&#xf1;" horiz-adv-x="1212" d="M197 29v970h102v-125q52 77 142 114q89 36 182 36q86 0 160 -34q75 -34 130 -91q56 -57 87 -133q32 -78 32 -160v-577h-102v577q0 64 -25 123q-24 57 -67 100q-44 44 -101 68q-59 25 -123 25t-122 -26q-56 -25 -101 -70q-43 -43 -67 -103q-25 -63 -25 -127v-567h-102z M219 1421q33 33 74 57q43 25 102 25q67 0 123 -32q57 -33 103 -62q48 -30 84 -47q41 -19 77 -19q41 0 79 20q40 21 63 52l80 -61q-39 -51 -98 -80q-60 -29 -124 -29q-63 0 -117 26q-55 27 -98 54q-44 28 -95 55q-43 23 -77 23q-33 0 -55 -12q-21 -11 -51 -41z" />
<glyph unicode="&#xf2;" horiz-adv-x="1236" d="M111 520q0 107 40 197q42 95 109 162t162 109q90 40 196 40q107 0 197 -40q95 -42 162 -109t109 -162q40 -90 40 -197q0 -106 -40 -196q-42 -95 -109 -162q-69 -69 -162 -110q-90 -40 -197 -40q-106 0 -196 40q-93 41 -162 110q-67 67 -109 162q-40 90 -40 196zM213 520 q0 -83 32 -158q31 -74 87 -129t129 -87q72 -31 157 -31q86 0 158 31q74 32 129 87t87 129q32 75 32 158t-32 158q-32 74 -87 128q-56 55 -129 86q-75 32 -158 32q-82 0 -157 -32q-73 -31 -129 -86q-55 -54 -87 -128q-32 -75 -32 -158zM397 1518l168 -250l82 55l-166 250z " />
<glyph unicode="&#xf3;" horiz-adv-x="1236" d="M111 520q0 107 40 197q42 95 109 162t162 109q90 40 196 40q107 0 197 -40q95 -42 162 -109t109 -162q40 -90 40 -197q0 -106 -40 -196q-42 -95 -109 -162q-69 -69 -162 -110q-90 -40 -197 -40q-106 0 -196 40q-93 41 -162 110q-67 67 -109 162q-40 90 -40 196zM213 520 q0 -83 32 -158q31 -74 87 -129t129 -87q72 -31 157 -31q86 0 158 31q74 32 129 87t87 129q32 75 32 158t-32 158q-32 74 -87 128q-56 55 -129 86q-75 32 -158 32q-82 0 -157 -32q-73 -31 -129 -86q-55 -54 -87 -128q-32 -75 -32 -158zM582 1323l84 -55l165 250l-81 55z" />
<glyph unicode="&#xf4;" horiz-adv-x="1236" d="M111 520q0 107 40 197q42 95 109 162t162 109q90 40 196 40q107 0 197 -40q95 -42 162 -109t109 -162q40 -90 40 -197q0 -106 -40 -196q-42 -95 -109 -162q-69 -69 -162 -110q-90 -40 -197 -40q-106 0 -196 40q-93 41 -162 110q-67 67 -109 162q-40 90 -40 196zM213 520 q0 -83 32 -158q31 -74 87 -129t129 -87q72 -31 157 -31q86 0 158 31q74 32 129 87t87 129q32 75 32 158t-32 158q-32 74 -87 128q-56 55 -129 86q-75 32 -158 32q-82 0 -157 -32q-73 -31 -129 -86q-55 -54 -87 -128q-32 -75 -32 -158zM305 1335l60 -80l253 191l254 -191 l60 80l-291 219h-45z" />
<glyph unicode="&#xf5;" horiz-adv-x="1236" d="M111 520q0 107 40 197q42 95 109 162t162 109q90 40 196 40q107 0 197 -40q95 -42 162 -109t109 -162q40 -90 40 -197q0 -106 -40 -196q-42 -95 -109 -162q-69 -69 -162 -110q-90 -40 -197 -40q-106 0 -196 40q-93 41 -162 110q-67 67 -109 162q-40 90 -40 196zM213 520 q0 -83 32 -158q31 -74 87 -129t129 -87q72 -31 157 -31q86 0 158 31q74 32 129 87t87 129q32 75 32 158t-32 158q-32 74 -87 128q-56 55 -129 86q-75 32 -158 32q-82 0 -157 -32q-73 -31 -129 -86q-55 -54 -87 -128q-32 -75 -32 -158zM227 1421l70 -71q30 30 51 41 q22 12 55 12q34 0 77 -23q51 -27 95 -55q43 -27 98 -54q54 -26 118 -26q63 0 123 29q59 29 98 80l-80 61q-23 -31 -63 -52q-38 -20 -78 -20q-37 0 -78 19q-36 17 -84 47q-46 29 -103 62q-56 32 -123 32q-59 0 -102 -25q-41 -24 -74 -57z" />
<glyph unicode="&#xf6;" horiz-adv-x="1236" d="M111 520q0 107 40 197q42 95 109 162t162 109q90 40 196 40q107 0 197 -40q95 -42 162 -109t109 -162q40 -90 40 -197q0 -106 -40 -196q-42 -95 -109 -162q-69 -69 -162 -110q-90 -40 -197 -40q-106 0 -196 40q-93 41 -162 110q-67 67 -109 162q-40 90 -40 196zM213 520 q0 -83 32 -158q31 -74 87 -129t129 -87q72 -31 157 -31q86 0 158 31q74 32 129 87t87 129q32 75 32 158t-32 158q-32 74 -87 128q-56 55 -129 86q-75 32 -158 32q-82 0 -157 -32q-73 -31 -129 -86q-55 -54 -87 -128q-32 -75 -32 -158zM315 1389q0 34 23 57q22 22 57 22 q34 0 57 -22t23 -57q0 -34 -23 -56t-57 -22q-35 0 -57 22q-23 23 -23 56zM748 1389q0 35 22 57t55 22q36 0 58 -22t22 -57q0 -34 -22 -56t-58 -22q-33 0 -56 22q-23 21 -21 56z" />
<glyph unicode="&#xf7;" horiz-adv-x="1138" d="M164 737v103h811v-103h-811zM489 453q0 31 23 56q22 23 57 23q34 0 57 -23t23 -56q0 -36 -23 -58t-57 -22q-35 0 -57 22q-23 23 -23 58zM489 1124q0 32 23 57q22 23 57 23q34 0 57 -23t23 -57q0 -35 -23 -57q-25 -23 -57 -23q-34 0 -57 23t-23 57z" />
<glyph unicode="&#xf8;" horiz-adv-x="1236" d="M96 102l119 111q-104 134 -104 307q0 107 40 197q42 95 109 162t162 109q90 40 196 40q94 0 180 -33q87 -33 154 -92l119 111l70 -76l-119 -111q104 -134 104 -307q0 -106 -40 -196q-42 -95 -109 -162q-69 -69 -162 -110q-90 -40 -197 -40q-94 0 -179 33q-87 33 -154 92 l-119 -110zM213 520q0 -68 20 -125q21 -60 58 -112l586 548q-51 44 -120 69q-66 24 -139 24q-82 0 -157 -32q-73 -31 -129 -86q-55 -54 -87 -128q-32 -75 -32 -158zM360 209q52 -46 120 -71q63 -23 138 -23q86 0 158 31q74 32 129 87t87 129q32 75 32 158q0 68 -20 125 q-21 61 -58 111z" />
<glyph unicode="&#xf9;" horiz-adv-x="1214" d="M182 430v569h103v-569q0 -136 89.5 -225.5t225.5 -89.5q137 0 226 92.5t89 232.5v559h103v-970h-103v141q-46 -73 -132 -115.5t-191 -42.5q-175 0 -292.5 120.5t-117.5 297.5zM391 1518l84 55l166 -250l-82 -55z" />
<glyph unicode="&#xfa;" horiz-adv-x="1214" d="M182 430v569h103v-569q0 -136 89.5 -225.5t225.5 -89.5q137 0 226 92.5t89 232.5v559h103v-970h-103v141q-46 -73 -132 -115.5t-191 -42.5q-175 0 -292.5 120.5t-117.5 297.5zM559 1323l168 250l82 -55l-166 -250z" />
<glyph unicode="&#xfb;" horiz-adv-x="1214" d="M182 430v569h103v-569q0 -136 89.5 -225.5t225.5 -89.5q137 0 226 92.5t89 232.5v559h103v-970h-103v141q-46 -73 -132 -115.5t-191 -42.5q-175 0 -292.5 120.5t-117.5 297.5zM285 1335l290 219h46l292 -219l-61 -80l-254 191l-254 -191z" />
<glyph unicode="&#xfc;" horiz-adv-x="1214" d="M182 430v569h103v-569q0 -136 89.5 -225.5t225.5 -89.5q137 0 226 92.5t89 232.5v559h103v-970h-103v141q-46 -73 -132 -115.5t-191 -42.5q-175 0 -292.5 120.5t-117.5 297.5zM305 1389q0 34 23 57q22 22 57 22q33 0 56 -22q24 -22 24 -57q0 -33 -24 -56q-23 -22 -56 -22 q-35 0 -57 22q-23 23 -23 56zM737 1389q0 34 23 57q22 22 55 22q35 0 57 -22q23 -23 23 -57q0 -33 -23 -56q-22 -22 -57 -22q-33 0 -56 22q-24 22 -22 56z" />
<glyph unicode="&#xfd;" horiz-adv-x="1064" d="M47 971l92 47l434 -848l347 844l94 -39l-430 -1049v-2q-33 -72 -78 -138q-46 -67 -104 -118t-129 -81q-68 -29 -154 -29q-30 0 -48 3t-20 3l25 100q6 -2 12 -2q6 -2 12 -2h19q68 0 125 27t103 70q45 42 81 100q34 55 61 110l31 78zM524 1323l84 -55l166 250l-82 55z" />
<glyph unicode="&#xfe;" d="M199 -409v1823h103v-587q21 27 46 52q147 148 359 148t359 -148q148 -147 148 -359q0 -211 -148 -359q-149 -149 -359 -149q-218 0 -359 149q-32 34 -46 52v-622h-103zM302 520q0 -167 119 -286t286 -119t286 119q118 118 118 286t-118 286t-286 118t-286 -118 q-119 -119 -119 -286z" />
<glyph unicode="&#xff;" horiz-adv-x="1064" d="M47 971l92 47l434 -848l347 844l94 -39l-430 -1049v-2q-33 -72 -78 -138q-46 -67 -104 -118t-129 -81q-68 -29 -154 -29q-30 0 -48 3t-20 3l25 100q6 -2 12 -2q6 -2 12 -2h19q68 0 125 27t103 70q45 42 81 100q34 55 61 110l31 78zM236 1389q0 35 22 57t57 22 q34 0 57 -22t23 -57q0 -34 -23 -56t-57 -22q-35 0 -57 22t-22 56zM668 1389q0 35 22 57t55 22q36 0 58 -22t22 -57q0 -34 -22 -56t-58 -22q-33 0 -56 22q-23 21 -21 56z" />
<glyph unicode="&#x152;" horiz-adv-x="2353" d="M219 793q0 -153 61 -295q60 -140 163 -244t241 -165q136 -60 293 -60h332v1519h-332q-158 0 -294 -59q-140 -61 -241 -162t-162 -240t-61 -294zM326 793q0 135 51 253q50 116 140 206q91 91 207 141q119 51 253 51h332v-1311h-332q-134 0 -254 53q-116 51 -207 144 q-88 89 -139 210q-51 120 -51 253zM1309 29v1519h825v-102h-723v-559h670v-101h-670v-655h723v-102h-825z" />
<glyph unicode="&#x153;" horiz-adv-x="2105" d="M101 520q0 107 40 197q41 93 110 162q67 67 162 109q90 40 196 40q107 0 197 -40q95 -42 162 -109t109 -162q40 -90 40 -197q0 -106 -40 -196q-42 -95 -109 -162q-69 -69 -162 -110q-90 -40 -197 -40q-106 0 -196 40q-93 41 -162 110t-110 162q-40 90 -40 196zM204 520 q0 -83 32 -158q32 -74 87 -129t129 -87q72 -31 157 -31q86 0 158 31q73 32 129 87t87 129q32 75 32 158t-32 158q-32 74 -87 128q-56 55 -129 86q-75 32 -158 32q-82 0 -157 -32q-73 -31 -129 -86q-55 -54 -87 -128q-32 -75 -32 -158zM1015 520q0 107 40 197q42 95 109 162 t162 109q90 40 197 40q96 0 183 -36q89 -37 153 -98q65 -62 104 -148t39 -183l2 -51h-885q1 -81 34 -155q32 -73 86 -127q55 -55 128 -85t156 -30q100 0 188 46q87 46 143 130l84 -60q-68 -103 -179 -161t-236 -58q-107 0 -197 40q-93 41 -162 110q-67 67 -109 162 q-40 90 -40 196zM1129 614h766q-11 71 -44 126q-35 58 -84 98q-50 41 -112 63q-64 23 -132 23t-134 -23q-65 -23 -117 -63q-48 -37 -89 -99q-37 -57 -54 -125z" />
<glyph unicode="&#x2c6;" horiz-adv-x="671" d="M22 1335l290 219h45l293 -219l-61 -80l-254 191l-254 -191z" />
<glyph unicode="&#x2dc;" horiz-adv-x="884" d="M50 1421q33 33 74 57q43 25 102 25q67 0 123 -32q57 -33 103 -62q48 -30 84 -47q41 -19 77 -19q41 0 79 20q40 21 63 52l80 -61q-39 -51 -98 -80q-60 -29 -124 -29q-63 0 -117 26q-55 27 -98 54q-54 33 -95 55q-43 23 -77 23q-32 0 -55 -12q-21 -11 -51 -41z" />
<glyph unicode="&#x2000;" horiz-adv-x="1023" />
<glyph unicode="&#x2001;" horiz-adv-x="2046" />
<glyph unicode="&#x2002;" horiz-adv-x="1023" />
<glyph unicode="&#x2003;" horiz-adv-x="2046" />
<glyph unicode="&#x2004;" horiz-adv-x="682" />
<glyph unicode="&#x2005;" horiz-adv-x="511" />
<glyph unicode="&#x2006;" horiz-adv-x="341" />
<glyph unicode="&#x2007;" horiz-adv-x="341" />
<glyph unicode="&#x2008;" horiz-adv-x="255" />
<glyph unicode="&#x2009;" horiz-adv-x="409" />
<glyph unicode="&#x200a;" horiz-adv-x="113" />
<glyph unicode="&#x2010;" horiz-adv-x="1138" d="M164 737v103h811v-103h-811z" />
<glyph unicode="&#x2011;" horiz-adv-x="1138" d="M164 737v103h811v-103h-811z" />
<glyph unicode="&#x2012;" horiz-adv-x="1138" d="M164 737v103h811v-103h-811z" />
<glyph unicode="&#x2013;" horiz-adv-x="1024" d="M0 500v88h1024v-88h-1024z" />
<glyph unicode="&#x2014;" horiz-adv-x="2048" d="M0 500v88h2048v-88h-2048z" />
<glyph unicode="&#x2018;" horiz-adv-x="450" d="M139 1061v131q0 78 24 141q25 66 83 121l65 -51q-40 -43 -58 -82q-17 -38 -22 -84h82v-176h-174z" />
<glyph unicode="&#x2019;" horiz-adv-x="450" d="M139 1268v176h174v-129q0 -79 -24 -143q-23 -62 -82 -121l-66 51q74 83 80 166h-82z" />
<glyph unicode="&#x201a;" horiz-adv-x="450" d="M139 0v176h174v-129q0 -77 -24 -142q-24 -64 -82 -122l-66 51q74 83 80 166h-82z" />
<glyph unicode="&#x201c;" horiz-adv-x="765" d="M139 1061v131q0 78 24 141q25 66 83 121l65 -51q-40 -43 -58 -82q-17 -38 -22 -84h82v-176h-174zM455 1061v131q0 81 23 141q25 66 83 121l66 -51q-42 -45 -59 -82q-16 -35 -21 -84h82v-176h-174z" />
<glyph unicode="&#x201d;" horiz-adv-x="765" d="M139 1268v176h174v-129q0 -79 -24 -143q-23 -62 -82 -121l-66 51q74 83 80 166h-82zM455 1268v176h174v-129q0 -76 -25 -143q-23 -62 -82 -121l-65 51q74 83 80 166h-82z" />
<glyph unicode="&#x201e;" horiz-adv-x="765" d="M139 0v176h174v-129q0 -77 -24 -142q-24 -64 -82 -122l-66 51q74 83 80 166h-82zM455 0v176h174v-129q0 -75 -25 -142q-24 -64 -82 -122l-65 51q74 83 80 166h-82z" />
<glyph unicode="&#x2022;" horiz-adv-x="1073" d="M166 543q0 94 48 178t133 135q86 51 190 51q97 0 183 -48q84 -47 136 -131q51 -82 51 -185q0 -99 -50 -182q-49 -83 -135 -132q-85 -49 -185 -49q-99 0 -185 48q-87 49 -136 131q-50 83 -50 184z" />
<glyph unicode="&#x2026;" horiz-adv-x="1351" d="M139 0v176h174v-176h-174zM590 0v176h174v-176h-174zM1040 0v176h174v-176h-174z" />
<glyph unicode="&#x202f;" horiz-adv-x="409" />
<glyph unicode="&#x2039;" horiz-adv-x="505" d="M123 510v65l192 326l93 -35l-162 -323l162 -324l-93 -35z" />
<glyph unicode="&#x203a;" horiz-adv-x="505" d="M98 219l164 324l-164 323l95 35l190 -326v-65l-193 -326z" />
<glyph unicode="&#x205f;" horiz-adv-x="511" />
<glyph unicode="&#x20ac;" horiz-adv-x="1474" d="M-156 553v104h930v-104h-930zM-156 924v102h930v-102h-930zM123 788q0 166 61 306t167 246t247 166q143 61 301 61q273 0 487 -172l-63 -80q-87 70 -199 110q-108 39 -225 39q-138 0 -262 -53q-122 -52 -214 -144t-144 -214q-54 -127 -54 -262q0 -136 54 -263 q53 -124 144 -215q94 -94 214 -145q124 -53 262 -53q117 0 225 39q112 40 199 110l63 -80q-214 -172 -487 -172q-161 0 -303 62t-247 167q-107 107 -166 246q-60 141 -60 301z" />
<glyph unicode="&#x2122;" horiz-adv-x="1857" d="M12 1341v103h709v-103h-293v-759h-123v759h-293zM858 582v862h94l322 -610l317 610h92v-862h-106v635l-262 -502h-84l-262 491v-624h-111z" />
<glyph unicode="&#x25fc;" horiz-adv-x="1013" d="M0 0v1014h1014v-1014h-1014z" />
</font>
</defs>
</svg>
