<?xml version="1.0" standalone="no"?><!DOCTYPE svg PUBLIC "-//W3C//DTD SVG 1.1//EN" "http://www.w3.org/Graphics/SVG/1.1/DTD/svg11.dtd"><svg height="1024" node-id="1" sillyvg="true" template-height="1024" template-width="1024" version="1.1" viewBox="0 0 1024 1024" width="1024" xmlns="http://www.w3.org/2000/svg" xmlns:xlink="http://www.w3.org/1999/xlink"><defs node-id="23"></defs><path d="M 1024.00 1024.00 L 2048.00 1024.00 L 2048.00 2048.00 L 1024.00 2048.00 Z" fill="#ffffff" fill-rule="nonzero" node-id="25" stroke="none" target-height="1024" target-width="1024" target-x="1024" target-y="1024"></path><path d="M 495.30 360.50 L 503.20 353.80 L 510.70 346.80 L 517.70 339.60 L 524.20 332.10 L 530.40 324.30 L 536.30 316.30 L 541.80 308.10 L 546.90 299.60 L 553.30 288.10 L 559.30 276.20 L 564.80 264.00 L 570.00 251.70 L 579.40 226.50 L 586.00 207.20 L 604.70 149.40 L 611.20 130.40 L 618.20 112.00 L 631.40 120.30 L 648.60 129.10 L 691.30 147.50 L 701.80 152.40 L 708.60 156.30 L 715.00 160.40 L 721.10 165.00 L 726.80 169.90 L 732.20 175.10 L 737.40 180.60 L 742.20 186.30 L 746.70 192.40 L 752.30 200.80 L 757.40 209.50 L 762.10 218.60 L 766.30 227.90 L 770.10 237.40 L 776.50 256.80 L 781.60 276.20 L 765.40 271.60 L 749.00 267.30 L 737.90 264.90 L 726.70 262.80 L 715.50 261.20 L 698.60 259.80 L 681.80 259.80 L 673.40 260.40 L 665.10 261.50 L 656.80 263.10 L 648.40 265.20 L 643.20 267.30 L 638.50 269.80 L 634.10 272.70 L 629.90 275.90 L 626.10 279.50 L 622.50 283.50 L 617.50 289.70 L 612.90 296.50 L 608.60 303.50 L 597.00 324.60 L 600.80 334.00 L 604.10 343.50 L 606.90 353.10 L 609.20 362.90 L 610.90 372.80 L 612.10 382.60 L 612.80 392.60 L 612.90 402.50 L 612.60 412.50 L 611.80 422.40 L 610.40 432.20 L 608.60 442.00 L 606.30 451.60 L 603.50 461.10 L 600.30 470.40 L 596.50 479.60 L 592.30 488.50 L 587.60 497.20 L 582.50 505.60 L 577.00 513.80 L 570.90 521.60 L 564.50 529.10 L 557.60 536.20 L 550.30 542.90 L 542.60 549.20 L 534.40 555.10 L 525.80 560.50 L 516.80 565.50 L 500.70 573.50 L 484.20 581.20 L 465.70 588.60 L 442.20 596.40 L 427.80 600.60 L 399.00 608.40 L 377.60 647.60 L 366.40 667.30 L 354.70 686.70 L 346.50 699.40 L 338.10 711.90 L 329.30 724.10 L 320.20 736.00 L 310.60 747.50 L 300.60 758.50 L 292.90 766.50 L 284.80 774.20 L 276.40 781.50 L 267.70 788.60 L 258.80 795.30 L 249.50 801.50 L 239.80 807.40 L 229.70 812.90 L 225.60 815.00 L 222.10 816.10 L 219.30 816.50 L 216.50 816.30 L 214.10 815.60 L 212.20 814.40 L 210.50 812.70 L 209.20 810.70 L 208.10 808.20 L 207.10 802.80 L 207.00 799.70 L 207.80 793.50 L 208.60 790.40 L 209.70 787.40 L 212.70 782.10 L 220.70 763.80 L 229.10 745.80 L 238.00 728.00 L 257.00 692.90 L 267.00 675.70 L 282.40 650.10 L 298.10 624.80 L 269.10 624.00 L 254.50 623.10 L 240.10 621.70 L 230.50 620.40 L 211.60 616.60 L 202.30 614.10 L 193.10 611.10 L 184.00 607.60 L 201.20 597.30 L 218.00 586.80 L 234.70 575.90 L 251.10 564.60 L 272.60 549.20 L 293.80 533.30 L 314.70 516.90 L 355.70 483.20 L 375.90 466.00 L 405.90 439.80 L 495.30 360.50 Z" fill="#293d33" fill-rule="nonzero" node-id="27" stroke="none" target-height="704.5" target-width="597.6" target-x="184" target-y="112"></path><path d="M 298.30 155.10 L 304.50 153.90 L 310.70 153.20 L 316.90 153.00 L 323.20 153.40 L 332.90 155.00 L 336.10 156.20 L 338.90 157.90 L 341.40 160.10 L 343.60 162.50 L 345.40 165.40 L 348.10 171.70 L 349.30 178.60 L 349.00 185.50 L 348.30 188.80 L 347.10 192.00 L 345.50 194.90 L 343.50 197.50 L 341.10 199.80 L 334.60 204.10 L 330.70 206.20 L 326.40 208.00 L 322.00 209.40 L 317.60 210.40 L 313.00 211.10 L 308.30 211.30 L 303.80 211.10 L 299.40 210.40 L 295.20 209.20 L 291.20 207.40 L 287.50 205.10 L 285.00 203.10 L 282.80 200.70 L 280.70 197.90 L 278.90 194.70 L 277.80 190.70 L 277.40 186.60 L 277.40 182.50 L 278.00 178.50 L 279.00 174.50 L 280.60 170.80 L 282.60 167.20 L 284.90 164.00 L 287.70 161.10 L 290.90 158.60 L 294.40 156.60 L 298.30 155.10 Z" fill="#fed241" fill-rule="nonzero" node-id="29" stroke="none" target-height="58.300003" target-width="71.899994" target-x="277.4" target-y="153"></path><path d="M 597.00 324.60 L 608.60 303.50 L 612.90 296.50 L 617.50 289.70 L 622.50 283.50 L 626.10 279.50 L 629.90 275.90 L 634.10 272.70 L 638.50 269.80 L 643.20 267.30 L 648.40 265.20 L 656.80 263.10 L 665.10 261.50 L 673.40 260.40 L 681.80 259.80 L 698.60 259.80 L 715.50 261.20 L 726.70 262.80 L 737.80 264.90 L 749.00 267.30 L 765.40 271.60 L 786.60 277.70 L 775.00 298.10 L 770.30 305.30 L 765.40 312.30 L 760.00 318.90 L 754.30 325.30 L 748.20 331.20 L 741.60 336.70 L 734.60 341.80 L 717.50 355.20 L 712.60 360.40 L 710.60 363.30 L 708.90 366.30 L 707.80 369.70 L 707.10 373.50 L 707.50 379.10 L 709.30 390.10 L 713.70 406.40 L 724.20 438.40 L 685.40 437.90 L 669.70 439.50 L 659.40 442.20 L 658.90 439.10 L 658.00 436.10 L 656.50 433.10 L 654.60 430.30 L 652.40 427.90 L 649.90 425.70 L 647.20 423.80 L 644.40 422.40 L 641.60 421.50 L 639.40 421.20 L 635.30 421.60 L 633.30 422.40 L 631.50 423.50 L 629.80 425.10 L 628.30 427.20 L 626.80 430.00 L 625.60 433.80 L 624.40 441.50 L 624.10 447.30 L 624.30 453.20 L 626.90 476.80 L 626.80 481.60 L 627.40 486.00 L 628.50 490.00 L 630.10 493.80 L 632.20 497.30 L 635.00 500.60 L 638.30 503.70 L 652.20 514.00 L 670.80 526.70 L 678.60 529.10 L 708.70 536.50 L 701.30 545.10 L 693.50 553.40 L 685.40 561.30 L 677.00 568.90 L 668.20 576.00 L 659.00 582.60 L 649.50 588.70 L 614.10 609.20 L 592.40 608.20 L 570.60 607.70 L 548.80 607.80 L 534.00 587.80 L 516.80 565.50 L 525.80 560.50 L 534.40 555.10 L 542.60 549.20 L 550.30 542.90 L 557.60 536.20 L 564.50 529.10 L 570.90 521.60 L 577.00 513.80 L 582.50 505.60 L 587.60 497.20 L 592.30 488.50 L 596.50 479.60 L 600.30 470.40 L 603.50 461.10 L 606.30 451.60 L 608.60 442.00 L 610.40 432.20 L 611.80 422.40 L 612.60 412.50 L 612.90 402.50 L 612.80 392.60 L 612.10 382.60 L 610.90 372.80 L 609.20 362.90 L 606.90 353.10 L 604.10 343.50 L 600.80 334.00 L 597.00 324.60 Z M 715.30 301.00 L 721.80 302.20 L 725.10 303.90 L 725.90 304.90 L 726.20 306.00 L 725.80 308.20 L 723.40 310.90 L 721.30 312.30 L 719.10 313.20 L 715.50 313.80 L 713.40 312.90 L 712.80 312.10 L 712.40 310.90 L 712.40 309.00 L 713.70 304.50 L 715.30 301.00 Z" fill="#f56444" fill-rule="nonzero" node-id="31" stroke="none" target-height="349.40002" target-width="269.8" target-x="516.8" target-y="259.8"></path><path d="M 783.40 283.20 L 826.70 348.80 L 840.80 371.00 L 830.20 368.00 L 819.60 364.50 L 788.30 352.90 L 770.80 347.20 L 756.60 343.80 L 749.40 342.70 L 742.00 342.00 L 734.60 341.80 L 741.60 336.70 L 748.20 331.20 L 754.30 325.30 L 760.00 318.90 L 765.40 312.30 L 770.30 305.30 L 775.00 298.10 L 783.40 283.20 Z" fill="#323f3a" fill-rule="nonzero" node-id="33" stroke="none" target-height="87.79999" target-width="106.20001" target-x="734.6" target-y="283.2"></path><path d="M 715.30 301.00 L 721.80 302.20 L 725.10 303.90 L 725.90 304.90 L 726.20 306.00 L 725.80 308.20 L 723.40 310.90 L 721.30 312.30 L 719.10 313.20 L 715.50 313.80 L 713.40 312.90 L 712.80 312.10 L 712.40 310.90 L 712.40 309.00 L 713.70 304.50 L 715.30 301.00 Z" fill="#612417" fill-rule="nonzero" node-id="35" stroke="none" target-height="12.799988" target-width="13.799988" target-x="712.4" target-y="301"></path><path d="M 626.80 430.00 L 628.30 427.20 L 629.80 425.10 L 631.50 423.50 L 633.30 422.40 L 635.30 421.60 L 639.40 421.20 L 644.40 422.40 L 647.20 423.80 L 649.90 425.70 L 652.40 427.90 L 654.60 430.30 L 656.50 433.10 L 658.00 436.10 L 658.90 439.10 L 659.40 442.20 L 656.10 444.30 L 652.60 445.90 L 649.00 446.90 L 645.40 447.40 L 641.90 447.30 L 638.50 446.60 L 634.00 444.50 L 632.00 443.00 L 630.30 441.00 L 628.90 438.90 L 627.90 436.40 L 627.10 433.50 L 626.80 430.00 Z" fill="#f2b666" fill-rule="nonzero" node-id="37" stroke="none" target-height="26.199982" target-width="32.600037" target-x="626.8" target-y="421.2"></path><path d="M 626.90 476.80 L 624.80 459.10 L 624.10 447.30 L 624.80 437.60 L 626.80 430.00 L 627.10 433.50 L 627.90 436.40 L 628.90 438.90 L 630.30 441.00 L 634.00 444.50 L 638.50 446.60 L 641.90 447.30 L 645.40 447.40 L 649.00 446.90 L 652.60 445.90 L 656.10 444.30 L 659.40 442.20 L 669.70 439.50 L 667.50 443.50 L 666.10 447.10 L 665.40 450.30 L 665.20 453.20 L 665.60 455.70 L 666.50 458.10 L 667.80 460.40 L 669.80 462.50 L 672.40 464.60 L 675.90 466.50 L 679.50 464.50 L 682.40 462.30 L 684.70 460.00 L 686.40 457.60 L 687.50 455.00 L 688.20 452.20 L 688.40 449.20 L 688.00 445.80 L 687.10 442.10 L 685.40 437.90 L 724.20 438.40 L 721.40 450.20 L 705.20 450.80 L 707.80 465.10 L 732.60 447.40 L 732.70 456.90 L 732.20 466.30 L 731.20 475.60 L 729.60 484.70 L 727.40 493.70 L 724.70 502.60 L 721.50 511.30 L 717.80 519.90 L 713.50 528.20 L 708.70 536.50 L 678.60 529.10 L 683.90 491.00 L 652.20 514.00 L 638.30 503.70 L 641.20 502.00 L 643.50 500.10 L 645.30 498.00 L 646.60 495.70 L 647.50 493.20 L 648.00 490.70 L 648.00 488.10 L 647.00 483.30 L 645.90 481.10 L 644.50 479.20 L 642.80 477.50 L 640.80 476.10 L 638.50 475.20 L 635.90 474.80 L 633.30 474.80 L 630.30 475.50 L 626.90 476.80 Z M 697.00 495.70 L 703.50 496.80 L 706.70 498.50 L 707.50 499.50 L 707.80 500.50 L 707.30 502.70 L 704.90 505.50 L 700.60 507.80 L 697.00 508.40 L 695.00 507.60 L 694.30 506.80 L 693.90 505.50 L 693.90 503.60 L 695.30 499.20 L 697.00 495.70 Z" fill="#f56f2e" fill-rule="nonzero" node-id="39" stroke="none" target-height="106.5" target-width="108.60004" target-x="624.1" target-y="430"></path><path d="M 669.70 439.50 L 685.40 437.90 L 687.10 442.10 L 688.00 445.80 L 688.40 449.20 L 688.20 452.20 L 687.50 455.00 L 686.40 457.60 L 684.70 460.00 L 682.40 462.30 L 679.50 464.50 L 675.80 466.50 L 672.40 464.60 L 669.80 462.50 L 667.80 460.40 L 666.50 458.10 L 665.60 455.70 L 665.20 453.20 L 665.40 450.30 L 666.10 447.10 L 667.50 443.50 L 669.70 439.50 Z" fill="#f5c27e" fill-rule="nonzero" node-id="41" stroke="none" target-height="28.600006" target-width="23.200012" target-x="665.2" target-y="437.9"></path><path d="M 626.90 476.80 L 630.30 475.50 L 633.30 474.80 L 635.90 474.80 L 638.50 475.20 L 640.80 476.10 L 642.80 477.50 L 644.50 479.20 L 645.90 481.10 L 647.00 483.30 L 648.00 488.10 L 648.00 490.70 L 647.50 493.20 L 646.60 495.70 L 645.30 498.00 L 643.50 500.10 L 641.20 502.00 L 638.30 503.70 L 635.00 500.60 L 632.20 497.30 L 630.10 493.80 L 628.50 490.00 L 627.40 486.00 L 626.80 481.60 L 626.90 476.80 Z" fill="#f4cc83" fill-rule="nonzero" node-id="43" stroke="none" target-height="28.900024" target-width="21.200012" target-x="626.8" target-y="474.8"></path><path d="M 652.20 514.00 L 683.90 491.00 L 678.60 529.10 L 670.80 526.70 L 652.20 514.00 Z" fill="#f0b255" fill-rule="nonzero" node-id="45" stroke="none" target-height="38.099976" target-width="31.700012" target-x="652.2" target-y="491"></path><path d="M 697.00 495.70 L 703.50 496.80 L 706.70 498.50 L 707.50 499.50 L 707.80 500.50 L 707.30 502.70 L 704.90 505.50 L 702.90 506.80 L 700.60 507.80 L 697.00 508.40 L 695.00 507.60 L 694.30 506.80 L 693.90 505.50 L 693.90 503.70 L 695.30 499.20 L 697.00 495.70 Z" fill="#f8d694" fill-rule="nonzero" node-id="47" stroke="none" target-height="12.699982" target-width="13.899963" target-x="693.9" target-y="495.7"></path><path d="M 484.20 581.20 L 500.70 573.50 L 516.80 565.50 L 534.00 587.80 L 530.60 594.00 L 527.60 600.30 L 525.10 606.50 L 523.20 612.80 L 521.60 619.20 L 520.50 625.60 L 519.40 638.50 L 519.40 647.10 L 520.00 655.80 L 521.10 664.60 L 522.70 673.20 L 527.00 690.60 L 531.10 703.40 L 535.60 716.10 L 545.40 740.70 L 561.80 721.80 L 573.90 717.50 L 585.80 712.60 L 597.50 707.30 L 609.00 701.60 L 631.60 689.40 L 629.60 707.60 L 624.10 740.10 L 623.00 748.30 L 620.70 774.90 L 619.70 793.30 L 619.20 811.60 L 619.20 830.10 L 619.60 848.50 L 621.70 885.30 L 623.30 903.60 L 660.40 904.00 L 668.50 903.60 L 652.20 905.90 L 635.80 907.80 L 603.00 910.20 L 570.10 911.30 L 545.40 911.30 L 520.70 910.90 L 521.60 894.10 L 521.90 877.20 L 521.50 826.70 L 522.10 798.80 L 523.90 776.50 L 525.50 765.50 L 527.70 754.40 L 530.40 743.40 L 528.70 734.90 L 524.30 718.20 L 517.40 699.20 L 512.90 688.50 L 508.00 678.00 L 500.20 662.50 L 489.20 642.20 L 484.20 581.20 Z" fill="#b6c457" fill-rule="nonzero" node-id="49" stroke="none" target-height="345.8" target-width="184.29999" target-x="484.2" target-y="565.5"></path><path d="M 534.00 587.80 L 548.80 607.80 L 541.20 621.50 L 537.70 628.70 L 560.10 633.70 L 560.60 646.20 L 561.60 658.60 L 567.70 708.20 L 561.80 721.80 L 545.40 740.70 L 535.60 716.10 L 531.10 703.40 L 527.00 690.60 L 522.70 673.20 L 521.10 664.60 L 520.00 655.80 L 519.40 647.10 L 519.40 638.50 L 520.50 625.60 L 523.20 612.80 L 525.10 606.50 L 527.60 600.30 L 530.60 594.00 L 534.00 587.80 Z" fill="#90aa4c" fill-rule="nonzero" node-id="51" stroke="none" target-height="152.90002" target-width="48.299988" target-x="519.4" target-y="587.8"></path><path d="M 614.10 609.20 L 639.50 594.30 L 643.10 599.50 L 646.10 604.90 L 648.60 610.30 L 650.50 616.00 L 651.90 621.70 L 652.90 627.60 L 653.50 633.50 L 653.60 639.60 L 653.10 647.60 L 651.90 655.60 L 650.10 663.70 L 647.80 671.60 L 644.90 679.30 L 641.60 686.90 L 637.90 694.20 L 633.90 701.10 L 629.60 707.60 L 631.60 689.40 L 609.00 701.60 L 597.50 707.30 L 585.80 712.60 L 573.90 717.50 L 561.80 721.80 L 571.80 699.30 L 576.40 690.70 L 581.40 682.50 L 586.90 674.50 L 592.80 666.80 L 599.10 659.40 L 605.80 652.40 L 619.60 639.70 L 622.70 636.00 L 626.90 629.50 L 629.00 624.30 L 629.50 621.70 L 629.60 619.30 L 629.20 617.10 L 628.30 615.10 L 626.80 613.30 L 624.60 611.70 L 622.10 610.60 L 618.70 609.80 L 614.10 609.20 Z" fill="#d4dd7a" fill-rule="nonzero" node-id="53" stroke="none" target-height="127.5" target-width="91.79999" target-x="561.8" target-y="594.3"></path><path d="M 548.80 607.80 L 570.60 607.70 L 592.40 608.20 L 614.10 609.20 L 618.70 609.80 L 622.10 610.60 L 624.60 611.70 L 626.80 613.30 L 628.30 615.10 L 629.20 617.10 L 629.60 619.30 L 629.50 621.70 L 629.00 624.30 L 626.90 629.50 L 625.40 632.20 L 622.70 636.00 L 619.60 639.70 L 616.20 643.00 L 612.80 645.70 L 595.00 633.90 L 592.70 653.00 L 582.60 644.40 L 572.40 636.10 L 560.10 633.70 L 537.70 628.70 L 541.10 621.50 L 548.80 607.80 Z" fill="#414536" fill-rule="nonzero" node-id="55" stroke="none" target-height="45.299988" target-width="91.89996" target-x="537.7" target-y="607.7"></path><path d="M 560.10 633.70 L 572.40 636.10 L 592.70 653.00 L 595.00 633.90 L 612.80 645.70 L 605.80 652.40 L 599.10 659.40 L 592.80 666.80 L 586.90 674.50 L 581.40 682.50 L 576.40 690.70 L 571.80 699.30 L 567.70 708.20 L 561.60 658.60 L 560.60 646.20 L 560.10 633.70 Z" fill="#b2c062" fill-rule="nonzero" node-id="57" stroke="none" target-height="74.5" target-width="52.700012" target-x="560.1" target-y="633.7"></path><path d="M 492.00 647.20 L 500.20 662.50 L 508.00 678.00 L 512.90 688.50 L 517.40 699.20 L 524.30 718.20 L 528.70 734.90 L 530.40 743.40 L 527.70 754.40 L 525.50 765.50 L 523.90 776.50 L 522.10 798.80 L 521.50 826.70 L 521.90 877.20 L 521.60 894.10 L 520.70 910.90 L 508.30 911.60 L 483.60 911.90 L 471.30 911.50 L 459.00 910.60 L 446.70 909.30 L 444.90 898.30 L 443.50 887.30 L 442.60 876.20 L 441.70 859.60 L 440.10 809.50 L 439.40 798.50 L 437.00 776.50 L 435.10 765.60 L 432.60 754.80 L 429.40 744.10 L 423.40 726.40 L 414.30 705.00 L 396.90 667.00 L 418.50 678.90 L 439.60 692.10 L 449.80 699.20 L 459.70 706.80 L 466.80 712.70 L 480.40 725.30 L 486.70 732.10 L 492.70 739.10 L 498.40 746.40 L 503.70 754.10 L 508.60 762.10 L 498.40 719.50 L 493.90 695.70 L 491.70 676.40 L 491.30 666.80 L 491.40 657.00 L 492.00 647.20 Z" fill="#7c9536" fill-rule="nonzero" node-id="59" stroke="none" target-height="264.7" target-width="133.50003" target-x="396.9" target-y="647.2"></path><path d="M 625.90 763.80 L 631.20 751.80 L 637.00 739.80 L 641.30 732.00 L 650.80 716.90 L 656.10 709.80 L 661.70 703.00 L 667.70 696.60 L 672.40 692.10 L 682.60 683.90 L 688.00 680.30 L 693.70 677.00 L 699.60 674.10 L 705.80 671.50 L 712.40 669.40 L 700.50 700.40 L 694.70 717.90 L 691.30 732.20 L 690.10 739.50 L 689.30 746.80 L 688.40 764.00 L 688.30 773.80 L 688.70 783.50 L 689.70 798.00 L 694.40 841.60 L 695.80 861.00 L 696.00 870.70 L 695.70 880.40 L 694.90 890.10 L 693.60 899.90 L 668.50 903.60 L 660.40 904.00 L 658.80 885.90 L 655.10 855.80 L 650.70 831.90 L 647.90 820.10 L 644.60 808.50 L 640.80 797.00 L 637.70 788.50 L 630.20 771.90 L 625.90 763.80 Z" fill="#a8bb52" fill-rule="nonzero" node-id="61" stroke="none" target-height="234.59998" target-width="86.5" target-x="625.9" target-y="669.4"></path><path d="M 622.20 756.50 L 630.20 771.90 L 637.70 788.50 L 640.80 797.00 L 644.60 808.50 L 647.90 820.10 L 650.70 831.90 L 655.10 855.80 L 658.90 885.90 L 660.40 904.00 L 623.30 903.60 L 620.50 866.90 L 619.20 830.10 L 619.20 811.60 L 619.70 793.30 L 620.70 774.90 L 622.20 756.50 Z" fill="#729032" fill-rule="nonzero" node-id="63" stroke="none" target-height="147.5" target-width="41.200012" target-x="619.2" target-y="756.5"></path></svg>