<?xml version="1.0" standalone="no"?><!DOCTYPE svg PUBLIC "-//W3C//DTD SVG 1.1//EN" "http://www.w3.org/Graphics/SVG/1.1/DTD/svg11.dtd"><svg height="1024" node-id="1" sillyvg="true" template-height="1024" template-width="1024" version="1.1" viewBox="0 0 1024 1024" width="1024" xmlns="http://www.w3.org/2000/svg" xmlns:xlink="http://www.w3.org/1999/xlink"><defs node-id="24"></defs><path d="M 1024.00 1024.00 L 2048.00 1024.00 L 2048.00 2048.00 L 1024.00 2048.00 Z" fill="#ffffff" fill-rule="nonzero" node-id="26" stroke="none" target-height="1024" target-width="1024" target-x="1024" target-y="1024"></path><path d="M 487.20 337.00 L 490.00 337.00 L 492.30 337.60 L 494.20 338.70 L 495.90 340.10 L 497.10 341.90 L 498.60 346.10 L 498.80 350.70 L 497.70 355.10 L 496.70 357.00 L 495.40 358.60 L 493.90 359.80 L 492.00 360.70 L 490.00 361.00 L 487.60 360.70 L 482.60 359.00 L 480.90 358.00 L 479.50 356.60 L 478.40 354.90 L 477.30 351.10 L 477.40 346.90 L 477.90 344.90 L 479.80 341.10 L 481.20 339.60 L 482.90 338.30 L 484.90 337.50 L 487.20 337.00 Z" fill="#f6f6f5" fill-rule="nonzero" node-id="28" stroke="none" target-height="24" target-width="21.5" target-x="477.3" target-y="337"></path><path d="M 638.20 130.10 L 654.60 122.50 L 663.00 119.10 L 671.60 116.20 L 677.50 114.60 L 689.30 112.50 L 695.20 112.00 L 701.30 112.10 L 707.40 112.60 L 708.90 114.30 L 710.70 117.80 L 711.20 120.60 L 711.20 123.60 L 708.90 135.60 L 696.20 135.90 L 685.90 137.20 L 680.80 138.40 L 675.90 140.10 L 671.20 142.30 L 661.30 147.40 L 651.70 152.90 L 642.40 158.80 L 633.50 165.10 L 624.80 171.90 L 616.50 179.10 L 608.50 186.60 L 600.80 194.50 L 593.40 202.70 L 586.40 211.10 L 579.70 219.90 L 573.30 228.90 L 567.30 238.20 L 561.60 247.70 L 556.30 257.40 L 551.30 267.20 L 542.40 287.40 L 535.00 308.10 L 519.00 302.00 L 520.30 291.00 L 522.20 280.30 L 524.70 269.70 L 527.80 259.30 L 531.40 249.10 L 535.60 239.10 L 540.30 229.40 L 545.50 219.80 L 551.20 210.60 L 557.30 201.60 L 563.80 192.90 L 570.80 184.50 L 578.10 176.40 L 585.80 168.70 L 593.80 161.30 L 602.20 154.20 L 610.80 147.60 L 619.70 141.30 L 628.90 135.50 L 638.20 130.10 Z" fill="#918697" fill-rule="nonzero" node-id="30" stroke="none" target-height="196.1" target-width="192.20001" target-x="519" target-y="112"></path><path d="M 671.20 142.30 L 675.90 140.10 L 680.80 138.40 L 685.90 137.20 L 696.20 135.90 L 701.40 135.80 L 702.70 140.30 L 703.60 144.80 L 704.00 149.10 L 704.10 153.30 L 703.60 159.00 L 702.60 164.60 L 701.20 170.10 L 698.40 178.40 L 688.70 202.90 L 657.70 220.70 L 637.60 233.50 L 618.20 247.30 L 609.00 254.70 L 600.00 262.40 L 591.50 270.60 L 583.30 279.10 L 575.60 288.10 L 570.20 295.10 L 565.10 302.40 L 560.20 310.00 L 555.70 318.00 L 535.00 308.10 L 542.40 287.40 L 551.30 267.20 L 561.60 247.70 L 573.30 228.90 L 579.70 219.90 L 586.40 211.10 L 593.40 202.70 L 600.80 194.50 L 608.50 186.60 L 616.50 179.10 L 624.80 171.90 L 633.50 165.10 L 642.40 158.80 L 651.70 152.90 L 661.30 147.40 L 671.20 142.30 Z" fill="#79748f" fill-rule="nonzero" node-id="32" stroke="none" target-height="182.2" target-width="169.09998" target-x="535" target-y="135.8"></path><path d="M 688.70 202.90 L 702.60 200.60 L 744.90 191.70 L 763.80 188.40 L 773.20 187.20 L 782.60 186.40 L 792.10 186.20 L 801.50 186.60 L 808.50 187.30 L 815.60 188.50 L 822.60 190.10 L 829.70 192.30 L 831.00 194.70 L 832.10 198.90 L 832.00 200.90 L 831.50 203.50 L 830.40 206.00 L 828.80 208.20 L 826.80 210.20 L 824.50 211.90 L 819.10 214.40 L 813.50 215.40 L 802.40 214.30 L 791.30 213.80 L 780.30 213.80 L 769.30 214.50 L 758.30 215.70 L 747.50 217.40 L 736.70 219.60 L 725.90 222.40 L 715.30 225.50 L 704.90 229.10 L 694.50 233.10 L 684.30 237.50 L 674.30 242.30 L 654.90 252.80 L 636.90 264.10 L 628.70 270.00 L 613.00 282.90 L 598.30 296.80 L 587.70 307.70 L 577.50 319.00 L 557.80 342.20 L 555.70 318.00 L 560.20 310.00 L 565.10 302.40 L 570.20 295.10 L 575.60 288.10 L 583.30 279.10 L 591.50 270.60 L 600.00 262.40 L 609.00 254.70 L 618.20 247.30 L 627.80 240.20 L 647.60 226.90 L 657.70 220.70 L 688.70 202.90 Z" fill="#8e8598" fill-rule="nonzero" node-id="34" stroke="none" target-height="156.00002" target-width="276.39996" target-x="555.7" target-y="186.2"></path><path d="M 645.50 258.60 L 664.50 247.40 L 684.30 237.50 L 694.50 233.10 L 704.90 229.10 L 715.30 225.50 L 725.90 222.40 L 736.70 219.60 L 747.50 217.40 L 758.30 215.70 L 769.30 214.50 L 780.30 213.80 L 791.30 213.80 L 802.40 214.30 L 813.50 215.40 L 812.90 219.00 L 810.80 225.30 L 809.40 228.00 L 807.00 231.50 L 804.30 234.50 L 801.20 237.30 L 796.10 241.10 L 790.50 244.40 L 778.80 250.10 L 778.20 266.30 L 759.80 278.30 L 758.10 283.80 L 755.90 288.80 L 753.20 293.50 L 750.10 297.90 L 746.60 302.00 L 742.70 305.80 L 738.50 309.30 L 733.90 312.50 L 726.40 327.80 L 723.20 332.30 L 713.60 341.50 L 695.20 363.50 L 690.00 369.20 L 682.30 376.10 L 678.00 379.20 L 673.80 382.90 L 669.40 386.10 L 664.90 388.80 L 660.20 391.10 L 655.30 393.00 L 650.30 394.50 L 645.20 395.60 L 639.90 396.30 L 629.40 396.50 L 624.10 396.10 L 618.80 395.30 L 611.90 393.70 L 605.10 391.50 L 598.50 388.80 L 592.10 385.50 L 586.10 381.70 L 580.50 377.30 L 572.80 370.00 L 566.40 361.60 L 563.60 357.10 L 561.30 352.30 L 559.40 347.40 L 557.80 342.20 L 577.50 319.00 L 587.70 307.70 L 605.60 289.70 L 620.70 276.30 L 628.70 270.00 L 636.90 264.10 L 645.50 258.60 Z" fill="#7a748d" fill-rule="nonzero" node-id="36" stroke="none" target-height="182.7" target-width="255.70001" target-x="557.8" target-y="213.8"></path><path d="M 446.10 330.00 L 452.50 321.80 L 460.20 314.70 L 464.40 311.50 L 473.30 306.30 L 483.00 302.40 L 488.00 301.10 L 493.10 300.10 L 498.20 299.60 L 503.40 299.50 L 508.60 299.90 L 513.80 300.70 L 519.00 302.00 L 526.90 304.90 L 535.00 308.10 L 555.70 318.00 L 557.80 342.20 L 559.40 347.40 L 561.30 352.30 L 563.60 357.10 L 566.40 361.60 L 569.40 365.90 L 576.50 373.80 L 580.50 377.30 L 586.10 381.70 L 592.10 385.50 L 598.50 388.80 L 605.10 391.50 L 611.90 393.70 L 618.80 395.30 L 629.40 396.50 L 639.90 396.30 L 645.20 395.60 L 650.30 394.50 L 655.30 393.00 L 660.20 391.10 L 664.90 388.80 L 669.40 386.10 L 673.80 382.90 L 678.00 379.20 L 685.70 388.10 L 693.00 397.50 L 701.80 410.60 L 709.20 424.40 L 712.40 431.60 L 715.20 439.10 L 829.20 481.30 L 823.80 493.00 L 819.80 505.20 L 797.80 502.80 L 786.50 519.40 L 774.40 535.40 L 749.60 510.30 L 737.60 497.20 L 726.20 483.80 L 718.80 474.60 L 704.90 455.50 L 690.30 457.70 L 675.60 459.40 L 660.90 460.40 L 646.20 460.80 L 629.70 486.70 L 642.20 502.00 L 654.10 517.80 L 650.30 516.50 L 646.90 514.80 L 643.70 512.80 L 639.30 509.20 L 635.20 505.20 L 627.50 496.70 L 618.70 525.30 L 614.20 490.90 L 637.80 459.30 L 621.00 448.40 L 613.00 442.90 L 605.30 437.00 L 597.80 430.90 L 590.60 424.40 L 583.70 417.60 L 577.20 410.50 L 570.90 403.20 L 565.00 395.50 L 559.40 387.60 L 554.20 379.40 L 549.40 370.90 L 530.90 378.80 L 512.30 386.30 L 492.80 387.90 L 473.40 388.80 L 466.90 385.00 L 460.80 380.70 L 449.00 371.60 L 462.60 361.10 L 454.10 345.60 L 446.10 330.00 Z M 487.20 337.00 L 484.90 337.50 L 482.90 338.30 L 481.20 339.60 L 479.80 341.10 L 477.90 344.90 L 477.40 346.90 L 477.20 351.10 L 478.40 354.90 L 479.50 356.60 L 480.90 358.00 L 482.60 359.00 L 487.60 360.70 L 490.00 361.00 L 492.00 360.70 L 493.90 359.80 L 495.40 358.60 L 496.70 357.00 L 498.40 353.00 L 498.80 350.70 L 498.60 346.10 L 497.10 341.90 L 495.90 340.10 L 494.20 338.70 L 492.30 337.60 L 490.00 337.00 L 487.20 337.00 Z" fill="#464c73" fill-rule="nonzero" node-id="38" stroke="none" target-height="235.90002" target-width="383.1" target-x="446.1" target-y="299.5"></path><path d="M 418.10 369.50 L 424.50 359.20 L 431.20 349.20 L 438.40 339.40 L 446.10 330.00 L 454.10 345.60 L 462.60 361.10 L 449.00 371.60 L 418.10 369.50 Z" fill="#eb7557" fill-rule="nonzero" node-id="40" stroke="none" target-height="41.600006" target-width="44.5" target-x="418.1" target-y="330"></path><path d="M 512.30 386.30 L 530.90 378.80 L 549.40 370.90 L 554.20 379.40 L 559.40 387.60 L 565.00 395.50 L 570.90 403.20 L 577.20 410.50 L 583.70 417.60 L 590.60 424.40 L 597.80 430.90 L 605.30 437.00 L 613.00 442.90 L 621.00 448.40 L 629.20 453.60 L 595.70 450.10 L 585.20 468.10 L 602.20 488.80 L 580.70 480.00 L 581.30 500.00 L 562.60 495.80 L 571.00 475.20 L 574.30 468.60 L 576.90 464.40 L 583.00 456.60 L 591.40 450.50 L 564.50 440.70 L 555.70 437.00 L 544.50 431.20 L 539.20 427.70 L 536.30 425.40 L 533.80 422.80 L 531.70 420.00 L 528.90 415.40 L 526.70 410.40 L 520.90 394.90 L 518.80 390.10 L 512.30 386.30 Z" fill="#716c8a" fill-rule="nonzero" node-id="42" stroke="none" target-height="129.1" target-width="116.900024" target-x="512.3" target-y="370.9"></path><path d="M 473.40 388.80 L 492.80 387.90 L 512.30 386.30 L 518.80 390.10 L 520.90 394.90 L 526.70 410.40 L 528.90 415.40 L 531.70 420.00 L 533.80 422.80 L 536.30 425.40 L 539.20 427.70 L 544.50 431.20 L 555.70 437.00 L 564.50 440.70 L 591.40 450.50 L 583.00 456.60 L 570.10 453.70 L 557.10 450.20 L 548.50 447.60 L 531.60 441.20 L 523.40 437.40 L 515.60 433.20 L 508.10 428.50 L 502.70 424.70 L 497.60 420.50 L 492.70 416.10 L 488.10 411.30 L 483.90 406.30 L 480.10 400.90 L 476.50 395.10 L 473.40 388.80 Z" fill="#fccd49" fill-rule="nonzero" node-id="44" stroke="none" target-height="70.30002" target-width="118.00003" target-x="473.4" target-y="386.3"></path><path d="M 250.10 576.80 L 250.10 570.00 L 250.60 563.30 L 251.70 556.70 L 253.30 550.10 L 255.40 543.70 L 257.90 537.40 L 260.80 531.30 L 264.20 525.40 L 267.90 519.80 L 272.10 514.50 L 276.50 509.40 L 281.30 504.70 L 286.50 500.30 L 291.90 496.40 L 297.60 492.90 L 303.50 489.80 L 309.70 487.20 L 316.10 485.10 L 322.60 483.60 L 329.40 482.60 L 333.00 482.40 L 336.90 482.60 L 340.90 483.30 L 344.70 484.50 L 347.10 485.60 L 350.90 488.70 L 352.30 490.70 L 353.30 493.00 L 356.60 518.20 L 362.70 585.90 L 344.10 604.00 L 326.10 622.80 L 299.00 594.60 L 295.70 617.00 L 294.50 628.20 L 293.80 639.50 L 276.90 639.50 L 266.90 625.30 L 262.30 617.80 L 258.10 610.20 L 255.60 604.90 L 253.60 599.60 L 251.90 594.10 L 250.70 588.50 L 250.10 582.70 L 250.10 576.80 Z" fill="#df635d" fill-rule="nonzero" node-id="46" stroke="none" target-height="157.1" target-width="112.600006" target-x="250.1" target-y="482.4"></path><path d="M 326.10 622.80 L 344.10 604.00 L 362.70 585.90 L 373.10 597.10 L 370.60 610.70 L 368.80 617.50 L 366.60 624.20 L 364.10 630.70 L 361.10 637.10 L 357.70 643.30 L 353.90 649.20 L 349.80 654.80 L 345.20 660.10 L 340.20 664.90 L 334.80 669.30 L 331.40 671.40 L 328.60 673.80 L 326.40 676.40 L 324.60 679.30 L 323.20 682.50 L 322.20 685.90 L 321.60 689.50 L 321.40 693.40 L 294.80 700.50 L 294.70 673.90 L 293.80 639.50 L 294.50 628.20 L 295.70 617.00 L 299.00 594.60 L 326.10 622.80 Z" fill="#5f8b52" fill-rule="nonzero" node-id="50" stroke="none" target-height="114.599976" target-width="79.30002" target-x="293.8" target-y="585.9"></path><path d="M 223.00 635.60 L 222.10 631.20 L 222.80 628.20 L 223.90 626.50 L 225.40 625.20 L 227.40 624.20 L 232.00 623.30 L 234.50 623.40 L 239.40 624.50 L 265.00 635.20 L 276.90 639.50 L 293.80 639.50 L 294.70 673.90 L 281.10 671.60 L 274.20 669.80 L 267.50 667.70 L 261.00 665.10 L 254.60 662.20 L 248.40 658.80 L 242.60 655.00 L 237.10 650.80 L 231.90 646.20 L 227.20 641.10 L 223.00 635.60 Z" fill="#8bb556" fill-rule="nonzero" node-id="52" stroke="none" target-height="50.600037" target-width="72.600006" target-x="222.1" target-y="623.3"></path><path d="M 532.90 687.10 L 534.30 680.40 L 535.20 673.40 L 537.60 652.00 L 538.90 645.20 L 541.70 636.40 L 543.60 632.30 L 545.90 628.50 L 548.80 624.90 L 552.30 621.50 L 556.40 623.60 L 560.00 626.10 L 563.10 629.00 L 565.90 632.20 L 568.40 635.70 L 570.70 639.50 L 573.50 645.50 L 576.10 652.00 L 585.30 678.50 L 587.10 682.70 L 591.40 690.40 L 578.20 700.70 L 565.50 711.60 L 532.90 687.10 Z" fill="#e7e6df" fill-rule="nonzero" node-id="54" stroke="none" target-height="90.099976" target-width="58.5" target-x="532.9" target-y="621.5"></path><path d="M 382.10 669.70 L 383.70 667.50 L 385.40 665.90 L 387.30 664.80 L 389.40 664.20 L 391.60 663.90 L 395.90 664.60 L 399.90 666.60 L 403.20 669.50 L 405.20 673.20 L 405.70 675.20 L 405.70 677.30 L 405.20 679.40 L 404.20 681.50 L 395.60 693.80 L 389.30 704.10 L 383.60 714.70 L 378.30 725.60 L 373.50 736.70 L 369.30 748.00 L 365.60 759.40 L 362.40 771.10 L 359.80 782.80 L 357.80 794.70 L 356.40 806.60 L 355.60 818.70 L 355.30 830.80 L 355.70 842.80 L 356.60 854.90 L 358.20 867.00 L 359.10 871.00 L 359.40 874.80 L 359.20 878.40 L 358.60 881.90 L 357.50 885.20 L 356.00 888.30 L 354.10 891.10 L 351.70 893.70 L 349.00 895.90 L 346.00 897.80 L 342.60 899.30 L 338.70 900.50 L 333.80 888.40 L 330.40 876.10 L 328.90 867.80 L 327.80 859.30 L 327.20 850.80 L 326.90 837.90 L 327.10 825.00 L 328.50 799.30 L 329.70 787.50 L 331.40 775.80 L 333.70 764.00 L 336.60 752.40 L 340.10 740.90 L 344.10 729.70 L 347.60 721.40 L 351.40 713.30 L 355.60 705.50 L 360.10 697.80 L 365.10 690.30 L 370.30 683.20 L 376.00 676.30 L 382.10 669.70 Z" fill="#8bb553" fill-rule="nonzero" node-id="56" stroke="none" target-height="236.59998" target-width="78.80002" target-x="326.9" target-y="663.9"></path><path d="M 591.40 690.40 L 605.10 683.40 L 605.80 695.90 L 604.90 708.10 L 603.90 714.20 L 602.50 720.10 L 600.70 725.80 L 598.50 731.50 L 595.90 737.00 L 592.90 742.30 L 589.40 747.40 L 585.40 752.30 L 586.40 772.40 L 587.00 792.50 L 588.10 852.80 L 588.80 872.80 L 591.10 860.50 L 593.80 848.20 L 597.00 835.80 L 600.70 823.60 L 604.90 811.60 L 609.70 799.90 L 613.80 791.20 L 618.10 782.90 L 622.90 774.70 L 628.10 766.80 L 633.70 759.20 L 639.70 751.90 L 646.20 745.00 L 655.00 736.60 L 659.20 733.90 L 661.60 733.00 L 666.50 732.30 L 669.00 732.40 L 673.60 733.60 L 675.80 734.60 L 677.60 736.00 L 679.30 737.70 L 680.70 739.70 L 681.60 742.10 L 682.30 744.90 L 682.70 751.80 L 682.50 765.60 L 680.60 781.50 L 678.80 790.50 L 676.60 799.40 L 672.60 812.80 L 668.10 825.90 L 658.30 851.70 L 648.20 873.40 L 644.50 880.50 L 641.90 885.10 L 635.90 893.70 L 632.40 897.60 L 628.70 901.30 L 624.60 904.70 L 621.90 906.20 L 616.80 907.90 L 614.30 908.20 L 610.90 908.10 L 607.50 907.50 L 604.10 906.50 L 599.20 904.30 L 594.40 901.60 L 585.40 895.90 L 577.90 901.90 L 572.00 905.10 L 569.00 905.90 L 567.10 906.10 L 563.50 905.30 L 561.90 904.40 L 560.30 903.00 L 558.80 900.90 L 558.30 886.30 L 558.50 871.70 L 559.60 842.60 L 561.90 799.90 L 562.10 785.70 L 561.80 776.20 L 561.10 766.70 L 560.10 757.30 L 549.40 745.50 L 544.10 739.10 L 539.20 732.50 L 536.20 727.80 L 533.70 723.10 L 530.40 714.60 L 529.00 707.10 L 528.90 703.20 L 529.10 699.40 L 529.90 695.40 L 531.10 691.30 L 532.90 687.10 L 565.50 711.60 L 578.20 700.70 L 591.40 690.40 Z" fill="#9ec458" fill-rule="nonzero" node-id="58" stroke="none" target-height="224.79999" target-width="153.79999" target-x="528.9" target-y="683.4"></path><path d="M 294.80 700.50 L 321.40 693.40 L 323.80 755.50 L 324.50 786.60 L 325.20 833.30 L 325.60 887.80 L 325.20 895.70 L 324.50 899.50 L 323.40 903.20 L 320.80 907.70 L 319.00 909.80 L 316.40 911.10 L 314.00 911.90 L 311.70 912.00 L 307.10 910.90 L 304.90 909.80 L 301.90 907.60 L 299.00 904.90 L 294.20 899.20 L 296.50 871.40 L 297.00 858.30 L 297.30 838.60 L 297.00 818.90 L 294.50 739.90 L 294.40 720.20 L 294.80 700.50 Z" fill="#83aa52" fill-rule="nonzero" node-id="60" stroke="none" target-height="218.59998" target-width="31.399994" target-x="294.2" target-y="693.4"></path><path d="M 467.70 745.50 L 467.80 742.80 L 468.30 740.40 L 469.20 738.40 L 470.50 736.60 L 472.00 735.10 L 473.90 733.90 L 478.20 732.30 L 480.50 732.00 L 485.20 732.20 L 489.70 733.70 L 491.70 734.90 L 499.60 741.60 L 510.90 752.70 L 516.10 758.60 L 522.60 766.90 L 528.70 775.50 L 534.30 784.50 L 539.40 793.80 L 544.20 803.30 L 548.60 813.00 L 552.60 822.80 L 559.60 842.60 L 558.50 871.70 L 558.30 886.30 L 558.80 900.90 L 544.80 905.90 L 540.00 907.10 L 533.60 907.60 L 530.50 907.30 L 527.50 906.50 L 524.60 905.10 L 521.60 903.10 L 518.20 900.00 L 512.40 893.20 L 508.60 887.60 L 502.20 875.60 L 493.90 857.00 L 488.60 843.70 L 483.50 830.10 L 478.80 816.40 L 474.80 802.50 L 472.40 793.10 L 470.50 783.70 L 469.00 774.30 L 468.00 764.80 L 467.60 755.20 L 467.70 745.50 Z" fill="#92b856" fill-rule="nonzero" node-id="62" stroke="none" target-height="175.59998" target-width="91.99997" target-x="467.6" target-y="732"></path><path d="M 191.00 765.10 L 192.00 760.30 L 194.00 757.20 L 195.90 755.80 L 198.10 754.80 L 200.60 754.40 L 205.80 754.80 L 208.60 755.60 L 213.70 758.20 L 218.10 761.90 L 227.80 776.90 L 240.50 798.40 L 249.40 815.00 L 275.30 865.20 L 287.70 887.00 L 294.40 897.60 L 294.20 899.20 L 290.60 904.30 L 286.20 908.80 L 282.80 910.60 L 281.00 911.00 L 279.20 910.90 L 277.30 910.30 L 275.10 909.00 L 269.40 904.20 L 264.20 899.10 L 259.50 893.60 L 250.90 881.90 L 247.00 875.70 L 241.60 866.20 L 236.60 856.30 L 222.50 826.30 L 214.50 810.10 L 199.80 785.00 L 196.40 778.60 L 193.40 772.00 L 191.00 765.10 Z" fill="#8db352" fill-rule="nonzero" node-id="64" stroke="none" target-height="156.59998" target-width="103.399994" target-x="191" target-y="754.4"></path><path d="M 425.90 814.00 L 427.80 812.20 L 429.70 811.00 L 431.80 810.20 L 433.90 809.90 L 438.00 810.50 L 441.90 812.40 L 445.00 815.30 L 447.10 818.80 L 447.60 820.80 L 447.70 822.80 L 447.30 824.80 L 446.50 826.70 L 433.30 842.20 L 404.10 877.60 L 390.50 892.60 L 381.50 901.40 L 378.10 903.20 L 376.40 903.50 L 374.10 903.40 L 371.90 902.90 L 369.80 901.80 L 367.80 900.30 L 364.80 896.40 L 363.70 894.10 L 363.10 891.80 L 362.90 889.30 L 363.20 886.90 L 364.00 884.60 L 374.30 869.90 L 383.50 857.70 L 396.50 842.00 L 403.40 834.50 L 410.60 827.30 L 418.10 820.40 L 425.90 814.00 Z" fill="#88b553" fill-rule="nonzero" node-id="66" stroke="none" target-height="93.599976" target-width="84.80002" target-x="362.9" target-y="809.9"></path></svg>