<?xml version="1.0" standalone="no"?><!DOCTYPE svg PUBLIC "-//W3C//DTD SVG 1.1//EN" "http://www.w3.org/Graphics/SVG/1.1/DTD/svg11.dtd"><svg height="1024" node-id="1" sillyvg="true" template-height="1024" template-width="1024" version="1.1" viewBox="0 0 1024 1024" width="1024" xmlns="http://www.w3.org/2000/svg" xmlns:xlink="http://www.w3.org/1999/xlink"><defs node-id="14"></defs><path d="M 1024.00 1024.00 L 2048.00 1024.00 L 2048.00 2048.00 L 1024.00 2048.00 Z" fill="#ffffff" fill-rule="nonzero" node-id="16" stroke="none" target-height="1024" target-width="1024" target-x="1024" target-y="1024"></path><path d="M 407.90 226.30 L 412.00 216.40 L 416.60 206.60 L 421.70 196.90 L 427.20 187.60 L 433.30 178.50 L 439.80 169.80 L 445.00 163.50 L 456.20 151.80 L 462.20 146.40 L 468.50 141.20 L 475.00 136.50 L 481.70 132.10 L 488.70 128.10 L 496.00 124.50 L 503.40 121.40 L 511.20 118.70 L 527.90 114.40 L 536.60 113.00 L 545.20 112.20 L 553.70 112.00 L 562.30 112.40 L 570.80 113.30 L 579.20 114.70 L 587.60 116.70 L 595.80 119.10 L 603.80 122.10 L 611.70 125.40 L 619.50 129.30 L 627.00 133.50 L 634.30 138.10 L 641.40 143.20 L 648.20 148.60 L 654.80 154.30 L 661.10 160.30 L 667.00 166.70 L 672.60 173.30 L 677.90 180.20 L 682.80 187.40 L 687.30 194.70 L 691.40 202.30 L 695.00 210.10 L 698.20 218.10 L 701.00 226.10 L 703.20 234.30 L 701.00 244.20 L 695.50 264.40 L 698.60 275.30 L 704.20 288.40 L 710.20 301.50 L 654.10 309.50 L 635.50 312.60 L 616.90 316.20 L 598.50 320.40 L 603.30 314.20 L 607.70 307.50 L 610.40 302.80 L 614.80 293.10 L 616.50 288.00 L 617.70 282.90 L 618.40 277.80 L 618.70 272.70 L 618.30 267.60 L 617.40 262.50 L 616.20 258.80 L 612.70 251.50 L 607.70 243.70 L 604.80 240.00 L 601.70 236.80 L 598.20 234.00 L 594.50 231.60 L 590.60 229.50 L 586.50 227.90 L 582.20 226.70 L 573.40 225.30 L 564.40 225.50 L 555.50 227.20 L 547.10 230.20 L 543.00 232.30 L 539.30 234.70 L 535.80 237.50 L 532.50 240.50 L 529.50 243.90 L 527.00 247.60 L 524.80 251.60 L 522.90 256.10 L 521.20 260.30 L 520.00 264.60 L 519.30 268.70 L 519.10 272.80 L 519.40 278.30 L 520.30 283.80 L 521.80 289.30 L 526.20 299.80 L 528.90 304.90 L 538.00 319.30 L 495.60 321.20 L 486.60 302.20 L 481.50 293.00 L 476.10 283.90 L 470.20 275.30 L 463.80 267.00 L 458.70 261.00 L 453.30 255.40 L 447.60 250.10 L 441.60 245.20 L 435.30 240.60 L 428.60 236.50 L 421.50 232.80 L 414.00 229.50 L 407.90 226.30 Z" fill="#35363e" fill-rule="nonzero" node-id="18" stroke="none" target-height="209.20001" target-width="302.30002" target-x="407.9" target-y="112"></path><path d="M 522.90 256.10 L 524.80 251.60 L 527.00 247.60 L 529.50 243.90 L 532.50 240.50 L 535.80 237.50 L 539.30 234.70 L 543.00 232.30 L 551.20 228.50 L 559.90 226.20 L 564.40 225.50 L 573.40 225.30 L 582.20 226.70 L 586.50 227.90 L 590.60 229.50 L 594.50 231.60 L 598.20 234.00 L 601.70 236.80 L 604.80 240.00 L 607.70 243.70 L 612.70 251.50 L 614.70 255.20 L 616.20 258.80 L 617.40 262.50 L 618.30 267.60 L 618.70 272.70 L 618.40 277.80 L 617.70 282.90 L 616.50 288.00 L 614.80 293.10 L 610.40 302.80 L 607.70 307.50 L 603.30 314.20 L 598.50 320.40 L 591.80 322.40 L 585.10 323.70 L 578.30 324.40 L 571.60 324.60 L 564.80 324.40 L 558.00 323.60 L 544.60 321.10 L 538.00 319.30 L 533.40 312.30 L 526.20 299.80 L 521.80 289.30 L 520.30 283.80 L 519.40 278.30 L 519.10 272.80 L 519.30 268.70 L 520.00 264.60 L 521.20 260.30 L 522.90 256.10 Z M 551.60 251.50 L 549.00 253.60 L 544.70 258.40 L 543.00 261.10 L 541.30 265.10 L 540.10 269.20 L 539.50 273.50 L 539.30 277.80 L 539.80 282.10 L 540.80 286.30 L 542.30 290.30 L 544.30 294.00 L 546.90 297.30 L 549.20 299.50 L 551.70 301.40 L 554.60 302.90 L 561.00 305.40 L 564.10 306.20 L 570.30 306.70 L 574.40 306.20 L 578.30 305.20 L 582.10 303.60 L 585.70 301.60 L 588.90 299.10 L 591.80 296.20 L 594.30 292.90 L 596.40 289.40 L 597.90 285.50 L 598.70 282.50 L 599.30 276.20 L 598.80 269.30 L 598.30 266.00 L 597.40 262.90 L 596.10 260.20 L 594.40 257.50 L 590.20 253.10 L 587.70 251.20 L 584.00 249.10 L 580.20 247.50 L 576.00 246.40 L 571.70 245.90 L 567.50 245.80 L 563.20 246.40 L 557.20 248.30 L 551.60 251.50 Z" fill="#fcfcff" fill-rule="nonzero" node-id="20" stroke="none" target-height="99.3" target-width="99.60004" target-x="519.1" target-y="225.3"></path><path d="M 327.10 259.50 L 331.10 254.90 L 335.50 250.70 L 340.00 246.70 L 344.90 243.10 L 350.00 239.80 L 355.20 236.90 L 360.70 234.30 L 366.30 232.10 L 372.00 230.30 L 377.90 228.90 L 383.80 227.90 L 389.80 227.40 L 395.80 227.20 L 401.90 227.50 L 407.90 228.30 L 414.00 229.50 L 421.50 232.80 L 428.60 236.50 L 435.30 240.60 L 441.60 245.20 L 447.60 250.10 L 453.30 255.40 L 458.70 261.00 L 463.80 267.00 L 470.20 275.30 L 476.10 283.90 L 481.50 293.00 L 486.60 302.20 L 495.60 321.20 L 502.90 321.00 L 504.40 375.10 L 504.70 429.30 L 495.70 462.60 L 485.10 495.60 L 479.20 511.90 L 472.90 528.00 L 466.10 543.90 L 459.00 559.60 L 451.30 575.20 L 443.20 590.40 L 434.60 605.30 L 425.50 620.00 L 417.90 631.50 L 410.00 642.80 L 401.70 653.90 L 393.00 664.70 L 384.00 675.30 L 374.80 683.90 L 365.60 693.10 L 338.10 721.60 L 328.70 730.70 L 315.40 742.00 L 308.60 747.10 L 301.50 751.80 L 294.10 755.90 L 286.50 759.50 L 280.70 761.80 L 274.60 763.60 L 268.30 765.10 L 261.70 766.10 L 262.80 723.30 L 264.60 594.90 L 265.50 552.00 L 266.80 509.20 L 269.80 452.20 L 271.80 423.70 L 274.00 406.50 L 278.40 377.40 L 283.20 354.30 L 286.00 342.90 L 289.30 331.60 L 293.00 320.50 L 297.20 309.60 L 302.00 299.00 L 307.30 288.60 L 311.60 281.00 L 316.40 273.70 L 321.50 266.50 L 327.10 259.50 Z" fill="#eb5d50" fill-rule="nonzero" node-id="22" stroke="none" target-height="538.89996" target-width="243" target-x="261.7" target-y="227.2"></path><path d="M 705.40 230.00 L 751.10 234.30 L 781.50 237.80 L 796.60 240.30 L 806.50 242.40 L 826.30 247.70 L 810.70 252.50 L 795.00 257.00 L 779.10 261.00 L 763.20 264.60 L 731.00 270.70 L 698.60 275.30 L 695.50 264.40 L 701.00 244.20 L 705.40 230.00 Z" fill="#f9b141" fill-rule="nonzero" node-id="24" stroke="none" target-height="45.299988" target-width="130.79999" target-x="695.5" target-y="230"></path><path d="M 551.60 251.50 L 557.20 248.30 L 563.20 246.40 L 567.50 245.80 L 571.70 245.90 L 576.00 246.40 L 580.20 247.50 L 584.00 249.10 L 587.70 251.20 L 590.20 253.10 L 594.40 257.50 L 596.10 260.20 L 597.40 262.90 L 598.30 266.00 L 598.80 269.30 L 599.20 279.40 L 597.90 285.50 L 596.40 289.40 L 594.30 292.90 L 591.80 296.20 L 588.90 299.10 L 585.70 301.60 L 582.10 303.60 L 578.30 305.20 L 574.40 306.20 L 570.30 306.70 L 567.20 306.60 L 561.00 305.40 L 554.60 302.90 L 551.70 301.40 L 549.10 299.50 L 546.90 297.30 L 544.30 294.00 L 542.30 290.30 L 540.80 286.30 L 539.80 282.10 L 539.30 277.80 L 539.50 273.50 L 540.10 269.20 L 541.30 265.10 L 543.00 261.10 L 546.70 255.90 L 551.60 251.50 Z" fill="#3f3c3f" fill-rule="nonzero" node-id="26" stroke="none" target-height="60.90001" target-width="59.900024" target-x="539.3" target-y="245.8"></path><path d="M 826.30 247.70 L 834.10 245.50 L 829.20 251.50 L 824.00 257.00 L 818.40 262.00 L 812.40 266.60 L 806.20 270.90 L 799.60 274.70 L 789.50 280.00 L 778.90 284.80 L 768.10 289.20 L 735.40 301.60 L 724.70 306.00 L 714.50 310.70 L 704.20 288.40 L 698.60 275.30 L 731.00 270.70 L 763.20 264.60 L 779.10 261.00 L 795.00 257.00 L 810.70 252.50 L 826.30 247.70 Z" fill="#f3962f" fill-rule="nonzero" node-id="28" stroke="none" target-height="65.20001" target-width="135.5" target-x="698.6" target-y="245.5"></path><path d="M 598.50 320.40 L 616.90 316.20 L 635.50 312.60 L 654.10 309.50 L 710.20 301.50 L 714.20 351.30 L 715.70 376.60 L 716.60 402.00 L 716.80 418.90 L 716.50 435.80 L 715.70 452.60 L 714.70 465.20 L 711.50 490.10 L 709.40 502.40 L 706.70 514.60 L 703.60 526.60 L 700.00 538.50 L 695.80 550.30 L 692.10 559.50 L 688.00 568.70 L 683.50 577.70 L 678.60 586.60 L 673.20 595.50 L 667.10 604.50 L 660.50 613.00 L 653.70 621.00 L 646.40 628.40 L 638.70 635.50 L 630.80 642.20 L 622.50 648.50 L 613.90 654.40 L 605.10 660.00 L 586.70 670.00 L 577.20 674.60 L 564.30 680.20 L 551.20 685.40 L 537.80 690.20 L 510.60 698.50 L 476.40 707.30 L 456.30 711.80 L 423.60 715.10 L 433.00 703.10 L 441.90 690.80 L 450.30 678.10 L 458.30 665.00 L 465.60 651.60 L 472.50 637.90 L 478.80 623.90 L 484.50 609.70 L 489.70 595.20 L 494.30 580.60 L 498.20 565.80 L 501.60 550.80 L 503.90 538.70 L 505.70 526.60 L 507.10 514.50 L 508.10 502.30 L 508.60 490.10 L 508.70 477.90 L 508.40 465.70 L 507.60 453.50 L 506.40 441.40 L 504.70 429.30 L 504.40 375.10 L 502.90 321.00 L 538.00 319.30 L 544.60 321.10 L 558.00 323.60 L 564.80 324.40 L 571.60 324.60 L 578.30 324.40 L 585.10 323.70 L 591.80 322.40 L 598.50 320.40 Z" fill="#00ab8a" fill-rule="nonzero" node-id="30" stroke="none" target-height="413.59998" target-width="293.19998" target-x="423.6" target-y="301.5"></path><path d="M 504.70 429.30 L 506.40 441.40 L 507.60 453.50 L 508.40 465.70 L 508.70 477.90 L 508.60 490.10 L 508.10 502.30 L 507.10 514.50 L 505.70 526.60 L 503.90 538.70 L 501.60 550.80 L 498.20 565.80 L 494.30 580.60 L 489.70 595.20 L 484.50 609.70 L 478.80 623.90 L 472.50 637.90 L 465.60 651.60 L 458.30 665.00 L 450.30 678.10 L 441.90 690.80 L 433.00 703.10 L 423.60 715.10 L 412.40 726.90 L 383.30 703.90 L 384.00 675.30 L 393.00 664.70 L 401.70 653.90 L 410.00 642.80 L 417.90 631.50 L 425.50 620.00 L 434.60 605.30 L 443.20 590.40 L 451.30 575.20 L 459.00 559.60 L 466.10 543.90 L 472.90 528.00 L 479.20 511.90 L 485.10 495.60 L 495.70 462.60 L 504.70 429.30 Z" fill="#0a9776" fill-rule="nonzero" node-id="32" stroke="none" target-height="297.60004" target-width="125.400024" target-x="383.3" target-y="429.3"></path><path d="M 261.70 766.10 L 268.30 765.10 L 274.60 763.60 L 280.70 761.80 L 286.50 759.50 L 294.20 755.90 L 301.50 751.80 L 308.60 747.10 L 322.10 736.60 L 328.70 730.70 L 338.10 721.60 L 374.80 683.90 L 384.00 675.30 L 383.30 703.90 L 412.40 726.90 L 395.40 745.20 L 378.90 763.90 L 314.60 840.20 L 298.20 858.90 L 281.30 877.20 L 269.70 889.10 L 257.90 900.70 L 245.70 912.00 L 240.30 906.60 L 235.40 900.90 L 230.70 895.00 L 224.20 885.70 L 218.20 876.10 L 208.70 870.20 L 204.00 866.80 L 199.70 863.10 L 194.70 857.60 L 192.80 854.70 L 191.30 851.50 L 190.40 848.20 L 190.00 844.70 L 190.10 842.10 L 191.70 836.40 L 193.20 833.20 L 198.90 825.00 L 205.10 817.00 L 211.60 809.40 L 221.90 798.40 L 254.30 766.90 L 261.70 766.10 Z" fill="#038a64" fill-rule="nonzero" node-id="34" stroke="none" target-height="236.70001" target-width="222.4" target-x="190" target-y="675.3"></path><path d="M 433.10 714.20 L 456.30 711.80 L 453.70 733.90 L 451.80 755.90 L 450.50 778.00 L 449.60 800.20 L 449.10 844.40 L 426.50 844.10 L 426.60 800.70 L 427.00 778.90 L 428.10 757.30 L 429.30 742.90 L 430.90 728.50 L 433.10 714.20 Z" fill="#138455" fill-rule="nonzero" node-id="36" stroke="none" target-height="132.60004" target-width="29.799988" target-x="426.5" target-y="711.8"></path></svg>