<?xml version="1.0" standalone="no"?><!DOCTYPE svg PUBLIC "-//W3C//DTD SVG 1.1//EN" "http://www.w3.org/Graphics/SVG/1.1/DTD/svg11.dtd"><svg height="1024" node-id="1" sillyvg="true" template-height="1024" template-width="1024" version="1.1" viewBox="0 0 1024 1024" width="1024" xmlns="http://www.w3.org/2000/svg" xmlns:xlink="http://www.w3.org/1999/xlink"><defs node-id="174"><clipPath id="clip-团队" node-id="13"><path d="M 0.00 0.00 L 1024.00 0.00 L 1024.00 1024.00 L 0.00 1024.00 Z" fill="#000000" fill-rule="nonzero" node-id="177" stroke="none" target-height="1024" target-width="1024" target-x="0" target-y="0"></path></clipPath><clipPath id="clip-path" node-id="3"><path d="M 221.90 401.30 L 223.90 405.10 L 225.90 407.70 L 228.40 410.30 L 231.90 413.30 L 237.70 416.60 L 241.40 418.20 L 245.20 419.40 L 249.70 420.30 L 254.90 420.90 L 260.10 420.90 L 264.90 420.40 L 269.10 419.30 L 273.30 417.80 L 277.00 416.00 L 280.30 413.90 L 284.90 410.50 L 291.40 403.90 L 294.90 399.00 L 341.20 410.00 L 346.00 412.20 L 350.10 415.10 L 352.10 417.00 L 353.70 419.10 L 354.90 421.40 L 407.20 548.90 L 408.20 554.20 L 408.50 557.30 L 408.30 560.60 L 407.70 563.90 L 406.60 566.90 L 405.40 568.70 L 403.90 570.30 L 402.00 571.80 L 399.80 572.90 L 397.10 573.60 L 393.60 574.10 L 366.50 575.10 L 276.70 577.10 L 184.50 572.10 L 142.60 572.90 L 136.40 572.10 L 133.50 570.90 L 131.70 569.80 L 130.10 568.30 L 128.60 566.40 L 127.50 564.20 L 126.60 561.30 L 126.00 557.60 L 125.80 553.90 L 126.00 549.20 L 126.60 543.30 L 129.50 530.00 L 134.30 513.30 L 146.60 475.80 L 158.10 443.90 L 163.90 428.30 L 164.90 426.20 L 166.80 423.40 L 170.20 419.50 L 175.40 415.70 L 178.70 414.00 L 182.70 412.40 L 193.10 409.30 L 221.90 401.30 Z" fill="#000000" fill-rule="nonzero" id="路径_624" node-id="4" stroke="none" target-height="178.09998" target-width="282.7" target-x="125.8" target-y="399"></path></clipPath><clipPath id="clip-path-2" node-id="5"><path d="M 770.50 847.30 L 775.50 849.30 L 783.10 851.60 L 787.60 852.40 L 792.30 852.70 L 796.90 852.50 L 802.60 851.40 L 813.80 848.10 L 819.20 845.90 L 823.00 906.30 L 714.00 906.30 L 712.60 902.90 L 712.20 900.50 L 712.10 898.00 L 712.60 895.50 L 713.70 893.10 L 715.40 890.60 L 717.80 888.00 L 720.60 885.80 L 724.10 883.70 L 728.60 881.70 L 748.10 875.80 L 754.80 872.80 L 757.20 871.20 L 758.90 869.40 L 762.70 863.90 L 767.50 854.30 L 770.50 847.30 Z" fill="#000000" fill-rule="nonzero" id="路径_580" node-id="6" stroke="none" target-height="60.399963" target-width="110.900024" target-x="712.1" target-y="845.9"></path></clipPath><clipPath id="clip-path-3" node-id="7"><path d="M 906.30 843.00 L 911.50 844.30 L 919.30 845.50 L 923.90 845.70 L 928.60 845.40 L 933.10 844.40 L 938.60 842.50 L 949.20 837.80 L 954.30 834.90 L 966.50 894.10 L 858.50 909.30 L 856.70 906.10 L 855.90 903.80 L 855.50 901.40 L 855.60 898.80 L 856.40 896.20 L 857.70 893.60 L 859.80 890.70 L 862.20 888.10 L 865.40 885.50 L 869.60 882.90 L 888.00 874.30 L 894.20 870.50 L 896.40 868.50 L 897.90 866.50 L 900.80 860.50 L 904.30 850.30 L 906.30 843.00 Z" fill="#000000" fill-rule="nonzero" id="路径_580-2" node-id="8" stroke="none" target-height="74.39996" target-width="111" target-x="855.5" target-y="834.9"></path></clipPath><clipPath id="clip-path-4" node-id="9"><path d="M 750.80 490.80 L 703.70 663.00 L 714.40 671.00 L 726.60 678.50 L 734.00 682.30 L 742.40 686.10 L 754.50 690.30 L 769.50 693.80 L 784.00 696.10 L 794.10 697.00 L 802.10 697.40 L 813.90 697.30 L 818.10 697.00 L 828.70 628.30 L 832.30 678.10 L 867.80 674.30 L 893.00 670.70 L 902.00 668.80 L 949.90 657.10 L 895.40 483.20 Z" fill="#000000" fill-rule="nonzero" id="路径_574" node-id="10" stroke="none" target-height="214.20001" target-width="246.20001" target-x="703.7" target-y="483.2"></path></clipPath><clipPath id="clip-path-5" node-id="11"><path d="M 805.30 278.40 L 811.20 283.10 L 814.60 285.20 L 818.40 287.10 L 823.00 288.80 L 829.90 289.90 L 833.90 290.00 L 837.90 289.60 L 844.30 288.10 L 848.50 286.40 L 851.70 284.60 L 858.00 280.30 L 858.90 280.10 L 866.00 282.60 L 874.50 286.90 L 879.10 289.90 L 884.90 294.60 L 887.60 297.40 L 894.30 306.10 L 902.70 319.60 L 907.50 328.50 L 916.50 346.20 L 921.30 357.20 L 932.20 386.80 L 942.90 418.40 L 943.20 424.00 L 941.80 450.90 L 937.00 513.80 L 912.90 513.70 L 900.30 512.80 L 889.20 511.10 L 883.60 509.20 L 882.00 508.20 L 886.10 485.40 L 870.40 488.70 L 854.10 491.10 L 844.80 491.90 L 828.30 492.30 L 815.20 491.20 L 771.70 486.20 L 759.80 483.80 L 754.70 482.20 L 747.50 479.00 L 741.70 474.80 L 741.50 473.00 L 742.20 460.30 L 743.20 449.10 L 746.60 416.80 L 729.40 409.80 L 716.10 403.10 L 708.90 399.00 L 701.80 394.40 L 694.80 389.40 L 690.30 385.70 L 682.20 377.90 L 666.60 360.20 L 657.30 348.80 L 649.40 338.30 L 649.10 337.50 L 649.50 337.10 L 668.90 322.50 L 679.50 313.80 L 684.70 309.10 L 692.00 301.30 L 696.10 295.50 L 740.20 329.30 L 746.90 320.10 L 758.00 306.80 L 766.70 298.20 L 771.00 294.90 L 776.30 291.40 L 787.50 285.20 L 793.30 282.60 L 805.30 278.40 Z" fill="#000000" fill-rule="nonzero" id="路径_570" node-id="12" stroke="none" target-height="235.4" target-width="294.10004" target-x="649.1" target-y="278.4"></path></clipPath></defs><g clip-path="url(#clip-团队)" id="团队" node-id="15"><path d="M 1024.00 1024.00 L 2048.00 1024.00 L 2048.00 2048.00 L 1024.00 2048.00 Z" fill="#dae3ff" fill-rule="nonzero" node-id="197" stroke="none" target-height="1024" target-width="1024" target-x="1024" target-y="1024"></path><path d="M 296.70 269.00 L 297.10 269.40 L 297.10 227.50 L 297.40 224.70 L 298.10 222.10 L 299.30 219.70 L 300.80 217.50 L 302.60 215.70 L 304.80 214.10 L 307.20 213.00 L 309.80 212.30 L 312.60 212.00 L 428.00 212.00 L 430.90 212.30 L 433.40 213.00 L 435.80 214.10 L 438.00 215.70 L 439.90 217.50 L 441.40 219.70 L 442.60 222.10 L 443.30 224.70 L 443.50 227.50 L 443.50 279.80 L 443.30 282.70 L 442.60 285.20 L 441.40 287.60 L 439.90 289.80 L 438.00 291.70 L 435.80 293.20 L 433.40 294.40 L 430.90 295.10 L 428.00 295.30 L 312.90 295.30 L 296.70 311.50 Z" fill="#f3c044" fill-rule="nonzero" group-id="1,6,25" id="联合_24" node-id="19" stroke="none" target-height="99.5" target-width="146.79999" target-x="296.7" target-y="212"></path><path d="M 376.00 271.50 L 376.00 263.40 L 422.90 263.40 L 422.90 271.50 Z M 376.00 253.70 L 376.00 245.60 L 405.90 245.60 L 405.90 253.70 Z M 376.00 235.90 L 376.00 227.80 L 428.60 227.80 L 428.60 235.90 Z" fill="#ffffff" fill-rule="nonzero" group-id="1,6,26" id="联合_25" node-id="20" stroke="none" target-height="43.699997" target-width="52.600006" target-x="376" target-y="227.8"></path><path d="M 338.80 247.20 L 338.80 225.40 L 341.80 225.60 L 347.30 227.10 L 349.80 228.30 L 352.90 230.50 L 355.50 233.10 L 357.60 236.20 L 358.90 238.70 L 360.40 244.20 L 360.60 247.20 Z" fill="#fb1100" fill-rule="nonzero" group-id="1,6,27" id="交叉_2" node-id="21" stroke="none" target-height="21.800003" target-width="21.800018" target-x="338.8" target-y="225.4"></path><path d="M 336.40 271.50 L 332.90 271.20 L 329.70 270.40 L 326.70 269.20 L 323.80 267.50 L 321.30 265.50 L 319.10 263.00 L 317.30 260.30 L 315.90 257.30 L 315.00 254.00 L 314.60 250.50 L 314.70 247.20 L 315.30 244.00 L 316.40 240.90 L 317.90 238.00 L 319.80 235.40 L 322.10 233.10 L 324.80 231.10 L 327.90 229.50 L 333.40 228.00 L 336.40 227.80 L 336.40 249.60 L 358.20 249.60 L 358.00 252.50 L 356.50 258.00 L 353.70 262.90 L 351.80 265.10 L 349.60 267.00 L 344.70 269.80 L 339.30 271.30 L 336.40 271.50 Z" fill="#67b5d1" fill-rule="nonzero" group-id="1,6,28" id="减去_11" node-id="22" stroke="none" target-height="43.699997" target-width="43.600006" target-x="314.6" target-y="227.8"></path><path d="M 496.30 148.80 L 750.40 148.80 L 752.80 149.20 L 755.00 150.10 L 756.80 151.50 L 758.20 153.30 L 759.10 155.40 L 759.40 157.80 L 759.40 352.90 L 759.10 355.40 L 758.20 357.50 L 756.80 359.30 L 755.00 360.70 L 752.80 361.60 L 750.40 361.90 L 496.30 361.90 L 493.90 361.60 L 491.70 360.70 L 489.90 359.30 L 488.50 357.50 L 487.60 355.40 L 487.30 352.90 L 487.30 157.80 L 487.60 155.40 L 488.50 153.30 L 489.90 151.50 L 491.70 150.10 L 493.90 149.20 L 496.30 148.80 Z" fill="#6875f3" fill-rule="nonzero" group-id="1,7,29" id="矩形_152" node-id="24" stroke="none" target-height="213.09999" target-width="272.10004" target-x="487.3" target-y="148.8"></path><path d="M 517.80 244.90 L 540.80 244.90 L 540.80 339.00 L 517.80 339.00 Z" fill="#ffffff" fill-rule="nonzero" group-id="1,7,30" id="矩形_153" node-id="26" stroke="none" target-height="94.100006" target-width="23" target-x="517.8" target-y="244.9"></path><path d="M 517.80 274.20 L 540.80 274.20 L 540.80 339.00 L 517.80 339.00 Z" fill="#f6a040" fill-rule="nonzero" group-id="1,7,30,86" id="矩形_154" node-id="27" stroke="none" target-height="64.79999" target-width="23" target-x="517.8" target-y="274.2"></path><path d="M 565.90 215.70 L 588.90 215.70 L 588.90 339.00 L 565.90 339.00 Z" fill="#ffffff" fill-rule="nonzero" group-id="1,7,31" id="矩形_153-2" node-id="29" stroke="none" target-height="123.3" target-width="23" target-x="565.9" target-y="215.7"></path><path d="M 565.90 259.60 L 588.90 259.60 L 588.90 339.00 L 565.90 339.00 Z" fill="#f6a040" fill-rule="nonzero" group-id="1,7,31,87" id="矩形_154-2" node-id="30" stroke="none" target-height="79.399994" target-width="23" target-x="565.9" target-y="259.6"></path><path d="M 703.80 259.60 L 726.80 259.60 L 726.80 339.00 L 703.80 339.00 Z" fill="#ffffff" fill-rule="nonzero" group-id="1,7,32" id="矩形_153-3" node-id="32" stroke="none" target-height="79.399994" target-width="23" target-x="703.8" target-y="259.6"></path><path d="M 703.80 299.30 L 726.80 299.30 L 726.80 339.00 L 703.80 339.00 Z" fill="#f6a040" fill-rule="nonzero" group-id="1,7,32,88" id="矩形_154-3" node-id="33" stroke="none" target-height="39.700012" target-width="23" target-x="703.8" target-y="299.3"></path><path d="M 657.80 237.40 L 680.80 237.40 L 680.80 339.00 L 657.80 339.00 Z" fill="#ffffff" fill-rule="nonzero" group-id="1,7,33" id="矩形_153-4" node-id="35" stroke="none" target-height="101.600006" target-width="23" target-x="657.8" target-y="237.4"></path><path d="M 657.80 296.10 L 680.80 296.10 L 680.80 339.00 L 657.80 339.00 Z" fill="#f6a040" fill-rule="nonzero" group-id="1,7,33,89" id="矩形_154-4" node-id="36" stroke="none" target-height="42.899994" target-width="23" target-x="657.8" target-y="296.1"></path><path d="M 611.90 171.80 L 634.80 171.80 L 634.80 339.00 L 611.90 339.00 Z" fill="#ffffff" fill-rule="nonzero" group-id="1,7,34" id="矩形_153-5" node-id="38" stroke="none" target-height="167.2" target-width="22.899963" target-x="611.9" target-y="171.8"></path><path d="M 611.90 247.00 L 634.80 247.00 L 634.80 339.00 L 611.90 339.00 Z" fill="#f6a040" fill-rule="nonzero" group-id="1,7,34,90" id="矩形_154-5" node-id="39" stroke="none" target-height="92" target-width="22.899963" target-x="611.9" target-y="247"></path><path d="M 171.50 703.70 L 192.70 703.70 L 192.70 903.00 L 171.50 903.00 Z" fill="#7971a2" fill-rule="nonzero" group-id="2,8,35" id="矩形_138" node-id="42" stroke="none" target-height="199.29999" target-width="21.199997" target-x="171.5" target-y="703.7"></path><path d="M 340.40 703.70 L 360.80 703.70 L 360.80 903.00 L 340.40 903.00 Z" fill="#7971a2" fill-rule="nonzero" group-id="2,8,36" id="矩形_139" node-id="43" stroke="none" target-height="199.29999" target-width="20.399994" target-x="340.4" target-y="703.7"></path><path d="M 151.20 689.80 L 378.30 689.80 L 378.30 717.50 L 151.20 717.50 Z" fill="#223ea1" fill-rule="nonzero" group-id="2,8" id="矩形_137" node-id="44" stroke="none" target-height="27.700012" target-width="227.09999" target-x="151.2" target-y="689.8"></path><path d="M 236.60 313.40 L 235.40 311.00 L 234.80 308.90 L 234.20 303.50 L 234.90 298.80 L 236.60 295.40 L 237.80 294.00 L 239.50 292.90 L 241.60 292.00 L 244.50 291.30 L 249.40 290.90 L 252.80 291.40 L 255.60 292.40 L 258.00 293.80 L 259.90 295.30 L 262.30 298.50 L 263.70 303.10 L 263.80 308.40 L 263.30 311.00 L 262.30 313.40 L 265.30 313.70 L 271.00 315.20 L 274.20 316.50 L 277.50 318.50 L 281.40 322.20 L 283.10 324.60 L 285.00 328.30 L 286.10 331.40 L 286.80 334.40 L 287.00 344.60 L 287.70 350.30 L 289.00 354.70 L 290.00 355.90 L 292.00 356.50 L 298.00 356.20 L 299.90 356.60 L 301.70 357.60 L 303.50 359.00 L 305.40 361.50 L 307.60 365.80 L 310.00 372.50 L 311.10 374.80 L 312.50 376.90 L 314.60 379.00 L 317.20 380.80 L 320.90 382.60 L 333.90 387.80 L 342.50 391.80 L 345.90 394.10 L 349.00 396.70 L 352.00 399.70 L 354.60 402.90 L 356.70 406.30 L 357.70 408.70 L 358.20 411.20 L 358.40 413.80 L 358.00 416.40 L 357.00 419.10 L 355.40 422.10 L 354.40 423.00 L 352.20 423.90 L 348.20 424.90 L 341.80 425.90 L 332.80 426.70 L 311.20 427.60 L 285.50 427.80 L 258.00 427.40 L 205.80 425.70 L 166.50 423.50 L 162.50 417.80 L 161.40 415.20 L 160.70 412.20 L 160.60 410.10 L 161.00 407.90 L 161.80 405.50 L 163.50 402.40 L 165.30 400.00 L 167.10 398.10 L 170.30 395.80 L 173.20 394.20 L 183.40 390.00 L 186.70 387.70 L 188.40 385.90 L 191.20 381.40 L 196.00 368.80 L 198.80 364.00 L 202.20 360.40 L 204.20 359.10 L 210.00 356.60 L 212.00 355.20 L 214.30 352.60 L 214.80 351.50 L 215.00 339.50 L 215.90 333.30 L 216.80 330.20 L 218.30 326.90 L 220.40 323.60 L 222.90 320.50 L 225.80 317.80 L 229.10 315.60 L 231.50 314.50 L 236.60 313.40 Z" fill="#583b3b" fill-rule="nonzero" group-id="2,9,37" id="路径_585" node-id="46" stroke="none" target-height="136.9" target-width="197.79999" target-x="160.6" target-y="290.9"></path><path d="M 239.40 378.40 L 239.40 397.60 L 220.50 403.00 L 220.90 405.00 L 222.70 409.10 L 228.10 419.40 L 248.90 426.20 L 271.00 426.20 L 291.60 410.60 L 294.00 399.90 L 267.20 397.60 L 267.20 376.40 Z" fill="#f1bbb4" fill-rule="nonzero" group-id="2,9,38" id="路径_587" node-id="47" stroke="none" target-height="49.80002" target-width="73.5" target-x="220.5" target-y="376.4"></path><path d="M 254.20 324.70 L 246.80 332.60 L 243.30 335.90 L 239.20 339.30 L 234.90 342.40 L 230.40 344.90 L 227.30 346.20 L 224.30 347.00 L 218.60 347.50 L 216.40 348.10 L 213.40 349.90 L 211.60 352.40 L 211.00 354.60 L 210.90 359.00 L 212.00 363.00 L 214.80 366.20 L 216.50 367.50 L 218.50 368.40 L 220.70 368.80 L 222.20 368.70 L 225.60 367.20 L 226.90 369.30 L 230.40 373.40 L 235.90 378.00 L 239.20 380.00 L 242.90 381.60 L 245.50 382.40 L 251.00 383.00 L 260.40 382.20 L 263.00 381.60 L 267.50 379.80 L 271.40 376.60 L 273.20 374.40 L 276.60 368.70 L 278.40 364.80 L 284.20 364.90 L 286.50 364.60 L 290.10 362.90 L 292.00 360.40 L 292.80 357.90 L 293.30 355.20 L 293.20 352.40 L 292.60 350.00 L 291.80 348.60 L 290.70 347.50 L 289.20 346.70 L 287.60 346.30 L 285.40 346.30 L 282.40 347.00 L 272.70 341.80 L 263.80 335.50 L 260.20 332.20 L 257.30 329.00 L 254.20 324.70 Z" fill="#f1c0ba" fill-rule="nonzero" group-id="2,9,39" id="路径_586" node-id="48" stroke="none" target-height="58.299988" target-width="82.399994" target-x="210.9" target-y="324.7"></path><path d="M 221.90 401.30 L 223.90 405.10 L 225.90 407.70 L 228.40 410.30 L 231.90 413.30 L 237.70 416.60 L 241.40 418.20 L 245.20 419.40 L 249.70 420.30 L 254.90 420.90 L 260.10 420.90 L 264.90 420.40 L 269.10 419.30 L 273.30 417.80 L 277.00 416.00 L 280.30 413.90 L 284.90 410.50 L 291.40 403.90 L 294.90 399.00 L 341.20 410.00 L 346.00 412.20 L 350.10 415.10 L 352.10 417.00 L 353.70 419.10 L 354.90 421.40 L 407.20 548.90 L 408.20 554.20 L 408.50 557.30 L 408.30 560.60 L 407.70 563.90 L 406.60 566.90 L 405.40 568.70 L 403.90 570.30 L 402.00 571.80 L 399.80 572.90 L 397.10 573.60 L 393.60 574.10 L 366.50 575.10 L 276.70 577.10 L 184.50 572.10 L 142.60 572.90 L 136.40 572.10 L 133.50 570.90 L 131.70 569.80 L 130.10 568.30 L 128.60 566.40 L 127.50 564.20 L 126.60 561.30 L 126.00 557.60 L 125.80 553.90 L 126.00 549.20 L 126.60 543.30 L 129.50 530.00 L 134.30 513.30 L 146.60 475.80 L 158.10 443.90 L 163.90 428.30 L 164.90 426.20 L 166.80 423.40 L 170.20 419.50 L 175.40 415.70 L 178.70 414.00 L 182.70 412.40 L 193.10 409.30 L 221.90 401.30 Z" fill="#f1b36d" fill-rule="nonzero" group-id="2,10,40" id="路径_588" node-id="50" stroke="none" target-height="178.09998" target-width="282.7" target-x="125.8" target-y="399"></path><g clip-path="url(#clip-path)" group-id="2,10,41" id="蒙版组_25" node-id="51"><path d="M 166.00 417.10 L 172.40 428.50 L 175.00 433.70 L 180.50 446.60 L 183.00 453.90 L 185.20 461.40 L 186.90 469.20" fill="none" group-id="2,10,41,91,111" id="路径_590" node-id="53" stroke="#ffe6c4" stroke-linecap="round" stroke-width="3" target-height="52.100006" target-width="20.899994" target-x="166" target-y="417.1"></path><path d="M 141.30 486.30 L 146.60 478.10 L 151.00 473.00 L 153.50 470.90 L 156.10 469.20 L 158.70 468.30" fill="none" group-id="2,10,41,91,112" id="路径_591" node-id="54" stroke="#ffe6c4" stroke-linecap="round" stroke-width="3" target-height="18" target-width="17.399994" target-x="141.3" target-y="468.3"></path><path d="M 162.00 500.10 L 179.40 488.60" fill="none" group-id="2,10,41,91,113" id="路径_592" node-id="55" stroke="#ffe6c4" stroke-linecap="round" stroke-width="3" target-height="11.5" target-width="17.399994" target-x="162" target-y="488.6"></path><path d="M 143.30 511.60 L 170.80 507.30" fill="none" group-id="2,10,41,91,114" id="路径_593" node-id="56" stroke="#ffe6c4" stroke-linecap="round" stroke-width="3" target-height="4.3000183" target-width="27.5" target-x="143.3" target-y="507.3"></path><path d="M 155.40 539.90 L 170.20 547.70" fill="none" group-id="2,10,41,91,115" id="路径_594" node-id="57" stroke="#ffe6c4" stroke-linecap="round" stroke-width="3" target-height="7.799988" target-width="14.800003" target-x="155.4" target-y="539.9"></path><path d="M 141.30 547.70 L 142.60 570.40" fill="none" group-id="2,10,41,91,116" id="路径_595" node-id="58" stroke="#ffe6c4" stroke-linecap="round" stroke-width="3" target-height="22.700012" target-width="1.300003" target-x="141.3" target-y="547.7"></path><path d="M 170.80 558.90 L 151.10 570.10" fill="none" group-id="2,10,41,91,117" id="路径_596" node-id="59" stroke="#ffe6c4" stroke-linecap="round" stroke-width="3" target-height="11.199951" target-width="19.699997" target-x="151.1" target-y="558.9"></path><path d="M 130.80 517.20 L 136.20 517.20 L 138.40 517.70 L 142.00 519.60 L 144.30 522.40 L 145.00 524.20 L 145.40 526.40 L 145.60 529.40" fill="none" group-id="2,10,41,91,118" id="路径_597" node-id="60" stroke="#ffe6c4" stroke-linecap="round" stroke-width="3" target-height="12.200012" target-width="14.800003" target-x="130.8" target-y="517.2"></path><path d="M 170.20 434.50 L 170.30 431.30 L 170.60 429.10 L 171.40 426.90 L 173.80 423.30 L 177.20 420.90 L 179.30 420.10 L 182.00 419.60 L 185.40 419.30" fill="none" group-id="2,10,41,91,119" id="路径_598" node-id="61" stroke="#ffe6c4" stroke-linecap="round" stroke-width="3" target-height="15.200012" target-width="15.199997" target-x="170.2" target-y="419.3"></path><path d="M 170.20 484.30 L 170.30 481.10 L 170.60 479.00 L 171.40 476.80 L 173.80 473.10 L 177.20 470.70 L 179.30 469.90 L 182.00 469.40 L 185.40 469.20" fill="none" group-id="2,10,41,91,120" id="路径_600" node-id="62" stroke="#ffe6c4" stroke-linecap="round" stroke-width="3" target-height="15.099976" target-width="15.199997" target-x="170.2" target-y="469.2"></path><path d="M 161.10 533.90 L 161.10 530.80 L 161.50 528.60 L 162.20 526.40 L 164.60 522.80 L 168.00 520.40 L 170.10 519.60 L 172.80 519.10 L 176.20 518.80" fill="none" group-id="2,10,41,91,121" id="路径_601" node-id="63" stroke="#ffe6c4" stroke-linecap="round" stroke-width="3" target-height="15.100037" target-width="15.099991" target-x="161.1" target-y="518.8"></path><path d="M 162.00 453.50 L 184.60 447.30" fill="none" group-id="2,10,41,91,122" id="路径_599" node-id="64" stroke="#ffe6c4" stroke-linecap="round" stroke-width="3" target-height="6.200012" target-width="22.600006" target-x="162" target-y="447.3"></path><path d="M 325.80 430.80 L 329.20 427.10 L 330.80 425.80 L 334.80 423.70 L 336.90 423.40 L 339.80 424.10 L 341.30 425.00 L 344.00 428.20 L 345.50 430.80" fill="none" group-id="2,10,41,91,123" id="路径_602" node-id="65" stroke="#ffe6c4" stroke-linecap="round" stroke-width="3" target-height="7.399994" target-width="19.700012" target-x="325.8" target-y="423.4"></path><path d="M 340.60 443.10 L 344.90 443.10 L 348.50 444.00 L 350.10 444.90 L 351.50 446.20 L 352.60 448.80 L 352.70 450.50 L 352.50 452.80 L 352.00 454.50 L 351.20 455.80 L 349.50 457.30 L 347.70 458.30 L 345.70 458.80 L 342.60 459.10" fill="none" group-id="2,10,41,91,124" id="路径_603" node-id="66" stroke="#ffe6c4" stroke-linecap="round" stroke-width="3" target-height="16" target-width="12.100006" target-x="340.6" target-y="443.1"></path><path d="M 342.40 502.30 L 363.10 495.80" fill="none" group-id="2,10,41,91,125" id="路径_604" node-id="67" stroke="#ffe6c4" stroke-linecap="round" stroke-width="3" target-height="6.5" target-width="20.700012" target-x="342.4" target-y="495.8"></path><path d="M 369.60 489.30 L 391.30 486.80" fill="none" group-id="2,10,41,91,126" id="路径_606" node-id="68" stroke="#ffe6c4" stroke-linecap="round" stroke-width="2.9999952" target-height="2.5" target-width="21.699982" target-x="369.6" target-y="486.8"></path><path d="M 331.50 515.30 L 356.70 515.30" fill="none" group-id="2,10,41,91,127" id="路径_607" node-id="69" stroke="#ffe6c4" stroke-linecap="round" stroke-width="2.9999952" target-height="0" target-width="25.200012" target-x="331.5" target-y="515.3"></path><path d="M 357.70 470.90 L 363.30 485.30" fill="none" group-id="2,10,41,91,128" id="路径_605" node-id="70" stroke="#ffe6c4" stroke-linecap="round" stroke-width="3" target-height="14.399994" target-width="5.5999756" target-x="357.7" target-y="470.9"></path><path d="M 375.00 524.20 L 370.90 523.10 L 367.70 521.00 L 366.50 519.30 L 365.70 517.20 L 365.60 513.60 L 366.10 511.20 L 367.10 508.40 L 368.30 506.30 L 369.50 504.90 L 371.00 503.70 L 373.80 502.60 L 375.90 502.40 L 379.00 502.90" fill="none" group-id="2,10,41,91,129" id="路径_608" node-id="71" stroke="#ffe6c4" stroke-linecap="round" stroke-width="3" target-height="21.800018" target-width="13.399994" target-x="365.6" target-y="502.4"></path><path d="M 363.30 543.80 L 367.80 543.40 L 369.60 543.70 L 372.70 545.00 L 374.70 547.20 L 375.40 548.70 L 376.10 553.00" fill="none" group-id="2,10,41,91,130" id="路径_609" node-id="72" stroke="#ffe6c4" stroke-linecap="round" stroke-width="3" target-height="9.599976" target-width="12.800018" target-x="363.3" target-y="543.4"></path><path d="M 372.10 528.90 L 385.60 543.30" fill="none" group-id="2,10,41,91,131" id="路径_610" node-id="73" stroke="#ffe6c4" stroke-linecap="round" stroke-width="3" target-height="14.399963" target-width="13.5" target-x="372.1" target-y="528.9"></path><path d="M 349.70 521.10 L 360.80 536.50" fill="none" group-id="2,10,41,91,132" id="路径_611" node-id="74" stroke="#ffe6c4" stroke-linecap="round" stroke-width="3" target-height="15.400024" target-width="11.099976" target-x="349.7" target-y="521.1"></path><path d="M 380.40 567.00 L 394.60 551.40" fill="none" group-id="2,10,41,91,133" id="路径_612" node-id="75" stroke="#ffe6c4" stroke-linecap="round" stroke-width="3" target-height="15.599976" target-width="14.200012" target-x="380.4" target-y="551.4"></path><path d="M 340.60 558.20 L 360.30 558.20" fill="none" group-id="2,10,41,91,134" id="路径_613" node-id="76" stroke="#ffe6c4" stroke-linecap="round" stroke-width="3" target-height="0" target-width="19.699982" target-x="340.6" target-y="558.2"></path><path d="M 350.40 569.60 L 351.60 571.00 L 353.10 574.10 L 353.30 577.60 L 353.00 579.40" fill="none" group-id="2,10,41,91,135" id="路径_614" node-id="77" stroke="#ffe6c4" stroke-linecap="round" stroke-width="3" target-height="9.800049" target-width="2.899994" target-x="350.4" target-y="569.6"></path><path d="M 360.30 569.60 L 373.90 581.20" fill="none" group-id="2,10,41,91,136" id="路径_615" node-id="78" stroke="#ffe6c4" stroke-linecap="round" stroke-width="3" target-height="11.600037" target-width="13.600006" target-x="360.3" target-y="569.6"></path><path d="M 336.40 468.50 L 338.40 470.70 L 341.60 475.10 L 348.70 486.00" fill="none" group-id="2,10,41,91,137" id="路径_616" node-id="79" stroke="#ffe6c4" stroke-linecap="round" stroke-width="3" target-height="17.5" target-width="12.300018" target-x="336.4" target-y="468.5"></path><path d="M 349.70 411.90 L 344.40 422.40 L 339.80 433.00 L 335.20 445.40 L 331.40 458.20 L 330.00 464.50 L 329.20 470.00" fill="none" group-id="2,10,41,91,138" id="路径_617" node-id="80" stroke="#ffe6c4" stroke-linecap="round" stroke-width="3" target-height="58.100006" target-width="20.5" target-x="329.2" target-y="411.9"></path><path d="M 329.20 451.00 L 310.30 466.00" fill="none" group-id="2,10,41,91,139" id="路径_618" node-id="81" stroke="#ffe6c4" stroke-linecap="round" stroke-width="3" target-height="15" target-width="18.900024" target-x="310.3" target-y="451"></path><path d="M 277.70 438.00 L 296.40 422.00" fill="none" group-id="2,10,41,91,140" id="路径_619" node-id="82" stroke="#ffe6c4" stroke-linecap="round" stroke-width="3" target-height="16" target-width="18.699982" target-x="277.7" target-y="422"></path><path d="M 219.30 433.90 L 239.60 433.90" fill="none" group-id="2,10,41,91,141" id="路径_620" node-id="83" stroke="#ffe6c4" stroke-linecap="round" stroke-width="3" target-height="0" target-width="20.300003" target-x="219.3" target-y="433.9"></path><path d="M 263.00 429.50 L 250.20 446.00" fill="none" group-id="2,10,41,91,142" id="路径_621" node-id="84" stroke="#ffe6c4" stroke-linecap="round" stroke-width="3" target-height="16.5" target-width="12.800003" target-x="250.2" target-y="429.5"></path><path d="M 275.70 413.20 L 275.70 424.30" fill="none" group-id="2,10,41,91,143" id="路径_622" node-id="85" stroke="#ffe6c4" stroke-linecap="round" stroke-width="3" target-height="11.099976" target-width="0" target-x="275.7" target-y="413.2"></path><path d="M 252.90 417.20 L 251.00 418.80 L 244.40 426.10" fill="none" group-id="2,10,41,91,144" id="路径_623" node-id="86" stroke="#ffe6c4" stroke-linecap="round" stroke-width="3" target-height="8.899994" target-width="8.5" target-x="244.4" target-y="417.2"></path><path d="M 189.60 407.30 L 196.80 462.80 L 319.50 461.00 L 320.80 401.20 L 291.40 398.10 L 291.40 438.40 L 222.80 439.90 L 218.60 399.10 Z" fill="#673b95" fill-rule="nonzero" group-id="2,10,41,92" id="路径_589" node-id="87" stroke="none" target-height="64.69998" target-width="131.19998" target-x="189.6" target-y="398.1"></path></g><path d="M 177.90 604.40 L 164.30 685.80 L 267.10 683.20 L 259.20 654.90 L 333.00 640.80 L 347.20 683.20 L 360.50 687.30 L 360.30 680.00 L 359.60 672.90 L 358.30 665.80 L 342.40 607.40 Z" fill="#673b95" fill-rule="nonzero" group-id="2,11,42" id="路径_626" node-id="89" stroke="none" target-height="82.89996" target-width="196.2" target-x="164.3" target-y="604.4"></path><path d="M 185.10 656.20 L 188.20 649.70 L 190.00 646.90 L 192.40 643.80 L 195.20 640.90 L 198.60 638.20 L 203.80 635.30 L 206.90 634.20 L 211.90 633.10 L 217.80 632.40 L 224.00 632.10 L 230.30 632.30 L 236.60 633.00 L 242.40 634.20 L 246.20 635.40 L 252.30 638.60 L 254.90 640.60 L 256.80 643.00 L 258.20 645.60 L 259.00 648.50 L 263.50 674.70 L 271.80 731.80 L 290.30 873.10 L 273.60 873.10 L 236.50 881.70 Z" fill="#f0bfb9" fill-rule="nonzero" group-id="2,11,43" id="路径_627" node-id="90" stroke="none" target-height="249.60004" target-width="105.19998" target-x="185.1" target-y="632.1"></path><path d="M 259.80 650.10 L 274.20 695.80 L 329.70 875.20 L 351.70 866.10 L 373.80 869.70 L 384.60 866.10 L 380.80 859.30 L 344.60 695.60 L 334.20 651.50 L 331.50 641.60 L 330.30 639.10 L 328.60 636.90 L 326.40 634.90 L 323.90 633.20 L 317.70 630.50 L 312.60 629.10 L 307.10 628.10 L 296.40 627.20 L 291.40 627.20 L 283.50 627.90 L 278.80 629.30 L 272.60 632.20 L 266.20 636.30 L 263.50 638.60 L 261.90 640.40 L 259.80 644.10 L 259.30 646.00 L 259.30 648.00 L 259.80 650.10 Z" fill="#f0bfb9" fill-rule="nonzero" group-id="2,11,44" id="路径_628" node-id="91" stroke="none" target-height="248" target-width="125.30002" target-x="259.3" target-y="627.2"></path><path d="M 233.70 875.20 L 238.20 870.10 L 243.40 865.70 L 246.50 863.70 L 250.00 861.90 L 255.10 860.40 L 257.90 860.10 L 262.10 860.20 L 266.50 860.90 L 275.00 863.60 L 282.40 867.00 L 290.00 871.10 L 290.20 871.50 L 291.90 880.60 L 296.20 907.30 L 231.30 908.50 Z" fill="#2f65e5" fill-rule="nonzero" group-id="2,11,45" id="路径_629" node-id="92" stroke="none" target-height="48.400024" target-width="64.90001" target-x="231.3" target-y="860.1"></path><path d="M 239.80 892.00 L 288.80 892.00 L 288.80 895.70 L 239.80 895.70 Z" fill="#d4f1ff" fill-rule="nonzero" group-id="2,11,46" id="矩形_140" node-id="93" stroke="none" target-height="3.7000122" target-width="48.999985" target-x="239.8" target-y="892"></path><path d="M 327.60 875.20 L 332.40 869.20 L 337.60 864.00 L 340.70 861.60 L 344.00 859.50 L 348.80 857.60 L 351.20 857.10 L 356.00 856.90 L 361.20 857.10 L 371.10 858.40 L 382.10 860.80 L 385.10 864.90 L 388.10 870.40 L 392.80 907.90 L 327.60 906.80 Z" fill="#2f65e5" fill-rule="nonzero" group-id="2,11,47" id="路径_630" node-id="94" stroke="none" target-height="51" target-width="65.19998" target-x="327.6" target-y="856.9"></path><path d="M 336.80 892.00 L 382.90 892.00 L 382.90 894.80 L 336.80 894.80 Z" fill="#d4f1ff" fill-rule="nonzero" group-id="2,11,48" id="矩形_141" node-id="95" stroke="none" target-height="2.7999878" target-width="46.100006" target-x="336.8" target-y="892"></path><path d="M 106.90 606.80 L 127.20 606.80 L 127.20 909.60 L 106.90 909.60 Z" fill="#7971a2" fill-rule="nonzero" group-id="2,12,49" id="矩形_138-2" node-id="97" stroke="none" target-height="302.8" target-width="20.299995" target-x="106.9" target-y="606.8"></path><path d="M 528.80 606.80 L 549.10 606.80 L 549.10 909.60 L 528.80 909.60 Z" fill="#7971a2" fill-rule="nonzero" group-id="2,12,50" id="矩形_139-2" node-id="98" stroke="none" target-height="302.8" target-width="20.299988" target-x="528.8" target-y="606.8"></path><path d="M 67.20 578.10 L 588.80 578.10 L 588.80 611.40 L 67.20 611.40 Z" fill="#223ea1" fill-rule="nonzero" group-id="2,12,51" id="矩形_137-2" node-id="99" stroke="none" target-height="33.30005" target-width="521.6" target-x="67.2" target-y="578.1"></path><path d="M 182.00 459.10 L 334.00 457.40 L 335.70 579.90 L 183.60 579.90 Z" fill="#cfcccb" fill-rule="nonzero" group-id="2,12,52" id="路径_625" node-id="100" stroke="none" target-height="122.50003" target-width="153.70001" target-x="182" target-y="457.4"></path><path d="M 441.10 568.00 L 432.20 567.70 L 429.90 567.10 L 427.70 566.10 L 425.70 564.70 L 424.10 563.00 L 422.70 561.10 L 421.60 558.90 L 421.00 556.50 L 420.80 554.00 L 420.80 531.10 L 441.10 531.10 Z M 428.20 534.70 L 428.20 554.10 L 428.70 557.40 L 430.90 560.70 L 432.70 562.10 L 435.70 563.20 L 437.40 563.40 L 437.40 534.70 Z" fill="#e98e2b" fill-rule="nonzero" group-id="2,13,53" id="减去_10" node-id="102" stroke="none" target-height="36.900024" target-width="20.300018" target-x="420.8" target-y="531.1"></path><path d="M 439.20 520.90 L 496.50 520.90 L 496.50 558.10 L 496.10 561.80 L 495.20 565.10 L 493.70 568.20 L 491.80 571.00 L 489.40 573.40 L 486.60 575.40 L 483.50 576.90 L 480.10 577.80 L 476.50 578.10 L 459.20 578.10 L 455.60 577.80 L 452.20 576.90 L 449.10 575.40 L 446.30 573.40 L 443.90 571.00 L 442.00 568.20 L 440.50 565.10 L 439.60 561.80 L 439.20 558.10 L 439.20 520.90 Z" fill="#e78c29" fill-rule="nonzero" group-id="2,13,54" id="矩形_142" node-id="103" stroke="none" target-height="57.19995" target-width="57.299988" target-x="439.2" target-y="520.9"></path><path d="M 439.20 539.40 L 496.50 539.40 L 496.50 552.30 L 439.20 552.30 Z" fill="#ffdab2" fill-rule="nonzero" group-id="2,13,55" id="矩形_145" node-id="104" stroke="none" target-height="12.899963" target-width="57.299988" target-x="439.2" target-y="539.4"></path><path d="M 561.30 768.80 L 561.60 764.00 L 563.20 757.20 L 564.70 753.60 L 567.80 749.10 L 569.90 747.20 L 572.30 745.60 L 575.20 744.40 L 578.70 743.60 L 583.30 743.30 L 587.40 743.40 L 590.90 744.10 L 594.00 745.10 L 597.00 746.60 L 599.60 748.50 L 601.90 750.70 L 603.80 753.30 L 606.00 757.10 L 607.70 761.40 L 608.90 766.40 L 609.10 768.90 L 609.00 771.40 L 608.30 774.10 L 606.80 778.00 L 604.60 781.90 L 602.10 785.60 L 596.30 792.40 L 587.40 800.70 L 561.30 787.50 Z" fill="#1aa297" fill-rule="nonzero" group-id="3,14,56" id="路径_584" node-id="107" stroke="none" target-height="57.400024" target-width="47.799988" target-x="561.3" target-y="743.3"></path><path d="M 578.90 757.70 L 579.90 760.10 L 579.80 761.10 L 579.40 761.60 L 578.70 761.80 L 577.80 761.40 L 576.00 759.60 L 575.10 757.30 L 575.20 756.30 L 575.60 755.80 L 576.30 755.60 L 577.20 755.90 L 578.90 757.70 Z" fill="#007f72" fill-rule="nonzero" group-id="3,14,57" id="椭圆_145" node-id="108" stroke="none" target-height="6.200012" target-width="4.800049" target-x="575.1" target-y="755.6"></path><path d="M 591.70 752.50 L 592.60 754.90 L 592.60 755.90 L 592.20 756.40 L 591.50 756.60 L 590.60 756.20 L 588.80 754.40 L 587.90 752.10 L 587.90 751.10 L 588.40 750.60 L 589.00 750.40 L 589.90 750.70 L 591.70 752.50 Z" fill="#007f72" fill-rule="nonzero" group-id="3,14,58" id="椭圆_146" node-id="109" stroke="none" target-height="6.199951" target-width="4.699951" target-x="587.9" target-y="750.4"></path><path d="M 588.40 765.50 L 589.00 766.80 L 589.20 768.80 L 588.80 769.40 L 588.10 769.50 L 586.30 768.50 L 584.80 766.10 L 584.60 764.10 L 585.00 763.50 L 585.70 763.40 L 586.60 763.70 L 588.40 765.50 Z" fill="#007f72" fill-rule="nonzero" group-id="3,14,59" id="椭圆_147" node-id="110" stroke="none" target-height="6.0999756" target-width="4.6000366" target-x="584.6" target-y="763.4"></path><path d="M 592.80 790.30 L 587.90 782.70 L 585.30 779.50 L 582.10 776.00 L 578.60 772.70 L 574.60 769.70 L 571.70 768.10 L 568.60 766.80 L 565.40 765.90 L 562.20 765.50 L 558.70 765.60 L 555.00 766.40 L 549.60 768.70 L 543.60 773.00 L 540.20 776.20 L 535.20 782.10 L 533.50 784.90 L 531.60 788.90 L 530.40 792.70 L 529.80 796.20 L 529.70 799.80 L 530.00 803.20 L 530.70 806.40 L 533.00 812.40 L 536.90 818.50 L 539.30 821.20 L 543.60 824.70 L 557.60 831.80 L 575.40 840.40 L 597.70 836.30 Z" fill="#13ab9f" fill-rule="nonzero" group-id="3,15,60" id="路径_583" node-id="112" stroke="none" target-height="74.900024" target-width="68" target-x="529.7" target-y="765.5"></path><path d="M 543.30 794.20 L 544.20 796.50 L 544.10 797.50 L 543.70 798.10 L 543.00 798.20 L 542.10 797.90 L 540.40 796.10 L 539.40 793.70 L 539.50 792.80 L 539.90 792.20 L 540.60 792.00 L 541.50 792.40 L 543.30 794.20 Z" fill="#007f72" fill-rule="nonzero" group-id="3,15,61" id="椭圆_139" node-id="113" stroke="none" target-height="6.200012" target-width="4.799988" target-x="539.4" target-y="792"></path><path d="M 548.70 778.70 L 549.60 781.10 L 549.50 782.10 L 549.10 782.60 L 548.40 782.80 L 547.50 782.40 L 545.70 780.70 L 544.80 778.30 L 544.90 777.30 L 545.30 776.80 L 546.00 776.60 L 546.90 777.00 L 548.70 778.70 Z" fill="#007f72" fill-rule="nonzero" group-id="3,15,62" id="椭圆_140" node-id="114" stroke="none" target-height="6.200012" target-width="4.799988" target-x="544.8" target-y="776.6"></path><path d="M 559.40 778.80 L 560.40 781.20 L 560.30 782.20 L 559.90 782.70 L 559.20 782.90 L 558.30 782.50 L 556.50 780.70 L 555.60 778.40 L 555.70 777.40 L 556.10 776.90 L 556.70 776.70 L 557.70 777.00 L 559.40 778.80 Z" fill="#007f72" fill-rule="nonzero" group-id="3,15,63" id="椭圆_141" node-id="115" stroke="none" target-height="6.200012" target-width="4.800049" target-x="555.6" target-y="776.7"></path><path d="M 556.90 794.20 L 557.80 796.50 L 557.70 797.50 L 557.30 798.10 L 556.60 798.20 L 555.70 797.90 L 554.00 796.10 L 553.00 793.70 L 553.10 792.80 L 553.50 792.20 L 554.20 792.00 L 555.10 792.40 L 556.90 794.20 Z" fill="#007f72" fill-rule="nonzero" group-id="3,15,64" id="椭圆_142" node-id="116" stroke="none" target-height="6.200012" target-width="4.799988" target-x="553" target-y="792"></path><path d="M 546.70 812.10 L 547.30 813.30 L 547.50 815.40 L 547.10 815.90 L 546.40 816.10 L 544.60 815.10 L 543.10 812.70 L 542.90 810.60 L 543.30 810.10 L 544.00 809.90 L 544.90 810.30 L 546.70 812.10 Z" fill="#007f72" fill-rule="nonzero" group-id="3,15,65" id="椭圆_143" node-id="117" stroke="none" target-height="6.199951" target-width="4.5999756" target-x="542.9" target-y="809.9"></path><path d="M 566.20 812.10 L 566.80 813.30 L 567.00 815.40 L 566.60 815.90 L 565.90 816.10 L 564.10 815.10 L 562.60 812.70 L 562.40 810.60 L 562.80 810.10 L 563.50 809.90 L 564.40 810.30 L 566.20 812.10 Z" fill="#007f72" fill-rule="nonzero" group-id="3,15,66" id="椭圆_144" node-id="118" stroke="none" target-height="6.199951" target-width="4.5999756" target-x="562.4" target-y="809.9"></path><path d="M 592.40 838.30 L 587.60 830.10 L 583.50 821.30 L 580.00 810.90 L 578.90 805.30 L 578.40 799.80 L 578.50 796.10 L 579.00 792.50 L 580.00 789.10 L 581.90 784.20 L 584.10 780.00 L 586.40 776.50 L 589.00 773.30 L 591.70 770.70 L 594.60 768.60 L 600.80 765.30 L 604.00 764.30 L 608.90 763.20 L 613.90 762.60 L 618.00 762.60 L 622.90 763.20 L 629.40 764.90 L 635.80 767.90 L 638.70 770.00 L 641.40 772.60 L 643.10 774.70 L 645.90 779.90 L 647.60 786.10 L 647.90 789.60 L 647.40 798.20 L 646.30 803.10 L 644.60 807.60 L 642.50 811.80 L 639.80 815.80 L 636.90 819.40 L 633.70 822.80 L 628.40 827.40 L 623.10 831.30 L 617.70 834.70 L 608.50 839.50 L 602.30 842.10 Z" fill="#05b7a6" fill-rule="nonzero" group-id="3,16,67" id="路径_582" node-id="120" stroke="none" target-height="79.5" target-width="69.5" target-x="578.4" target-y="762.6"></path><path d="M 622.90 811.10 L 622.20 812.40 L 620.60 813.70 L 619.90 813.70 L 619.40 813.20 L 619.20 811.10 L 620.30 808.50 L 621.90 807.20 L 622.60 807.20 L 623.10 807.70 L 623.40 808.70 L 622.90 811.10 Z" fill="#007f72" fill-rule="nonzero" group-id="3,16,68" id="椭圆_134" node-id="121" stroke="none" target-height="6.5" target-width="4.200012" target-x="619.2" target-y="807.2"></path><path d="M 616.90 790.60 L 616.20 791.90 L 614.60 793.20 L 614.00 793.20 L 613.50 792.70 L 613.30 790.60 L 614.40 788.00 L 616.00 786.70 L 616.70 786.70 L 617.20 787.20 L 617.40 788.20 L 616.90 790.60 Z" fill="#007f72" fill-rule="nonzero" group-id="3,16,69" id="椭圆_135" node-id="122" stroke="none" target-height="6.5" target-width="4.1000366" target-x="613.3" target-y="786.7"></path><path d="M 640.30 786.70 L 639.60 788.00 L 638.00 789.30 L 637.30 789.30 L 636.80 788.80 L 636.70 786.70 L 637.80 784.10 L 639.40 782.80 L 640.10 782.80 L 640.60 783.30 L 640.80 784.30 L 640.30 786.70 Z" fill="#007f72" fill-rule="nonzero" group-id="3,16,70" id="椭圆_136" node-id="123" stroke="none" target-height="6.5" target-width="4.0999756" target-x="636.7" target-y="782.8"></path><path d="M 606.30 779.70 L 605.60 781.00 L 604.00 782.30 L 603.30 782.30 L 602.80 781.80 L 602.70 779.70 L 603.80 777.10 L 605.40 775.80 L 606.10 775.80 L 606.50 776.30 L 606.80 777.30 L 606.30 779.70 Z" fill="#007f72" fill-rule="nonzero" group-id="3,16,71" id="椭圆_137" node-id="124" stroke="none" target-height="6.5" target-width="4.0999756" target-x="602.7" target-y="775.8"></path><path d="M 593.80 801.40 L 593.10 802.60 L 591.50 803.90 L 590.80 803.90 L 590.30 803.40 L 590.20 801.40 L 591.30 798.80 L 592.90 797.50 L 593.50 797.50 L 594.00 798.00 L 594.30 798.90 L 593.80 801.40 Z" fill="#007f72" fill-rule="nonzero" group-id="3,16,72" id="椭圆_138" node-id="125" stroke="none" target-height="6.4000244" target-width="4.0999756" target-x="590.2" target-y="797.5"></path><path d="M 547.20 840.40 L 556.30 909.60 L 616.40 909.60 L 622.70 840.40 Z" fill="#f38518" fill-rule="nonzero" group-id="3,17" id="路径_581" node-id="126" stroke="none" target-height="69.19995" target-width="75.5" target-x="547.2" target-y="840.4"></path><path d="M 539.90 830.80 L 631.60 830.80 L 631.60 851.10 L 539.90 851.10 Z" fill="#fcbd7e" fill-rule="nonzero" group-id="3,18" id="矩形_136" node-id="127" stroke="none" target-height="20.299988" target-width="91.69995" target-x="539.9" target-y="830.8"></path><path d="M 153.00 238.00 L 152.80 242.50 L 152.10 246.70 L 151.10 250.80 L 149.60 254.70 L 145.60 262.10 L 140.40 268.40 L 134.10 273.60 L 126.70 277.60 L 122.80 279.10 L 118.70 280.10 L 114.50 280.80 L 110.00 281.00 L 105.50 280.80 L 101.30 280.10 L 97.20 279.10 L 93.30 277.60 L 85.90 273.60 L 79.60 268.40 L 74.40 262.10 L 70.40 254.70 L 68.90 250.80 L 67.90 246.70 L 67.20 242.50 L 67.00 238.00 L 67.20 233.50 L 67.90 229.30 L 68.90 225.20 L 70.40 221.30 L 74.40 213.90 L 79.60 207.60 L 85.90 202.40 L 93.30 198.40 L 97.20 196.90 L 101.30 195.90 L 105.50 195.20 L 110.00 195.00 L 114.50 195.20 L 118.70 195.90 L 122.80 196.90 L 126.70 198.40 L 134.10 202.40 L 140.40 207.60 L 145.60 213.90 L 149.60 221.30 L 151.10 225.20 L 152.10 229.30 L 152.80 233.50 L 153.00 238.00 Z" fill="#ffffff" fill-rule="nonzero" group-id="4,19" id="椭圆_133" node-id="129" stroke="none" target-height="86" target-width="86" target-x="67" target-y="195"></path><path d="M 110.00 214.00 L 111.40 214.60 L 112.00 216.00 L 112.00 239.00 L 111.80 239.80 L 110.80 240.80 L 109.20 240.80 L 108.20 239.80 L 108.00 239.00 L 108.00 216.00 L 108.60 214.60 L 110.00 214.00 Z" fill="#1290f1" fill-rule="nonzero" group-id="4,20" id="矩形_134" node-id="130" stroke="none" target-height="26.800003" target-width="4" target-x="108" target-y="214"></path><path d="M 145.00 239.00 L 144.40 240.40 L 143.00 241.00 L 110.00 241.00 L 109.20 240.80 L 108.20 239.80 L 108.20 238.20 L 109.20 237.20 L 110.00 237.00 L 143.00 237.00 L 144.40 237.60 L 145.00 239.00 Z" fill="#1290f1" fill-rule="nonzero" group-id="4,21" id="矩形_135" node-id="131" stroke="none" target-height="4" target-width="36.800003" target-x="108.2" target-y="237"></path><path d="M 753.50 683.10 L 774.30 854.70 L 774.70 855.40 L 775.60 856.00 L 780.50 856.70 L 784.80 856.60 L 794.30 855.80 L 813.90 853.00 L 808.30 684.50 Z" fill="#f4c3b5" fill-rule="nonzero" group-id="5,22,73,93" id="路径_575" node-id="135" stroke="none" target-height="173.60004" target-width="60.400024" target-x="753.5" target-y="683.1"></path><path d="M 770.50 847.30 L 775.50 849.30 L 783.10 851.60 L 787.60 852.40 L 792.30 852.70 L 796.90 852.50 L 802.60 851.40 L 813.80 848.10 L 819.20 845.90 L 823.00 906.30 L 714.00 906.30 L 712.60 902.90 L 712.20 900.50 L 712.10 898.00 L 712.60 895.50 L 713.70 893.10 L 715.40 890.60 L 717.80 888.00 L 720.60 885.80 L 724.10 883.70 L 728.60 881.70 L 748.10 875.80 L 754.80 872.80 L 757.20 871.20 L 758.90 869.40 L 762.70 863.90 L 767.50 854.30 L 770.50 847.30 Z" fill="#d76202" fill-rule="nonzero" group-id="5,22,73,94" id="路径_576" node-id="136" stroke="none" target-height="60.399963" target-width="110.900024" target-x="712.1" target-y="845.9"></path><g clip-path="url(#clip-path-2)" group-id="5,22,73,95" id="蒙版组_24" node-id="137"><path d="M 823.70 899.50 L 711.70 901.80 L 713.10 906.30 L 824.20 906.30" fill="#903700" fill-rule="nonzero" group-id="5,22,73,95,145" id="路径_577" node-id="138" stroke="none" target-height="6.799988" target-width="112.5" target-x="711.7" target-y="899.5"></path><path d="M 782.40 847.70 L 781.80 857.90 L 781.10 862.40 L 778.80 870.40 L 775.90 876.30 L 773.90 878.90 L 771.60 881.10 L 768.90 882.90 L 764.30 885.00 L 758.70 886.90 L 752.70 888.40 L 740.40 890.80 L 721.30 893.10 L 709.50 893.10" fill="none" group-id="5,22,73,95,146" id="路径_578" node-id="139" stroke="#ff9d42" stroke-linecap="butt" stroke-width="2" target-height="45.399963" target-width="72.900024" target-x="709.5" target-y="847.7"></path><path d="M 779.80 859.70 L 786.30 861.40 L 791.60 862.20 L 799.70 862.50 L 809.80 861.40 L 815.30 860.20 L 821.40 858.30" fill="none" group-id="5,22,73,95,147" id="路径_579" node-id="140" stroke="#ff9d42" stroke-linecap="butt" stroke-width="2" target-height="4.200012" target-width="41.600037" target-x="779.8" target-y="858.3"></path></g><path d="M 862.40 671.60 L 911.10 849.80 L 911.50 850.40 L 912.50 850.90 L 914.40 851.00 L 917.50 850.90 L 926.20 849.30 L 940.20 845.60 L 950.00 842.60 L 918.40 659.00 Z" fill="#f4c3b5" fill-rule="nonzero" group-id="5,22,74,96" id="路径_575-2" node-id="142" stroke="none" target-height="192" target-width="87.599976" target-x="862.4" target-y="659"></path><path d="M 906.30 843.00 L 911.50 844.30 L 919.30 845.50 L 923.90 845.70 L 928.60 845.40 L 933.10 844.40 L 938.60 842.50 L 949.20 837.80 L 954.30 834.90 L 966.50 894.10 L 858.50 909.30 L 856.70 906.10 L 855.90 903.80 L 855.50 901.40 L 855.60 898.80 L 856.40 896.20 L 857.70 893.60 L 859.80 890.70 L 862.20 888.10 L 865.40 885.50 L 869.60 882.90 L 888.00 874.30 L 894.20 870.50 L 896.40 868.50 L 897.90 866.50 L 900.80 860.50 L 904.30 850.30 L 906.30 843.00 Z" fill="#d76202" fill-rule="nonzero" group-id="5,22,74,97" id="路径_576-2" node-id="143" stroke="none" target-height="74.39996" target-width="111" target-x="855.5" target-y="834.9"></path><g clip-path="url(#clip-path-3)" group-id="5,22,74,98" id="蒙版组_24-2" node-id="144"><path d="M 966.20 887.30 L 855.60 905.10 L 857.60 909.40 L 967.70 893.90" fill="#903700" fill-rule="nonzero" group-id="5,22,74,98,148" id="路径_577-2" node-id="145" stroke="none" target-height="22.100037" target-width="112.10004" target-x="855.6" target-y="887.3"></path><path d="M 918.10 841.70 L 918.90 851.90 L 918.80 856.40 L 917.70 864.70 L 915.60 871.00 L 914.00 873.80 L 912.10 876.30 L 909.70 878.50 L 905.40 881.20 L 900.00 883.80 L 894.40 886.20 L 882.60 890.30 L 863.90 895.20 L 852.20 896.90" fill="none" group-id="5,22,74,98,149" id="路径_578-2" node-id="146" stroke="#ff9d42" stroke-linecap="butt" stroke-width="1.9999999" target-height="55.200012" target-width="66.70001" target-x="852.2" target-y="841.7"></path><path d="M 917.20 853.90 L 923.90 854.80 L 929.20 854.80 L 937.20 853.90 L 947.10 851.50 L 952.40 849.50 L 958.20 846.80" fill="none" group-id="5,22,74,98,150" id="路径_579-2" node-id="147" stroke="#ff9d42" stroke-linecap="butt" stroke-width="1.9999999" target-height="8" target-width="41" target-x="917.2" target-y="846.8"></path></g><path d="M 750.80 490.80 L 703.70 663.00 L 714.40 671.00 L 726.60 678.50 L 734.00 682.30 L 742.40 686.10 L 754.50 690.30 L 769.50 693.80 L 784.00 696.10 L 794.10 697.00 L 802.10 697.40 L 813.90 697.30 L 818.10 697.00 L 828.70 628.30 L 832.30 678.10 L 867.80 674.30 L 893.00 670.70 L 902.00 668.80 L 949.90 657.10 L 895.40 483.20 Z" fill="#2a6fb4" fill-rule="nonzero" group-id="5,22,75" id="路径_571" node-id="148" stroke="none" target-height="214.20001" target-width="246.20001" target-x="703.7" target-y="483.2"></path><g clip-path="url(#clip-path-4)" group-id="5,22,76" id="蒙版组_23" node-id="149"><path d="M 706.80 647.00 L 717.40 652.40 L 728.10 657.40 L 739.10 661.90 L 750.30 665.90 L 769.10 671.20 L 788.20 675.20 L 805.70 677.90 L 826.50 679.70 L 830.30 680.30 L 832.50 681.00 L 834.40 682.20 L 834.50 683.70 L 832.80 685.70 L 826.60 689.00 L 821.20 691.10 L 807.10 689.50 L 784.70 686.00 L 768.00 682.60 L 760.00 680.70 L 752.40 678.40 L 746.00 676.00 L 734.30 670.80 L 722.80 665.10 L 711.50 658.90 L 700.50 652.40 Z" fill="#a6cbe8" fill-rule="nonzero" group-id="5,22,76,99" id="路径_572" node-id="150" stroke="none" target-height="44.099976" target-width="134" target-x="700.5" target-y="647"></path><path d="M 829.40 661.90 L 843.30 661.30 L 857.30 660.00 L 873.10 657.60 L 881.10 655.80 L 930.90 640.60 L 941.70 636.20 L 949.50 632.30 L 950.50 632.20 L 952.10 632.80 L 952.80 634.90 L 952.70 636.70 L 951.80 640.40 L 950.20 644.90 L 915.20 657.20 L 896.20 662.90 L 885.90 665.20 L 865.90 667.80 L 852.00 669.10 L 827.50 670.70 Z" fill="#a6cbe8" fill-rule="nonzero" group-id="5,22,76,100" id="路径_573" node-id="151" stroke="none" target-height="38.5" target-width="125.29999" target-x="827.5" target-y="632.2"></path></g><path d="M 819.00 266.40 L 819.90 285.70 L 842.40 284.40 L 842.40 264.70 Z" fill="#f4bfb1" fill-rule="nonzero" group-id="5,23,77" id="路径_553" node-id="153" stroke="none" target-height="21" target-width="23.400024" target-x="819" target-y="264.7"></path><path d="M 800.80 235.50 L 799.30 234.00 L 797.00 232.80 L 795.60 232.80 L 793.90 233.70 L 792.80 234.90 L 792.20 236.20 L 792.00 237.70 L 792.30 239.30 L 793.30 241.60 L 794.90 243.90 L 796.90 245.90 L 798.90 247.40 L 801.00 248.50 L 802.50 248.70 L 803.30 251.50 L 806.20 257.70 L 810.00 262.80 L 812.30 265.20 L 815.00 267.30 L 818.10 269.10 L 821.50 270.50 L 825.20 271.30 L 829.40 271.60 L 832.80 271.30 L 838.30 270.00 L 841.80 268.30 L 844.60 266.30 L 847.10 264.00 L 849.00 261.70 L 853.60 255.10 L 854.80 255.40 L 856.70 255.10 L 858.70 254.50 L 860.80 253.40 L 862.70 252.00 L 865.00 248.90 L 865.60 245.80 L 865.30 244.10 L 864.30 241.90 L 863.00 240.70 L 860.20 239.40 L 857.90 239.00 L 861.50 225.00 L 848.30 207.10 L 821.00 207.10 L 802.90 211.20 L 798.20 221.20 Z" fill="#f9c4bc" fill-rule="nonzero" group-id="5,23,78" id="路径_552" node-id="154" stroke="none" target-height="64.5" target-width="73.599976" target-x="792" target-y="207.1"></path><path d="M 802.00 234.90 L 801.90 228.50 L 802.50 223.20 L 803.30 220.60 L 804.50 218.60 L 805.50 217.60 L 806.70 217.00 L 808.30 216.70 L 812.00 217.00 L 816.30 219.10 L 819.80 219.90 L 825.90 220.00 L 830.80 219.50 L 845.50 216.30 L 849.50 215.90 L 851.90 216.70 L 853.10 217.80 L 854.20 219.90 L 855.90 225.30 L 858.20 239.40 L 858.60 240.00 L 860.20 239.40 L 863.20 236.30 L 864.60 232.30 L 866.00 225.10 L 866.40 220.70 L 866.50 211.40 L 866.00 207.00 L 865.20 204.20 L 864.00 201.40 L 862.40 198.70 L 860.30 196.20 L 857.80 193.90 L 854.90 191.70 L 851.70 189.90 L 848.10 188.30 L 844.00 187.00 L 839.90 186.10 L 835.30 185.60 L 830.30 185.50 L 825.20 185.80 L 816.50 187.40 L 809.30 190.20 L 803.60 193.70 L 799.40 197.80 L 796.90 202.10 L 795.70 207.60 L 795.10 215.10 L 795.10 222.30 L 796.00 228.00 L 796.70 229.70 L 798.10 231.80 L 799.90 233.50 L 802.00 234.90 Z" fill="#702a11" fill-rule="nonzero" group-id="5,23,79" id="路径_554" node-id="155" stroke="none" target-height="54.5" target-width="71.400024" target-x="795.1" target-y="185.5"></path><path d="M 742.90 474.90 L 742.60 492.10 L 742.90 494.30 L 743.60 494.60 L 757.20 498.00 L 763.90 499.30 L 780.80 502.00 L 790.50 503.10 L 800.40 503.80 L 810.80 504.20 L 829.50 504.10 L 849.30 503.40 L 868.40 502.20 L 891.30 499.90 L 895.90 499.20 L 900.10 498.00 L 900.40 497.60 L 900.80 494.00 L 900.90 473.30 L 813.90 473.30 Z" fill="#fafdea" fill-rule="nonzero" group-id="5,24,80" id="路径_557" node-id="157" stroke="none" target-height="30.900024" target-width="158.30005" target-x="742.6" target-y="473.3"></path><path d="M 694.60 300.20 L 694.10 271.10 L 693.70 269.20 L 692.80 267.30 L 691.40 265.70 L 689.80 264.50 L 687.30 263.90 L 684.60 264.70 L 681.60 267.60 L 679.70 270.80 L 678.40 274.20 L 677.40 277.70 L 676.90 281.00 L 676.50 288.60 L 656.10 266.20 L 654.50 264.80 L 653.00 264.00 L 649.90 263.60 L 648.40 263.90 L 646.00 265.40 L 644.50 268.00 L 644.30 269.50 L 645.10 273.20 L 646.30 275.50 L 652.60 284.20 L 662.40 295.20 L 651.40 284.10 L 645.90 278.90 L 641.50 275.30 L 639.90 274.50 L 637.20 273.90 L 635.80 274.10 L 633.80 275.30 L 632.70 277.30 L 632.50 278.70 L 633.30 281.70 L 634.50 283.50 L 643.50 293.60 L 653.60 303.50 L 635.60 288.80 L 631.40 285.80 L 629.70 285.00 L 628.30 284.70 L 627.10 285.00 L 626.10 285.60 L 625.50 286.50 L 625.10 287.70 L 625.20 289.00 L 625.80 290.50 L 627.10 292.20 L 631.00 296.30 L 648.30 313.70 L 636.30 302.70 L 631.30 298.70 L 629.30 297.40 L 628.60 297.30 L 627.90 298.00 L 627.20 299.50 L 626.80 303.70 L 627.20 306.10 L 628.10 308.60 L 630.90 312.30 L 642.10 324.90 L 654.20 337.70 Z" fill="#f3c2b4" fill-rule="nonzero" group-id="5,24,81" id="路径_558" node-id="158" stroke="none" target-height="74.100006" target-width="69.5" target-x="625.1" target-y="263.6"></path><path d="M 888.20 509.10 L 885.50 510.90 L 881.90 514.30 L 880.20 516.70 L 878.80 519.50 L 877.80 522.80 L 876.10 534.50 L 876.30 540.00 L 876.80 541.90 L 877.70 543.60 L 879.00 545.00 L 880.60 545.90 L 882.40 546.30 L 884.80 545.80 L 886.00 545.00 L 887.20 543.70 L 889.10 540.10 L 890.90 533.60 L 889.70 542.30 L 890.10 547.20 L 890.90 549.10 L 893.30 551.50 L 894.90 552.30 L 896.60 552.70 L 899.90 552.50 L 901.30 551.80 L 902.50 550.70 L 903.40 549.10 L 904.20 546.90 L 905.50 539.30 L 906.00 533.60 L 906.40 540.80 L 907.20 546.40 L 907.90 548.90 L 908.60 550.40 L 909.50 551.40 L 912.00 552.80 L 913.40 553.10 L 916.10 552.80 L 917.40 552.20 L 918.30 551.20 L 919.10 549.80 L 920.10 545.00 L 920.90 532.20 L 921.20 539.60 L 922.00 545.50 L 922.60 548.10 L 923.30 549.80 L 924.00 550.50 L 925.90 551.10 L 927.70 550.80 L 929.70 549.70 L 931.50 548.20 L 933.40 546.00 L 934.80 543.30 L 935.80 540.00 L 936.50 533.30 L 936.30 525.40 L 934.60 509.90 Z" fill="#f3c2b4" fill-rule="nonzero" group-id="5,24,82" id="路径_559" node-id="159" stroke="none" target-height="43.99997" target-width="60.400024" target-x="876.1" target-y="509.1"></path><path d="M 816.20 276.30 L 821.40 277.50 L 829.30 278.50 L 836.90 278.30 L 844.30 276.70 L 845.90 276.70 L 850.40 277.90 L 853.10 279.00 L 859.40 282.50 L 849.00 291.70 L 821.60 292.80 L 814.30 290.40 L 808.20 288.00 L 803.20 285.30 L 802.00 284.20 L 801.30 282.50 L 803.40 280.40 L 807.30 278.40 L 809.90 277.50 L 816.20 276.30 Z" fill="#fafdea" fill-rule="nonzero" group-id="5,24,83" id="路径_555" node-id="160" stroke="none" target-height="16.5" target-width="58.100037" target-x="801.3" target-y="276.3"></path><path d="M 805.30 278.40 L 811.20 283.10 L 814.60 285.20 L 818.40 287.10 L 823.00 288.80 L 829.90 289.90 L 833.90 290.00 L 837.90 289.60 L 844.30 288.10 L 848.50 286.40 L 851.70 284.60 L 858.00 280.30 L 858.90 280.10 L 866.00 282.60 L 874.50 286.90 L 879.10 289.90 L 884.90 294.60 L 887.60 297.40 L 894.30 306.10 L 902.70 319.60 L 907.50 328.50 L 916.50 346.20 L 921.30 357.20 L 932.20 386.80 L 942.90 418.40 L 943.20 424.00 L 941.80 450.90 L 937.00 513.80 L 912.90 513.70 L 900.30 512.80 L 889.20 511.10 L 883.60 509.20 L 882.00 508.20 L 886.10 485.40 L 870.40 488.70 L 854.10 491.10 L 844.80 491.90 L 828.30 492.30 L 815.20 491.20 L 771.70 486.20 L 759.80 483.80 L 754.70 482.20 L 747.50 479.00 L 741.70 474.80 L 741.50 473.00 L 742.20 460.30 L 743.20 449.10 L 746.60 416.80 L 729.40 409.80 L 716.10 403.10 L 701.80 394.40 L 694.80 389.40 L 690.30 385.70 L 682.20 377.90 L 666.60 360.20 L 657.30 348.80 L 649.40 338.30 L 649.10 337.50 L 649.50 337.10 L 668.90 322.50 L 679.50 313.80 L 684.70 309.10 L 692.00 301.30 L 696.10 295.50 L 740.20 329.30 L 746.90 320.10 L 758.00 306.80 L 766.70 298.20 L 771.00 294.90 L 776.30 291.40 L 787.50 285.20 L 793.30 282.60 L 805.30 278.40 Z" fill="#f5711e" fill-rule="nonzero" group-id="5,24,84" id="路径_556" node-id="161" stroke="none" target-height="235.4" target-width="294.10004" target-x="649.1" target-y="278.4"></path><g clip-path="url(#clip-path-5)" group-id="5,24,85" id="蒙版组_22" node-id="162"><path d="M 792.30 282.20 L 796.00 286.00 L 799.90 289.40 L 804.00 292.40 L 808.50 295.00 L 813.20 297.20 L 818.00 298.90 L 823.00 300.20 L 828.20 301.10 L 837.60 301.20 L 842.50 300.70 L 849.60 299.40 L 856.40 297.60 L 862.90 295.40 L 868.40 293.30 L 879.90 287.90" fill="none" group-id="5,24,85,101" id="路径_560" node-id="163" stroke="#673b1e" stroke-linecap="butt" stroke-width="2" target-height="19" target-width="87.60004" target-x="792.3" target-y="282.2"></path><path d="M 751.30 302.90 L 755.20 315.50 L 758.90 324.10 L 761.20 328.30 L 763.90 332.10 L 766.70 335.20 L 768.80 337.00 L 771.00 338.20 L 773.30 338.90 L 775.70 339.10 L 778.60 338.90 L 782.10 338.20 L 787.20 336.50 L 793.00 334.20 L 804.50 328.30 L 823.40 317.60 L 826.50 316.10 L 827.80 315.80 L 828.20 316.00 L 828.10 318.10 L 825.80 324.10 L 813.10 349.70 L 810.20 356.50 L 809.50 359.30 L 809.40 361.70 L 809.80 363.90 L 810.70 365.90 L 812.00 367.50 L 813.70 368.70 L 815.70 369.30 L 818.20 369.50 L 821.20 368.90 L 824.00 367.80 L 827.40 365.80 L 831.30 362.60 L 835.80 358.30 L 856.70 336.90 L 866.70 328.50 L 875.30 323.00 L 879.80 320.90 L 884.50 319.20 L 889.30 318.10 L 912.40 314.30 L 915.40 314.50 L 915.60 314.90 L 915.10 315.90 L 907.70 323.10 L 889.30 345.10 L 888.60 346.00 L 888.10 347.60 L 888.00 349.30 L 888.50 351.30 L 889.30 352.40 L 890.40 353.40 L 892.20 354.30 L 894.20 354.90 L 896.90 355.20 L 912.60 354.10 L 935.60 353.30" fill="none" group-id="5,24,85,102" id="路径_561" node-id="164" stroke="#fab689" stroke-linecap="butt" stroke-width="2" target-height="66.600006" target-width="184.29999" target-x="751.3" target-y="302.9"></path><path d="M 758.90 484.50 L 759.30 474.70 L 760.20 465.10 L 761.80 454.40 L 763.00 449.20 L 764.50 444.50 L 766.90 439.10 L 770.70 434.30 L 775.30 430.40 L 778.90 428.30 L 782.00 427.00 L 787.30 426.00 L 790.00 426.50 L 790.20 427.10 L 790.70 436.80 L 791.40 439.80 L 793.10 443.50 L 794.40 445.20 L 796.00 446.50 L 798.10 447.60 L 800.80 448.50 L 803.20 448.60 L 805.80 448.30 L 808.70 447.40 L 813.10 445.40 L 818.00 442.40 L 844.40 423.30 L 853.20 418.10 L 859.70 415.70 L 864.60 414.60 L 872.80 413.80 L 876.70 414.10 L 879.70 414.80 L 882.00 415.80 L 883.50 417.00 L 884.50 418.40 L 885.10 420.10 L 885.30 422.10 L 884.30 426.50 L 880.80 432.90 L 860.00 460.20 L 854.10 469.60 L 850.80 477.20 L 849.80 481.10 L 849.20 485.00 L 849.10 488.90" fill="none" group-id="5,24,85,103" id="路径_562" node-id="165" stroke="#fab689" stroke-linecap="butt" stroke-width="2" target-height="75.100006" target-width="126.39996" target-x="758.9" target-y="413.8"></path><path d="M 677.50 379.60 L 688.60 376.10 L 699.40 373.10 L 711.20 370.60 L 716.90 369.70 L 721.70 369.40 L 727.40 369.50 L 731.80 370.10 L 734.60 370.80 L 736.70 371.80 L 738.30 372.90 L 739.40 374.40 L 740.00 376.10 L 740.10 378.40 L 739.60 380.60 L 738.40 383.40 L 736.40 387.00 L 730.70 395.10 L 724.60 403.10 L 718.20 410.70" fill="none" group-id="5,24,85,104" id="路径_563" node-id="166" stroke="#fab689" stroke-linecap="butt" stroke-width="2" target-height="41.30002" target-width="62.599976" target-x="677.5" target-y="369.4"></path><path d="M 945.80 436.50 L 938.70 438.60 L 932.80 441.20 L 930.20 442.90 L 928.20 444.70 L 927.20 446.10 L 926.80 447.50 L 926.80 449.10 L 928.20 452.90 L 931.60 457.20 L 936.90 461.30 L 939.60 462.80 L 944.30 464.30" fill="none" group-id="5,24,85,105" id="路径_564" node-id="167" stroke="#fab689" stroke-linecap="butt" stroke-width="2" target-height="27.799988" target-width="19" target-x="926.8" target-y="436.5"></path><path d="M 740.20 461.90 L 750.90 465.50 L 769.70 470.30 L 791.10 473.90 L 811.80 475.80 L 822.60 476.20 L 834.30 476.20 L 846.80 475.60 L 865.70 473.70 L 886.10 470.10" fill="none" group-id="5,24,85,106" id="路径_565" node-id="168" stroke="#707070" stroke-linecap="butt" stroke-width="1" target-height="14.300018" target-width="145.89996" target-x="740.2" target-y="461.9"></path><path d="M 704.20 298.20 L 691.50 316.70 L 679.30 332.40 L 670.40 342.00 L 666.20 345.90 L 663.30 348.20 L 658.20 351.10" fill="none" group-id="5,24,85,107" id="路径_566" node-id="169" stroke="#673b1e" stroke-linecap="butt" stroke-width="2" target-height="52.899994" target-width="46" target-x="658.2" target-y="298.2"></path><path d="M 885.30 495.60 L 890.00 498.00 L 894.00 499.50 L 898.60 500.90 L 908.90 502.80 L 919.30 503.30 L 924.80 503.10 L 937.80 501.40" fill="none" group-id="5,24,85,108" id="路径_567" node-id="170" stroke="#673b1e" stroke-linecap="butt" stroke-width="2" target-height="7.6999817" target-width="52.5" target-x="885.3" target-y="495.6"></path><path d="M 883.80 387.00 L 900.20 437.00 L 886.90 484.80 L 883.80 485.90 L 895.90 438.10 Z" fill="none" group-id="5,24,85,109" id="路径_568" node-id="171" stroke="#707070" stroke-linecap="butt" stroke-width="1" target-height="98.899994" target-width="16.400024" target-x="883.8" target-y="387"></path><path d="M 756.30 378.20 L 756.60 375.10 L 754.00 385.00 L 746.60 417.70 L 744.10 435.20 L 742.70 448.20 L 741.20 466.60 L 741.10 470.90 L 741.30 474.50 L 741.60 475.70 L 744.40 477.90 L 748.40 480.00 L 753.30 482.20 L 754.20 417.90 L 755.40 387.10 L 756.30 378.20 Z" fill="none" group-id="5,24,85,110" id="路径_569" node-id="172" stroke="#707070" stroke-linecap="butt" stroke-width="1" target-height="107.100006" target-width="15.5" target-x="741.1" target-y="375.1"></path></g></g></svg>