<?xml version="1.0" standalone="no"?><!DOCTYPE svg PUBLIC "-//W3C//DTD SVG 1.1//EN" "http://www.w3.org/Graphics/SVG/1.1/DTD/svg11.dtd"><svg height="1024" node-id="1" sillyvg="true" template-height="1024" template-width="1024" version="1.1" viewBox="0 0 1024 1024" width="1024" xmlns="http://www.w3.org/2000/svg" xmlns:xlink="http://www.w3.org/1999/xlink"><defs node-id="23"><clipPath id="clip-植物" node-id="3"><path d="M 0.00 0.00 L 1024.00 0.00 L 1024.00 1024.00 L 0.00 1024.00 Z" fill="#000000" fill-rule="nonzero" node-id="26" stroke="none" target-height="1024" target-width="1024" target-x="0" target-y="0"></path></clipPath></defs><g clip-path="url(#clip-植物)" id="植物" node-id="5"><path d="M 1024.00 672.34 L 2048.00 672.34 L 2048.00 1696.34 L 1024.00 1696.34 Z" fill="#ffffff" fill-rule="nonzero" node-id="31" stroke="none" target-height="1024" target-width="1024" target-x="1024" target-y="672.34045"></path><path d="M 509.20 699.10 L 393.90 617.00 L 508.00 670.80 L 403.50 600.70 L 508.00 657.30 L 403.50 581.50 L 504.20 637.20 L 415.10 569.90 L 502.70 600.70 L 401.90 529.60 L 509.20 578.50 L 507.60 569.90 L 389.50 512.30 L 511.50 556.80 L 509.20 551.10 L 383.60 496.30 L 507.60 542.60 L 509.20 534.00 L 369.90 478.20 L 509.20 518.50 L 509.20 512.30 L 333.70 448.00 L 497.50 494.00 L 350.80 430.90 L 495.20 474.90 L 325.20 404.80 L 501.20 458.20 L 313.10 384.30 L 488.50 438.10 L 481.70 430.90 L 447.20 416.00 L 399.90 396.20 L 373.90 385.90 L 348.70 376.40 L 325.90 368.50 L 307.20 363.00 L 301.70 361.80 L 294.30 360.80 L 302.10 361.40 L 312.20 362.70 L 322.70 364.70 L 334.70 367.20 L 360.20 373.50 L 386.80 380.80 L 412.60 388.50 L 435.90 395.70 L 472.00 407.50 L 410.90 381.30 L 358.50 360.00 L 333.90 350.60 L 312.90 343.40 L 304.00 340.80 L 297.70 339.30 L 293.80 338.80 L 295.60 339.70 L 300.70 341.50 L 337.00 352.30 L 480.40 392.40 L 302.70 330.20 L 472.00 373.90 L 306.70 327.20 L 481.70 362.50 L 480.40 357.80 L 288.60 319.50 L 462.30 339.30 L 401.80 325.80 L 347.50 314.80 L 307.50 307.60 L 284.70 304.30 L 275.50 303.30 L 280.50 303.20 L 313.50 305.40 L 450.80 317.10 L 265.30 276.70 L 329.30 286.00 L 455.50 305.00 L 450.80 297.60 L 308.30 264.30 L 265.40 255.00 L 301.50 261.40 L 445.50 285.20 L 438.40 276.80 L 271.10 246.60 L 417.90 263.00 L 401.20 258.70 L 370.80 252.20 L 349.70 248.40 L 327.00 244.80 L 299.60 241.20 L 280.80 239.10 L 237.60 235.60 L 255.70 235.40 L 299.40 236.40 L 373.20 239.70 L 217.40 223.20 L 351.30 226.80 L 210.50 217.50 L 342.80 209.50 L 207.10 211.80 L 297.70 196.80 L 207.10 206.90 L 321.80 179.30 L 315.90 176.30 L 187.70 204.70 L 295.60 167.70 L 273.30 160.40 L 272.10 162.90 L 267.90 167.20 L 263.80 170.30 L 258.70 173.30 L 251.30 177.10 L 242.70 180.80 L 231.00 185.20 L 211.40 191.40 L 191.60 196.20 L 174.70 199.00 L 165.40 199.70 L 187.20 189.90 L 199.90 184.70 L 219.10 177.80 L 234.60 173.50 L 252.40 167.70 L 259.40 165.00 L 270.10 160.40 L 271.30 159.60 L 271.60 159.10 L 271.50 158.70 L 270.70 158.10 L 268.70 157.50 L 263.70 156.60 L 251.50 155.60 L 246.70 159.70 L 237.30 165.90 L 225.40 171.70 L 212.90 176.30 L 204.60 178.60 L 186.70 182.70 L 162.50 186.90 L 147.20 189.00 L 184.00 174.40 L 205.60 166.50 L 227.20 160.60 L 249.00 155.60 L 229.10 151.20 L 223.80 155.00 L 214.10 160.40 L 207.30 163.40 L 197.30 166.90 L 191.20 168.50 L 176.50 171.50 L 162.30 173.70 L 138.60 176.30 L 160.80 167.60 L 179.80 161.10 L 199.90 155.70 L 223.80 150.60 L 209.70 148.30 L 184.10 157.10 L 171.30 160.60 L 160.50 162.10 L 150.30 163.00 L 119.10 165.30 L 149.30 155.70 L 163.90 151.80 L 175.60 150.10 L 203.80 147.10 L 159.30 147.20 L 135.00 146.40 L 115.80 144.50 L 105.90 142.90 L 97.00 141.20 L 86.20 138.40 L 109.50 136.50 L 122.90 135.70 L 136.00 135.30 L 147.20 135.60 L 153.10 136.20 L 166.70 138.40 L 186.00 142.60 L 198.60 145.90 L 172.40 137.00 L 157.50 131.60 L 136.10 122.90 L 125.60 117.70 L 122.60 115.70 L 121.10 114.20 L 120.80 113.50 L 121.10 113.00 L 123.10 112.70 L 125.40 112.90 L 133.80 114.50 L 144.40 117.40 L 164.90 124.00 L 225.70 150.20 L 213.60 145.20 L 201.40 139.80 L 188.00 133.00 L 181.40 129.30 L 158.70 114.70 L 144.30 105.80 L 157.20 107.70 L 176.60 111.60 L 189.70 115.50 L 195.20 117.70 L 200.50 120.40 L 206.40 124.00 L 218.00 132.00 L 228.70 140.20 L 242.60 152.10 L 246.90 153.60 L 254.90 154.40 L 237.50 141.40 L 227.60 133.40 L 218.00 125.00 L 210.00 117.00 L 205.20 111.10 L 201.10 105.20 L 197.60 99.30 L 194.80 94.20 L 189.80 82.80 L 208.90 95.10 L 219.00 102.00 L 228.00 108.90 L 231.60 112.10 L 234.00 114.60 L 239.50 122.20 L 245.80 131.80 L 259.30 154.40 L 260.20 155.40 L 262.00 156.40 L 266.80 158.10 L 278.40 160.40 L 214.30 71.50 L 305.00 169.70 L 317.30 174.70 L 242.10 67.50 L 341.10 186.40 L 264.00 50.70 L 363.40 198.30 L 303.50 79.70 L 288.00 48.30 L 385.00 213.40 L 389.30 218.80 L 333.70 61.90 L 406.10 228.80 L 398.70 191.40 L 393.60 168.00 L 387.80 142.70 L 381.50 117.50 L 374.90 94.70 L 371.50 84.60 L 366.00 71.30 L 362.20 64.80 L 367.00 71.30 L 371.80 78.80 L 376.50 87.10 L 380.70 95.70 L 388.60 114.60 L 393.90 129.50 L 398.80 144.90 L 407.00 175.40 L 413.30 203.80 L 422.40 252.10 L 423.30 254.40 L 424.20 255.60 L 424.70 255.00 L 424.30 250.00 L 419.10 191.90 L 416.20 165.40 L 413.00 139.00 L 409.40 114.70 L 407.40 103.70 L 405.50 94.70 L 403.30 86.60 L 401.40 81.30 L 402.90 82.50 L 404.60 84.70 L 406.50 88.40 L 408.90 94.70 L 411.60 103.40 L 414.00 112.90 L 418.70 136.00 L 423.00 161.90 L 428.60 201.80 L 433.60 246.20 L 434.80 260.30 L 434.90 267.90 L 435.30 269.30 L 437.00 271.70 L 439.70 273.80 L 439.60 235.20 L 438.70 184.70 L 437.70 158.50 L 436.30 134.50 L 434.40 114.90 L 433.20 107.00 L 431.90 102.00 L 433.90 106.00 L 435.90 111.10 L 437.90 117.60 L 440.40 127.80 L 442.60 140.00 L 446.20 166.80 L 448.70 195.70 L 450.50 224.50 L 451.50 250.90 L 452.30 292.70 L 455.50 297.60 L 459.10 242.20 L 461.60 195.30 L 462.30 173.60 L 462.60 155.60 L 462.30 143.10 L 463.10 144.00 L 464.00 146.00 L 465.10 149.80 L 466.10 155.90 L 467.00 164.50 L 468.30 184.80 L 468.90 208.50 L 469.20 233.10 L 468.70 294.30 L 477.60 260.70 L 488.00 218.60 L 494.30 188.30 L 496.60 172.80 L 496.90 167.70 L 497.50 169.70 L 497.80 172.90 L 497.40 185.50 L 496.00 203.40 L 493.70 224.90 L 490.70 247.90 L 487.10 270.60 L 483.20 291.00 L 479.10 307.10 L 477.60 311.60 L 475.00 317.10 L 477.10 313.80 L 482.00 303.20 L 488.70 287.20 L 496.40 267.80 L 504.00 246.90 L 510.80 226.50 L 513.50 216.80 L 516.70 203.00 L 517.70 194.80 L 517.60 205.30 L 517.00 211.90 L 515.40 221.90 L 513.20 233.00 L 507.20 256.30 L 500.20 279.80 L 493.00 301.40 L 480.40 335.90 L 532.20 212.00 L 485.80 360.80 L 485.80 367.20 L 503.60 334.90 L 524.80 294.30 L 534.40 274.20 L 538.60 264.80 L 541.80 257.00 L 544.30 249.60 L 545.60 244.60 L 545.60 245.70 L 544.30 251.80 L 542.40 257.80 L 532.40 285.30 L 514.50 330.00 L 491.20 386.00 L 492.90 388.00 L 557.00 267.70 L 498.90 407.50 L 501.20 412.90 L 568.40 290.20 L 504.30 438.10 L 506.00 443.10 L 577.80 324.20 L 510.00 462.90 L 511.50 467.30 L 586.60 354.40 L 513.00 487.40 L 513.00 494.00 L 592.00 379.90 L 515.00 518.50 L 515.00 526.70 L 599.30 410.50 L 515.00 549.60 L 515.00 556.80 L 613.80 428.60 L 515.00 583.20 L 515.00 587.90 L 625.90 487.40 L 525.40 604.30 L 648.70 566.00 L 513.00 635.60 L 619.80 617.00 L 511.50 670.70 Z" fill="#b2d998" fill-rule="nonzero" group-id="1,2" id="路径_20" node-id="9" stroke="none" target-height="650.8" target-width="562.5" target-x="86.2" target-y="48.3"></path><path d="M 202.00 146.90 L 235.30 153.30 L 265.20 159.90 L 284.70 164.90 L 301.20 170.10 L 313.90 175.70 L 331.50 184.90 L 352.20 197.20 L 363.40 204.50 L 374.50 212.40 L 385.70 221.10 L 393.00 227.20 L 407.00 240.30 L 413.70 247.30 L 419.90 254.50 L 425.70 261.90 L 435.40 275.40 L 443.70 287.50 L 451.30 299.60 L 457.80 310.80 L 463.80 322.20 L 468.90 333.30 L 473.60 344.70 L 477.80 356.50 L 481.50 368.60 L 485.10 381.80 L 493.70 415.50 L 496.50 427.50 L 501.40 453.80 L 503.50 468.30 L 505.30 484.90 L 506.60 502.30 L 507.50 522.60 L 507.90 544.00 L 505.30 748.10 L 513.40 753.40 L 515.90 650.30 L 516.60 571.40 L 516.50 542.70 L 515.70 512.90 L 514.00 484.20 L 512.60 470.80 L 511.00 459.20 L 506.20 434.50 L 499.60 406.60 L 495.80 392.10 L 486.90 363.00 L 482.00 349.20 L 475.10 331.60 L 467.70 316.10 L 460.30 303.30 L 442.40 277.10 L 429.40 259.60 L 422.40 250.80 L 415.00 242.30 L 407.10 233.90 L 398.50 225.60 L 391.80 219.60 L 377.00 208.00 L 368.90 202.20 L 357.20 194.80 L 345.30 187.80 L 333.20 181.40 L 320.70 175.60 L 308.00 170.30 L 295.10 165.50 L 282.00 161.40 L 268.60 157.80 L 257.00 155.30 L 228.10 150.50 L 202.00 146.90 Z" fill="#7aa355" fill-rule="nonzero" group-id="1,2" id="路径_19" node-id="10" stroke="none" target-height="606.5" target-width="314.59998" target-x="202" target-y="146.9"></path><path d="M 473.70 730.70 L 472.80 718.20 L 471.30 705.80 L 469.30 693.50 L 466.70 681.20 L 463.50 669.10 L 459.70 657.20 L 451.30 652.90 L 445.80 650.60 L 432.50 645.90 L 410.70 639.70 L 394.10 635.80 L 386.00 632.40 L 379.60 629.00 L 372.40 624.70 L 358.00 614.90 L 344.30 604.70 L 321.60 586.20 L 332.80 592.40 L 344.20 598.10 L 355.90 603.30 L 367.80 607.90 L 374.70 610.10 L 381.80 611.80 L 403.40 616.10 L 410.40 618.00 L 417.20 620.40 L 423.60 623.20 L 429.80 626.40 L 435.80 630.10 L 441.50 634.20 L 446.90 638.60 L 452.00 643.50 L 456.70 648.80 L 451.50 635.40 L 446.20 623.20 L 440.60 611.50 L 435.30 601.20 L 425.50 583.20 L 415.20 580.70 L 404.90 578.60 L 394.60 576.90 L 384.10 575.60 L 377.20 575.10 L 363.80 575.40 L 334.60 578.80 L 318.90 580.10 L 305.50 580.00 L 298.20 579.30 L 290.70 578.00 L 283.10 576.30 L 268.50 571.90 L 250.70 565.10 L 240.20 560.40 L 277.80 562.80 L 303.20 564.00 L 317.10 563.90 L 361.50 562.80 L 378.50 563.50 L 382.50 564.00 L 392.50 566.30 L 402.80 569.60 L 422.00 577.10 L 414.40 564.10 L 407.90 554.40 L 400.80 544.60 L 392.40 534.00 L 374.60 534.30 L 361.90 535.10 L 349.30 536.70 L 343.50 537.90 L 326.80 543.10 L 312.50 547.10 L 290.50 552.30 L 278.00 554.50 L 273.30 554.90 L 251.50 555.00 L 195.20 553.70 L 237.40 548.80 L 257.00 545.40 L 261.20 544.40 L 271.50 541.10 L 296.00 532.30 L 308.10 528.40 L 318.60 525.70 L 327.50 524.90 L 339.60 525.00 L 367.00 526.40 L 387.40 528.20 L 379.40 519.30 L 371.20 510.80 L 362.60 502.60 L 333.50 508.50 L 319.70 510.70 L 312.90 511.50 L 291.10 513.10 L 287.90 513.60 L 283.70 516.00 L 273.50 525.00 L 269.40 528.30 L 264.00 531.90 L 255.80 536.50 L 245.40 540.90 L 232.60 544.60 L 211.60 548.80 L 191.30 552.10 L 174.10 554.40 L 157.60 556.10 L 186.60 548.60 L 203.10 543.60 L 219.30 537.90 L 226.80 534.80 L 232.90 531.80 L 239.70 527.60 L 256.80 510.70 L 269.30 499.70 L 281.80 489.70 L 287.50 485.90 L 294.60 481.90 L 302.60 479.30 L 313.50 477.10 L 326.20 475.50 L 316.50 470.10 L 300.30 462.40 L 293.80 459.90 L 283.00 456.50 L 257.00 482.90 L 247.20 492.20 L 238.40 499.70 L 227.20 508.10 L 221.30 512.20 L 214.70 516.10 L 210.20 518.40 L 205.10 520.50 L 199.60 522.20 L 194.00 523.60 L 187.60 524.50 L 180.50 524.90 L 141.10 525.90 L 125.70 526.10 L 114.80 525.70 L 118.30 523.10 L 121.70 521.40 L 127.20 519.10 L 142.10 514.10 L 159.40 509.40 L 168.20 507.30 L 189.20 503.50 L 198.70 500.20 L 206.00 496.90 L 213.50 492.80 L 220.80 488.30 L 227.70 483.70 L 239.80 474.60 L 248.20 467.30 L 250.90 464.50 L 251.50 463.50 L 251.40 463.00 L 248.70 462.00 L 240.80 461.70 L 229.90 462.60 L 223.90 463.70 L 213.90 466.60 L 206.80 469.90 L 202.90 472.50 L 188.30 485.10 L 180.20 490.70 L 171.40 495.00 L 166.50 496.90 L 153.90 500.70 L 138.70 503.60 L 129.10 504.80 L 100.00 507.80 L 81.30 509.30 L 70.60 509.70 L 64.70 509.50 L 72.30 507.80 L 84.80 504.00 L 92.70 500.80 L 103.70 495.50 L 115.70 488.40 L 121.80 484.10 L 134.20 474.40 L 140.50 470.00 L 146.80 466.00 L 159.80 459.20 L 166.00 456.40 L 175.50 452.80 L 184.30 450.00 L 192.80 447.70 L 200.20 446.20 L 212.30 444.60 L 224.60 444.00 L 240.30 443.90 L 248.80 444.30 L 257.20 445.10 L 262.90 445.90 L 273.00 448.40 L 277.70 450.10 L 281.70 452.10 L 285.10 454.40 L 284.20 455.30 L 296.10 458.30 L 303.40 460.90 L 312.40 464.70 L 322.00 469.30 L 333.50 475.60 L 343.90 482.10 L 353.30 488.50 L 361.60 494.80 L 369.60 501.60 L 376.90 508.40 L 383.40 515.00 L 395.50 528.90 L 416.10 556.00 L 413.30 545.70 L 410.00 535.40 L 385.90 512.60 L 395.40 516.90 L 404.60 521.70 L 400.50 513.10 L 395.70 504.40 L 392.20 498.80 L 388.30 493.40 L 384.10 488.30 L 380.40 484.50 L 376.20 480.70 L 366.40 473.80 L 355.60 467.50 L 347.10 463.30 L 338.60 459.60 L 322.10 453.30 L 308.00 448.80 L 294.60 445.10 L 305.70 446.70 L 323.30 449.90 L 336.50 453.10 L 342.70 455.00 L 348.60 457.10 L 353.60 459.30 L 382.80 474.00 L 390.80 478.50 L 403.50 486.70 L 411.90 493.50 L 415.50 497.30 L 418.20 501.00 L 420.30 504.60 L 421.70 508.40 L 423.90 517.90 L 424.60 523.40 L 425.50 534.70 L 436.60 543.20 L 442.10 548.00 L 447.30 553.10 L 452.20 558.40 L 460.00 568.60 L 462.90 573.20 L 467.60 582.90 L 469.80 589.30 L 471.60 595.90 L 473.00 602.60 L 473.90 609.30 L 474.70 622.40 L 474.60 631.90 L 473.90 640.40 L 472.90 648.50 L 471.70 655.00 L 470.20 660.80 L 469.00 664.30 L 473.70 677.80 L 476.30 687.10 L 478.50 696.60 L 481.40 692.30 L 484.70 686.60 L 487.60 680.30 L 493.20 665.70 L 495.50 657.80 L 497.50 649.80 L 498.90 642.00 L 499.90 634.20 L 500.20 627.20 L 499.90 623.00 L 499.20 618.90 L 497.90 614.90 L 496.30 611.10 L 492.10 603.80 L 488.40 598.70 L 480.60 590.10 L 477.10 586.70 L 469.00 580.10 L 473.90 581.60 L 481.50 584.90 L 486.10 587.40 L 490.60 590.40 L 495.30 594.20 L 501.10 600.30 L 503.70 604.00 L 506.10 607.90 L 508.10 612.30 L 509.80 617.20 L 511.00 622.20 L 511.80 627.90 L 512.00 634.20 L 511.50 642.00 L 510.60 649.40 L 509.10 656.50 L 505.10 670.10 L 502.70 676.20 L 498.60 685.00 L 494.50 692.50 L 490.30 699.40 L 486.70 704.70 L 481.20 711.80 L 483.20 727.10 L 484.60 742.10 L 483.30 750.80 L 481.10 761.60 L 479.50 765.80 L 478.40 766.80 L 478.00 766.60 L 477.40 765.70 L 476.70 763.50 L 475.00 752.30 L 473.70 730.70 Z M 466.60 658.20 L 466.30 644.90 L 465.50 637.80 L 463.70 627.20 L 461.30 616.70 L 458.50 606.50 L 452.20 588.20 L 449.20 581.10 L 447.30 577.50 L 444.20 572.80 L 436.00 562.70 L 425.80 551.50 L 425.10 569.70 L 436.30 590.20 L 447.50 613.30 L 457.90 636.70 L 466.60 658.20 Z M 355.10 496.00 L 347.20 489.60 L 338.90 483.50 L 328.40 476.80 L 324.60 481.60 L 319.00 487.60 L 315.80 490.50 L 311.50 493.80 L 311.30 494.50 L 314.30 494.70 L 333.20 493.70 L 340.60 493.90 L 347.90 494.70 L 355.10 496.00 Z" fill="#10726f" fill-rule="nonzero" group-id="1,3" id="联合_1" node-id="11" stroke="none" target-height="322.9" target-width="447.3" target-x="64.7" target-y="443.9"></path><path d="M 714.40 665.80 L 710.20 659.30 L 705.40 649.10 L 701.10 637.40 L 699.50 631.60 L 698.40 626.40 L 697.50 616.40 L 697.20 604.60 L 697.30 581.40 L 708.80 607.80 L 712.50 617.20 L 715.00 625.30 L 716.60 634.10 L 717.70 644.40 L 718.00 654.40 L 717.60 662.40 L 731.10 647.10 L 745.80 629.60 L 741.60 622.90 L 736.80 612.70 L 732.60 601.20 L 731.00 595.50 L 730.00 590.40 L 729.10 580.40 L 728.70 568.60 L 728.80 545.40 L 740.40 571.80 L 744.00 581.20 L 746.60 589.30 L 748.20 597.60 L 749.20 607.40 L 749.60 617.10 L 749.30 625.20 L 776.40 590.40 L 774.70 588.70 L 772.70 585.90 L 766.40 574.30 L 762.20 564.60 L 759.10 555.00 L 758.10 550.70 L 756.90 540.80 L 756.10 529.00 L 755.40 505.70 L 767.90 531.70 L 771.80 541.10 L 774.60 549.00 L 776.70 558.70 L 778.10 569.90 L 778.70 580.50 L 778.20 588.10 L 788.10 574.80 L 800.30 556.70 L 798.60 554.70 L 796.20 550.90 L 791.20 541.50 L 786.70 530.40 L 784.90 524.90 L 783.80 520.00 L 782.60 510.60 L 781.80 499.50 L 781.20 477.70 L 791.30 498.50 L 795.90 509.20 L 799.30 518.40 L 801.10 526.40 L 802.30 535.80 L 803.00 545.00 L 802.90 552.60 L 826.10 515.50 L 823.00 511.40 L 817.70 500.70 L 814.20 491.80 L 811.70 483.00 L 810.90 479.20 L 810.10 470.10 L 809.80 459.40 L 809.90 438.40 L 818.90 458.80 L 823.00 469.20 L 825.90 478.20 L 827.40 486.20 L 828.30 495.70 L 828.60 504.90 L 828.20 512.10 L 853.50 469.70 L 851.60 467.80 L 849.20 464.50 L 844.40 455.90 L 839.90 445.70 L 838.10 440.50 L 837.00 436.00 L 835.90 427.50 L 835.20 417.50 L 834.60 397.70 L 844.30 416.50 L 848.80 426.20 L 852.00 434.50 L 853.70 442.10 L 855.00 451.10 L 855.50 459.70 L 855.30 466.50 L 874.40 431.00 L 872.40 429.10 L 868.00 422.10 L 863.40 412.50 L 859.90 402.40 L 858.90 398.00 L 858.10 389.80 L 857.80 380.10 L 857.90 361.10 L 866.90 379.50 L 871.00 389.00 L 873.90 397.10 L 875.40 404.30 L 876.30 412.90 L 876.60 421.10 L 876.20 427.70 L 890.90 399.90 L 890.10 399.90 L 889.00 394.30 L 888.40 388.60 L 888.20 382.90 L 888.40 377.20 L 889.00 371.50 L 890.10 365.90 L 894.10 352.70 L 898.60 340.90 L 903.80 329.10 L 904.20 354.40 L 903.80 368.50 L 902.50 374.70 L 900.10 381.80 L 894.30 395.50 L 906.90 388.30 L 913.30 385.10 L 918.50 383.00 L 932.30 379.80 L 959.30 374.40 L 945.00 384.70 L 936.80 390.10 L 928.90 394.70 L 922.30 397.70 L 918.60 398.70 L 909.60 399.80 L 896.90 400.10 L 891.40 400.00 L 877.10 430.30 L 883.10 429.00 L 891.90 428.20 L 901.50 428.30 L 906.20 428.80 L 910.20 429.50 L 917.60 431.70 L 926.20 434.80 L 942.80 441.60 L 923.60 442.70 L 914.00 442.90 L 905.90 442.50 L 897.70 440.80 L 888.60 438.00 L 880.80 434.90 L 877.70 433.20 L 876.30 432.00 L 863.70 458.50 L 857.10 470.80 L 864.60 469.50 L 874.60 468.80 L 885.30 469.00 L 894.80 470.30 L 903.60 472.90 L 913.70 476.60 L 933.30 484.70 L 910.70 486.00 L 899.20 486.10 L 889.70 485.70 L 880.60 483.90 L 870.30 480.80 L 861.20 477.20 L 855.30 473.90 L 831.50 514.50 L 838.80 513.50 L 849.10 513.50 L 860.20 514.40 L 865.60 515.30 L 870.10 516.40 L 878.70 519.60 L 888.60 524.00 L 907.60 533.40 L 884.90 533.20 L 873.40 532.50 L 863.90 531.40 L 852.60 528.10 L 840.40 523.10 L 833.90 519.70 L 830.10 516.80 L 806.70 555.10 L 814.30 554.30 L 824.30 554.40 L 834.80 555.30 L 844.10 557.30 L 852.70 560.50 L 862.60 564.90 L 881.60 574.30 L 858.90 574.00 L 847.40 573.40 L 837.90 572.20 L 829.10 569.80 L 819.20 566.10 L 810.40 562.00 L 804.60 558.30 L 796.20 571.00 L 782.40 590.30 L 790.00 589.50 L 800.40 589.60 L 811.60 590.70 L 817.00 591.60 L 821.60 592.80 L 830.40 596.10 L 840.60 600.70 L 860.20 610.40 L 836.90 609.80 L 825.20 609.00 L 815.50 607.80 L 803.80 604.40 L 791.30 599.20 L 784.60 595.70 L 780.60 592.70 L 752.20 630.70 L 760.20 629.60 L 771.90 629.50 L 784.80 630.40 L 791.00 631.30 L 796.40 632.50 L 806.40 635.80 L 818.10 640.30 L 840.60 650.00 L 810.50 649.60 L 799.90 649.00 L 791.00 648.00 L 782.20 646.00 L 767.20 641.00 L 754.90 635.50 L 752.00 633.80 L 750.70 632.60 L 734.80 652.30 L 722.90 665.50 L 731.60 664.40 L 742.90 664.10 L 754.80 664.80 L 765.40 666.60 L 775.50 669.80 L 787.20 674.30 L 809.70 684.00 L 779.20 684.50 L 768.50 684.20 L 759.60 683.40 L 751.20 681.60 L 736.90 677.10 L 724.70 671.80 L 719.80 668.80 L 688.80 702.60 L 642.30 740.70 L 714.40 665.80 Z" fill="#2f7753" fill-rule="nonzero" group-id="1,4" id="联合_2" node-id="12" stroke="none" target-height="411.6" target-width="317" target-x="642.3" target-y="329.1"></path><path d="M 702.40 204.30 L 699.20 201.40 L 696.30 199.70 L 691.50 198.00 L 688.20 197.40 L 684.80 197.20 L 680.80 197.40 L 676.00 198.20 L 671.40 199.40 L 665.90 201.40 L 659.50 204.30 L 655.30 206.90 L 651.50 209.80 L 648.20 213.20 L 645.30 217.00 L 642.70 221.00 L 640.50 225.30 L 637.00 234.30 L 634.20 246.00 L 632.70 259.40 L 632.50 265.20 L 632.70 274.80 L 633.20 280.00 L 636.20 293.20 L 638.70 302.20 L 641.60 311.00 L 644.70 318.00 L 632.60 314.30 L 627.40 313.80 L 625.60 314.20 L 624.90 314.80 L 623.60 317.90 L 622.60 325.20 L 622.50 334.00 L 623.20 342.40 L 623.90 346.10 L 625.00 349.90 L 625.00 351.00 L 623.70 353.30 L 616.50 358.90 L 614.80 361.00 L 613.30 364.40 L 612.90 366.70 L 612.60 375.80 L 613.00 399.90 L 612.80 414.40 L 612.50 416.50 L 605.70 439.30 L 602.30 454.70 L 601.00 463.20 L 600.20 471.90 L 599.50 485.70 L 598.60 490.50 L 597.20 495.30 L 593.00 504.30 L 590.30 508.60 L 586.00 514.70 L 581.30 520.30 L 576.50 525.50 L 572.00 529.90 L 560.10 540.50 L 556.20 545.10 L 550.20 553.50 L 543.70 564.70 L 540.80 571.00 L 538.40 577.60 L 537.20 582.20 L 536.40 586.80 L 536.00 591.40 L 535.60 608.70 L 534.30 625.60 L 532.50 636.40 L 529.70 646.30 L 527.70 650.90 L 525.40 655.20 L 523.30 658.40 L 519.00 663.10 L 515.60 665.80 L 512.10 667.90 L 497.10 674.20 L 493.40 676.20 L 489.50 679.00 L 484.50 684.20 L 479.40 692.00 L 474.60 701.50 L 472.40 706.70 L 468.80 717.80 L 467.40 723.50 L 465.70 735.00 L 465.40 740.80 L 465.60 746.30 L 466.20 751.50 L 467.10 755.10 L 468.70 758.80 L 470.90 762.70 L 476.40 770.10 L 485.40 779.30 L 491.40 784.40 L 503.50 793.60 L 514.50 801.00 L 525.40 807.60 L 645.10 764.80 L 690.50 671.80 L 740.00 493.20 L 740.00 413.50 L 729.70 321.20 Z" fill="#519886" fill-rule="nonzero" group-id="1,5" id="路径_30" node-id="14" stroke="none" target-height="610.39996" target-width="274.6" target-x="465.4" target-y="197.2"></path><path d="M 709.90 204.80 L 703.90 205.00 L 698.00 205.90 L 692.00 208.00 L 689.30 209.70 L 686.90 211.80 L 681.00 218.60 L 674.70 226.60 L 671.70 230.90 L 669.30 235.30 L 666.90 241.20 L 666.30 244.10 L 665.70 251.90 L 665.60 262.50 L 666.10 274.70 L 667.10 286.80 L 668.50 297.40 L 669.50 301.90 L 671.60 308.90 L 672.90 314.30 L 673.80 320.30 L 674.50 327.30 L 674.60 337.30 L 673.40 348.00 L 672.20 353.40 L 670.60 358.80 L 668.60 364.10 L 666.00 369.20 L 662.80 374.20 L 665.70 377.90 L 668.10 380.10 L 672.00 383.10 L 682.30 389.40 L 699.30 397.80 L 719.50 406.40 L 707.00 405.30 L 701.10 404.40 L 686.30 401.40 L 678.10 399.10 L 669.80 396.40 L 661.40 392.90 L 661.50 401.40 L 662.80 413.10 L 665.20 426.30 L 667.00 433.00 L 670.90 443.80 L 672.80 447.70 L 678.20 457.30 L 680.90 463.00 L 683.00 468.50 L 684.80 474.10 L 686.00 479.10 L 687.10 488.40 L 687.00 492.30 L 686.70 495.50 L 686.10 497.40 L 684.80 499.80 L 682.60 502.80 L 678.70 507.20 L 667.50 517.90 L 653.60 529.30 L 625.90 550.00 L 620.40 554.60 L 610.40 564.40 L 601.90 574.30 L 596.40 581.70 L 592.10 588.10 L 588.70 594.30 L 586.70 598.60 L 586.50 599.80 L 587.20 602.80 L 588.30 604.80 L 591.00 608.60 L 595.20 613.20 L 600.00 617.70 L 605.50 622.60 L 617.00 632.00 L 638.90 648.00 L 584.40 621.90 L 584.30 632.40 L 584.00 637.40 L 582.10 649.70 L 580.40 656.50 L 577.30 665.70 L 575.20 670.30 L 572.80 674.80 L 570.00 679.10 L 566.80 683.40 L 588.60 694.90 L 639.10 719.80 L 588.10 701.90 L 566.70 695.20 L 562.40 694.50 L 554.50 697.90 L 550.00 700.20 L 540.40 706.20 L 535.60 710.10 L 531.00 714.60 L 528.30 717.90 L 525.80 721.40 L 523.70 725.30 L 522.70 728.20 L 521.80 732.00 L 521.30 736.70 L 521.10 744.00 L 521.50 752.60 L 522.30 761.40 L 524.90 779.80 L 529.60 804.10 L 533.10 819.30 L 645.30 793.80 L 705.80 649.70 L 715.40 620.80 L 727.30 582.80 L 733.00 563.00 L 737.80 544.60 L 741.10 529.40 L 743.10 513.30 L 744.50 492.50 L 745.30 468.50 L 745.70 443.30 L 745.70 418.60 L 745.20 396.10 L 744.30 377.60 L 743.10 364.80 L 732.90 303.10 L 729.20 290.60 L 716.80 256.00 L 714.20 245.90 L 711.80 225.80 L 709.90 204.80 Z" fill="#b7d99d" fill-rule="nonzero" group-id="1,5" id="路径_31" node-id="15" stroke="none" target-height="614.5" target-width="224.60004" target-x="521.1" target-y="204.8"></path><path d="M 493.30 810.20 L 520.00 789.00 L 547.70 768.90 L 569.20 754.70 L 591.50 741.50 L 602.60 735.70 L 617.40 729.10 L 663.40 711.60 L 678.60 706.20 L 700.30 699.40 L 724.60 693.20 L 737.80 690.50 L 752.10 688.00 L 766.50 686.00 L 782.10 684.40 L 799.00 683.30 L 824.90 682.70 L 854.30 683.50 L 884.70 685.90 L 919.10 690.10 L 918.30 692.30 L 912.80 700.90 L 893.90 726.80 L 876.60 748.90 L 856.80 773.10 L 835.40 797.70 L 824.40 809.80 L 802.80 832.00 L 792.50 841.60 L 785.60 847.60 L 773.20 857.40 L 752.20 871.60 L 740.80 878.50 L 716.70 892.00 L 704.20 898.30 L 677.80 910.20 L 664.30 915.70 L 650.50 920.80 L 636.40 925.60 L 621.90 930.10 L 607.40 934.10 L 592.70 937.70 L 577.80 940.80 L 562.70 943.40 L 549.30 945.30 L 537.40 946.50 L 526.90 947.10 L 516.30 947.30 L 507.10 947.10 L 499.20 946.60 L 484.40 944.60 L 478.70 943.40 L 470.60 941.10 L 464.70 938.90 L 459.60 936.60 L 452.70 932.50 L 452.00 931.70 L 448.00 922.60 L 444.70 913.70 L 435.70 886.60 L 452.70 827.70 Z" fill="#5aa07b" fill-rule="nonzero" group-id="1,6" id="路径_58" node-id="17" stroke="none" target-height="264.59998" target-width="483.39996" target-x="435.7" target-y="682.7"></path><path d="M 496.50 878.00 L 482.50 887.30 L 460.90 903.20 L 453.00 909.60 L 438.00 922.70 L 427.90 930.60 L 423.20 933.10 L 421.70 933.00 L 421.30 931.80 L 422.20 928.60 L 423.40 926.30 L 428.60 917.70 L 430.90 914.70 L 435.80 910.20 L 445.80 902.10 L 462.40 890.10 L 490.30 871.70 L 490.50 854.90 L 491.50 840.60 L 493.40 824.50 L 494.80 816.30 L 496.70 808.40 L 495.70 819.70 L 495.40 833.20 L 495.60 846.90 L 496.50 867.80 L 518.00 855.00 L 540.30 842.50 L 540.30 834.60 L 541.20 821.70 L 543.50 805.40 L 545.40 796.50 L 548.00 787.00 L 552.50 774.30 L 555.40 767.90 L 551.20 785.90 L 548.10 805.30 L 546.70 823.60 L 547.00 838.90 L 597.70 812.10 L 597.50 802.20 L 597.90 795.20 L 599.90 779.40 L 603.30 763.50 L 605.60 755.20 L 612.20 735.60 L 609.10 748.60 L 605.20 770.00 L 603.40 784.50 L 602.50 795.10 L 602.10 809.80 L 636.40 791.10 L 647.70 785.50 L 648.00 773.50 L 649.40 757.80 L 652.30 737.80 L 654.70 726.30 L 653.10 740.60 L 652.00 754.90 L 651.60 769.20 L 651.80 783.60 L 670.70 775.20 L 710.50 759.20 L 713.50 744.80 L 718.50 727.90 L 725.00 711.00 L 732.20 696.30 L 729.60 702.90 L 727.30 710.00 L 723.60 724.30 L 721.00 737.70 L 718.50 756.10 L 763.10 739.40 L 766.40 729.30 L 769.40 722.50 L 774.80 712.70 L 782.80 701.10 L 787.80 695.00 L 793.80 688.50 L 786.80 699.20 L 781.80 707.80 L 777.70 715.90 L 772.80 727.60 L 771.70 731.40 L 770.70 736.40 L 793.80 728.50 L 827.10 717.90 L 828.70 713.00 L 833.00 706.30 L 839.90 698.60 L 851.30 688.30 L 845.30 695.40 L 837.40 706.10 L 833.20 713.40 L 832.20 716.40 L 886.40 699.70 L 838.80 715.80 L 842.50 719.80 L 845.90 722.70 L 851.30 726.40 L 860.30 731.10 L 866.40 733.70 L 860.80 733.00 L 857.90 732.20 L 849.60 728.70 L 842.30 724.40 L 833.50 717.60 L 788.70 733.50 L 796.90 740.10 L 803.90 745.00 L 814.10 751.50 L 830.40 760.50 L 840.80 765.60 L 833.80 764.10 L 829.90 762.80 L 818.00 757.80 L 806.20 751.50 L 795.60 745.00 L 782.20 735.90 L 760.00 744.20 L 729.00 756.70 L 740.90 765.80 L 750.80 772.50 L 765.20 781.50 L 787.90 794.30 L 802.60 801.80 L 791.30 798.30 L 785.50 796.10 L 777.00 792.40 L 768.60 788.20 L 760.30 783.80 L 745.40 775.00 L 728.60 763.80 L 722.50 759.40 L 684.00 775.60 L 666.20 783.70 L 675.10 791.10 L 690.60 802.80 L 700.20 809.50 L 719.20 821.80 L 736.50 831.50 L 745.50 836.10 L 764.70 844.50 L 752.70 840.40 L 741.50 836.10 L 731.30 831.80 L 721.20 827.10 L 703.90 818.00 L 692.10 811.00 L 682.60 804.80 L 667.70 793.80 L 659.50 786.90 L 637.20 798.10 L 599.30 818.70 L 609.10 825.80 L 616.80 830.80 L 627.70 837.40 L 640.10 844.10 L 656.00 852.00 L 667.20 857.10 L 694.60 868.40 L 683.90 865.50 L 673.90 862.30 L 664.30 858.90 L 646.20 851.40 L 626.60 841.70 L 617.10 836.40 L 602.10 827.00 L 594.20 821.40 L 556.80 842.10 L 644.60 904.40 L 627.40 894.50 L 608.50 883.10 L 572.50 860.50 L 550.00 845.90 L 527.00 859.20 L 504.30 873.00 L 510.40 880.40 L 515.80 886.30 L 524.30 894.60 L 538.10 906.70 L 556.70 921.00 L 567.80 928.70 L 580.60 937.00 L 567.40 931.20 L 560.90 927.80 L 551.50 922.30 L 542.50 916.40 L 534.00 910.40 L 518.80 898.40 L 502.40 883.80 L 496.50 878.00 Z" fill="#0e7768" fill-rule="nonzero" group-id="1,6,8" id="联合_4" node-id="18" stroke="none" target-height="248.70001" target-width="465.10004" target-x="421.3" target-y="688.3"></path><path d="M 94.60 656.90 L 95.00 655.70 L 96.10 654.10 L 98.10 652.20 L 101.60 649.60 L 106.70 646.70 L 118.50 641.40 L 131.70 637.00 L 138.30 635.50 L 148.30 634.20 L 154.50 634.70 L 157.10 635.60 L 160.10 637.10 L 163.30 639.40 L 167.90 643.50 L 177.50 654.30 L 197.30 679.90 L 200.70 683.20 L 201.60 683.60 L 202.40 683.40 L 203.10 682.60 L 203.80 680.70 L 204.20 677.40 L 204.10 672.30 L 203.40 666.90 L 202.00 660.30 L 199.10 651.30 L 194.60 641.90 L 191.80 637.30 L 188.50 632.70 L 184.80 628.40 L 180.60 624.40 L 175.90 620.70 L 180.50 617.50 L 188.60 613.90 L 194.30 612.10 L 206.20 609.40 L 218.00 607.90 L 223.40 607.60 L 228.00 607.70 L 232.10 608.20 L 234.80 608.90 L 237.10 610.20 L 239.60 612.20 L 245.00 618.50 L 250.30 627.00 L 254.90 636.80 L 258.70 647.80 L 260.00 653.40 L 264.80 683.80 L 267.70 697.30 L 270.40 705.10 L 271.40 707.00 L 272.40 708.00 L 272.90 708.20 L 273.50 707.70 L 274.20 706.30 L 275.90 699.10 L 277.30 688.30 L 278.20 675.40 L 278.40 655.80 L 277.50 645.00 L 276.70 641.20 L 275.30 637.10 L 273.00 632.30 L 266.90 622.50 L 259.80 612.90 L 246.20 596.70 L 271.20 598.10 L 299.40 600.20 L 310.90 601.50 L 318.20 602.80 L 325.70 605.60 L 329.90 607.80 L 334.40 610.60 L 339.90 615.20 L 344.70 621.00 L 346.70 624.40 L 348.30 628.10 L 349.40 632.00 L 350.00 636.40 L 350.10 641.20 L 349.60 648.70 L 342.40 703.80 L 341.90 714.50 L 342.90 726.70 L 344.40 732.60 L 345.40 734.50 L 346.70 736.10 L 348.20 737.20 L 350.10 737.70 L 351.30 737.60 L 352.80 736.90 L 354.90 735.20 L 357.70 732.10 L 361.10 727.50 L 364.20 722.30 L 367.20 716.00 L 370.70 706.90 L 373.10 696.90 L 373.80 691.80 L 374.10 686.60 L 374.00 679.90 L 372.30 664.00 L 367.70 639.20 L 361.00 611.10 L 411.50 642.00 L 435.90 657.60 L 443.10 662.60 L 453.80 670.50 L 456.60 673.10 L 459.10 675.90 L 461.10 679.20 L 462.10 681.50 L 463.30 687.60 L 463.50 690.80 L 462.70 699.40 L 461.50 706.60 L 457.40 722.40 L 454.80 730.60 L 451.70 738.60 L 448.30 746.30 L 444.60 753.60 L 440.60 760.20 L 437.70 764.30 L 434.70 767.90 L 424.60 777.80 L 415.90 787.20 L 413.80 790.10 L 412.40 792.70 L 412.10 794.10 L 412.30 794.50 L 414.10 795.30 L 416.30 795.50 L 419.70 795.20 L 423.40 794.20 L 428.20 792.40 L 431.30 790.70 L 438.70 785.70 L 442.30 782.60 L 450.50 774.00 L 455.60 767.70 L 460.00 761.70 L 467.20 750.30 L 470.30 744.40 L 472.80 738.70 L 474.80 733.10 L 476.40 727.70 L 477.60 722.10 L 478.30 716.50 L 478.60 710.90 L 478.50 705.40 L 479.80 705.90 L 481.40 707.10 L 483.50 709.40 L 486.30 713.30 L 489.50 719.00 L 492.50 725.30 L 495.50 732.70 L 498.10 740.40 L 500.20 748.80 L 502.10 760.10 L 502.70 775.00 L 502.60 783.50 L 502.00 791.30 L 500.20 802.70 L 497.10 813.00 L 495.10 817.90 L 492.60 822.70 L 489.70 827.30 L 486.40 831.80 L 482.70 836.10 L 475.80 842.50 L 470.60 846.40 L 459.10 853.00 L 456.50 855.00 L 456.20 855.60 L 457.40 869.10 L 457.70 881.70 L 457.40 888.80 L 455.70 901.40 L 452.90 911.70 L 451.10 916.70 L 448.80 921.50 L 446.00 926.20 L 442.90 930.60 L 439.10 934.80 L 434.80 938.60 L 425.20 946.10 L 415.50 953.10 L 408.80 957.50 L 401.80 961.50 L 394.40 965.20 L 382.90 969.80 L 376.60 971.70 L 370.00 973.30 L 363.40 974.40 L 356.30 975.30 L 348.60 975.70 L 340.40 975.70 L 332.40 975.30 L 323.60 974.40 L 314.10 973.00 L 303.80 970.90 L 311.00 966.10 L 324.10 956.00 L 329.90 950.70 L 337.30 943.30 L 344.00 935.90 L 349.80 928.60 L 355.20 920.80 L 359.80 913.50 L 363.60 906.40 L 366.90 899.10 L 369.50 892.50 L 371.30 886.40 L 372.30 881.70 L 372.90 877.50 L 372.90 870.60 L 372.30 867.20 L 371.30 864.60 L 370.00 862.50 L 368.40 860.90 L 367.20 860.20 L 365.80 860.00 L 364.30 860.20 L 362.40 861.00 L 360.20 862.50 L 354.60 868.10 L 345.20 880.30 L 318.00 921.20 L 306.60 936.90 L 301.10 943.60 L 293.80 951.10 L 290.40 953.80 L 285.20 957.00 L 280.70 958.30 L 276.70 958.40 L 272.30 957.90 L 267.30 956.90 L 257.20 953.70 L 251.60 951.40 L 243.40 947.50 L 234.90 942.80 L 226.60 937.60 L 218.60 932.10 L 210.90 926.20 L 204.00 920.30 L 197.50 914.30 L 192.30 908.60 L 189.20 904.70 L 185.00 898.00 L 188.50 898.60 L 192.80 898.80 L 197.90 898.50 L 208.70 896.80 L 215.10 895.20 L 224.50 892.50 L 234.70 889.00 L 244.80 885.00 L 265.00 875.90 L 274.30 871.10 L 283.20 866.10 L 290.80 861.30 L 295.70 857.90 L 302.90 852.10 L 305.80 849.00 L 307.60 846.40 L 308.60 844.30 L 309.50 839.00 L 308.90 835.60 L 308.10 834.40 L 307.00 833.50 L 305.10 832.70 L 302.70 832.30 L 297.60 832.60 L 289.80 834.80 L 247.00 861.90 L 230.80 871.10 L 215.20 878.80 L 210.20 880.80 L 201.60 883.60 L 197.30 884.40 L 193.20 884.70 L 189.30 884.50 L 185.50 883.90 L 180.60 882.50 L 176.00 880.60 L 171.50 878.10 L 167.40 875.20 L 163.50 872.00 L 160.00 868.50 L 155.10 863.00 L 151.10 857.50 L 147.70 852.00 L 136.90 830.50 L 132.00 819.30 L 130.30 813.80 L 129.50 810.00 L 129.10 802.80 L 131.30 804.00 L 138.50 805.60 L 151.00 807.20 L 158.50 807.70 L 174.00 808.10 L 181.80 808.00 L 189.00 807.50 L 196.00 806.60 L 201.60 805.40 L 217.20 800.90 L 224.40 798.40 L 230.30 795.90 L 233.90 793.80 L 236.60 791.90 L 238.50 789.90 L 239.60 788.20 L 240.10 786.50 L 240.10 784.70 L 239.60 782.70 L 238.90 781.60 L 237.80 780.70 L 236.10 780.00 L 233.80 779.50 L 226.80 779.20 L 222.00 779.60 L 206.10 781.70 L 169.40 787.70 L 160.40 788.80 L 152.30 789.30 L 141.00 789.00 L 133.10 787.80 L 127.80 786.00 L 124.00 783.40 L 121.20 779.80 L 114.50 766.70 L 110.60 756.50 L 108.80 750.50 L 105.60 736.70 L 104.60 729.40 L 104.20 724.40 L 104.20 714.60 L 108.90 718.90 L 112.10 721.10 L 117.30 723.90 L 123.30 726.60 L 129.70 728.90 L 143.20 732.40 L 149.80 733.50 L 156.20 734.20 L 161.90 734.40 L 168.60 733.90 L 171.10 733.30 L 173.40 732.40 L 174.90 731.20 L 175.90 729.90 L 176.20 727.40 L 175.10 725.70 L 173.80 724.80 L 169.40 723.40 L 165.30 722.70 L 144.40 720.60 L 136.30 718.90 L 131.30 716.80 L 128.10 714.70 L 120.40 708.50 L 112.90 700.50 L 109.00 695.50 L 105.60 690.30 L 102.50 684.60 L 99.60 678.30 L 97.90 673.40 L 95.40 662.80 L 94.60 656.90 Z" fill="#89c065" fill-rule="nonzero" group-id="1,7" id="路径_48" node-id="20" stroke="none" target-height="379" target-width="408.1" target-x="94.6" target-y="596.7"></path><path d="M 557.60 959.20 L 554.60 954.40 L 549.90 947.80 L 544.60 941.00 L 537.90 933.20 L 522.60 916.70 L 505.60 899.90 L 492.60 888.30 L 469.10 868.30 L 457.30 856.90 L 451.20 852.00 L 435.50 841.20 L 415.60 828.80 L 393.00 815.50 L 396.30 831.50 L 398.70 849.70 L 399.80 861.70 L 400.20 869.60 L 400.10 877.20 L 398.60 891.60 L 396.10 904.20 L 393.70 913.00 L 391.40 919.90 L 388.90 926.20 L 385.40 934.00 L 388.10 924.60 L 391.40 908.70 L 393.40 891.10 L 393.70 874.90 L 393.40 866.40 L 392.50 857.70 L 391.10 848.50 L 386.90 828.40 L 383.60 815.70 L 381.10 808.80 L 343.40 788.00 L 343.80 795.90 L 343.70 800.90 L 343.10 807.00 L 342.00 813.30 L 340.30 820.70 L 337.80 828.80 L 335.20 836.00 L 332.20 842.80 L 328.80 849.40 L 320.80 862.80 L 310.90 877.90 L 302.40 889.20 L 297.50 894.70 L 287.30 905.30 L 273.60 918.10 L 265.00 925.40 L 273.70 916.90 L 282.00 908.10 L 290.00 899.00 L 297.60 889.50 L 304.90 879.70 L 313.20 867.60 L 320.00 856.50 L 326.00 844.40 L 328.80 837.60 L 333.70 822.90 L 335.30 816.40 L 337.50 804.00 L 338.50 793.30 L 338.90 785.50 L 328.10 779.70 L 322.50 785.20 L 318.30 788.80 L 307.00 797.40 L 300.30 801.90 L 293.30 806.20 L 285.90 810.20 L 275.90 814.60 L 264.00 818.30 L 239.50 824.40 L 223.10 827.90 L 195.20 833.40 L 222.80 826.10 L 247.70 818.50 L 264.30 812.60 L 278.50 806.40 L 283.80 803.40 L 290.20 799.30 L 302.20 790.30 L 313.30 780.10 L 318.50 774.60 L 294.20 761.90 L 257.90 741.10 L 239.20 747.90 L 224.10 752.20 L 215.70 754.10 L 206.90 755.70 L 197.90 756.80 L 189.00 757.30 L 176.70 757.30 L 166.20 756.90 L 148.60 755.40 L 133.20 753.10 L 147.00 753.90 L 169.70 754.20 L 187.50 753.40 L 196.30 752.60 L 206.20 751.20 L 215.20 749.40 L 223.80 747.30 L 238.00 742.80 L 243.30 740.60 L 250.60 736.80 L 104.70 651.30 L 204.80 704.60 L 233.90 720.50 L 234.40 717.90 L 234.70 713.00 L 234.40 700.90 L 231.80 671.10 L 228.60 644.40 L 232.60 660.60 L 234.20 668.50 L 237.30 688.40 L 238.50 699.70 L 239.10 711.30 L 239.20 723.40 L 294.20 753.40 L 296.70 748.00 L 301.90 734.60 L 304.90 723.90 L 305.70 718.70 L 307.40 700.40 L 307.70 690.00 L 307.50 678.70 L 306.90 671.10 L 306.00 663.50 L 304.50 655.70 L 302.70 648.80 L 300.30 641.60 L 297.60 634.60 L 291.60 621.70 L 282.50 605.30 L 290.40 615.40 L 293.70 620.30 L 297.30 626.10 L 300.60 632.30 L 303.50 638.80 L 306.00 645.70 L 308.10 653.30 L 309.90 661.20 L 312.50 677.80 L 313.30 686.30 L 313.90 702.60 L 313.60 708.40 L 312.90 714.80 L 311.80 721.40 L 308.80 734.70 L 302.00 757.70 L 356.20 787.10 L 360.00 784.60 L 363.30 781.90 L 369.90 775.00 L 376.20 766.60 L 380.50 759.60 L 384.60 752.20 L 388.30 744.50 L 394.40 729.30 L 396.60 722.30 L 398.40 715.50 L 399.40 709.80 L 399.90 704.10 L 400.30 690.20 L 399.80 668.20 L 398.10 643.00 L 400.80 656.30 L 401.80 662.70 L 403.50 678.90 L 403.80 688.10 L 403.70 697.40 L 403.00 707.10 L 401.00 720.00 L 399.50 726.30 L 394.70 739.90 L 392.00 746.20 L 387.50 755.30 L 382.90 763.30 L 373.70 776.80 L 369.50 782.30 L 362.40 790.50 L 397.10 809.30 L 409.50 809.20 L 421.40 808.10 L 427.60 807.10 L 433.70 805.60 L 439.30 803.60 L 444.40 801.00 L 449.70 797.70 L 459.50 790.10 L 467.70 782.40 L 475.50 774.20 L 472.20 779.90 L 468.50 785.30 L 464.40 790.40 L 460.00 795.10 L 455.20 799.50 L 450.00 803.60 L 446.80 805.60 L 439.70 809.00 L 433.90 810.90 L 428.10 812.40 L 416.90 814.20 L 407.60 814.90 L 417.80 820.70 L 429.20 827.60 L 440.70 835.10 L 464.60 851.70 L 476.30 860.30 L 498.70 877.80 L 518.20 894.20 L 527.00 902.50 L 535.20 911.00 L 549.70 928.00 L 561.00 942.90 L 570.90 957.50 L 557.60 959.20 Z" fill="#277349" fill-rule="nonzero" group-id="1,7,9" id="联合_3" node-id="21" stroke="none" target-height="353.90002" target-width="466.2" target-x="104.7" target-y="605.3"></path></g></svg>