<?xml version="1.0" standalone="no"?><!DOCTYPE svg PUBLIC "-//W3C//DTD SVG 1.1//EN" "http://www.w3.org/Graphics/SVG/1.1/DTD/svg11.dtd"><svg height="1024" node-id="1" sillyvg="true" template-height="1024" template-width="1024" version="1.1" viewBox="0 0 1024 1024" width="1024" xmlns="http://www.w3.org/2000/svg" xmlns:xlink="http://www.w3.org/1999/xlink"><defs node-id="31"><linearGradient gradientUnits="objectBoundingBox" id="linear-gradient" node-id="3" spreadMethod="pad" x1="0.5" x2="0.5" y1="0" y2="1"><stop offset="0" stop-color="#fed38c"></stop><stop offset="1" stop-color="#faa333"></stop></linearGradient><linearGradient gradientUnits="objectBoundingBox" id="linear-gradient-2" node-id="6" spreadMethod="pad" x1="0.499937" x2="0.499937" y1="0" y2="0.999874"><stop offset="0" stop-color="#fed28a"></stop><stop offset="1" stop-color="#faa434"></stop></linearGradient><clipPath id="clip-郁金香" node-id="9"><path d="M 0.00 0.00 L 1024.00 0.00 L 1024.00 1024.00 L 0.00 1024.00 Z" fill="#000000" fill-rule="nonzero" node-id="46" stroke="none" target-height="1024" target-width="1024" target-x="0" target-y="0"></path></clipPath></defs><g clip-path="url(#clip-郁金香)" id="郁金香" node-id="11"><path d="M 1024.00 623.40 L 2048.00 623.40 L 2048.00 1647.40 L 1024.00 1647.40 Z" fill="#ffffff" fill-rule="nonzero" node-id="51" stroke="none" target-height="1024" target-width="1024" target-x="1024" target-y="623.40424"></path><path d="M 436.90 325.70 L 409.20 658.00 L 429.50 655.50 L 457.30 323.20 Z" fill="#5baaad" fill-rule="nonzero" group-id="1,6" id="路径_201" node-id="14" stroke="none" target-height="334.8" target-width="48.099976" target-x="409.2" target-y="323.2"></path><path d="M 436.00 208.20 L 437.40 203.20 L 440.40 196.10 L 442.70 192.50 L 446.40 188.20 L 448.70 186.50 L 451.10 185.10 L 453.90 184.30 L 457.00 183.90 L 461.00 184.20 L 464.60 184.90 L 467.70 186.10 L 470.70 187.70 L 473.30 189.60 L 477.60 194.20 L 480.80 199.60 L 482.80 205.40 L 483.40 210.60 L 482.70 216.10 L 481.40 220.40 L 477.90 229.00 L 471.30 240.90 L 444.20 250.90 L 431.10 226.90 Z" fill="#fda740" fill-rule="nonzero" group-id="1,7" id="路径_199" node-id="15" stroke="none" target-height="67" target-width="52.299988" target-x="431.1" target-y="183.9"></path><path d="M 434.90 329.20 L 430.10 324.80 L 424.50 317.40 L 418.90 307.70 L 416.30 302.40 L 411.40 290.20 L 409.30 283.80 L 406.00 270.10 L 404.90 263.00 L 404.40 255.80 L 404.20 248.60 L 405.10 232.20 L 406.80 220.40 L 408.00 215.80 L 409.40 212.20 L 411.10 208.90 L 413.10 206.40 L 415.20 204.50 L 417.70 202.90 L 420.50 201.70 L 425.60 200.60 L 429.20 201.30 L 431.00 202.30 L 435.40 205.90 L 437.70 208.50 L 440.80 212.70 L 449.80 227.00 L 452.90 231.40 L 455.90 234.90 L 458.00 233.00 L 470.00 219.60 L 473.60 216.00 L 477.40 212.70 L 481.20 209.90 L 486.70 207.20 L 489.40 206.50 L 492.20 206.20 L 494.90 206.50 L 497.80 207.40 L 500.80 208.90 L 503.40 211.00 L 505.80 213.60 L 507.80 216.70 L 509.40 220.10 L 510.70 223.90 L 511.80 228.20 L 512.50 233.10 L 512.90 239.60 L 512.90 246.90 L 512.20 255.00 L 511.10 263.10 L 509.40 271.70 L 507.10 280.90 L 504.30 289.90 L 501.50 297.50 L 498.50 303.80 L 495.10 309.90 L 491.70 314.80 L 488.40 318.80 L 484.80 322.60 L 481.40 325.50 L 478.30 327.70 L 471.90 331.00 L 464.00 333.40 L 458.30 334.50 L 454.50 334.80 L 450.60 334.80 L 446.60 334.30 L 442.80 333.30 L 438.90 331.60 L 434.90 329.20 Z" fill="url(#linear-gradient)" fill-rule="nonzero" group-id="1,8" id="路径_200" node-id="16" stroke="none" target-height="134.19998" target-width="108.70001" target-x="404.2" target-y="200.6"></path><path d="M 331.40 383.10 L 356.20 606.80 L 369.30 602.10 L 344.60 378.30 Z" fill="#5baaad" fill-rule="nonzero" group-id="2,9" id="路径_201-2" node-id="18" stroke="none" target-height="228.5" target-width="37.899994" target-x="331.4" target-y="378.3"></path><path d="M 309.60 308.90 L 310.30 302.80 L 311.00 300.20 L 313.30 294.90 L 315.10 292.60 L 318.30 290.30 L 320.30 289.60 L 323.90 289.10 L 327.00 289.30 L 329.80 290.00 L 332.50 291.20 L 334.80 292.80 L 336.80 294.70 L 338.50 296.90 L 340.80 301.70 L 341.40 304.00 L 341.50 306.90 L 340.70 313.10 L 339.20 319.00 L 337.10 325.10 L 320.50 335.80 L 308.70 322.00 Z" fill="#fda740" fill-rule="nonzero" group-id="2,10" id="路径_199-2" node-id="19" stroke="none" target-height="46.69998" target-width="32.799988" target-x="308.7" target-y="289.1"></path><path d="M 321.10 383.50 L 318.10 381.60 L 314.20 378.40 L 309.00 372.90 L 306.10 369.40 L 301.10 361.40 L 298.80 356.60 L 296.80 351.70 L 295.10 346.30 L 293.80 340.40 L 292.50 331.80 L 291.90 321.30 L 292.50 315.60 L 293.30 313.10 L 295.40 309.50 L 298.50 306.90 L 302.10 305.40 L 303.80 305.30 L 305.50 305.70 L 308.00 306.90 L 310.70 308.80 L 321.20 319.20 L 326.20 323.50 L 335.50 308.30 L 339.70 303.00 L 343.60 300.10 L 345.70 299.20 L 347.90 298.80 L 350.30 298.90 L 352.50 299.50 L 354.50 300.50 L 356.40 301.90 L 358.20 303.70 L 360.30 306.50 L 362.10 310.00 L 363.70 314.10 L 365.70 323.30 L 366.60 334.10 L 366.00 346.00 L 364.20 357.20 L 361.60 365.50 L 358.70 371.70 L 356.10 375.50 L 353.50 378.20 L 350.90 380.40 L 345.80 383.20 L 339.00 385.20 L 331.40 385.80 L 327.70 385.50 L 324.10 384.70 L 321.10 383.50 Z" fill="url(#linear-gradient-2)" fill-rule="nonzero" group-id="2,11" id="路径_200-2" node-id="20" stroke="none" target-height="87" target-width="74.70001" target-x="291.9" target-y="298.8"></path><path d="M 18.20 541.50 L 18.20 538.70 L 19.10 533.50 L 22.70 520.30 L 25.40 512.50 L 32.30 494.40 L 40.80 475.20 L 50.40 456.60 L 58.90 442.80 L 65.80 433.70 L 69.40 429.60 L 72.80 426.40 L 76.10 423.90 L 76.90 423.90 L 79.60 424.80 L 87.10 428.30 L 97.00 433.60 L 126.60 450.60 L 94.10 407.60 L 100.40 403.80 L 105.80 401.10 L 111.90 398.50 L 119.90 395.60 L 132.00 392.50 L 139.40 391.10 L 146.70 390.10 L 154.90 389.50 L 163.90 389.20 L 172.80 389.50 L 182.60 390.30 L 193.20 391.80 L 209.10 395.20 L 227.00 400.60 L 235.90 403.90 L 245.10 407.70 L 254.90 412.20 L 265.20 417.50 L 275.10 422.90 L 285.40 429.10 L 296.20 436.20 L 307.50 444.10 L 309.80 452.60 L 313.90 465.10 L 324.70 494.20 L 334.60 519.70 L 334.60 464.30 L 360.10 488.30 L 375.30 503.10 L 390.90 518.80 L 405.10 534.10 L 411.30 541.30 L 419.10 551.60 L 421.10 554.90 L 427.00 567.40 L 435.80 584.60 L 461.70 634.00 L 541.00 781.70 L 501.40 881.90 L 492.10 882.40 L 484.40 882.20 L 475.80 881.60 L 464.70 880.10 L 448.50 876.90 L 438.80 874.30 L 429.40 871.40 L 419.10 867.70 L 399.70 859.50 L 382.20 850.40 L 372.80 844.90 L 354.40 833.00 L 334.60 818.00 L 356.50 815.30 L 360.30 814.30 L 361.00 813.50 L 357.70 811.20 L 349.40 807.30 L 326.20 797.20 L 303.90 788.10 L 239.70 701.70 L 216.20 669.50 L 216.70 668.60 L 218.40 667.80 L 225.50 665.60 L 246.60 661.00 L 267.30 657.10 L 200.50 644.70 L 156.60 599.80 L 168.10 588.70 L 144.60 588.70 L 133.40 577.40 L 127.80 572.20 L 113.60 560.00 L 105.40 553.70 L 96.80 547.60 L 87.80 542.00 L 75.40 535.60 L 69.20 533.00 L 62.90 530.90 L 56.70 529.50 L 50.70 528.70 L 46.20 528.50 L 41.80 528.80 L 37.50 529.60 L 33.30 530.80 L 29.40 532.50 L 25.60 534.90 L 21.80 537.80 L 18.20 541.50 Z" fill="#005c62" fill-rule="nonzero" group-id="3,12" id="路径_197" node-id="22" stroke="none" target-height="493.2" target-width="522.8" target-x="18.2" target-y="389.2"></path><path d="M 456.60 780.90 L 442.30 759.70 L 425.80 736.10 L 404.10 706.50 L 391.80 690.30 L 364.00 655.40 L 348.80 637.30 L 333.10 619.40 L 316.80 601.70 L 305.70 590.10 L 283.10 568.10 L 271.50 557.50 L 260.00 547.60 L 248.50 538.40 L 230.90 525.50 L 213.90 514.60 L 205.10 509.70 L 196.50 505.50 L 188.20 501.90 L 180.10 498.80 L 168.40 495.20 L 157.60 492.40 L 147.60 490.20 L 138.30 488.80 L 128.60 487.80 L 119.70 487.30 L 111.40 487.30 L 103.70 487.80 L 95.80 488.80 L 88.60 490.10 L 81.90 491.70 L 75.70 493.60 L 67.60 496.70 L 60.40 500.00 L 54.00 503.60 L 47.80 507.70 L 42.50 511.70 L 33.60 519.80 L 27.10 527.10 L 23.20 532.30 L 19.00 539.20" fill="none" group-id="3,13" id="路径_198" node-id="23" stroke="#11838a" stroke-linecap="round" stroke-width="2" target-height="293.60004" target-width="437.6" target-x="19" target-y="487.3"></path><path d="M 617.10 105.30 L 616.60 110.90 L 614.50 126.70 L 608.90 156.60 L 601.50 188.90 L 595.90 209.10 L 593.10 218.00 L 596.10 225.80 L 599.50 236.70 L 606.10 261.60 L 611.10 283.20 L 601.10 265.90 L 589.80 247.70 L 585.20 241.10 L 583.20 238.90 L 582.20 238.20 L 579.10 245.50 L 575.30 253.00 L 570.90 260.60 L 561.10 275.70 L 555.70 283.30 L 538.30 305.30 L 497.50 353.40 L 488.40 365.60 L 484.30 373.10 L 486.70 464.90 L 471.60 397.20 L 462.50 414.70 L 453.30 434.60 L 442.70 460.40 L 437.50 474.80 L 432.40 490.70 L 429.30 501.40 L 423.70 524.20 L 421.40 535.80 L 419.50 547.60 L 418.00 559.70 L 417.00 571.70 L 416.60 583.80 L 416.80 595.90 L 420.30 602.00 L 424.90 612.50 L 435.20 639.00 L 443.80 662.90 L 424.00 636.50 L 418.30 629.60 L 415.00 626.30 L 415.60 642.20 L 416.50 651.90 L 418.40 666.60 L 421.20 683.20 L 424.60 700.20 L 428.80 718.30 L 433.60 736.50 L 439.10 755.10 L 445.10 773.60 L 451.60 791.70 L 456.20 803.60 L 466.00 826.00 L 471.30 836.80 L 476.60 846.80 L 482.00 856.10 L 487.80 865.10 L 493.60 873.00 L 499.30 879.90 L 502.30 883.00 L 505.50 885.60 L 508.80 887.70 L 512.20 889.50 L 515.90 890.90 L 520.60 892.20 L 525.60 893.00 L 530.90 893.30 L 536.50 893.00 L 547.60 891.20 L 559.80 887.60 L 567.90 884.40 L 576.30 880.60 L 585.00 876.10 L 602.00 866.00 L 610.60 860.20 L 623.30 851.00 L 635.80 841.30 L 647.90 831.10 L 659.30 820.80 L 670.20 810.30 L 680.00 800.30 L 689.10 790.30 L 696.70 781.30 L 703.60 772.50 L 708.50 765.30 L 711.20 760.40 L 714.10 754.40 L 719.60 739.50 L 724.90 721.60 L 728.50 707.10 L 732.00 691.10 L 738.30 657.40 L 743.90 622.40 L 748.50 588.20 L 752.20 556.80 L 754.90 529.90 L 756.60 509.80 L 757.20 498.20 L 741.40 505.20 L 712.70 516.40 L 757.20 474.10 L 757.10 452.10 L 756.00 414.40 L 754.20 383.20 L 753.00 366.80 L 749.40 334.00 L 747.10 318.00 L 744.30 303.10 L 739.80 284.50 L 735.20 270.40 L 733.00 265.10 L 728.30 256.50 L 722.70 261.00 L 715.60 267.50 L 694.70 287.70 L 712.50 236.40 L 716.90 222.60 L 707.30 206.80 L 696.80 190.90 L 683.80 172.20 L 669.40 152.80 L 654.50 134.40 L 647.00 126.10 L 640.10 119.10 L 631.10 111.40 L 624.20 107.10 L 621.50 106.00 L 619.20 105.40 L 617.10 105.30 Z" fill="#68c8cc" fill-rule="nonzero" group-id="4,14" id="路径_202" node-id="25" stroke="none" target-height="788" target-width="342.2" target-x="415" target-y="105.3"></path><path d="M 557.20 712.50 L 563.90 695.90 L 574.70 666.60 L 588.50 625.30 L 601.00 582.80 L 611.10 544.10 L 620.40 502.70 L 624.80 480.30 L 628.80 457.80 L 632.50 434.60 L 635.80 410.50 L 637.90 392.40 L 641.10 355.30 L 643.00 317.40 L 643.30 298.30 L 643.10 279.00 L 642.60 259.60 L 641.50 240.30 L 639.90 220.90 L 637.80 201.50 L 635.10 182.00 L 632.50 166.60 L 629.60 151.10 L 626.20 135.80 L 622.40 120.50 L 618.20 105.30" fill="none" group-id="4,15" id="路径_203" node-id="26" stroke="#51b2b6" stroke-linecap="butt" stroke-width="2" target-height="607.2" target-width="86.099976" target-x="557.2" target-y="105.3"></path><path d="M 1000.90 457.80 L 991.30 466.40 L 976.70 478.50 L 958.70 492.30 L 949.00 499.30 L 938.90 506.10 L 928.70 512.40 L 918.90 517.80 L 912.20 521.10 L 900.00 525.80 L 899.00 529.30 L 897.20 533.40 L 892.40 542.00 L 886.70 550.60 L 875.70 565.20 L 880.20 550.20 L 882.20 542.40 L 883.30 535.90 L 883.40 533.30 L 883.10 532.00 L 867.80 537.80 L 860.20 540.10 L 848.60 542.90 L 837.60 545.00 L 826.80 546.60 L 787.40 550.80 L 761.50 605.90 L 770.40 553.80 L 759.80 555.10 L 742.00 558.40 L 730.30 561.10 L 718.10 564.40 L 704.30 568.90 L 685.30 576.20 L 675.10 580.80 L 665.10 585.70 L 655.00 591.30 L 644.60 597.50 L 629.60 607.90 L 614.80 619.90 L 607.80 626.40 L 600.90 633.40 L 594.20 640.90 L 587.60 648.90 L 586.70 655.60 L 581.20 681.80 L 567.60 739.30 L 565.40 696.70 L 564.70 688.30 L 564.10 684.10 L 556.90 692.90 L 549.50 704.40 L 545.10 712.60 L 540.70 721.70 L 536.40 731.70 L 528.60 752.50 L 524.90 763.70 L 519.80 780.70 L 515.20 798.20 L 511.00 815.80 L 507.50 832.90 L 504.40 849.90 L 502.00 865.50 L 500.10 880.70 L 498.90 893.80 L 499.60 894.70 L 501.10 895.70 L 503.70 896.90 L 508.00 898.30 L 520.20 901.20 L 541.50 904.70 L 567.60 908.00 L 569.90 888.80 L 609.30 913.20 L 677.00 911.40 L 698.10 910.20 L 712.30 908.00 L 735.80 903.20 L 760.20 897.40 L 784.10 890.70 L 795.10 887.30 L 815.00 880.20 L 823.60 876.60 L 830.30 873.30 L 834.50 870.80 L 839.60 866.80 L 823.50 859.00 L 780.20 836.30 L 897.00 820.50 L 905.60 811.60 L 912.30 803.60 L 919.50 794.40 L 928.20 782.00 L 934.00 773.20 L 946.70 751.20 L 952.90 739.30 L 959.30 725.90 L 965.70 710.90 L 974.60 687.60 L 983.10 660.70 L 986.80 647.10 L 990.30 632.50 L 993.60 616.90 L 996.60 600.50 L 977.90 596.90 L 942.30 591.30 L 988.00 569.80 L 999.90 563.70 L 1001.20 557.80 L 1002.80 542.50 L 1003.90 519.60 L 1004.00 506.10 L 1003.60 490.80 L 1002.10 469.40 L 1000.90 457.80 Z" fill="#d1f6dc" fill-rule="nonzero" group-id="5,16" id="路径_202-2" node-id="28" stroke="none" target-height="455.40002" target-width="505.1" target-x="498.9" target-y="457.8"></path><path d="M 501.80 893.70 L 529.70 876.80 L 561.30 857.00 L 601.80 830.90 L 648.90 799.30 L 700.40 763.20 L 727.00 743.80 L 754.20 723.40 L 781.30 702.50 L 808.10 680.90 L 843.00 651.40 L 859.90 636.50 L 876.40 621.30 L 892.20 606.20 L 907.30 591.20 L 928.90 568.20 L 948.20 545.80 L 957.40 534.30 L 965.80 523.10 L 973.40 512.10 L 980.40 501.30 L 990.60 483.50 L 994.80 475.00 L 1001.70 458.50" fill="none" group-id="5,17" id="路径_203-2" node-id="29" stroke="#8bdfa4" stroke-linecap="butt" stroke-width="2" target-height="435.2" target-width="499.90002" target-x="501.8" target-y="458.5"></path></g></svg>