<?xml version="1.0" standalone="no"?><!DOCTYPE svg PUBLIC "-//W3C//DTD SVG 1.1//EN" "http://www.w3.org/Graphics/SVG/1.1/DTD/svg11.dtd"><svg height="1024" node-id="1" sillyvg="true" template-height="1024" template-width="1024" version="1.1" viewBox="0 0 1024 1024" width="1024" xmlns="http://www.w3.org/2000/svg" xmlns:xlink="http://www.w3.org/1999/xlink"><defs node-id="48"><clipPath id="clip-绿植" node-id="3"><path d="M 0.00 0.00 L 1024.00 0.00 L 1024.00 1024.00 L 0.00 1024.00 Z" fill="#000000" fill-rule="nonzero" node-id="51" stroke="none" target-height="1024" target-width="1024" target-x="0" target-y="0"></path></clipPath></defs><g clip-path="url(#clip-绿植)" id="绿植" node-id="5"><path d="M 1027.30 888.10 L 2051.30 888.10 L 2051.30 1912.10 L 1027.30 1912.10 Z" fill="#ffffff" fill-rule="nonzero" node-id="56" stroke="none" target-height="1024" target-width="1024" target-x="1027.3" target-y="888.1"></path><path d="M 882.90 853.90 L 882.90 863.00 L 582.40 863.00 L 582.20 850.90 L 583.10 837.90 L 584.20 830.40 L 585.90 822.00 L 589.20 810.70 L 593.80 798.90 L 596.80 793.20 L 600.30 787.40 L 604.10 781.90 L 608.50 776.50 L 613.50 771.40 L 614.30 776.30 L 620.20 801.10 L 635.70 859.70 L 633.50 753.10 L 644.50 747.90 L 662.70 740.50 L 677.00 735.90 L 684.20 734.10 L 676.90 777.30 L 663.80 848.30 L 717.10 728.30 L 728.40 727.40 L 739.50 727.20 L 745.50 727.50 L 755.40 729.00 L 762.20 731.10 L 762.20 731.50 L 753.70 761.50 L 727.50 848.30 L 791.80 735.80 L 808.80 742.40 L 821.50 748.50 L 828.00 752.20 L 834.40 756.20 L 840.30 760.60 L 757.40 844.50 L 853.60 774.40 L 860.90 782.30 L 864.10 786.20 L 870.90 796.00 L 875.90 805.30 L 878.70 813.10 L 879.60 817.10 L 880.00 821.00 L 879.90 824.90 L 849.50 832.50 L 768.90 851.40 Z" fill="#0f7770" fill-rule="nonzero" group-id="1" id="路径_183" node-id="7" stroke="none" target-height="135.79999" target-width="300.7" target-x="582.2" target-y="727.2"></path><path d="M 309.10 178.50 L 317.00 187.90 L 323.20 196.20 L 329.70 205.90 L 337.80 219.10 L 348.80 239.40 L 355.00 252.00 L 360.70 264.80 L 366.70 279.20 L 372.80 295.50 L 381.10 320.60 L 389.20 349.90 L 392.80 364.80 L 396.20 380.70 L 399.40 397.70 L 402.40 415.80 L 404.90 433.60 L 407.00 452.50 L 408.90 472.50 L 410.30 493.70 L 411.30 514.50 L 411.70 536.50 L 411.70 559.70 L 411.20 584.10 L 410.10 608.10 L 408.40 633.30 L 406.00 659.70 L 403.00 687.60" fill="none" group-id="2,9" id="路径_107" node-id="9" stroke="#368679" stroke-linecap="round" stroke-width="6" target-height="509.09998" target-width="102.600006" target-x="309.1" target-y="178.5"></path><path d="M 269.90 284.00 L 299.00 301.20 L 317.30 312.90 L 337.00 326.50 L 356.50 341.20 L 365.80 349.00 L 374.30 356.60 L 384.30 367.00 L 388.50 371.90 L 392.30 377.10 L 395.30 382.00 L 397.60 386.50" fill="none" group-id="2,10" id="路径_108" node-id="10" stroke="#368679" stroke-linecap="round" stroke-width="6" target-height="102.5" target-width="127.70001" target-x="269.9" target-y="284"></path><path d="M 414.90 170.70 L 404.90 185.20 L 395.20 200.70 L 384.60 219.30 L 379.50 229.30 L 372.10 246.20 L 367.90 259.20 L 366.40 265.60 L 365.50 271.50 L 365.30 276.90" fill="none" group-id="2,11" id="路径_109" node-id="11" stroke="#368679" stroke-linecap="round" stroke-width="6" target-height="106.2" target-width="49.600006" target-x="365.3" target-y="170.7"></path><path d="M 494.80 271.90 L 482.80 290.60 L 477.20 300.00 L 463.40 324.70 L 455.80 339.40 L 448.30 354.90 L 440.80 371.80 L 436.00 383.30 L 427.00 407.60 L 422.90 420.10 L 419.30 432.70 L 416.10 445.60 L 413.40 458.50 L 411.30 471.40 L 409.70 484.30" fill="none" group-id="2,12" id="路径_110" node-id="12" stroke="#368679" stroke-linecap="round" stroke-width="6" target-height="212.4" target-width="85.099976" target-x="409.7" target-y="271.9"></path><path d="M 409.50 562.40 L 403.90 552.60 L 393.20 536.30 L 385.30 525.70 L 373.10 510.80 L 357.70 494.20 L 348.90 485.70 L 339.20 476.80 L 329.10 468.30 L 318.10 459.70 L 306.00 451.00 L 287.00 438.80 L 276.60 432.80 L 265.50 426.90 L 254.50 421.40 L 242.80 416.20 L 230.40 411.20 L 217.40 406.40" fill="none" group-id="2,13" id="路径_111" node-id="13" stroke="#368679" stroke-linecap="round" stroke-width="6" target-height="156.00003" target-width="192.1" target-x="217.4" target-y="406.4"></path><path d="M 549.70 413.70 L 539.70 424.90 L 523.20 444.80 L 512.70 458.40 L 501.80 473.10 L 489.80 490.50 L 481.80 502.50 L 465.20 529.50 L 457.20 543.70 L 449.20 558.70 L 441.30 574.60 L 433.90 590.60 L 426.90 607.30 L 420.20 624.60 L 415.60 637.70 L 411.40 651.10 L 407.60 664.70 L 404.10 678.60" fill="none" group-id="2,14" id="路径_112" node-id="14" stroke="#368679" stroke-linecap="round" stroke-width="6" target-height="264.89996" target-width="145.6" target-x="404.1" target-y="413.7"></path><path d="M 273.20 274.70 L 276.60 277.70 L 277.80 279.60 L 279.20 283.70 L 279.20 288.00 L 277.60 292.30 L 274.60 295.70 L 270.70 297.80 L 266.50 298.50 L 262.10 297.70 L 260.00 296.70 L 258.10 295.30 L 256.60 293.70 L 254.50 289.80 L 253.80 285.50 L 254.00 283.40 L 255.70 279.10 L 258.60 275.70 L 260.50 274.50 L 264.60 273.10 L 268.90 273.10 L 273.20 274.70 Z" fill="#b9539f" fill-rule="nonzero" group-id="2,15" id="椭圆_3" node-id="15" stroke="none" target-height="25.399994" target-width="25.40001" target-x="253.8" target-y="273.1"></path><path d="M 215.20 393.10 L 218.60 396.10 L 220.70 399.90 L 221.40 404.20 L 221.20 406.40 L 219.60 410.60 L 216.60 414.00 L 212.70 416.10 L 208.50 416.80 L 204.10 416.00 L 202.00 415.00 L 200.10 413.60 L 198.60 412.00 L 196.50 408.20 L 195.80 403.90 L 196.00 401.70 L 197.70 397.50 L 200.60 394.00 L 204.50 391.90 L 208.80 391.30 L 210.90 391.50 L 215.20 393.10 Z" fill="#b9539f" fill-rule="nonzero" group-id="2,16" id="椭圆_10" node-id="16" stroke="none" target-height="25.5" target-width="25.59999" target-x="195.8" target-y="391.3"></path><path d="M 310.30 163.40 L 313.70 166.40 L 315.80 170.20 L 316.50 174.50 L 316.30 176.70 L 314.70 180.90 L 311.70 184.30 L 309.90 185.50 L 305.80 186.90 L 301.40 186.90 L 297.10 185.30 L 293.70 182.30 L 291.60 178.40 L 290.90 174.20 L 291.20 172.00 L 292.80 167.70 L 295.80 164.30 L 297.60 163.10 L 301.70 161.70 L 306.10 161.80 L 310.30 163.40 Z" fill="#b9539f" fill-rule="nonzero" group-id="2,17" id="椭圆_4" node-id="17" stroke="none" target-height="25.199997" target-width="25.600006" target-x="290.9" target-y="161.7"></path><path d="M 425.40 156.60 L 428.50 159.30 L 430.40 162.80 L 431.00 166.60 L 430.90 168.60 L 429.40 172.40 L 426.70 175.50 L 423.20 177.40 L 419.40 178.00 L 417.40 177.80 L 413.60 176.40 L 410.50 173.70 L 408.60 170.20 L 408.00 166.30 L 408.20 164.40 L 409.60 160.50 L 412.30 157.40 L 415.80 155.60 L 419.60 154.90 L 421.60 155.10 L 425.40 156.60 Z" fill="#b9539f" fill-rule="nonzero" group-id="2,18" id="椭圆_5" node-id="18" stroke="none" target-height="23.100006" target-width="23" target-x="408" target-y="154.9"></path><path d="M 511.40 254.40 L 513.50 256.00 L 515.30 257.80 L 516.60 259.80 L 517.60 262.10 L 518.20 264.50 L 518.40 266.90 L 518.20 269.40 L 517.50 271.80 L 516.30 274.20 L 514.80 276.30 L 513.00 278.10 L 510.90 279.40 L 508.60 280.40 L 506.30 281.00 L 503.80 281.20 L 501.30 281.00 L 498.90 280.30 L 496.50 279.10 L 494.40 277.60 L 492.70 275.80 L 491.30 273.70 L 490.30 271.40 L 489.70 269.10 L 489.60 266.60 L 489.80 264.10 L 490.50 261.70 L 491.60 259.30 L 493.20 257.20 L 495.00 255.50 L 497.00 254.10 L 499.30 253.10 L 501.70 252.50 L 504.20 252.30 L 506.60 252.60 L 509.00 253.30 L 511.40 254.40 Z" fill="#b9539f" fill-rule="nonzero" group-id="2,19" id="椭圆_6" node-id="19" stroke="none" target-height="28.90001" target-width="28.800018" target-x="489.6" target-y="252.3"></path><path d="M 563.70 395.40 L 565.80 397.00 L 567.40 398.70 L 568.80 400.70 L 569.70 402.90 L 570.30 405.20 L 570.50 407.60 L 570.30 410.00 L 569.60 412.40 L 568.50 414.70 L 567.00 416.70 L 565.20 418.40 L 563.20 419.80 L 561.00 420.70 L 558.70 421.30 L 556.30 421.50 L 553.90 421.20 L 551.60 420.60 L 549.30 419.50 L 547.20 417.90 L 545.50 416.20 L 544.20 414.20 L 543.20 412.00 L 542.60 409.70 L 542.50 407.30 L 542.70 404.90 L 543.40 402.60 L 544.50 400.20 L 546.00 398.20 L 547.70 396.50 L 549.70 395.20 L 552.00 394.20 L 554.20 393.60 L 556.60 393.40 L 559.00 393.70 L 561.40 394.30 L 563.70 395.40 Z" fill="#b9539f" fill-rule="nonzero" group-id="2,20" id="椭圆_7" node-id="20" stroke="none" target-height="28.100006" target-width="28" target-x="542.5" target-y="393.4"></path><path d="M 1009.30 493.50 L 997.90 491.90 L 988.20 491.10 L 977.20 490.70 L 962.70 490.80 L 941.00 492.10 L 927.90 493.50 L 914.90 495.30 L 900.40 497.80 L 884.50 501.00 L 868.70 504.70 L 851.50 509.30 L 832.90 515.00 L 819.30 519.50 L 789.80 530.70 L 773.90 537.30 L 758.40 544.20 L 742.30 551.80 L 725.50 560.30 L 707.80 569.70 L 690.80 579.30 L 673.00 589.90 L 654.60 601.50 L 635.40 614.10 L 616.80 626.90 L 597.60 640.80 L 577.70 655.80 L 557.10 672.10" fill="none" group-id="3,21" id="路径_107-2" node-id="22" stroke="#368679" stroke-linecap="round" stroke-width="5.9999905" target-height="181.39996" target-width="452.2" target-x="557.1" target-y="490.7"></path><path d="M 944.80 577.20 L 928.10 568.40 L 899.60 554.50 L 876.30 544.40 L 864.20 539.60 L 852.00 535.30 L 840.20 531.60 L 824.90 527.90 L 818.00 526.80 L 811.00 526.10 L 804.90 526.00 L 799.60 526.50" fill="none" group-id="3,22" id="路径_108-2" node-id="23" stroke="#368679" stroke-linecap="round" stroke-width="5.9999905" target-height="51.200012" target-width="145.20001" target-x="799.6" target-y="526"></path><path d="M 962.90 405.30 L 956.30 420.40 L 948.80 435.90 L 939.20 453.70 L 933.80 462.70 L 924.00 477.00 L 915.80 486.80 L 911.40 491.20 L 907.20 494.80 L 903.00 497.70" fill="none" group-id="3,23" id="路径_109-2" node-id="24" stroke="#368679" stroke-linecap="round" stroke-width="5.9999905" target-height="92.400024" target-width="59.900024" target-x="903" target-y="405.3"></path><path d="M 842.50 392.10 L 833.60 410.90 L 828.90 420.10 L 816.10 443.30 L 808.10 456.70 L 799.50 470.40 L 783.00 494.30 L 768.10 513.60 L 760.20 523.00 L 751.90 532.20 L 743.30 541.20 L 734.30 549.80 L 725.10 557.90 L 715.60 565.50" fill="none" group-id="3,24" id="路径_110-2" node-id="25" stroke="#368679" stroke-linecap="round" stroke-width="5.9999905" target-height="173.4" target-width="126.900024" target-x="715.6" target-y="392.1"></path><path d="M 653.50 604.60 L 664.10 604.10 L 682.50 604.60 L 694.80 605.60 L 712.80 607.90 L 733.60 611.90 L 744.70 614.70 L 756.70 618.00 L 768.50 621.80 L 780.80 626.30 L 793.80 631.60 L 813.00 640.70 L 823.00 646.00 L 843.00 657.90 L 853.00 664.60 L 863.10 671.90 L 873.40 679.90" fill="none" group-id="3,25" id="路径_111-2" node-id="26" stroke="#368679" stroke-linecap="round" stroke-width="5.9999905" target-height="75.80005" target-width="219.90002" target-x="653.5" target-y="604.1"></path><path d="M 702.20 418.90 L 698.30 432.40 L 690.60 455.50 L 685.00 470.60 L 678.70 486.60 L 665.20 517.20 L 652.00 543.80 L 644.70 557.30 L 636.70 571.10 L 628.00 585.30 L 618.90 599.20 L 609.10 613.10 L 598.60 627.00 L 590.50 637.20 L 581.90 647.20 L 573.00 657.00 L 563.60 666.70" fill="none" group-id="3,26" id="路径_112-2" node-id="27" stroke="#368679" stroke-linecap="round" stroke-width="5.9999905" target-height="247.80002" target-width="138.60004" target-x="563.6" target-y="418.9"></path><path d="M 950.50 570.00 L 953.90 572.60 L 956.10 576.00 L 957.10 580.00 L 957.00 582.10 L 955.80 586.10 L 953.20 589.50 L 951.60 590.80 L 947.80 592.40 L 943.70 592.60 L 939.60 591.40 L 936.20 588.80 L 934.00 585.30 L 933.10 581.40 L 933.20 579.30 L 934.40 575.20 L 937.00 571.80 L 940.40 569.60 L 944.40 568.70 L 946.50 568.80 L 950.50 570.00 Z" fill="#b9539f" fill-rule="nonzero" group-id="3,27" id="椭圆_3-2" node-id="28" stroke="none" target-height="23.899963" target-width="24" target-x="933.1" target-y="568.7"></path><path d="M 885.10 675.10 L 888.50 677.70 L 889.80 679.30 L 891.40 683.10 L 891.60 687.20 L 890.40 691.20 L 887.80 694.60 L 884.30 696.90 L 880.40 697.80 L 878.30 697.70 L 874.20 696.50 L 870.80 693.90 L 868.60 690.50 L 867.70 686.50 L 867.70 684.40 L 869.00 680.30 L 871.60 677.00 L 875.00 674.70 L 879.00 673.80 L 881.00 673.90 L 885.10 675.10 Z" fill="#b9539f" fill-rule="nonzero" group-id="3,28" id="椭圆_10-2" node-id="29" stroke="none" target-height="24" target-width="23.899963" target-x="867.7" target-y="673.8"></path><path d="M 1020.80 485.00 L 1024.20 487.60 L 1025.40 489.20 L 1027.00 492.90 L 1027.30 497.00 L 1026.00 501.10 L 1023.50 504.50 L 1020.00 506.70 L 1016.00 507.70 L 1011.90 507.20 L 1009.90 506.40 L 1008.00 505.20 L 1006.50 503.80 L 1004.30 500.30 L 1003.40 496.40 L 1003.40 494.30 L 1004.60 490.20 L 1007.20 486.80 L 1008.90 485.60 L 1012.60 484.00 L 1016.70 483.70 L 1020.80 485.00 Z" fill="#b9539f" fill-rule="nonzero" group-id="3,29" id="椭圆_4-2" node-id="30" stroke="none" target-height="24" target-width="23.900024" target-x="1003.4" target-y="483.7"></path><path d="M 968.90 389.90 L 971.90 392.20 L 973.10 393.70 L 974.50 397.10 L 974.70 400.80 L 973.60 404.50 L 971.30 407.50 L 968.20 409.50 L 964.60 410.40 L 960.90 409.90 L 957.30 408.10 L 956.00 406.90 L 954.00 403.70 L 953.10 400.20 L 953.20 398.30 L 954.30 394.60 L 956.60 391.50 L 959.70 389.50 L 963.30 388.70 L 965.20 388.80 L 968.90 389.90 Z" fill="#b9539f" fill-rule="nonzero" group-id="3,30" id="椭圆_5-2" node-id="31" stroke="none" target-height="21.699982" target-width="21.600037" target-x="953.1" target-y="388.7"></path><path d="M 848.20 370.10 L 850.30 371.40 L 852.00 373.00 L 854.50 376.90 L 855.50 381.40 L 855.50 383.70 L 855.00 386.00 L 854.10 388.30 L 852.80 390.40 L 851.20 392.10 L 847.30 394.60 L 842.80 395.70 L 840.50 395.60 L 838.20 395.20 L 835.90 394.20 L 833.80 392.90 L 832.00 391.30 L 829.50 387.40 L 828.50 382.90 L 828.50 380.60 L 829.00 378.30 L 829.90 376.00 L 831.30 373.90 L 832.80 372.20 L 836.80 369.70 L 841.20 368.60 L 843.60 368.70 L 845.90 369.20 L 848.20 370.10 Z" fill="#b9539f" fill-rule="nonzero" group-id="3,31" id="椭圆_6-2" node-id="32" stroke="none" target-height="27.100006" target-width="27" target-x="828.5" target-y="368.6"></path><path d="M 709.80 398.60 L 711.80 399.90 L 713.50 401.50 L 715.90 405.30 L 716.90 409.60 L 716.90 411.90 L 716.40 414.10 L 715.50 416.30 L 712.70 420.10 L 708.90 422.50 L 704.60 423.50 L 702.30 423.50 L 700.10 423.00 L 697.80 422.10 L 695.80 420.80 L 694.10 419.30 L 691.70 415.50 L 690.60 411.10 L 690.70 408.90 L 691.20 406.60 L 692.10 404.40 L 693.40 402.40 L 694.90 400.70 L 698.70 398.20 L 703.00 397.20 L 705.30 397.30 L 707.50 397.80 L 709.80 398.60 Z" fill="#b9539f" fill-rule="nonzero" group-id="3,32" id="椭圆_7-2" node-id="33" stroke="none" target-height="26.299988" target-width="26.300049" target-x="690.6" target-y="397.2"></path><path d="M 503.50 848.20 L 385.00 808.70 L 495.30 824.60 L 388.90 792.40 L 491.80 813.20 L 384.00 776.20 L 483.40 797.20 L 390.80 763.50 L 472.70 766.80 L 369.30 732.80 L 472.40 746.40 L 468.90 739.60 L 354.30 721.40 L 468.80 727.50 L 465.30 723.30 L 345.20 709.40 L 461.80 716.50 L 460.90 708.90 L 328.90 697.70 L 456.90 695.80 L 455.30 690.50 L 290.60 681.50 L 440.80 678.00 L 300.60 662.70 L 433.90 662.50 L 272.30 647.20 L 434.70 646.90 L 256.80 633.10 L 418.70 633.20 L 411.20 628.90 L 371.40 624.50 L 319.40 619.60 L 292.50 617.60 L 267.90 616.50 L 247.90 616.50 L 242.20 616.90 L 234.80 618.10 L 245.60 615.80 L 252.70 614.80 L 263.60 613.60 L 289.20 612.00 L 330.10 610.90 L 355.60 610.90 L 396.90 611.60 L 338.60 605.20 L 288.80 600.80 L 265.60 599.30 L 246.10 598.60 L 237.80 598.70 L 232.10 599.10 L 228.70 599.60 L 235.20 600.10 L 268.70 599.90 L 400.10 596.70 L 234.00 590.10 L 388.20 583.30 L 236.60 586.50 L 393.50 571.10 L 391.20 567.50 L 219.30 584.70 L 371.10 556.60 L 330.40 559.60 L 277.20 564.50 L 236.40 569.20 L 213.20 572.70 L 204.10 574.40 L 208.30 573.10 L 236.80 566.40 L 355.70 540.80 L 188.70 554.60 L 245.10 545.90 L 356.60 529.40 L 350.70 524.30 L 221.70 533.00 L 183.10 536.20 L 215.20 532.30 L 342.90 515.20 L 334.80 510.00 L 185.80 527.60 L 314.00 503.60 L 298.70 504.30 L 271.40 506.60 L 252.60 508.80 L 232.50 511.70 L 208.40 515.70 L 192.00 518.80 L 154.60 527.00 L 172.30 521.50 L 193.30 515.50 L 236.00 504.10 L 270.20 495.50 L 134.40 521.70 L 248.30 490.20 L 127.00 518.70 L 236.70 477.80 L 122.70 514.80 L 195.30 478.70 L 121.50 510.60 L 211.20 457.70 L 205.40 456.70 L 104.50 513.80 L 186.10 454.70 L 165.40 454.30 L 165.00 456.70 L 162.60 461.50 L 159.90 465.10 L 156.40 469.00 L 151.10 474.10 L 144.80 479.50 L 136.00 486.20 L 124.50 494.20 L 114.80 500.30 L 105.60 505.60 L 92.10 512.30 L 84.40 515.40 L 100.30 501.50 L 109.70 493.70 L 124.10 483.00 L 136.10 475.40 L 149.60 465.90 L 162.70 455.10 L 163.40 454.20 L 163.40 453.30 L 160.80 453.00 L 156.30 453.50 L 145.70 455.90 L 142.70 460.60 L 136.40 468.30 L 127.80 476.20 L 118.50 483.30 L 112.00 487.40 L 98.00 495.50 L 78.70 505.30 L 66.30 511.00 L 93.60 489.20 L 109.80 476.90 L 126.50 466.40 L 143.60 456.50 L 125.70 458.00 L 122.10 462.60 L 115.40 469.60 L 110.50 473.90 L 104.90 478.00 L 98.20 482.30 L 86.50 488.60 L 75.10 494.20 L 55.80 502.50 L 72.20 489.40 L 86.60 479.00 L 102.20 469.30 L 121.00 458.80 L 108.60 460.50 L 92.00 472.60 L 83.70 478.20 L 76.80 482.10 L 62.20 488.20 L 36.40 498.30 L 59.50 482.30 L 70.80 475.30 L 80.30 470.80 L 103.20 461.00 L 65.70 472.60 L 51.70 476.50 L 39.20 479.50 L 28.20 481.50 L 19.50 482.80 L 11.60 483.60 L 1.70 484.00 L 32.00 472.30 L 43.00 468.60 L 52.50 465.90 L 63.60 463.90 L 75.80 462.60 L 98.50 461.30 L 60.10 459.90 L 39.90 458.10 L 29.70 456.40 L 26.60 455.40 L 25.00 454.60 L 24.50 454.00 L 24.60 453.60 L 25.60 453.00 L 28.20 452.30 L 35.80 451.60 L 45.40 451.30 L 64.50 451.60 L 122.60 458.00 L 99.40 455.40 L 86.30 453.20 L 79.70 451.80 L 56.80 445.30 L 42.40 441.50 L 53.80 439.80 L 71.10 438.10 L 83.20 438.00 L 88.40 438.40 L 99.40 440.80 L 111.30 444.60 L 122.50 448.80 L 137.30 455.20 L 141.30 455.30 L 148.30 454.00 L 135.90 449.70 L 117.70 442.40 L 105.60 436.70 L 100.70 434.00 L 95.10 430.20 L 85.70 422.30 L 82.00 418.70 L 74.80 410.40 L 94.10 415.80 L 104.50 419.00 L 113.80 422.50 L 117.70 424.30 L 120.40 425.80 L 126.90 430.80 L 134.80 437.30 L 152.00 452.90 L 153.00 453.50 L 154.80 453.90 L 159.30 454.00 L 169.70 453.00 L 92.60 394.50 L 194.50 454.00 L 206.20 455.00 L 115.10 384.00 L 229.30 458.80 L 129.20 364.00 L 251.20 463.10 L 170.10 378.40 L 148.90 355.80 L 273.40 470.20 L 278.40 473.60 L 191.00 355.60 L 295.10 477.80 L 268.90 429.70 L 257.50 409.80 L 245.60 390.20 L 234.20 372.70 L 228.70 365.00 L 220.70 355.10 L 215.70 350.60 L 221.50 354.90 L 227.50 359.90 L 233.50 365.80 L 239.30 372.00 L 250.90 385.90 L 259.20 397.10 L 267.30 408.80 L 282.10 432.50 L 294.80 454.80 L 314.90 493.20 L 316.30 495.00 L 317.40 495.70 L 317.60 495.10 L 316.00 490.90 L 296.60 443.30 L 277.70 400.10 L 268.40 380.60 L 263.90 371.80 L 256.10 358.50 L 253.10 354.40 L 255.90 355.80 L 257.80 357.50 L 260.10 360.10 L 264.30 365.70 L 269.40 373.70 L 280.20 393.10 L 291.60 415.80 L 302.90 439.70 L 321.40 482.10 L 327.10 496.00 L 329.50 503.20 L 330.90 505.10 L 332.30 506.10 L 335.10 507.10 L 325.00 474.60 L 311.20 432.10 L 303.70 410.20 L 296.30 390.40 L 289.70 374.30 L 286.60 368.00 L 284.20 364.00 L 286.90 366.90 L 290.00 370.70 L 293.30 375.70 L 298.00 383.70 L 303.10 393.40 L 313.00 415.10 L 322.60 438.90 L 331.50 462.70 L 339.20 484.70 L 350.70 519.80 L 354.60 523.10 L 346.20 487.20 L 335.20 442.60 L 329.60 421.00 L 324.50 403.00 L 320.40 390.90 L 321.40 391.50 L 322.70 392.90 L 324.50 395.90 L 326.90 400.70 L 330.00 407.80 L 336.30 424.60 L 349.50 465.10 L 364.90 516.90 L 363.70 486.30 L 361.60 448.00 L 359.20 420.80 L 357.10 407.10 L 356.00 402.80 L 357.20 404.60 L 358.40 407.90 L 361.90 421.10 L 365.80 439.90 L 371.70 473.40 L 374.80 495.90 L 376.70 515.70 L 376.90 528.50 L 376.10 534.50 L 377.00 531.20 L 378.40 521.00 L 380.00 505.80 L 381.40 487.40 L 382.50 467.80 L 382.90 448.80 L 382.80 439.90 L 382.40 432.40 L 381.60 425.30 L 380.60 420.30 L 383.20 429.20 L 385.60 443.70 L 386.60 453.70 L 387.60 474.90 L 387.70 496.50 L 387.20 516.60 L 385.50 549.00 L 397.20 431.00 L 396.50 568.60 L 398.10 574.00 L 408.60 522.80 L 413.80 492.30 L 416.30 474.00 L 416.90 466.50 L 417.20 459.70 L 417.00 455.10 L 417.40 456.80 L 417.70 461.50 L 417.70 467.10 L 416.30 492.80 L 412.80 535.20 L 407.50 588.50 L 409.50 589.80 L 432.60 471.70 L 419.60 604.70 L 423.00 608.60 L 448.00 487.70 L 432.00 629.10 L 434.70 632.90 L 464.70 514.00 L 443.30 648.60 L 445.70 651.90 L 479.90 537.20 L 452.20 668.50 L 453.80 674.10 L 491.10 557.40 L 461.90 694.30 L 464.00 701.20 L 505.20 581.30 L 469.90 720.50 L 471.70 726.50 L 522.10 592.90 L 478.60 748.80 L 479.80 752.80 L 547.40 639.40 L 492.80 764.00 L 587.00 699.90 L 490.40 793.60 L 575.80 750.40 L 498.20 823.70 Z" fill="#6fb6a8" fill-rule="nonzero" group-id="4" id="路径_20" node-id="35" stroke="none" target-height="497.6" target-width="585.3" target-x="1.7" target-y="350.6"></path><path d="M 101.70 461.30 L 131.40 458.10 L 149.20 456.60 L 176.20 455.20 L 191.40 455.30 L 203.50 456.70 L 220.80 459.90 L 241.50 465.00 L 252.80 468.30 L 264.20 472.10 L 283.70 479.80 L 298.90 487.20 L 306.30 491.40 L 313.40 495.90 L 320.20 500.70 L 331.90 509.50 L 342.00 517.70 L 351.60 525.90 L 360.00 533.70 L 367.90 541.70 L 375.20 549.80 L 382.00 558.20 L 388.60 567.10 L 394.90 576.30 L 401.40 586.60 L 422.80 622.20 L 433.70 643.10 L 439.20 654.80 L 445.00 668.40 L 450.60 682.80 L 456.60 699.60 L 462.40 717.60 L 512.90 890.60 L 521.10 892.90 L 496.60 805.30 L 476.90 738.50 L 469.30 714.30 L 461.00 689.30 L 452.10 665.60 L 447.50 654.60 L 443.20 645.20 L 432.80 625.60 L 420.00 603.70 L 413.00 592.50 L 398.00 570.20 L 390.30 559.80 L 382.50 549.80 L 374.90 541.10 L 369.70 535.50 L 360.10 526.70 L 338.20 509.20 L 326.80 500.60 L 314.60 492.20 L 306.20 486.90 L 297.30 481.80 L 287.90 477.00 L 278.20 472.60 L 267.90 468.60 L 256.80 464.90 L 245.10 461.60 L 233.30 458.90 L 221.30 456.60 L 209.30 454.90 L 197.20 453.70 L 185.10 453.00 L 172.90 452.90 L 160.70 453.30 L 150.30 454.20 L 124.70 457.60 L 101.70 461.30 Z" fill="#6fb6a8" fill-rule="nonzero" group-id="4,33" id="路径_19" node-id="36" stroke="none" target-height="440.00003" target-width="419.39996" target-x="101.7" target-y="452.9"></path><path d="M 576.10 297.90 L 574.20 299.00 L 568.40 305.20 L 553.10 324.40 L 529.90 355.70 L 510.40 382.80 L 513.90 457.00 L 495.70 401.20 L 441.10 495.70 L 475.00 562.80 L 425.60 525.90 L 409.90 576.50 L 398.20 618.10 L 393.80 636.70 L 392.10 644.90 L 391.10 651.40 L 390.70 658.50 L 390.90 660.50 L 391.80 663.20 L 393.30 666.20 L 395.60 669.50 L 399.60 674.20 L 404.60 679.10 L 409.90 683.70 L 421.10 692.30 L 437.40 703.10 L 387.20 687.60 L 368.70 772.40 L 437.40 844.00 L 521.50 875.80 L 642.50 663.20 L 646.70 640.30 L 650.30 616.00 L 651.10 607.00 L 651.00 603.80 L 650.70 602.70 L 611.30 618.00 L 642.70 579.30 L 652.50 566.30 L 652.90 564.50 L 653.00 559.80 L 652.10 546.50 L 650.00 528.60 L 647.00 508.40 L 643.50 487.90 L 639.60 469.40 L 637.60 461.20 L 634.40 451.10 L 632.20 447.00 L 625.90 456.40 L 610.90 480.40 L 618.90 412.30 L 610.10 399.30 L 601.40 384.70 L 596.80 376.00 L 592.00 366.20 L 586.30 352.20 L 581.30 337.20 L 577.80 321.70 L 576.70 313.70 L 576.10 305.80 L 576.10 297.90 Z" fill="#51a39f" fill-rule="nonzero" group-id="5,34" id="路径_176" node-id="38" stroke="none" target-height="577.9" target-width="284.3" target-x="368.7" target-y="297.9"></path><path d="M 504.00 803.80 L 508.10 761.60 L 514.60 706.60 L 518.70 678.10 L 523.20 652.30 L 526.00 640.00 L 530.00 625.10 L 545.10 572.70 L 554.10 538.10 L 560.50 507.90 L 563.20 492.30 L 565.60 476.20 L 567.50 459.50 L 568.60 446.90 L 569.70 421.00 L 569.70 407.70 L 569.30 394.40 L 568.40 380.90 L 567.00 367.10 L 565.10 353.20 L 566.70 358.10 L 568.30 366.00 L 570.80 385.60 L 572.30 410.20 L 572.60 423.70 L 572.20 452.60 L 571.40 467.40 L 570.20 482.00 L 568.40 496.30 L 567.00 505.70 L 563.40 523.00 L 543.90 596.50 L 538.40 618.60 L 532.80 642.60 L 525.90 675.70 L 519.90 710.60 L 517.40 728.50 L 515.30 746.80 L 513.70 765.10 L 512.60 783.60 L 511.90 804.80 L 511.00 807.20 L 510.40 807.90 L 509.00 808.20 L 506.70 806.90 L 504.00 803.80 Z" fill="#155b5b" fill-rule="nonzero" group-id="5,35" id="路径_177" node-id="39" stroke="none" target-height="455" target-width="68.599976" target-x="504" target-y="353.2"></path><path d="M 87.40 690.70 L 90.20 691.00 L 108.70 690.90 L 116.70 691.10 L 125.80 691.90 L 138.20 694.20 L 144.80 696.00 L 151.20 698.30 L 157.60 701.30 L 164.00 704.90 L 168.50 707.90 L 173.00 711.50 L 177.40 715.60 L 181.70 720.20 L 185.50 725.00 L 189.20 730.50 L 192.70 736.70 L 196.10 743.70 L 198.90 743.80 L 203.50 744.40 L 214.20 746.70 L 226.10 749.90 L 248.50 756.70 L 210.10 761.00 L 291.80 851.00 L 392.20 852.70 L 348.50 861.00 L 357.30 880.20 L 492.20 888.10 L 496.10 861.00 L 376.90 694.20 L 356.40 673.30 L 336.60 655.10 L 322.50 643.50 L 315.70 638.70 L 311.10 635.70 L 303.10 631.30 L 302.40 639.40 L 302.40 649.30 L 303.10 668.90 L 280.40 623.00 L 268.00 619.90 L 254.90 617.20 L 239.10 614.80 L 230.80 614.00 L 222.30 613.50 L 213.90 613.50 L 206.00 614.10 L 200.80 614.90 L 196.10 616.00 L 191.80 617.40 L 196.30 626.60 L 205.70 644.40 L 177.20 629.10 L 169.80 625.40 L 166.50 624.10 L 157.50 628.60 L 144.20 636.40 L 136.00 641.70 L 127.70 647.70 L 118.90 654.70 L 107.50 665.20 L 102.00 671.10 L 96.80 677.30 L 91.90 683.80 L 87.40 690.70 Z" fill="#145156" fill-rule="nonzero" group-id="6,36" id="路径_178" node-id="41" stroke="none" target-height="274.59998" target-width="408.7" target-x="87.4" target-y="613.5"></path><path d="M 374.50 837.40 L 364.70 819.30 L 359.50 810.60 L 345.40 788.70 L 330.40 767.90 L 316.40 750.60 L 300.80 733.40 L 292.30 725.00 L 283.50 716.80 L 274.20 709.00 L 264.60 701.50 L 257.20 696.30 L 241.70 686.70 L 233.60 682.40 L 225.40 678.50 L 217.00 675.10 L 208.40 672.10 L 199.60 669.60 L 190.70 667.70 L 181.60 666.30 L 172.30 665.60 L 162.70 665.40 L 155.20 665.70 L 147.50 666.50 L 139.60 667.70 L 131.50 669.50 L 123.30 671.70 L 131.90 669.20 L 140.40 667.10 L 148.60 665.60 L 156.60 664.60 L 164.40 664.00 L 174.30 663.90 L 183.90 664.40 L 193.30 665.50 L 202.40 667.20 L 211.40 669.40 L 220.20 672.20 L 228.80 675.40 L 237.10 679.10 L 245.30 683.20 L 253.20 687.70 L 260.90 692.50 L 268.40 697.60 L 278.10 704.90 L 287.40 712.60 L 296.10 720.60 L 304.60 729.00 L 312.60 737.40 L 320.10 746.00 L 333.90 763.20 L 348.70 783.90 L 362.40 805.80 L 367.40 814.60 L 376.80 832.70 Z" fill="#28696d" fill-rule="nonzero" group-id="6,37" id="路径_179" node-id="42" stroke="none" target-height="173.5" target-width="253.49998" target-x="123.3" target-y="663.9"></path><path d="M 828.30 621.20 L 786.60 626.30 L 760.80 630.20 L 733.10 635.10 L 706.20 641.10 L 693.50 644.50 L 682.40 648.00 L 675.20 650.60 L 664.30 655.80 L 659.90 667.70 L 651.20 695.00 L 646.10 659.80 L 633.60 664.50 L 613.00 673.40 L 596.70 681.50 L 588.40 686.10 L 580.30 691.10 L 572.60 696.30 L 567.70 700.00 L 559.20 707.50 L 560.40 718.00 L 562.60 746.10 L 547.30 720.50 L 533.20 739.30 L 521.20 757.20 L 513.90 769.70 L 511.00 775.60 L 509.90 778.60 L 509.30 782.20 L 509.00 786.50 L 509.80 795.40 L 510.70 800.60 L 512.50 808.30 L 517.60 824.80 L 520.60 832.90 L 526.80 848.10 L 532.40 860.80 L 538.20 872.70 L 608.40 859.70 L 625.40 856.20 L 638.00 853.20 L 642.40 851.80 L 643.80 851.10 L 644.40 850.20 L 644.60 848.90 L 644.30 847.20 L 643.30 844.40 L 639.60 838.00 L 631.90 827.80 L 664.30 842.00 L 684.00 831.70 L 700.50 821.90 L 710.10 815.10 L 713.80 812.00 L 715.90 809.80 L 718.20 806.30 L 710.50 803.00 L 688.70 792.60 L 739.80 789.20 L 754.30 769.30 L 770.50 745.20 L 777.10 734.00 L 781.20 725.10 L 758.50 725.10 L 768.60 717.10 L 778.50 708.10 L 783.70 702.70 L 789.00 696.70 L 795.50 688.10 L 800.80 678.90 L 802.90 674.20 L 807.20 660.80 L 810.40 652.40 L 814.10 644.20 L 818.30 636.20 L 823.10 628.60 L 828.30 621.20 Z" fill="#dceee2" fill-rule="nonzero" group-id="7,38" id="路径_180" node-id="44" stroke="none" target-height="251.5" target-width="319.3" target-x="509" target-y="621.2"></path><path d="M 543.80 839.80 L 567.40 816.60 L 582.00 803.10 L 597.70 789.70 L 613.00 778.00 L 619.80 773.60 L 629.40 768.10 L 665.40 748.40 L 694.50 731.40 L 710.00 721.60 L 720.30 714.70 L 741.00 699.40 L 751.10 691.10 L 761.00 682.40 L 770.70 673.20 L 784.50 658.50 L 797.40 642.60 L 789.20 654.50 L 781.30 665.00 L 773.70 674.30 L 765.70 683.30 L 758.00 691.30 L 750.50 698.50 L 742.70 705.30 L 727.60 717.10 L 716.00 724.90 L 704.60 732.00 L 693.00 738.60 L 657.20 758.40 L 645.00 765.50 L 632.20 773.60 L 623.80 779.30 L 605.90 792.80 L 579.20 814.80 L 569.00 823.70 L 555.40 836.20 L 551.40 840.10 L 545.40 846.80 Z" fill="#09484d" fill-rule="nonzero" group-id="7,39" id="路径_181" node-id="45" stroke="none" target-height="204.20001" target-width="253.60004" target-x="543.8" target-y="642.6"></path><path d="M 194.40 894.20 L 194.40 908.60 L 549.00 908.60 L 549.20 889.50 L 548.10 868.90 L 546.90 857.00 L 544.90 843.80 L 541.00 825.80 L 538.50 816.40 L 535.50 807.20 L 532.00 798.10 L 527.90 789.00 L 520.80 775.90 L 516.70 769.70 L 512.30 763.60 L 511.60 770.20 L 505.90 802.80 L 486.10 903.40 L 488.70 734.80 L 469.40 723.00 L 454.20 714.90 L 445.80 711.00 L 437.30 707.50 L 428.90 704.70 L 436.10 762.80 L 452.90 885.50 L 390.00 695.50 L 375.80 694.00 L 364.80 693.80 L 353.00 694.80 L 347.20 695.90 L 340.00 698.30 L 336.70 699.90 L 336.70 700.40 L 340.50 719.20 L 350.60 765.20 L 377.80 885.50 L 301.80 707.30 L 288.10 714.20 L 281.70 717.80 L 266.90 727.50 L 254.00 737.50 L 244.60 746.60 L 342.40 879.40 L 228.90 768.40 L 220.20 781.00 L 216.50 787.20 L 212.40 794.60 L 208.50 802.60 L 204.70 811.30 L 202.60 817.30 L 199.20 829.70 L 198.20 836.00 L 197.80 842.20 L 197.90 848.40 L 203.50 850.50 L 233.80 860.40 L 328.90 890.30 Z" fill="#5aa07b" fill-rule="nonzero" group-id="8" id="路径_182" node-id="46" stroke="none" target-height="214.79999" target-width="354.80002" target-x="194.4" target-y="693.8"></path></g></svg>