<?xml version="1.0" standalone="no"?><!DOCTYPE svg PUBLIC "-//W3C//DTD SVG 1.1//EN" "http://www.w3.org/Graphics/SVG/1.1/DTD/svg11.dtd"><svg height="1024" node-id="1" sillyvg="true" template-height="1024" template-width="1024" version="1.1" viewBox="0 0 1024 1024" width="1024" xmlns="http://www.w3.org/2000/svg" xmlns:xlink="http://www.w3.org/1999/xlink"><defs node-id="40"></defs><path d="M 1024.00 602.13 L 2048.00 602.13 L 2048.00 1626.13 L 1024.00 1626.13 Z" fill="#ffffff" fill-rule="nonzero" node-id="42" stroke="none" target-height="1024" target-width="1024" target-x="1024" target-y="602.1277"></path><path d="M 717.80 251.00 L 720.00 249.60 L 722.00 248.90 L 724.00 248.70 L 725.90 249.00 L 727.60 249.70 L 729.20 250.80 L 731.60 253.70 L 732.70 257.30 L 732.70 259.10 L 732.20 261.00 L 731.30 262.60 L 729.80 264.20 L 727.60 265.70 L 717.50 275.20 L 708.30 268.90 L 707.40 264.00 L 711.40 256.60 L 717.80 251.00 Z" fill="#293d33" fill-rule="nonzero" node-id="44" stroke="none" target-height="26.500015" target-width="25.299988" target-x="707.4" target-y="248.7"></path><path d="M 475.60 705.60 L 478.10 704.70 L 480.20 704.50 L 482.20 704.90 L 484.00 705.80 L 485.60 707.20 L 487.10 709.10 L 489.20 713.50 L 490.30 718.70 L 490.20 723.90 L 489.70 726.40 L 488.90 728.60 L 487.70 730.50 L 486.20 732.10 L 484.30 733.20 L 481.90 733.90 L 479.60 732.50 L 477.70 730.70 L 476.00 728.60 L 473.80 723.80 L 472.80 718.40 L 473.00 712.90 L 473.60 710.20 L 475.60 705.60 Z" fill="#32481e" fill-rule="nonzero" node-id="46" stroke="none" target-height="29.400024" target-width="17.5" target-x="472.8" target-y="704.5"></path><path d="M 558.30 773.20 L 560.50 772.10 L 562.50 771.70 L 564.30 771.80 L 566.00 772.40 L 567.50 773.40 L 570.10 776.60 L 571.60 780.60 L 572.10 785.00 L 571.20 789.10 L 570.30 790.90 L 568.90 792.40 L 566.70 793.40 L 564.80 793.70 L 563.00 793.50 L 561.30 792.80 L 559.80 791.80 L 557.30 788.60 L 555.70 784.60 L 555.30 780.40 L 556.10 776.40 L 557.00 774.70 L 558.30 773.20 Z" fill="#32481e" fill-rule="nonzero" node-id="48" stroke="none" target-height="22" target-width="16.799988" target-x="555.3" target-y="771.7"></path><path d="M 654.20 527.60 L 657.60 526.30 L 661.00 525.30 L 664.50 524.80 L 668.10 524.70 L 672.80 525.10 L 677.40 526.20 L 681.90 527.80 L 686.20 530.00 L 690.10 532.60 L 693.70 535.70 L 696.10 538.40 L 699.90 544.20 L 701.30 547.40 L 702.40 550.80 L 703.00 554.20 L 703.20 557.90 L 702.70 565.30 L 701.10 572.00 L 699.70 575.00 L 697.50 578.90 L 694.70 582.40 L 691.50 585.50 L 687.90 588.20 L 684.00 590.30 L 679.90 592.10 L 675.50 593.20 L 671.10 593.80 L 666.60 593.80 L 660.00 592.60 L 656.80 591.40 L 650.50 588.20 L 647.80 586.40 L 643.10 582.10 L 640.60 578.80 L 638.60 575.10 L 637.00 571.20 L 635.90 567.10 L 635.20 562.90 L 635.10 558.60 L 635.40 554.30 L 636.10 550.10 L 637.30 546.00 L 639.00 542.10 L 641.10 538.50 L 643.70 535.20 L 646.70 532.20 L 650.20 529.70 L 654.20 527.60 Z" fill="#fefdfd" fill-rule="nonzero" node-id="50" stroke="none" target-height="69.099976" target-width="68.10004" target-x="635.1" target-y="524.7"></path><path d="M 566.90 834.30 L 569.00 829.10 L 570.60 823.90 L 571.80 818.50 L 574.10 802.20 L 573.20 817.90 L 573.40 825.70 L 574.10 833.50 L 575.00 838.60 L 577.90 848.80 L 575.70 850.70 L 566.50 860.00 L 562.40 862.60 L 558.70 863.30 L 556.90 863.00 L 554.80 862.30 L 552.40 860.90 L 558.60 852.80 L 561.30 848.50 L 563.70 844.00 L 565.60 839.30 L 566.90 834.30 Z" fill="#49632b" fill-rule="nonzero" node-id="52" stroke="none" target-height="61.099976" target-width="25.5" target-x="552.4" target-y="802.2"></path><path d="M 660.00 241.10 L 660.30 223.50 L 660.90 219.00 L 662.00 214.90 L 663.10 212.40 L 664.60 210.20 L 666.40 208.30 L 668.60 206.80 L 671.30 205.70 L 677.80 204.40 L 680.60 204.30 L 685.90 205.10 L 689.20 206.30 L 692.30 207.80 L 695.40 209.90 L 699.70 213.30 L 711.80 224.80 L 722.00 220.90 L 732.90 218.00 L 736.60 217.40 L 743.80 217.20 L 747.30 217.60 L 750.70 218.50 L 753.90 219.90 L 756.90 221.70 L 759.70 224.20 L 764.20 229.70 L 765.50 232.00 L 766.40 234.30 L 766.80 236.60 L 766.90 239.70 L 766.40 242.90 L 765.40 246.00 L 764.00 249.10 L 760.20 254.90 L 756.80 258.90 L 753.30 262.30 L 757.10 265.70 L 760.80 269.60 L 764.10 274.00 L 766.80 278.70 L 769.30 285.20 L 770.00 288.60 L 770.20 291.90 L 770.00 295.30 L 769.30 298.60 L 768.00 301.70 L 766.10 304.70 L 763.50 307.80 L 760.70 310.50 L 757.70 312.60 L 754.80 314.10 L 748.30 316.00 L 744.90 316.40 L 739.80 316.40 L 734.60 315.80 L 729.30 314.80 L 714.00 310.90 L 711.40 313.90 L 703.50 324.40 L 697.70 330.70 L 693.20 333.70 L 690.80 334.80 L 688.20 335.50 L 685.40 335.70 L 679.10 335.20 L 676.40 334.60 L 674.10 333.50 L 672.10 332.10 L 670.30 330.30 L 668.80 328.20 L 666.90 324.70 L 664.40 316.60 L 661.90 304.70 L 651.90 302.70 L 646.70 301.40 L 641.80 299.80 L 635.60 296.80 L 630.40 293.00 L 628.40 290.60 L 626.60 287.80 L 625.40 284.90 L 624.60 281.40 L 623.80 273.10 L 623.90 269.10 L 624.60 265.50 L 625.80 262.00 L 627.50 258.80 L 629.70 255.80 L 635.10 250.70 L 641.60 246.60 L 648.80 243.60 L 654.50 242.00 L 660.00 241.10 Z M 682.40 263.90 L 680.70 269.40 L 680.70 274.20 L 681.40 277.20 L 682.80 280.00 L 684.60 282.60 L 686.90 284.90 L 689.50 287.00 L 695.60 290.20 L 702.30 291.90 L 705.70 292.20 L 709.00 292.00 L 712.10 291.50 L 715.10 290.40 L 717.80 288.90 L 720.10 286.90 L 721.60 285.10 L 723.70 280.50 L 724.40 277.60 L 729.50 272.00 L 727.60 265.70 L 729.80 264.20 L 731.30 262.60 L 732.20 261.00 L 732.70 259.10 L 732.70 257.30 L 732.30 255.40 L 730.50 252.10 L 729.20 250.80 L 727.60 249.70 L 725.90 249.00 L 724.00 248.70 L 722.00 248.90 L 720.00 249.60 L 717.80 251.00 L 712.90 251.50 L 704.80 245.00 L 696.40 248.30 L 692.10 247.70 L 688.70 247.70 L 686.20 248.20 L 684.30 249.00 L 682.90 250.20 L 681.90 251.80 L 681.20 253.80 L 681.00 256.30 L 681.40 259.60 L 682.40 263.90 Z" fill="#f46246" fill-rule="nonzero" node-id="54" stroke="none" target-height="131.40001" target-width="146.40002" target-x="623.8" target-y="204.3"></path><path d="M 409.50 219.80 L 430.70 177.90 L 438.00 164.00 L 445.70 150.30 L 454.00 137.10 L 459.80 128.40 L 466.00 120.10 L 472.60 112.00 L 470.20 123.50 L 467.20 134.80 L 463.70 146.00 L 455.50 167.90 L 450.80 178.70 L 443.20 194.60 L 435.10 210.30 L 426.70 225.80 L 417.00 243.10 L 415.80 244.50 L 414.50 245.20 L 411.30 245.60 L 409.60 245.20 L 407.00 244.00 L 404.60 242.40 L 390.30 227.10 L 380.10 215.50 L 373.50 207.40 L 361.20 190.80 L 355.60 182.20 L 350.30 173.30 L 345.30 164.20 L 351.50 167.90 L 357.30 171.90 L 362.80 176.30 L 370.70 183.40 L 398.50 210.80 L 409.50 219.80 Z" fill="#a6b94e" fill-rule="nonzero" node-id="56" stroke="none" target-height="133.6" target-width="127.30002" target-x="345.3" target-y="112"></path><path d="M 426.10 341.00 L 437.00 338.20 L 448.00 336.00 L 459.00 334.40 L 470.20 333.50 L 481.40 333.10 L 492.60 333.40 L 503.70 334.20 L 514.90 335.60 L 525.90 337.50 L 536.90 340.10 L 547.60 343.10 L 558.30 346.70 L 568.70 350.90 L 578.90 355.60 L 588.80 360.80 L 598.40 366.50 L 607.80 372.70 L 616.70 379.40 L 625.30 386.60 L 633.50 394.20 L 641.30 402.20 L 648.60 410.30 L 655.60 418.80 L 662.30 427.50 L 670.60 439.50 L 678.50 451.80 L 685.90 464.50 L 692.80 477.50 L 699.20 490.70 L 705.30 504.10 L 716.30 531.30 L 724.10 553.40 L 726.60 562.00 L 728.70 570.80 L 730.40 579.70 L 731.40 588.60 L 732.00 597.50 L 731.90 604.30 L 731.40 610.90 L 730.60 617.50 L 729.30 624.00 L 727.50 630.40 L 725.20 636.60 L 722.40 642.80 L 719.00 648.90 L 701.70 644.30 L 694.00 642.80 L 682.40 641.10 L 635.50 636.20 L 624.00 634.40 L 608.90 631.00 L 601.40 628.80 L 594.20 626.10 L 587.10 622.80 L 572.20 614.20 L 564.60 609.20 L 557.40 603.80 L 550.50 598.10 L 543.80 592.00 L 531.30 579.10 L 525.40 572.20 L 517.90 562.70 L 510.80 553.00 L 504.10 542.90 L 497.60 532.60 L 485.80 511.70 L 479.00 498.20 L 466.70 470.60 L 461.00 456.60 L 454.00 437.70 L 447.50 418.70 L 441.50 399.40 L 436.00 380.00 L 430.80 360.60 L 426.10 341.00 Z M 541.40 391.80 L 538.70 393.40 L 534.30 397.40 L 532.50 399.70 L 530.50 403.10 L 529.10 406.70 L 528.20 410.60 L 527.80 414.50 L 528.00 418.40 L 528.80 422.30 L 531.00 427.80 L 532.70 430.30 L 537.00 435.30 L 539.70 437.50 L 542.60 439.30 L 545.80 440.70 L 549.20 441.60 L 552.60 442.10 L 556.20 442.20 L 559.60 441.80 L 563.00 441.10 L 566.20 439.80 L 569.20 438.20 L 571.90 436.10 L 574.20 433.70 L 576.10 430.80 L 579.00 424.60 L 580.50 419.20 L 580.70 416.40 L 580.50 412.70 L 579.80 409.00 L 578.50 405.50 L 576.70 402.10 L 574.60 399.00 L 572.10 396.10 L 569.20 393.50 L 566.10 391.40 L 562.90 389.70 L 559.40 388.50 L 555.80 387.90 L 552.20 387.80 L 549.50 388.20 L 544.10 390.20 L 541.40 391.80 Z M 654.20 527.60 L 650.20 529.70 L 646.70 532.20 L 643.70 535.20 L 641.10 538.50 L 639.00 542.10 L 637.30 546.00 L 636.10 550.10 L 635.40 554.30 L 635.10 558.60 L 635.20 562.90 L 635.90 567.10 L 637.00 571.20 L 638.60 575.10 L 640.60 578.80 L 643.10 582.10 L 645.30 584.40 L 650.50 588.20 L 656.80 591.40 L 660.00 592.60 L 666.60 593.80 L 671.10 593.80 L 675.50 593.20 L 679.90 592.10 L 684.00 590.30 L 687.90 588.20 L 691.50 585.50 L 694.70 582.40 L 697.50 578.90 L 699.70 575.00 L 702.10 568.70 L 702.70 565.30 L 703.20 557.90 L 703.00 554.20 L 702.40 550.80 L 701.30 547.40 L 698.10 541.20 L 693.70 535.70 L 690.10 532.60 L 686.20 530.00 L 681.90 527.80 L 677.40 526.20 L 672.80 525.10 L 668.10 524.70 L 664.50 524.80 L 661.00 525.30 L 657.60 526.30 L 654.20 527.60 Z" fill="#f36145" fill-rule="nonzero" node-id="58" stroke="none" target-height="315.80002" target-width="305.9" target-x="426.1" target-y="333.1"></path><path d="M 682.40 263.90 L 681.40 259.60 L 681.00 256.30 L 681.20 253.80 L 681.90 251.80 L 682.90 250.20 L 684.30 249.00 L 686.20 248.20 L 688.70 247.70 L 692.10 247.70 L 696.40 248.30 L 694.90 251.70 L 693.10 254.70 L 691.00 257.50 L 688.50 259.90 L 685.70 262.00 L 682.40 263.90 Z" fill="#a14f39" fill-rule="nonzero" node-id="60" stroke="none" target-height="16.199997" target-width="15.400024" target-x="681" target-y="247.7"></path><path d="M 696.40 248.30 L 704.80 245.00 L 712.90 251.50 L 711.40 256.60 L 705.70 266.40 L 708.30 268.90 L 717.50 275.20 L 724.40 277.60 L 722.80 283.00 L 720.10 286.90 L 717.80 288.90 L 715.10 290.40 L 712.10 291.50 L 709.00 292.00 L 705.70 292.20 L 698.90 291.20 L 692.50 288.70 L 689.50 287.00 L 686.90 284.90 L 684.60 282.60 L 682.80 280.00 L 681.40 277.20 L 680.70 274.20 L 680.70 269.40 L 681.30 266.70 L 682.40 263.90 L 685.70 262.00 L 688.50 259.90 L 691.00 257.50 L 693.10 254.70 L 694.90 251.70 L 696.40 248.30 Z" fill="#b29186" fill-rule="nonzero" node-id="62" stroke="none" target-height="47.200012" target-width="43.700012" target-x="680.7" target-y="245"></path><path d="M 712.90 251.50 L 717.80 251.00 L 711.40 256.60 L 712.90 251.50 Z" fill="#e0cdc2" fill-rule="nonzero" node-id="64" stroke="none" target-height="5.600006" target-width="6.3999634" target-x="711.4" target-y="251"></path><path d="M 705.70 266.40 L 707.40 264.00 L 708.30 268.90 L 705.70 266.40 Z" fill="#fae6cc" fill-rule="nonzero" node-id="66" stroke="none" target-height="4.899994" target-width="2.5999756" target-x="705.7" target-y="264"></path><path d="M 717.50 275.20 L 727.60 265.70 L 729.50 272.00 L 724.40 277.60 L 717.50 275.20 Z" fill="#e6c8c9" fill-rule="nonzero" node-id="68" stroke="none" target-height="11.899994" target-width="12" target-x="717.5" target-y="265.7"></path><path d="M 309.40 526.00 L 325.70 484.90 L 337.50 457.40 L 343.90 443.90 L 350.70 430.60 L 357.90 417.60 L 365.60 405.00 L 371.80 395.80 L 378.30 386.90 L 385.20 378.30 L 392.50 370.10 L 400.20 362.20 L 408.30 354.70 L 417.00 347.70 L 426.10 341.00 L 430.80 360.60 L 436.00 380.00 L 441.50 399.40 L 447.50 418.70 L 454.00 437.70 L 461.00 456.60 L 472.70 484.50 L 485.80 511.70 L 497.60 532.60 L 504.10 542.90 L 510.80 553.00 L 517.90 562.70 L 525.40 572.20 L 537.40 585.70 L 550.50 598.10 L 557.40 603.80 L 564.60 609.20 L 572.20 614.20 L 587.10 622.80 L 594.20 626.10 L 601.40 628.80 L 616.40 632.90 L 624.00 634.40 L 635.50 636.20 L 682.40 641.10 L 694.00 642.80 L 709.30 646.10 L 716.80 648.30 L 709.90 652.90 L 702.90 656.90 L 695.70 660.50 L 688.30 663.70 L 678.20 667.30 L 667.90 670.40 L 657.40 672.90 L 636.00 676.60 L 625.20 678.00 L 593.00 681.10 L 538.00 683.50 L 510.50 684.10 L 483.00 684.20 L 464.60 683.90 L 446.30 683.20 L 428.00 682.10 L 388.30 677.20 L 374.90 674.90 L 357.40 670.80 L 348.90 668.20 L 340.60 665.10 L 332.50 661.60 L 324.80 657.40 L 319.20 654.00 L 313.90 650.10 L 308.80 645.80 L 303.80 641.10 L 300.90 636.70 L 298.40 632.20 L 296.40 627.70 L 294.80 623.20 L 293.30 616.90 L 292.30 610.50 L 291.90 604.00 L 291.90 597.50 L 292.40 590.90 L 293.40 584.30 L 295.30 574.30 L 297.80 564.30 L 309.40 526.00 Z M 391.60 473.10 L 388.60 474.90 L 386.00 477.20 L 383.70 479.80 L 381.80 482.70 L 380.30 485.90 L 379.20 489.20 L 378.50 492.70 L 378.30 496.20 L 378.50 499.70 L 379.10 503.10 L 380.20 506.40 L 383.00 512.30 L 384.40 514.60 L 388.00 518.40 L 390.80 520.40 L 393.90 521.90 L 397.30 523.00 L 400.80 523.50 L 404.30 523.70 L 407.90 523.40 L 411.50 522.60 L 414.90 521.50 L 418.10 519.90 L 421.00 518.00 L 423.60 515.60 L 425.80 512.90 L 428.20 508.20 L 428.90 505.50 L 430.20 499.10 L 430.50 495.90 L 430.50 492.80 L 430.00 489.80 L 428.80 486.00 L 427.00 482.50 L 424.70 479.30 L 421.90 476.40 L 418.80 474.00 L 415.30 472.00 L 411.60 470.60 L 407.70 469.80 L 403.70 469.50 L 400.60 469.80 L 397.60 470.40 L 394.60 471.50 L 391.60 473.10 Z M 436.00 540.70 L 433.00 542.10 L 428.50 545.40 L 426.90 547.20 L 425.20 549.90 L 424.00 552.80 L 423.50 555.80 L 423.40 558.90 L 423.80 561.90 L 424.60 565.00 L 425.90 568.00 L 429.50 573.50 L 431.80 575.90 L 434.40 577.90 L 437.20 579.60 L 440.20 580.90 L 443.30 581.70 L 446.60 582.00 L 449.90 581.70 L 453.30 580.80 L 456.90 579.10 L 459.60 577.30 L 461.70 575.30 L 463.40 573.20 L 464.60 571.00 L 465.80 567.70 L 466.50 564.30 L 466.50 560.80 L 465.90 557.30 L 464.90 553.90 L 463.40 550.60 L 461.50 547.50 L 459.30 544.80 L 456.60 542.50 L 453.70 540.60 L 450.60 539.30 L 447.10 538.50 L 444.50 538.40 L 441.80 538.70 L 439.00 539.40 L 436.00 540.70 Z" fill="#e7462f" fill-rule="nonzero" node-id="70" stroke="none" target-height="343.2" target-width="424.9" target-x="291.9" target-y="341"></path><path d="M 541.40 391.80 L 544.10 390.20 L 546.80 389.00 L 549.50 388.20 L 552.20 387.80 L 555.80 387.90 L 559.40 388.50 L 562.90 389.70 L 566.10 391.40 L 569.20 393.50 L 572.10 396.10 L 574.60 399.00 L 576.70 402.10 L 578.50 405.50 L 579.80 409.00 L 580.50 412.70 L 580.70 416.40 L 580.50 419.20 L 579.00 424.60 L 576.10 430.80 L 574.20 433.70 L 571.90 436.10 L 569.20 438.20 L 566.20 439.80 L 563.00 441.10 L 559.60 441.80 L 556.20 442.20 L 552.60 442.10 L 549.20 441.60 L 545.80 440.70 L 542.60 439.30 L 539.70 437.50 L 537.00 435.30 L 532.70 430.30 L 531.00 427.80 L 528.80 422.30 L 528.00 418.40 L 527.80 414.50 L 528.20 410.60 L 529.10 406.70 L 530.50 403.10 L 532.50 399.70 L 534.30 397.40 L 538.70 393.40 L 541.40 391.80 Z" fill="#fafbfb" fill-rule="nonzero" node-id="72" stroke="none" target-height="54.400024" target-width="52.900024" target-x="527.8" target-y="387.8"></path><path d="M 391.60 473.10 L 394.60 471.50 L 397.60 470.40 L 400.60 469.80 L 403.70 469.50 L 407.70 469.80 L 411.60 470.60 L 415.30 472.00 L 418.80 474.00 L 421.90 476.40 L 424.70 479.30 L 427.00 482.50 L 428.80 486.00 L 430.00 489.80 L 430.50 492.80 L 430.50 495.90 L 430.20 499.10 L 428.90 505.50 L 428.20 508.20 L 425.80 512.90 L 423.60 515.60 L 421.00 518.00 L 418.10 519.90 L 414.90 521.50 L 411.50 522.60 L 407.90 523.40 L 404.30 523.70 L 400.80 523.50 L 397.30 523.00 L 393.90 521.90 L 390.80 520.40 L 388.00 518.40 L 384.40 514.60 L 383.00 512.30 L 380.20 506.40 L 379.10 503.10 L 378.50 499.70 L 378.30 496.20 L 378.50 492.70 L 379.20 489.20 L 380.30 485.90 L 381.80 482.70 L 383.70 479.80 L 386.00 477.20 L 388.60 474.90 L 391.60 473.10 Z" fill="#fbec95" fill-rule="nonzero" node-id="74" stroke="none" target-height="54.200012" target-width="52.200012" target-x="378.3" target-y="469.5"></path><path d="M 436.00 540.70 L 439.00 539.40 L 441.80 538.70 L 444.50 538.40 L 447.10 538.50 L 450.60 539.30 L 453.70 540.60 L 456.60 542.50 L 459.30 544.80 L 461.50 547.50 L 463.40 550.60 L 464.90 553.90 L 465.90 557.30 L 466.50 560.80 L 466.50 564.30 L 465.90 567.70 L 464.60 571.00 L 463.40 573.20 L 461.70 575.30 L 459.60 577.30 L 456.90 579.10 L 453.30 580.80 L 449.90 581.70 L 446.60 582.00 L 443.30 581.70 L 440.20 580.90 L 437.20 579.60 L 434.40 577.90 L 431.80 575.90 L 429.50 573.50 L 425.90 568.00 L 424.60 565.00 L 423.80 561.90 L 423.40 558.90 L 423.50 555.80 L 424.00 552.80 L 425.20 549.90 L 426.90 547.20 L 428.50 545.40 L 433.00 542.10 L 436.00 540.70 Z" fill="#fde2a8" fill-rule="nonzero" node-id="76" stroke="none" target-height="43.599976" target-width="43.100006" target-x="423.4" target-y="538.4"></path><path d="M 428.00 682.10 L 446.30 683.20 L 464.60 683.90 L 483.00 684.20 L 510.50 684.10 L 538.00 683.50 L 593.00 681.10 L 559.60 686.10 L 558.10 694.20 L 543.10 691.30 L 528.10 688.90 L 527.00 696.70 L 521.70 710.20 L 512.40 729.40 L 507.30 738.80 L 505.00 741.90 L 503.20 745.40 L 502.30 747.90 L 501.50 753.00 L 501.70 755.60 L 502.20 758.00 L 503.10 760.40 L 504.40 762.50 L 506.20 764.40 L 508.60 766.10 L 496.70 773.40 L 494.60 784.10 L 491.40 805.80 L 484.90 871.20 L 482.80 887.50 L 480.20 903.80 L 464.90 908.30 L 442.40 900.70 L 438.50 899.20 L 431.50 895.50 L 428.50 893.20 L 425.90 890.60 L 423.80 887.60 L 422.60 885.30 L 421.70 882.60 L 421.20 879.60 L 421.10 876.20 L 421.90 860.30 L 423.10 844.30 L 424.70 828.50 L 427.60 804.70 L 431.20 781.00 L 435.10 757.30 L 447.60 686.50 L 428.00 682.10 Z M 475.60 705.60 L 473.60 710.20 L 472.70 715.60 L 473.10 721.10 L 473.80 723.80 L 476.00 728.60 L 477.70 730.70 L 479.60 732.50 L 481.90 733.90 L 484.30 733.20 L 486.20 732.10 L 487.70 730.50 L 488.90 728.60 L 489.70 726.40 L 490.40 721.30 L 489.90 716.10 L 489.20 713.50 L 487.10 709.10 L 485.60 707.20 L 484.00 705.80 L 482.20 704.90 L 480.20 704.50 L 478.10 704.70 L 475.60 705.60 Z" fill="#d8ad7e" fill-rule="nonzero" node-id="78" stroke="none" target-height="227.20001" target-width="171.9" target-x="421.1" target-y="681.1"></path><path d="M 528.10 688.90 L 543.10 691.30 L 558.10 694.20 L 572.70 707.60 L 566.70 711.00 L 562.70 712.50 L 560.80 713.80 L 558.30 716.30 L 556.20 719.10 L 555.20 721.20 L 554.10 725.30 L 554.20 727.40 L 554.70 729.20 L 555.60 730.80 L 557.00 732.10 L 559.00 733.20 L 561.90 733.90 L 571.50 724.80 L 578.20 781.10 L 580.00 799.90 L 581.40 818.70 L 582.10 837.60 L 582.30 850.20 L 581.40 875.50 L 580.50 879.70 L 579.20 883.70 L 577.30 887.60 L 575.10 891.30 L 572.50 894.70 L 569.50 897.90 L 566.20 900.70 L 562.70 903.30 L 558.90 905.50 L 555.00 907.30 L 550.90 908.70 L 546.80 909.70 L 537.70 910.90 L 528.60 911.60 L 519.50 912.00 L 505.80 911.90 L 492.20 911.10 L 464.90 908.30 L 480.20 903.80 L 482.80 887.50 L 484.90 871.20 L 491.40 805.80 L 494.60 784.10 L 496.70 773.40 L 508.60 766.10 L 511.00 765.00 L 512.80 763.60 L 514.30 762.00 L 515.30 760.20 L 516.50 756.00 L 516.20 751.50 L 515.70 749.30 L 514.30 746.00 L 512.40 743.10 L 510.90 741.40 L 507.30 738.80 L 512.40 729.40 L 521.70 710.20 L 530.90 719.70 L 532.30 716.10 L 533.10 712.70 L 533.20 709.40 L 532.70 706.30 L 531.50 703.10 L 529.70 699.90 L 527.00 696.70 L 528.10 688.90 Z M 540.40 750.30 L 543.90 750.90 L 547.40 752.20 L 548.50 753.30 L 548.90 754.20 L 548.90 755.20 L 548.20 756.70 L 546.70 758.20 L 544.90 759.40 L 542.80 760.30 L 540.80 760.60 L 539.20 760.30 L 538.40 759.70 L 537.90 758.80 L 537.70 757.30 L 538.00 755.80 L 540.40 750.30 Z M 534.00 773.30 L 532.70 776.90 L 532.40 779.10 L 532.60 782.40 L 533.30 785.90 L 534.50 789.20 L 536.10 792.20 L 539.00 795.50 L 542.40 797.60 L 544.30 798.10 L 546.40 798.10 L 547.80 794.40 L 548.10 792.10 L 548.10 788.60 L 547.40 784.90 L 546.30 781.50 L 544.70 778.40 L 543.30 776.50 L 540.10 773.90 L 538.20 773.20 L 536.20 773.00 L 534.00 773.30 Z M 558.30 773.20 L 557.00 774.70 L 556.10 776.40 L 555.30 780.40 L 555.70 784.60 L 557.30 788.60 L 559.80 791.80 L 561.30 792.80 L 563.00 793.50 L 564.80 793.70 L 566.70 793.40 L 568.90 792.40 L 570.30 790.90 L 571.20 789.10 L 572.10 785.00 L 571.60 780.60 L 570.10 776.60 L 567.50 773.40 L 566.00 772.40 L 564.30 771.80 L 562.50 771.70 L 560.50 772.10 L 558.30 773.20 Z M 566.90 834.30 L 565.60 839.30 L 563.70 844.00 L 561.30 848.50 L 558.60 852.80 L 552.40 860.90 L 554.80 862.30 L 556.90 863.00 L 558.70 863.30 L 562.40 862.60 L 566.50 860.00 L 575.70 850.70 L 577.90 848.80 L 575.00 838.60 L 574.10 833.50 L 573.40 825.70 L 573.20 817.90 L 574.10 802.20 L 571.80 818.50 L 570.60 823.90 L 569.00 829.10 L 566.90 834.30 Z M 526.40 808.40 L 525.20 812.30 L 524.80 815.10 L 524.90 817.10 L 525.50 818.50 L 526.40 819.50 L 527.70 820.10 L 529.60 820.40 L 532.30 820.20 L 536.10 819.20 L 537.40 815.20 L 537.80 812.30 L 537.60 810.30 L 537.10 808.90 L 536.10 807.90 L 534.80 807.30 L 532.90 807.00 L 530.20 807.30 L 526.40 808.40 Z" fill="#eed39d" fill-rule="nonzero" node-id="80" stroke="none" target-height="223.09998" target-width="117.399994" target-x="464.9" target-y="688.9"></path><path d="M 527.00 696.70 L 529.70 699.90 L 531.50 703.10 L 532.70 706.30 L 533.20 709.40 L 533.10 712.70 L 532.30 716.10 L 530.90 719.70 L 521.70 710.20 L 527.00 696.70 Z" fill="#59513d" fill-rule="nonzero" node-id="82" stroke="none" target-height="23" target-width="11.5" target-x="521.7" target-y="696.7"></path><path d="M 561.90 733.90 L 559.00 733.20 L 557.00 732.10 L 555.60 730.80 L 554.70 729.20 L 554.20 727.40 L 554.10 725.30 L 555.20 721.20 L 556.20 719.10 L 558.30 716.30 L 560.80 713.80 L 562.70 712.50 L 566.70 711.00 L 571.50 724.80 L 561.90 733.90 Z" fill="#9f7b53" fill-rule="nonzero" node-id="84" stroke="none" target-height="22.900024" target-width="17.400024" target-x="554.1" target-y="711"></path><path d="M 244.10 749.80 L 244.10 747.00 L 245.20 742.60 L 246.20 740.80 L 248.00 738.70 L 250.30 737.00 L 252.90 735.60 L 258.90 734.20 L 265.50 734.10 L 271.90 735.30 L 277.70 737.70 L 285.00 742.30 L 289.60 745.70 L 293.70 749.40 L 301.20 757.60 L 309.20 769.00 L 326.80 797.80 L 331.60 804.50 L 335.10 808.80 L 343.00 816.60 L 347.30 820.00 L 352.20 823.00 L 357.50 825.80 L 359.30 800.90 L 360.20 794.80 L 361.60 788.90 L 363.00 785.10 L 364.80 781.40 L 367.10 777.80 L 368.90 776.10 L 372.90 773.90 L 375.10 773.30 L 378.10 772.90 L 381.10 773.10 L 384.00 773.90 L 386.90 775.10 L 389.50 776.70 L 391.90 778.70 L 393.90 781.00 L 395.50 783.70 L 396.60 786.60 L 399.10 794.80 L 401.00 803.00 L 402.40 811.20 L 403.30 819.60 L 403.80 828.00 L 403.80 836.40 L 402.80 853.30 L 399.90 874.40 L 397.60 886.70 L 350.20 882.60 L 354.50 881.10 L 373.50 875.60 L 380.90 872.40 L 386.00 869.00 L 388.20 867.00 L 390.10 864.60 L 391.80 861.80 L 391.10 855.50 L 388.80 843.20 L 386.30 834.10 L 383.50 825.10 L 377.40 807.30 L 378.10 825.40 L 379.30 843.40 L 380.90 861.50 L 366.00 851.50 L 351.50 841.20 L 349.40 836.60 L 346.90 832.70 L 344.20 829.50 L 341.10 826.60 L 337.80 824.20 L 334.20 822.10 L 326.40 818.80 L 322.20 817.50 L 295.90 811.30 L 289.50 809.30 L 283.50 806.70 L 279.70 804.70 L 276.10 802.20 L 267.40 794.40 L 262.20 789.10 L 257.30 783.40 L 252.90 777.40 L 250.30 773.10 L 248.10 768.70 L 246.30 764.20 L 245.00 759.60 L 244.30 754.80 L 244.10 749.80 Z M 268.50 762.10 L 273.50 768.80 L 278.90 775.20 L 284.60 781.30 L 290.60 787.10 L 299.10 794.30 L 308.00 801.00 L 317.30 807.20 L 313.30 799.70 L 305.60 787.20 L 298.30 778.20 L 294.20 774.20 L 289.80 770.60 L 285.10 767.50 L 281.30 765.60 L 277.30 764.10 L 273.10 762.90 L 268.50 762.10 Z" fill="#7b9636" fill-rule="nonzero" node-id="86" stroke="none" target-height="152.60004" target-width="159.69998" target-x="244.1" target-y="734.1"></path><path d="M 508.60 766.10 L 506.20 764.40 L 504.40 762.50 L 503.10 760.40 L 502.20 758.00 L 501.70 755.60 L 501.50 753.00 L 502.30 747.90 L 503.20 745.40 L 505.00 741.90 L 507.20 738.80 L 510.90 741.40 L 512.40 743.10 L 514.30 746.00 L 515.70 749.30 L 516.50 753.80 L 516.10 758.20 L 514.30 762.00 L 512.80 763.60 L 511.00 765.00 L 508.60 766.10 Z" fill="#90805a" fill-rule="nonzero" node-id="88" stroke="none" target-height="27.299988" target-width="15" target-x="501.5" target-y="738.8"></path><path d="M 540.40 750.30 L 543.90 750.90 L 547.40 752.20 L 548.50 753.30 L 548.90 754.20 L 548.90 755.20 L 548.20 756.70 L 546.70 758.20 L 544.90 759.40 L 542.80 760.30 L 540.80 760.60 L 539.20 760.30 L 538.40 759.70 L 537.90 758.80 L 537.70 757.30 L 538.00 755.80 L 540.40 750.30 Z" fill="#806a31" fill-rule="nonzero" node-id="90" stroke="none" target-height="10.299988" target-width="11.200012" target-x="537.7" target-y="750.3"></path><path d="M 268.50 762.10 L 273.10 762.90 L 277.30 764.10 L 281.30 765.60 L 285.10 767.50 L 289.80 770.60 L 294.20 774.20 L 298.30 778.20 L 305.60 787.20 L 313.30 799.70 L 317.30 807.20 L 308.00 801.00 L 299.10 794.30 L 290.60 787.10 L 284.60 781.30 L 278.90 775.20 L 273.50 768.80 L 268.50 762.10 Z" fill="#566b22" fill-rule="nonzero" node-id="92" stroke="none" target-height="45.100037" target-width="48.799988" target-x="268.5" target-y="762.1"></path><path d="M 662.00 766.00 L 665.10 765.50 L 670.00 765.60 L 671.90 766.10 L 674.30 767.40 L 676.30 769.10 L 677.80 771.20 L 679.90 776.50 L 680.50 779.70 L 681.00 784.60 L 680.60 795.10 L 678.60 808.80 L 665.80 827.90 L 662.60 823.30 L 659.70 818.50 L 657.20 813.40 L 655.20 808.10 L 653.70 802.70 L 652.80 797.10 L 652.50 793.00 L 653.00 784.80 L 653.90 780.80 L 655.20 776.90 L 656.90 773.20 L 659.20 769.60 L 662.00 766.00 Z" fill="#b1c046" fill-rule="nonzero" node-id="94" stroke="none" target-height="62.400024" target-width="28.5" target-x="652.5" target-y="765.5"></path><path d="M 534.00 773.30 L 536.20 773.00 L 538.20 773.20 L 540.10 773.90 L 543.30 776.50 L 544.70 778.40 L 546.30 781.50 L 547.40 784.90 L 548.10 788.60 L 548.10 792.10 L 547.20 796.40 L 546.40 798.10 L 544.30 798.10 L 542.40 797.60 L 539.00 795.50 L 536.10 792.20 L 534.50 789.20 L 533.30 785.90 L 532.60 782.40 L 532.40 779.10 L 532.70 776.90 L 534.00 773.30 Z" fill="#918a69" fill-rule="nonzero" node-id="96" stroke="none" target-height="25.099976" target-width="15.699951" target-x="532.4" target-y="773"></path><path d="M 715.70 801.60 L 719.30 796.40 L 723.50 791.70 L 728.20 787.30 L 735.90 781.80 L 744.20 777.60 L 748.60 776.00 L 753.10 774.90 L 757.70 774.10 L 762.30 773.90 L 766.90 774.10 L 771.50 774.80 L 776.10 776.10 L 780.80 777.90 L 779.60 781.40 L 776.60 787.20 L 774.80 789.40 L 772.00 792.20 L 768.90 794.50 L 765.40 796.30 L 761.80 797.70 L 753.70 799.70 L 747.40 800.50 L 740.80 800.90 L 715.70 801.60 Z" fill="#93b24b" fill-rule="nonzero" node-id="98" stroke="none" target-height="27.699951" target-width="65.099976" target-x="715.7" target-y="773.9"></path><path d="M 380.90 861.50 L 379.30 843.40 L 378.10 825.40 L 377.40 807.30 L 383.50 825.10 L 386.30 834.10 L 388.80 843.20 L 391.10 855.50 L 391.80 861.80 L 390.10 864.60 L 388.20 867.00 L 386.00 869.00 L 380.90 872.40 L 378.00 873.80 L 368.70 877.10 L 354.50 881.10 L 350.20 882.60 L 329.20 882.50 L 339.40 832.90 L 366.00 851.50 L 380.90 861.50 Z" fill="#48672b" fill-rule="nonzero" node-id="102" stroke="none" target-height="75.29999" target-width="62.599976" target-x="329.2" target-y="807.3"></path><path d="M 526.40 808.40 L 530.20 807.30 L 532.90 807.00 L 534.80 807.30 L 536.10 807.90 L 537.10 808.90 L 537.60 810.30 L 537.80 812.30 L 537.40 815.20 L 536.10 819.20 L 532.30 820.20 L 529.60 820.40 L 527.70 820.10 L 526.40 819.50 L 525.50 818.50 L 524.90 817.10 L 524.80 815.10 L 525.20 812.30 L 526.40 808.40 Z" fill="#b4a77d" fill-rule="nonzero" node-id="104" stroke="none" target-height="13.400024" target-width="13" target-x="524.8" target-y="807"></path><path d="M 665.80 827.90 L 678.60 808.80 L 690.70 821.40 L 734.60 826.10 L 723.70 826.70 L 701.90 828.60 L 669.40 833.20 L 689.00 844.20 L 682.10 844.40 L 670.90 845.80 L 662.40 848.10 L 658.40 849.70 L 654.60 851.80 L 651.00 854.20 L 647.80 857.10 L 644.90 860.60 L 642.20 864.70 L 659.50 869.00 L 650.80 872.00 L 642.20 875.40 L 633.80 879.10 L 625.60 883.20 L 615.10 891.60 L 605.20 900.50 L 614.80 879.50 L 617.60 872.40 L 622.00 855.40 L 625.30 838.20 L 631.60 862.70 L 641.00 854.80 L 649.90 846.40 L 655.60 840.60 L 660.90 834.40 L 665.80 827.90 Z" fill="#d4d9a7" fill-rule="nonzero" node-id="106" stroke="none" target-height="91.70001" target-width="129.39996" target-x="605.2" target-y="808.8"></path><path d="M 595.90 819.00 L 598.10 815.70 L 600.10 813.60 L 601.90 812.40 L 603.90 811.70 L 605.80 811.60 L 607.70 812.20 L 611.30 814.60 L 613.20 816.60 L 615.70 819.80 L 620.30 827.60 L 625.30 838.20 L 622.00 855.40 L 620.00 863.90 L 617.60 872.40 L 609.90 865.60 L 606.40 861.70 L 603.10 857.60 L 600.40 853.40 L 598.00 848.90 L 596.10 844.20 L 594.80 839.40 L 594.00 834.50 L 593.90 830.80 L 594.10 827.00 L 594.80 823.10 L 595.90 819.00 Z" fill="#a8c04c" fill-rule="nonzero" node-id="108" stroke="none" target-height="60.80005" target-width="31.399963" target-x="593.9" target-y="811.6"></path><path d="M 669.40 833.20 L 701.90 828.60 L 723.70 826.70 L 734.60 826.10 L 749.10 839.90 L 739.30 842.30 L 722.60 845.40 L 709.10 846.50 L 702.40 846.30 L 695.70 845.50 L 689.00 844.20 L 669.40 833.20 Z" fill="#a2b951" fill-rule="nonzero" node-id="110" stroke="none" target-height="20.400024" target-width="79.69995" target-x="669.4" target-y="826.1"></path><path d="M 291.20 845.80 L 293.60 842.90 L 296.10 840.50 L 298.90 838.60 L 305.00 835.80 L 308.20 834.90 L 313.30 834.00 L 318.60 833.60 L 339.40 832.90 L 329.20 882.50 L 315.10 877.60 L 305.20 873.40 L 300.70 870.90 L 295.40 866.90 L 293.40 864.70 L 291.70 862.20 L 290.40 859.50 L 289.70 856.50 L 289.50 853.40 L 290.00 849.90 L 291.20 845.80 Z" fill="#738734" fill-rule="nonzero" node-id="112" stroke="none" target-height="49.599976" target-width="49.899994" target-x="289.5" target-y="832.9"></path><path d="M 659.50 869.00 L 664.80 868.60 L 670.10 868.70 L 675.30 869.10 L 683.10 870.40 L 690.80 872.30 L 705.90 877.30 L 703.50 880.90 L 701.00 883.90 L 698.40 886.50 L 695.70 888.60 L 689.60 891.80 L 683.00 893.60 L 678.50 894.20 L 673.80 894.30 L 668.90 894.00 L 661.50 892.90 L 654.00 891.30 L 625.60 883.20 L 633.80 879.10 L 642.20 875.40 L 650.80 872.00 L 659.50 869.00 Z" fill="#8aa935" fill-rule="nonzero" node-id="114" stroke="none" target-height="25.700012" target-width="80.30005" target-x="625.6" target-y="868.6"></path></svg>